<svg width="134" height="90" viewBox="0 0 134 90" fill="none" xmlns="http://www.w3.org/2000/svg">
<g id="&#196;&#144;ang giao h&#195;&#160;ng">
<g id="&#196;&#144;ang giao h&#195;&#160;ng_2" opacity="0.3">
<path id="Vector" d="M29.0944 71.9449H21.3398V63.2109" stroke="#0A66C2" stroke-width="5.52344" stroke-linecap="round" stroke-linejoin="round"/>
<path id="Vector_2" d="M21.3398 22.9174V7H86.3151V71.9752H63.5411" stroke="#0A66C2" stroke-width="5.52344" stroke-linecap="round" stroke-linejoin="round"/>
<path id="Vector_3" d="M86.2852 18.0977H109.821L128.677 33.7973V71.9716H125.439" stroke="#0A66C2" stroke-width="5.52344" stroke-linecap="round" stroke-linejoin="round"/>
<path id="Vector_4" d="M84.4375 71.9727H91.4846" stroke="#0A66C2" stroke-width="5.52344" stroke-linecap="round" stroke-linejoin="round"/>
<path id="Vector_5" d="M97.0898 31.3516V50.5611H115.81V37.3104L108.817 31.3788H97.0898V31.3516Z" stroke="#0A66C2" stroke-width="5.52344" stroke-linecap="round" stroke-linejoin="round"/>
<path id="Vector_6" d="M51.6781 31.3281H17.4492" stroke="#0A66C2" stroke-width="5.52344" stroke-linecap="round" stroke-linejoin="round"/>
<path id="Vector_7" d="M44.4401 43.6484H10.2383" stroke="#0A66C2" stroke-width="5.52344" stroke-linecap="round" stroke-linejoin="round"/>
<path id="Vector_8" d="M37.2018 56.0078H3" stroke="#0A66C2" stroke-width="5.52344" stroke-linecap="round" stroke-linejoin="round"/>
<path id="Vector_9" d="M46.0169 87.1037C51.3499 87.1037 55.6488 82.7776 55.6488 77.4718C55.6488 72.166 51.3226 67.8398 46.0169 67.8398C40.7111 67.8398 36.3848 72.166 36.3848 77.4718C36.3848 82.7776 40.7111 87.1037 46.0169 87.1037Z" stroke="#0A66C2" stroke-width="5.52344" stroke-linecap="round" stroke-linejoin="round"/>
<path id="Vector_10" d="M108.3 87.1037C113.633 87.1037 117.932 82.7776 117.932 77.4718C117.932 72.166 113.606 67.8398 108.3 67.8398C102.994 67.8398 98.668 72.166 98.668 77.4718C98.668 82.7776 102.994 87.1037 108.3 87.1037Z" stroke="#0A66C2" stroke-width="5.52344" stroke-linecap="round" stroke-linejoin="round"/>
</g>
<g id="&#196;&#144;ang giao h&#195;&#160;ng_3">
<path id="Vector_11" d="M30.7721 67.9449H23.0176V59.2109" stroke="#0A66C2" stroke-width="5.52344" stroke-linecap="round" stroke-linejoin="round"/>
<path id="Vector_12" d="M23.0176 18.9174V3H87.9928V67.9752H65.2189" stroke="#0A66C2" stroke-width="5.52344" stroke-linecap="round" stroke-linejoin="round"/>
<path id="Vector_13" d="M87.9629 14.0977H111.499L130.355 29.7973V67.9716H127.117" stroke="#0A66C2" stroke-width="5.52344" stroke-linecap="round" stroke-linejoin="round"/>
<path id="Vector_14" d="M86.1152 67.9727H93.1623" stroke="#0A66C2" stroke-width="5.52344" stroke-linecap="round" stroke-linejoin="round"/>
<path id="Vector_15" d="M98.7676 27.3516V46.5611H117.487V33.3104L110.495 27.3788H98.7676V27.3516Z" stroke="#0A66C2" stroke-width="5.52344" stroke-linecap="round" stroke-linejoin="round"/>
<path id="Vector_16" d="M53.3558 27.3281H19.127" stroke="#4D4D4F" stroke-width="5.52344" stroke-linecap="round" stroke-linejoin="round"/>
<path id="Vector_17" d="M46.1178 39.6484H11.916" stroke="#4D4D4F" stroke-width="5.52344" stroke-linecap="round" stroke-linejoin="round"/>
<path id="Vector_18" d="M38.8795 52.0078H4.67773" stroke="#4D4D4F" stroke-width="5.52344" stroke-linecap="round" stroke-linejoin="round"/>
<path id="Vector_19" d="M47.6946 83.1037C53.0276 83.1037 57.3266 78.7776 57.3266 73.4718C57.3266 68.166 53.0004 63.8398 47.6946 63.8398C42.3888 63.8398 38.0625 68.166 38.0625 73.4718C38.0625 78.7776 42.3888 83.1037 47.6946 83.1037Z" stroke="#4D4D4F" stroke-width="5.52344" stroke-linecap="round" stroke-linejoin="round"/>
<path id="Vector_20" d="M109.978 83.1037C115.311 83.1037 119.61 78.7776 119.61 73.4718C119.61 68.166 115.283 63.8398 109.978 63.8398C104.672 63.8398 100.346 68.166 100.346 73.4718C100.346 78.7776 104.672 83.1037 109.978 83.1037Z" stroke="#4D4D4F" stroke-width="5.52344" stroke-linecap="round" stroke-linejoin="round"/>
</g>
</g>
</svg>
