<svg width="87" height="107" viewBox="0 0 87 107" fill="none" xmlns="http://www.w3.org/2000/svg">
<g opacity="0.3">
<path d="M5.77521 19.4901C3.97941 21.3131 3 23.762 3 26.3196V93.7709C3 95.0497 3.24477 96.3013 3.73453 97.4713C4.22429 98.6413 4.93178 99.7024 5.82968 100.6C6.72758 101.498 7.7888 102.206 8.95879 102.695C10.1288 103.185 11.3804 103.43 12.6592 103.43H70.4784C71.7572 103.43 73.0088 103.185 74.1788 102.695C75.3488 102.206 76.41 101.498 77.3079 100.6C78.2058 99.7024 78.9133 98.6413 79.4031 97.4713C79.8928 96.3013 80.1376 95.0497 80.1376 93.7709V26.3196C80.1376 23.762 79.1582 21.3131 77.3624 19.4901C76.4645 18.5922 75.4033 17.8848 74.2333 17.4223C73.0633 16.9597 71.8117 16.7148 70.5329 16.7148H60.9008" stroke="#0A66C2" stroke-width="5.52344" stroke-linecap="round" stroke-linejoin="round"/>
<path d="M60.7662 16.6864V11.7888C60.7662 11.163 60.6302 10.5372 60.4125 9.93858C60.1676 9.36719 59.8139 8.82299 59.3785 8.38765C58.9432 7.9523 58.399 7.59861 57.8276 7.35373C57.2562 7.10885 56.6304 7 55.9774 7H27.0542C25.7753 7 24.5509 7.51698 23.653 8.41488C22.7551 9.31278 22.2383 10.5372 22.2383 11.816V21.448C22.2383 22.7268 22.7551 23.9512 23.653 24.8491C24.5509 25.747 25.7753 26.264 27.0542 26.264H55.9774C57.2562 26.264 58.4806 25.747 59.3785 24.8491C60.2764 23.9512 60.7935 22.7268 60.7935 21.448V16.6864H60.7662Z" stroke="#0A66C2" stroke-width="5.52344" stroke-linecap="round" stroke-linejoin="round"/>
<path d="M17.4492 37.9609H66.6703" stroke="#0A66C2" stroke-width="5.52344" stroke-linecap="round"/>
<path d="M17.4492 51.0781H66.6703" stroke="#0A66C2" stroke-width="5.52344" stroke-linecap="round"/>
<path d="M17.4492 64.2227H66.6703" stroke="#0A66C2" stroke-width="5.52344" stroke-linecap="round"/>
<path d="M17.4492 77.3398H66.6703" stroke="#0A66C2" stroke-width="5.52344" stroke-linecap="round"/>
<path d="M17.4492 90.4766H66.6703" stroke="#0A66C2" stroke-width="5.52344" stroke-linecap="round"/>
</g>
<path d="M9.77521 15.4901C7.97941 17.3131 7 19.762 7 22.3196V89.7709C7 91.0497 7.24477 92.3013 7.73453 93.4713C8.22429 94.6413 8.93178 95.7024 9.82968 96.6003C10.7276 97.4982 11.7888 98.2057 12.9588 98.6954C14.1288 99.1852 15.3804 99.4301 16.6592 99.4301H74.4784C75.7572 99.4301 77.0088 99.1852 78.1788 98.6954C79.3488 98.2057 80.41 97.4982 81.3079 96.6003C82.2058 95.7024 82.9133 94.6413 83.4031 93.4713C83.8928 92.3013 84.1376 91.0497 84.1376 89.7709V22.3196C84.1376 19.762 83.1582 17.3131 81.3624 15.4901C80.4645 14.5922 79.4033 13.8848 78.2333 13.4223C77.0633 12.9597 75.8117 12.7148 74.5329 12.7148H64.9008" stroke="#0A66C2" stroke-width="5.52344" stroke-linecap="round" stroke-linejoin="round"/>
<path d="M64.7662 12.6864V7.78878C64.7662 7.16297 64.6302 6.53718 64.4125 5.93858C64.1676 5.36719 63.8139 4.82299 63.3785 4.38765C62.9432 3.9523 62.399 3.59861 61.8276 3.35373C61.2562 3.10885 60.6304 3 59.9774 3H31.0542C29.7753 3 28.5509 3.51698 27.653 4.41488C26.7551 5.31278 26.2383 6.53719 26.2383 7.81601V17.448C26.2383 18.7268 26.7551 19.9512 27.653 20.8491C28.5509 21.747 29.7753 22.264 31.0542 22.264H59.9774C61.2562 22.264 62.4806 21.747 63.3785 20.8491C64.2764 19.9512 64.7935 18.7268 64.7935 17.448V12.6864H64.7662Z" stroke="#4D4D4F" stroke-width="5.52344" stroke-linecap="round" stroke-linejoin="round"/>
<path d="M21.4492 33.9609H70.6703" stroke="#4D4D4F" stroke-width="5.52344" stroke-linecap="round"/>
<path d="M21.4492 47.0781H70.6703" stroke="#4D4D4F" stroke-width="5.52344" stroke-linecap="round"/>
<path d="M21.4492 60.2227H70.6703" stroke="#4D4D4F" stroke-width="5.52344" stroke-linecap="round"/>
<path d="M21.4492 73.3398H70.6703" stroke="#4D4D4F" stroke-width="5.52344" stroke-linecap="round"/>
<path d="M21.4492 86.4766H70.6703" stroke="#4D4D4F" stroke-width="5.52344" stroke-linecap="round"/>
</svg>
