<svg width="94" height="101" viewBox="0 0 94 101" fill="none" xmlns="http://www.w3.org/2000/svg">
<g id="S&#225;&#186;&#163;n ph&#225;&#186;&#169;m uy t&#195;&#173;n">
<g id="S&#225;&#186;&#163;n ph&#225;&#186;&#169;m uy t&#195;&#173;n_2" opacity="0.3">
<path id="Vector" d="M74.1501 63.6719L86.6935 84.0244C87.2105 84.8951 86.6119 85.9833 85.6051 85.9833H74.912C74.4494 85.9833 74.0413 86.2282 73.7964 86.6091L67.8104 96.7309C67.3206 97.5744 66.1235 97.5744 65.6065 96.7309L60.6816 88.813" stroke="#0A66C2" stroke-width="5.52" stroke-linecap="round"/>
<path id="Vector_2" d="M15.733 63.6719L3.18962 84.0244C2.67265 84.8951 3.27125 85.9833 4.27798 85.9833H14.9711C15.4337 85.9833 15.8418 86.2282 16.0867 86.6091L22.0727 96.7309C22.5625 97.5744 23.7597 97.5744 24.2766 96.7309L36.3302 77.3581" stroke="#0A66C2" stroke-width="5.52" stroke-linecap="round"/>
<path id="Vector_3" d="M35.0261 47.3567L25.6934 38.269L38.5905 36.3915L44.3588 24.7188L50.1271 36.3915L63.0242 38.269L53.6915 47.3567L55.8954 60.1995L44.386 54.1317L32.8493 60.1995" stroke="#0A66C2" stroke-width="5.52" stroke-linecap="round" stroke-linejoin="round"/>
<path id="Vector_4" d="M44.3304 77.907C63.9209 77.907 79.7838 62.0168 79.7838 42.4535C79.7838 22.8902 63.8937 7 44.3304 7C24.767 7 8.87695 22.8902 8.87695 42.4535C8.87695 62.0168 24.767 77.907 44.3304 77.907Z" stroke="#0A66C2" stroke-width="5.52" stroke-linecap="round" stroke-linejoin="round"/>
</g>
<g id="S&#225;&#186;&#163;n ph&#225;&#186;&#169;m uy t&#195;&#173;n_3">
<path id="Vector_5" d="M78.1501 59.6719L90.6935 80.0244C91.2105 80.8951 90.6119 81.9833 89.6051 81.9833H78.912C78.4494 81.9833 78.0413 82.2282 77.7964 82.6091L71.8104 92.7309C71.3206 93.5744 70.1235 93.5744 69.6065 92.7309L64.6816 84.813" stroke="#4D4D4F" stroke-width="5.52" stroke-linecap="round"/>
<path id="Vector_6" d="M19.733 59.6719L7.18962 80.0244C6.67265 80.8951 7.27125 81.9833 8.27798 81.9833H18.9711C19.4337 81.9833 19.8418 82.2282 20.0867 82.6091L26.0727 92.7309C26.5625 93.5744 27.7597 93.5744 28.2766 92.7309L40.3302 73.3581" stroke="#4D4D4F" stroke-width="5.52" stroke-linecap="round"/>
<path id="Vector_7" d="M39.0261 43.3567L29.6934 34.269L42.5905 32.3915L48.3588 20.7188L54.1271 32.3915L67.0242 34.269L57.6915 43.3567L59.8954 56.1995L48.386 50.1317L36.8493 56.1995" stroke="#4D4D4F" stroke-width="5.52" stroke-linecap="round" stroke-linejoin="round"/>
<path id="Vector_8" d="M48.3304 73.907C67.9209 73.907 83.7838 58.0168 83.7838 38.4535C83.7838 18.8902 67.8937 3 48.3304 3C28.767 3 12.877 18.8902 12.877 38.4535C12.877 58.0168 28.767 73.907 48.3304 73.907Z" stroke="#0A66C2" stroke-width="5.52" stroke-linecap="round" stroke-linejoin="round"/>
</g>
</g>
</svg>
