<svg width="337" height="361" viewBox="0 0 337 361" fill="none" xmlns="http://www.w3.org/2000/svg">
<path d="M225.631 182.359C225.304 191.182 222.365 199.711 217.186 206.866C212.007 214.02 204.82 219.479 196.535 222.551C188.251 225.624 179.24 226.172 170.644 224.126C162.047 222.08 154.251 217.533 148.242 211.059C142.232 204.585 138.28 196.476 136.884 187.757C135.488 179.038 136.712 170.101 140.401 162.077C144.089 154.053 150.077 147.303 157.606 142.68C165.135 138.057 173.867 135.77 182.697 136.107C188.56 136.315 194.323 137.678 199.656 140.118C204.99 142.558 209.789 146.026 213.778 150.323C217.767 154.62 220.867 159.662 222.901 165.16C224.935 170.657 225.863 176.502 225.631 182.359Z" fill="#53C3EF"/>
<path d="M159.503 182.713L175.018 197.89L206.048 167.535" stroke="white" stroke-width="19.3171" stroke-linecap="round" stroke-linejoin="round"/>
<path d="M235.524 83.7724C248.247 91.1825 259.386 101.024 268.303 112.735C277.22 124.447 283.741 137.798 287.494 152.028C291.247 166.257 292.158 181.086 290.176 195.667C288.193 210.249 283.356 224.297 275.94 237.011C268.524 249.724 258.674 260.853 246.953 269.763C235.233 278.673 221.87 285.189 207.63 288.939C193.389 292.689 178.548 293.6 163.955 291.619C149.362 289.638 135.302 284.805 122.578 277.394C121.91 276.982 121.289 276.497 120.727 275.949C119.228 274.367 118.344 272.301 118.235 270.125C118.126 267.948 118.8 265.805 120.134 264.081C121.468 262.357 123.375 261.167 125.51 260.725C127.645 260.282 129.868 260.617 131.778 261.669C147.838 271.019 166.312 275.401 184.864 274.259C203.416 273.117 221.212 266.503 236.002 255.254C250.792 244.005 261.91 228.626 267.952 211.062C273.993 193.498 274.686 174.539 269.942 156.582C265.198 138.625 255.231 122.477 241.301 110.18C227.372 97.8838 210.105 89.9915 191.686 87.5014C173.266 85.0113 154.522 88.0353 137.823 96.1911C121.124 104.347 107.221 117.268 97.8717 133.32C97.2676 134.348 96.4666 135.248 95.5145 135.968C94.5624 136.687 93.4778 137.212 92.3226 137.513C91.1675 137.814 89.9643 137.884 88.782 137.72C87.5996 137.556 86.4611 137.161 85.4315 136.557C84.4019 135.954 83.5014 135.153 82.7813 134.202C82.0613 133.251 81.5358 132.167 81.2349 131.013C80.6273 128.682 80.9713 126.205 82.1913 124.127C89.5937 111.404 99.4334 100.263 111.148 91.3418C122.862 82.4207 136.222 75.8943 150.462 72.1356C164.703 68.377 179.545 67.4599 194.141 69.4368C208.736 71.4137 222.798 76.2457 235.524 83.6567" fill="#53C3EF"/>
<path d="M327.339 95.0467C327.675 95.6475 328.13 96.1729 328.678 96.5906C329.225 97.0083 329.853 97.3093 330.521 97.4749C331.857 97.8099 333.272 97.602 334.456 96.8968C335.042 96.5499 335.553 96.0903 335.961 95.5444C336.368 94.9986 336.663 94.3775 336.828 93.717C337.001 93.0689 337.044 92.393 336.955 91.7282C336.865 91.0634 336.645 90.4229 336.307 89.8434C318.347 59.0323 291.646 34.2353 259.58 18.5886C227.515 2.9418 191.525 -2.85185 156.164 1.94036C120.803 6.73257 87.6584 21.8954 60.9224 45.5111C34.1863 69.1267 15.0598 100.134 5.9619 134.612C-3.13601 169.09 -1.79662 205.49 9.81065 239.207C21.4179 272.925 42.7717 302.445 71.1712 324.035C99.5706 345.625 133.74 358.315 169.358 360.5C204.976 362.684 240.442 354.266 271.271 336.308C271.653 336.086 272.003 335.814 272.313 335.499C272.951 334.854 273.409 334.053 273.642 333.176C273.875 332.299 273.874 331.377 273.64 330.501C273.406 329.624 272.947 328.824 272.308 328.179C271.669 327.535 270.873 327.069 269.998 326.827C268.651 326.471 267.217 326.658 266.006 327.347C236.962 344.286 203.54 352.23 169.974 350.174C136.408 348.118 104.208 336.153 77.4522 315.796C50.6968 295.439 30.59 267.606 19.679 235.821C8.7679 204.037 7.54345 169.732 16.1607 137.252C21.8386 115.686 31.7134 95.4493 45.2211 77.6982C58.7288 59.9472 75.6045 45.0294 94.8841 33.7974C114.164 22.5653 135.469 15.2391 157.584 12.2373C179.698 9.23555 202.187 10.617 223.767 16.3028C245.385 21.9318 265.67 31.79 283.448 45.3066C301.227 58.8232 316.145 75.7295 327.339 95.0467Z" fill="#53C3EF"/>
</svg>
