<svg width="66" height="62" viewBox="0 0 66 62" fill="none" xmlns="http://www.w3.org/2000/svg">
<g opacity="0.3">
<path d="M18.3638 11.5093C17.3284 12.5605 16.7637 13.9724 16.7637 15.4471V40.3427M36.9439 59.9072H55.6702C56.4075 59.9072 57.1291 59.766 57.8037 59.4836C58.4783 59.2012 59.0902 58.7933 59.6079 58.2756C60.1256 57.7579 60.5335 57.146 60.8159 56.4715C61.0983 55.7969 61.2394 55.0752 61.2394 54.3379V15.4471C61.2394 13.9724 60.6747 12.5605 59.6393 11.5093C59.1216 10.9916 58.5097 10.5838 57.8351 10.3171C57.1605 10.0504 56.4389 9.90918 55.7016 9.90918H50.1479" stroke="#FF6B00" stroke-width="3.18469" stroke-linecap="round" stroke-linejoin="round"/>
<path d="M50.0698 9.8916V7.06774C50.0698 6.70691 49.9913 6.3461 49.8658 6.00096C49.7246 5.67151 49.5207 5.35774 49.2697 5.10673C49.0187 4.85572 48.7049 4.65179 48.3754 4.51059C48.046 4.3694 47.6852 4.30664 47.3087 4.30664H30.6322C29.8949 4.30664 29.1889 4.60472 28.6712 5.12243C28.1535 5.64014 27.8555 6.3461 27.8555 7.08344V12.637C27.8555 13.3744 28.1535 14.0803 28.6712 14.598C29.1889 15.1157 29.8949 15.4138 30.6322 15.4138H47.3087C48.046 15.4138 48.752 15.1157 49.2697 14.598C49.7874 14.0803 50.0855 13.3744 50.0855 12.637V9.8916H50.0698Z" stroke="#FF6B00" stroke-width="3.18469" stroke-linecap="round" stroke-linejoin="round"/>
<path d="M25.0938 22.1582H53.4735" stroke="#FF6B00" stroke-width="3.18469" stroke-linecap="round"/>
<path d="M25.0938 29.6758H53.4735" stroke="#FF6B00" stroke-width="3.18469" stroke-linecap="round"/>
<path d="M49.3398 37.1719L53.6642 37.1719" stroke="#FF6B00" stroke-width="3.18469" stroke-linecap="round"/>
<path d="M49.0527 44.667L53.6653 44.667" stroke="#FF6B00" stroke-width="3.18469" stroke-linecap="round"/>
<path d="M49.0527 52.1621L53.6653 52.1621" stroke="#FF6B00" stroke-width="3.18469" stroke-linecap="round"/>
<path d="M42.5694 53.0953V47.7927M42.5694 37.1719H28.2305" stroke="#FF6B00" stroke-width="3.18469" stroke-linecap="round" stroke-linejoin="round"/>
<path d="M42.5694 37.9707L31.4779 48.3876C28.9051 50.9605 25.7361 52.8274 22.2533 53.8471C18.7705 54.8511 15.0839 54.9609 11.5384 54.1608C7.99288 53.3607 4.71404 51.6664 2 49.2662" stroke="#FF6B00" stroke-width="3.18469" stroke-linecap="round" stroke-linejoin="round"/>
</g>
<path d="M20.6704 9.20271C19.635 10.2538 19.0703 11.6658 19.0703 13.1404V38.0361M39.2505 57.6005H57.9768C58.7141 57.6005 59.4358 57.4593 60.1104 57.1769C60.7849 56.8945 61.3968 56.4867 61.9145 55.9689C62.4322 55.4512 62.8402 54.8394 63.1225 54.1648C63.4049 53.4902 63.546 52.7686 63.546 52.0312V13.1404C63.546 11.6658 62.9813 10.2538 61.9459 9.20271C61.4282 8.685 60.8163 8.27712 60.1418 8.01042C59.4672 7.74372 58.7455 7.60254 58.0082 7.60254H52.4545" stroke="#FF6B00" stroke-width="3.18469" stroke-linecap="round" stroke-linejoin="round"/>
<path d="M52.3764 7.58496V4.7611C52.3764 4.40027 52.298 4.03946 52.1725 3.69432C52.0313 3.36487 51.8273 3.05109 51.5763 2.80008C51.3253 2.54908 51.0115 2.34515 50.6821 2.20395C50.3526 2.06276 49.9918 2 49.6153 2H32.9388C32.2015 2 31.4955 2.29808 30.9778 2.81579C30.4601 3.3335 30.1621 4.03946 30.1621 4.7768V10.3304C30.1621 11.0677 30.4601 11.7737 30.9778 12.2914C31.4955 12.8091 32.2015 13.1072 32.9388 13.1072H49.6153C50.3526 13.1072 51.0586 12.8091 51.5763 12.2914C52.094 11.7737 52.3921 11.0677 52.3921 10.3304V7.58496H52.3764Z" stroke="#4D4D4F" stroke-width="3.18469" stroke-linecap="round" stroke-linejoin="round"/>
<path d="M27.4023 19.8516H55.7821" stroke="#4D4D4F" stroke-width="3.18469" stroke-linecap="round"/>
<path d="M27.4023 27.3691H55.7821" stroke="#4D4D4F" stroke-width="3.18469" stroke-linecap="round"/>
<path d="M51.6465 34.8652L55.9708 34.8652" stroke="#4D4D4F" stroke-width="3.18469" stroke-linecap="round"/>
<path d="M51.3594 42.3604L55.972 42.3604" stroke="#4D4D4F" stroke-width="3.18469" stroke-linecap="round"/>
<path d="M51.3594 49.8555L55.972 49.8555" stroke="#4D4D4F" stroke-width="3.18469" stroke-linecap="round"/>
<path d="M44.8761 50.7887V45.4861M44.8761 34.8652H30.5371" stroke="#FF6B00" stroke-width="3.18469" stroke-linecap="round" stroke-linejoin="round"/>
<path d="M44.8761 35.6641L33.7846 46.081C31.2117 48.6538 28.0427 50.5207 24.5599 51.5404C21.0772 52.5445 17.3905 52.6543 13.845 51.8542C10.2995 51.0541 7.02068 49.3598 4.30664 46.9595" stroke="#FF6B00" stroke-width="3.18469" stroke-linecap="round" stroke-linejoin="round"/>
</svg>
