<svg width="120" height="89" viewBox="0 0 120 89" fill="none" xmlns="http://www.w3.org/2000/svg">
<g id="Mua l&#225;&#186;&#161;i &#196;&#145;&#198;&#161;n h&#195;&#160;ng">
<g id="Group 1000002025">
<g id="Group 1000002023" opacity="0.3">
<g id="&#196;&#144;&#198;&#161;n h&#195;&#160;ng 3">
<path id="Vector" d="M33.2159 88.801C36.8324 88.801 39.7756 85.8578 39.7756 82.2413C39.7756 78.6248 36.8324 75.6816 33.2159 75.6816C29.5994 75.6816 26.6562 78.6248 26.6562 82.2413C26.6562 85.8578 29.5994 88.801 33.2159 88.801Z" fill="#FF6B00"/>
<path id="Vector_2" d="M75.8409 88.801C79.4574 88.801 82.4006 85.8578 82.4006 82.2413C82.4006 78.6248 79.4574 75.6816 75.8409 75.6816C72.2244 75.6816 69.2812 78.6248 69.2812 82.2413C69.2812 85.8578 72.2244 88.801 75.8409 88.801Z" fill="#FF6B00"/>
<path id="Vector_3" d="M3.73633 6.86621H10.6202C11.3436 6.86621 12.0169 7.09071 12.5906 7.51472C13.1642 7.93873 13.5634 8.53733 13.7629 9.2357L28.6031 61.1143C28.9772 62.4861 29.8252 63.6833 30.9476 64.5562C32.0949 65.4042 33.4668 65.8781 34.9134 65.8781H74.1715C75.5932 65.8781 76.9899 65.4292 78.1373 64.5562C79.2846 63.7082 80.1077 62.4861 80.4818 61.1143L91.3064 23.2529" stroke="#FF6B00" stroke-width="5.06315" stroke-linecap="round" stroke-linejoin="round"/>
</g>
<g id="Group 1000001679">
<g id="&#196;&#144;i&#225;&#187;&#131;m t&#195;&#173;ch l&#197;&#169;y">
<g id="&#196;&#144;i&#225;&#187;&#131;m t&#195;&#173;ch l&#197;&#169;y_2">
<path id="Vector_4" d="M45.9043 9.38086V32.1775M71.1126 34.7216H58.5497" stroke="#FF6B00" stroke-width="5.06315" stroke-linecap="round" stroke-linejoin="round"/>
<path id="Vector_5" d="M110.403 15.489C106.088 11.648 100.876 8.97925 95.2389 7.70722C89.6021 6.4352 83.7408 6.60978 78.2037 8.20605C72.6667 9.80231 67.6035 12.7953 63.5381 16.8857L45.9043 33.447" stroke="#FF6B00" stroke-width="5.06315" stroke-linecap="round" stroke-linejoin="round"/>
</g>
</g>
</g>
</g>
<g id="Group 1000002022">
<g id="&#196;&#144;&#198;&#161;n h&#195;&#160;ng 3_2">
<path id="Vector_6" d="M36.8839 85.134C40.5004 85.134 43.4435 82.1908 43.4435 78.5743C43.4435 74.9578 40.5004 72.0146 36.8839 72.0146C33.2673 72.0146 30.3242 74.9578 30.3242 78.5743C30.3242 82.1908 33.2673 85.134 36.8839 85.134Z" fill="#FF6B00"/>
<path id="Vector_7" d="M79.5089 85.134C83.1254 85.134 86.0685 82.1908 86.0685 78.5743C86.0685 74.9578 83.1254 72.0146 79.5089 72.0146C75.8923 72.0146 72.9492 74.9578 72.9492 78.5743C72.9492 82.1908 75.8923 85.134 79.5089 85.134Z" fill="#FF6B00"/>
<path id="Vector_8" d="M7.4043 3.19922H14.2882C15.0115 3.19922 15.6849 3.42372 16.2585 3.84773C16.8322 4.27173 17.2313 4.87034 17.4309 5.5687L32.271 57.4473C32.6452 58.8191 33.4932 60.0163 34.6156 60.8892C35.7629 61.7372 37.1347 62.2111 38.5813 62.2111H77.8394C79.2611 62.2111 80.6579 61.7622 81.8052 60.8892C82.9525 60.0412 83.7756 58.8191 84.1497 57.4473L94.9743 19.5859" stroke="#FF6B00" stroke-width="5.06315" stroke-linecap="round" stroke-linejoin="round"/>
</g>
<g id="Group 1000001679_2">
<g id="&#196;&#144;i&#225;&#187;&#131;m t&#195;&#173;ch l&#197;&#169;y_3">
<g id="&#196;&#144;i&#225;&#187;&#131;m t&#195;&#173;ch l&#197;&#169;y_4">
<path id="Vector_9" d="M49.5703 5.71387V28.5105M74.7786 31.0546H62.2157" stroke="#4D4D4F" stroke-width="5.06315" stroke-linecap="round" stroke-linejoin="round"/>
<path id="Vector_10" d="M114.069 11.822C109.754 7.981 104.542 5.31225 98.9049 4.04023C93.2681 2.76821 87.4068 2.94279 81.8698 4.53906C76.3327 6.13532 71.2696 9.12831 67.2041 13.2187L49.5703 29.78" stroke="#4D4D4F" stroke-width="5.06315" stroke-linecap="round" stroke-linejoin="round"/>
</g>
</g>
</g>
</g>
</g>
</g>
</svg>
