<svg width="88" height="96" viewBox="0 0 88 96" fill="none" xmlns="http://www.w3.org/2000/svg">
<g id="H&#195;&#160;ng c&#225;&#186;&#173;n date">
<g id="H&#195;&#160;ng c&#225;&#186;&#173;n date_2" opacity="0.3">
<g id="Ch&#225;&#187;&#157; x&#195;&#161;c nh&#225;&#186;&#173;n">
<path id="Vector" d="M47.6764 25.1514L17.8711 25.1514" stroke="#FF6B00" stroke-width="5.06" stroke-linecap="round" stroke-linejoin="round"/>
<path id="Vector_2" d="M47.6764 39.9687L17.8711 39.9688" stroke="#FF6B00" stroke-width="5.06" stroke-linecap="round" stroke-linejoin="round"/>
<path id="Vector_3" d="M25.3286 54.71L17.8711 54.71" stroke="#FF6B00" stroke-width="5.06" stroke-linecap="round" stroke-linejoin="round"/>
<path id="Vector_4" d="M25.3261 80.5273L10.4111 80.5273C8.44068 80.5273 6.54516 79.7542 5.14843 78.3824C3.75169 77.0106 2.97852 75.1151 2.97851 73.1697L2.97851 14.1577C2.97851 13.185 3.17799 12.2372 3.55212 11.3393C3.92624 10.4414 4.47502 9.64334 5.17339 8.94497C5.87175 8.24661 6.69475 7.69783 7.59265 7.32371C8.49055 6.94958 9.46331 6.7501 10.436 6.7501L55.1564 6.75009C57.1268 6.75009 59.0223 7.54821 60.419 8.92C61.1174 9.59343 61.6662 10.4164 62.0403 11.3143C62.4144 12.2122 62.6139 13.16 62.6139 14.1327L62.6139 43.6387" stroke="#FF6B00" stroke-width="5.06" stroke-linecap="round" stroke-linejoin="round"/>
</g>
<path id="Ellipse 699" d="M75.3945 73.667L74.2039 75.8993C75.1865 76.4234 76.3961 76.2434 77.1835 75.456L75.3945 73.667ZM72.3781 88.1876C73.3099 87.1465 73.2213 85.547 72.1802 84.6151C71.139 83.6833 69.5396 83.7719 68.6077 84.813L72.3781 88.1876ZM83.1418 69.4976C84.1299 68.5096 84.1299 66.9077 83.1418 65.9197C82.1538 64.9317 80.5519 64.9317 79.5639 65.9197L83.1418 69.4976ZM69.7101 67.768C68.4772 67.1104 66.9447 67.5768 66.2872 68.8097C65.6296 70.0426 66.0961 71.5751 67.3289 72.2327L69.7101 67.768ZM56.1445 90.387C46.9103 90.387 39.4245 82.9012 39.4245 73.667H34.3645C34.3645 85.6958 44.1158 95.447 56.1445 95.447V90.387ZM39.4245 73.667C39.4245 64.4328 46.9103 56.947 56.1445 56.947V51.887C44.1158 51.887 34.3645 61.6382 34.3645 73.667H39.4245ZM56.1445 56.947C65.3787 56.947 72.8645 64.4328 72.8645 73.667H77.9245C77.9245 61.6382 68.1733 51.887 56.1445 51.887V56.947ZM68.6077 84.813C65.5425 88.2377 61.0962 90.387 56.1445 90.387V95.447C62.5953 95.447 68.3936 92.6394 72.3781 88.1876L68.6077 84.813ZM77.1835 75.456L83.1418 69.4976L79.5639 65.9197L73.6056 71.878L77.1835 75.456ZM76.5851 71.4346L69.7101 67.768L67.3289 72.2327L74.2039 75.8993L76.5851 71.4346Z" fill="#FF6B00"/>
<path id="Vector_5" d="M56.1445 64.4999L56.1445 74.4911L61.1862 78.25" stroke="#FF6B00" stroke-width="5.06" stroke-linecap="round" stroke-linejoin="round"/>
</g>
<g id="H&#195;&#160;ng c&#225;&#186;&#173;n date_3">
<g id="Ch&#225;&#187;&#157; x&#195;&#161;c nh&#225;&#186;&#173;n_2">
<path id="Vector_6" d="M51.3424 21.4844L21.5371 21.4844" stroke="#4D4D4F" stroke-width="5.06" stroke-linecap="round" stroke-linejoin="round"/>
<path id="Vector_7" d="M51.3424 36.3018L21.5371 36.3018" stroke="#4D4D4F" stroke-width="5.06" stroke-linecap="round" stroke-linejoin="round"/>
<path id="Vector_8" d="M28.9946 51.043L21.5371 51.043" stroke="#4D4D4F" stroke-width="5.06" stroke-linecap="round" stroke-linejoin="round"/>
<path id="Vector_9" d="M28.9921 76.8603L14.0771 76.8604C12.1067 76.8604 10.2112 76.0872 8.81444 74.7154C7.41771 73.3436 6.64453 71.4481 6.64453 69.5027L6.64453 10.4907C6.64453 9.51797 6.84401 8.57018 7.21813 7.67228C7.59226 6.77438 8.14104 5.97635 8.8394 5.27798C9.53777 4.57961 10.3608 4.03084 11.2587 3.65671C12.1566 3.28259 13.1293 3.0831 14.102 3.0831L58.8224 3.0831C60.7928 3.0831 62.6883 3.88122 64.085 5.25301C64.7834 5.92643 65.3322 6.74941 65.7063 7.64731C66.0804 8.54521 66.2799 9.493 66.2799 10.4657L66.2799 39.9717" stroke="#FF6B00" stroke-width="5.06" stroke-linecap="round" stroke-linejoin="round"/>
</g>
<path id="Ellipse 699_2" d="M79.0625 70L77.8719 72.2324C78.8545 72.7564 80.0641 72.5764 80.8515 71.789L79.0625 70ZM76.046 84.5206C76.9779 83.4795 76.8893 81.88 75.8481 80.9481C74.807 80.0163 73.2075 80.1049 72.2757 81.146L76.046 84.5206ZM86.8098 65.8306C87.7978 64.8426 87.7978 63.2407 86.8098 62.2527C85.8218 61.2647 84.2199 61.2647 83.2319 62.2527L86.8098 65.8306ZM73.3781 64.101C72.1452 63.4434 70.6127 63.9099 69.9552 65.1427C69.2976 66.3756 69.764 67.9081 70.9969 68.5657L73.3781 64.101ZM59.8125 86.72C50.5783 86.72 43.0925 79.2342 43.0925 70H38.0325C38.0325 82.0288 47.7837 91.78 59.8125 91.78V86.72ZM43.0925 70C43.0925 60.7658 50.5783 53.28 59.8125 53.28V48.22C47.7837 48.22 38.0325 57.9712 38.0325 70H43.0925ZM59.8125 53.28C69.0467 53.28 76.5325 60.7658 76.5325 70H81.5925C81.5925 57.9712 71.8413 48.22 59.8125 48.22V53.28ZM72.2757 81.146C69.2105 84.5707 64.7642 86.72 59.8125 86.72V91.78C66.2633 91.78 72.0616 88.9724 76.046 84.5206L72.2757 81.146ZM80.8515 71.789L86.8098 65.8306L83.2319 62.2527L77.2735 68.211L80.8515 71.789ZM80.2531 67.7676L73.3781 64.101L70.9969 68.5657L77.8719 72.2324L80.2531 67.7676Z" fill="#FF6B00"/>
<path id="Vector_10" d="M59.8125 60.833L59.8125 70.8241L64.8542 74.583" stroke="#4D4D4F" stroke-width="5.06" stroke-linecap="round" stroke-linejoin="round"/>
</g>
</g>
</svg>
