<svg width="100" height="88" viewBox="0 0 100 88" fill="none" xmlns="http://www.w3.org/2000/svg">
<g opacity="0.3">
<path d="M10.0181 39.0402C10.0181 55.1525 2.88477 47.67 2.88477 59.7667V79.3459C2.88477 85.6811 4.60577 84.5338 10.9409 84.5338H29.3478C35.683 84.5338 37.404 85.6811 37.404 79.3459V59.7667C37.404 47.67 30.2707 55.1525 30.2707 39.0402H36.2567V28.0908H4.0321V39.0402H20.1444" stroke="#FF6B00" stroke-width="5.06315" stroke-linecap="round" stroke-linejoin="round"/>
<path d="M20.7197 53.4307L16.1055 63.7815H25.3089L18.9737 74.7308" stroke="#FF6B00" stroke-width="5.06315" stroke-linecap="round" stroke-linejoin="round"/>
<path d="M70.3798 45.6748L65.7656 56.0505H74.9691L68.6339 66.9999" stroke="#FF6B00" stroke-width="5.06315" stroke-linecap="round" stroke-linejoin="round"/>
<path d="M85.6149 13.9964H55.1113V11.0283C55.1113 8.45934 57.2064 6.36426 59.7754 6.36426H80.9509C83.5198 6.36426 85.6149 8.45934 85.6149 11.0283V13.9964V13.9964Z" stroke="#FF6B00" stroke-width="5.06315" stroke-linecap="round" stroke-linejoin="round"/>
<path d="M88.2628 85.3032H52.4965C49.6282 85.3032 47.3086 82.9836 47.3086 80.1153V32.5267C47.3086 29.6584 49.6282 27.3389 52.4965 27.3389H88.2628C91.1311 27.3389 93.4506 29.6584 93.4506 32.5267V80.1153C93.4506 82.9836 91.1311 85.3032 88.2628 85.3032Z" stroke="#FF6B00" stroke-width="5.06315" stroke-linecap="round" stroke-linejoin="round"/>
<path d="M85.2909 27.335H55.4358C52.6174 27.335 50.3477 25.0653 50.3477 22.2469V19.0793C50.3477 16.2609 52.6174 13.9912 55.4358 13.9912H85.2909C88.1093 13.9912 90.379 16.2609 90.379 19.0793V22.2469C90.379 25.0653 88.1093 27.335 85.2909 27.335Z" stroke="#FF6B00" stroke-width="5.06315" stroke-linecap="round" stroke-linejoin="round"/>
</g>
<path d="M13.6841 35.3732C13.6841 51.4855 6.55078 44.003 6.55078 56.0997V75.6789C6.55078 82.0141 8.27178 80.8668 14.607 80.8668H33.0139C39.349 80.8668 41.07 82.0141 41.07 75.6789V56.0997C41.07 44.003 33.9367 51.4855 33.9367 35.3732H39.9227V24.4238H7.69811V35.3732H23.8104" stroke="#4D4D4F" stroke-width="5.06315" stroke-linecap="round" stroke-linejoin="round"/>
<path d="M24.3857 49.7637L19.7715 60.1145H28.975L22.6398 71.0638" stroke="#FF6B00" stroke-width="5.06315" stroke-linecap="round" stroke-linejoin="round"/>
<path d="M74.0458 42.0078L69.4316 52.3835H78.6351L72.2999 63.3329" stroke="#4D4D4F" stroke-width="5.06315" stroke-linecap="round" stroke-linejoin="round"/>
<path d="M89.2809 10.3294H58.7773V7.36134C58.7773 4.79235 60.8724 2.69727 63.4414 2.69727H84.6169C87.1859 2.69727 89.2809 4.79235 89.2809 7.36134V10.3294V10.3294Z" stroke="#FF6B00" stroke-width="5.06315" stroke-linecap="round" stroke-linejoin="round"/>
<path d="M91.9288 81.6362H56.1625C53.2942 81.6362 50.9746 79.3166 50.9746 76.4483V28.8597C50.9746 25.9914 53.2942 23.6719 56.1625 23.6719H91.9288C94.7971 23.6719 97.1166 25.9914 97.1166 28.8597V76.4483C97.1166 79.3166 94.7971 81.6362 91.9288 81.6362Z" stroke="#FF6B00" stroke-width="5.06315" stroke-linecap="round" stroke-linejoin="round"/>
<path d="M88.9569 23.669H59.1018C56.2834 23.669 54.0137 21.3993 54.0137 18.5809V15.4133C54.0137 12.5949 56.2834 10.3252 59.1018 10.3252H88.9569C91.7753 10.3252 94.045 12.5949 94.045 15.4133V18.5809C94.045 21.3993 91.7753 23.669 88.9569 23.669Z" stroke="#FF6B00" stroke-width="5.06315" stroke-linecap="round" stroke-linejoin="round"/>
</svg>
