<svg width="90" height="93" viewBox="0 0 90 93" fill="none" xmlns="http://www.w3.org/2000/svg">
<g opacity="0.3">
<path d="M31.5688 6.30664C31.5688 20.7977 3.06055 18.3783 3.06055 18.3783" stroke="#FF6B00" stroke-width="5.06315" stroke-linecap="round" stroke-linejoin="round"/>
<path d="M36.4082 45.9388C11.7409 45.9388 4.50781 49.3307 4.50781 38.6807" stroke="#FF6B00" stroke-width="5.06315" stroke-linecap="round" stroke-linejoin="round"/>
<path d="M22.3894 72.5314C15.1563 61.4074 10.168 52.9523 9.51953 46.0684" stroke="#FF6B00" stroke-width="5.06315" stroke-linecap="round" stroke-linejoin="round"/>
<path d="M14.6582 59.96V90.4136" stroke="#FF6B00" stroke-width="5.06315" stroke-linecap="round" stroke-linejoin="round"/>
<path d="M54.7656 6.30664C54.7656 20.7977 83.2739 18.3783 83.2739 18.3783" stroke="#FF6B00" stroke-width="5.06315" stroke-linecap="round" stroke-linejoin="round"/>
<path d="M49.9238 45.9388C74.5662 45.9388 81.8241 49.3307 81.8241 38.6807" stroke="#FF6B00" stroke-width="5.06315" stroke-linecap="round" stroke-linejoin="round"/>
<path d="M63.9434 72.5314C71.1764 61.4074 76.1648 52.9523 76.8133 46.0684" stroke="#FF6B00" stroke-width="5.06315" stroke-linecap="round" stroke-linejoin="round"/>
<path d="M71.6504 59.96V90.4136" stroke="#FF6B00" stroke-width="5.06315" stroke-linecap="round" stroke-linejoin="round"/>
<path d="M44.1159 91.3607C45.7122 91.3607 47.0091 90.0638 47.0091 88.4675C47.0091 86.8713 45.7122 85.5742 44.1159 85.5742C42.5196 85.5742 41.2227 86.8713 41.2227 88.4675C41.2227 90.0638 42.5196 91.3607 44.1159 91.3607Z" fill="#FF6B00"/>
</g>
<path d="M35.2348 2.63965C35.2348 17.1307 6.72656 14.7113 6.72656 14.7113" stroke="#4D4D4F" stroke-width="5.06315" stroke-linecap="round" stroke-linejoin="round"/>
<path d="M40.0742 42.2718C15.4069 42.2718 8.17383 45.6638 8.17383 35.0137" stroke="#4D4D4F" stroke-width="5.06315" stroke-linecap="round" stroke-linejoin="round"/>
<path d="M26.0554 68.8644C18.8224 57.7404 13.834 49.2853 13.1855 42.4014" stroke="#4D4D4F" stroke-width="5.06315" stroke-linecap="round" stroke-linejoin="round"/>
<path d="M18.3242 56.293V86.7466" stroke="#4D4D4F" stroke-width="5.06315" stroke-linecap="round" stroke-linejoin="round"/>
<path d="M58.4316 2.63965C58.4316 17.1307 86.9399 14.7113 86.9399 14.7113" stroke="#FF6B00" stroke-width="5.06315" stroke-linecap="round" stroke-linejoin="round"/>
<path d="M53.5898 42.2718C78.2322 42.2718 85.4901 45.6638 85.4901 35.0137" stroke="#FF6B00" stroke-width="5.06315" stroke-linecap="round" stroke-linejoin="round"/>
<path d="M67.6094 68.8644C74.8424 57.7404 79.8308 49.2853 80.4793 42.4014" stroke="#FF6B00" stroke-width="5.06315" stroke-linecap="round" stroke-linejoin="round"/>
<path d="M75.3164 56.293V86.7466" stroke="#FF6B00" stroke-width="5.06315" stroke-linecap="round" stroke-linejoin="round"/>
<path d="M47.7819 87.6937C49.3782 87.6937 50.6751 86.3968 50.6751 84.8005C50.6751 83.2043 49.3782 81.9072 47.7819 81.9072C46.1856 81.9072 44.8887 83.2043 44.8887 84.8005C44.8887 86.3968 46.1856 87.6937 47.7819 87.6937Z" fill="#4D4D4F"/>
</svg>
