<svg width="100" height="104" viewBox="0 0 100 104" fill="none" xmlns="http://www.w3.org/2000/svg">
<g id="Trang &#196;&#145;i&#225;&#187;&#131;m">
<g id="Trang &#196;&#145;i&#225;&#187;&#131;m_2" opacity="0.3">
<path id="Vector" d="M32.3691 26.6473C37.9311 20.9108 45.7878 17.4189 54.3926 17.6185C70.8292 17.9926 83.8238 31.6357 83.4496 48.0473C83.0755 64.4838 69.4324 77.4784 53.0208 77.0793C48.4565 76.9795 44.1666 75.8572 40.3505 73.9118" stroke="#FF6B00" stroke-width="5.06315" stroke-linecap="round" stroke-linejoin="round"/>
<path id="Vector_2" d="M29.1543 15.5942C36.2377 10.0821 45.2167 6.91451 54.894 7.21381C76.9923 7.86229 94.3766 26.3191 93.7281 48.4174C93.0547 70.5156 74.5979 87.9 52.5246 87.2515C48.3843 87.1268 44.3936 86.3785 40.6773 85.1065" stroke="#FF6B00" stroke-width="5.06315" stroke-linecap="round" stroke-linejoin="round"/>
<path id="Vector_3" d="M57.1375 87.126H92.6045C85.97 92.7877 80.7821 100.47 67.6379 100.47H38.082" stroke="#FF6B00" stroke-width="5.06315" stroke-linecap="round" stroke-linejoin="round"/>
<path id="Vector_4" d="M23.5633 24.2043L9.07227 13.5293V40.99H23.5633V24.2043Z" stroke="#FF6B00" stroke-width="5.06315" stroke-linecap="round" stroke-linejoin="round"/>
<path id="Vector_5" d="M71.2515 43.6318L48.5547 66.3537" stroke="#FF6B00" stroke-width="5.06315" stroke-linecap="round" stroke-linejoin="round"/>
<path id="Vector_6" d="M70.0068 33.4502L38.3809 65.1011" stroke="#FF6B00" stroke-width="5.06315" stroke-linecap="round" stroke-linejoin="round"/>
<path id="Vector_7" d="M30.0506 49.7412H2.58984V100.472H30.0506V49.7412Z" stroke="#FF6B00" stroke-width="5.06315" stroke-linecap="round" stroke-linejoin="round"/>
<path id="Vector_8" d="M27.0102 40.9619H5.66016V49.7413H27.0102V40.9619Z" stroke="#FF6B00" stroke-width="5.06315" stroke-linecap="round" stroke-linejoin="round"/>
</g>
<g id="Trang &#196;&#145;i&#225;&#187;&#131;m_3">
<path id="Vector_9" d="M36.0352 22.9803C41.5971 17.2438 49.4538 13.7519 58.0587 13.9515C74.4952 14.3256 87.4898 27.9687 87.1156 44.3803C86.7415 60.8168 73.0984 73.8114 56.6868 73.4123C52.1225 73.3126 47.8326 72.1902 44.0165 70.2448" stroke="#FF6B00" stroke-width="5.06315" stroke-linecap="round" stroke-linejoin="round"/>
<path id="Vector_10" d="M32.8203 11.9272C39.9037 6.41507 48.8827 3.24751 58.56 3.54681C80.6583 4.1953 98.0426 22.6521 97.3942 44.7504C96.7207 66.8487 78.264 84.233 56.1906 83.5845C52.0503 83.4598 48.0596 82.7115 44.3433 81.4395" stroke="#4D4D4F" stroke-width="5.06315" stroke-linecap="round" stroke-linejoin="round"/>
<path id="Vector_11" d="M60.8035 83.459H96.2705C89.636 89.1207 84.4481 96.8028 71.3039 96.8028H41.748" stroke="#4D4D4F" stroke-width="5.06315" stroke-linecap="round" stroke-linejoin="round"/>
<path id="Vector_12" d="M27.2294 20.5373L12.7383 9.8623V37.323H27.2294V20.5373Z" stroke="#FF6B00" stroke-width="5.06315" stroke-linecap="round" stroke-linejoin="round"/>
<path id="Vector_13" d="M74.9195 39.9648L52.2227 62.6867" stroke="#4D4D4F" stroke-width="5.06315" stroke-linecap="round" stroke-linejoin="round"/>
<path id="Vector_14" d="M73.6729 29.7832L42.0469 61.4341" stroke="#4D4D4F" stroke-width="5.06315" stroke-linecap="round" stroke-linejoin="round"/>
<path id="Vector_15" d="M33.7166 46.0742H6.25586V96.8055H33.7166V46.0742Z" stroke="#4D4D4F" stroke-width="5.06315" stroke-linecap="round" stroke-linejoin="round"/>
<path id="Vector_16" d="M30.6762 37.2949H9.32617V46.0743H30.6762V37.2949Z" stroke="#4D4D4F" stroke-width="5.06315" stroke-linecap="round" stroke-linejoin="round"/>
</g>
</g>
</svg>
