<svg width="102" height="75" viewBox="0 0 102 75" fill="none" xmlns="http://www.w3.org/2000/svg">
<g id="S&#225;&#186;&#163;n ph&#225;&#186;&#169;m m&#225;&#187;&#155;i">
<g id="Group 1000002008" opacity="0.3">
<path id="Rectangle 5117" d="M34.5 43.333V71.7497L49.625 61.7203L64.75 71.7497V43.333" stroke="#FF6B00" stroke-width="5.06" stroke-linecap="round" stroke-linejoin="round"/>
<g id="Group 1000002006">
<g id="Group 1000001990">
<rect id="Rectangle 5113" x="96.138" y="5.53" width="37.1067" height="93.0233" rx="18.5533" transform="rotate(90 96.138 5.53)" stroke="#FF6B00" stroke-width="5.06"/>
</g>
<g id="NEW">
<path d="M35.3656 15.833C34.2082 15.833 33.2772 16.8143 33.2772 17.9465V26.1237L26.6852 17.0407C26.1819 16.3111 25.4523 15.833 24.5717 15.833C23.4394 15.833 22.584 16.5375 22.584 17.8459V31.5835C22.584 32.7157 23.5401 33.697 24.7226 33.697C25.88 33.697 26.811 32.7157 26.811 31.5835V23.3812L33.403 32.4893C33.9062 33.1938 34.6359 33.697 35.5417 33.697C36.6487 33.697 37.5042 32.9925 37.5042 31.659V17.9465C37.5042 16.8143 36.5733 15.833 35.3656 15.833Z" fill="#FF6B00"/>
<path d="M44.647 29.9229V26.4004H48.4463C49.4527 26.4004 50.2579 25.6205 50.2579 24.6644C50.2579 23.7586 49.4527 22.9534 48.4463 22.9534H44.647V19.5064H50.7611C51.7675 19.5064 52.5978 18.7013 52.5978 17.6697C52.5978 16.7136 51.7675 15.9085 50.7611 15.9085H42.8103C41.4768 15.9085 40.5207 16.8646 40.5207 18.1981V31.2313C40.5207 32.5648 41.4768 33.5209 42.8103 33.5209H51.0127C52.0191 33.5209 52.8494 32.7157 52.8494 31.7093C52.8494 30.7281 52.0191 29.9229 51.0127 29.9229H44.647Z" fill="#FF6B00"/>
<path d="M76.5245 15.833C75.6187 15.833 74.7633 16.3614 74.5368 17.1665L71.895 27.1553L68.4228 17.1665C68.0454 16.1601 67.2654 15.833 66.5609 15.833C65.8061 15.833 65.1016 16.1601 64.7242 17.1665L61.252 27.1553L58.6102 17.1665C58.3837 16.3614 57.5283 15.833 56.6225 15.833C55.4903 15.833 54.6096 16.6885 54.6096 17.6949C54.6096 18.1226 54.7606 18.5503 54.8864 18.9026L58.9121 32.1371C59.2392 33.1938 60.0695 33.6719 61.1011 33.6719C62.1327 33.6719 62.8875 33.1938 63.2649 32.1371L66.5861 23.0793L69.8821 32.1371C70.2595 33.1938 71.0143 33.6719 72.0459 33.6719C73.0775 33.6719 73.9078 33.1938 74.2349 32.1371L78.2606 18.9026C78.3612 18.5503 78.5374 18.1226 78.5374 17.6949C78.5374 16.6885 77.6567 15.833 76.5245 15.833Z" fill="#FF6B00"/>
</g>
</g>
</g>
<g id="Group 1000002007">
<path id="Rectangle 5117_2" d="M37.25 40.583V68.9997L52.375 58.9703L67.5 68.9997V40.583" stroke="#4D4D4F" stroke-width="5.06" stroke-linecap="round" stroke-linejoin="round"/>
<g id="Group 1000002006_2">
<g id="Group 1000001990_2">
<rect id="Rectangle 5113_2" x="98.888" y="2.78" width="37.1067" height="93.0233" rx="18.5533" transform="rotate(90 98.888 2.78)" stroke="#FF6B00" stroke-width="5.06"/>
</g>
<g id="NEW_2">
<path d="M38.1156 13.083C36.9582 13.083 36.0272 14.0643 36.0272 15.1965V23.3737L29.4352 14.2907C28.9319 13.5611 28.2023 13.083 27.3217 13.083C26.1894 13.083 25.334 13.7875 25.334 15.0959V28.8335C25.334 29.9657 26.2901 30.947 27.4726 30.947C28.63 30.947 29.561 29.9657 29.561 28.8335V20.6312L36.153 29.7393C36.6562 30.4438 37.3859 30.947 38.2917 30.947C39.3987 30.947 40.2542 30.2425 40.2542 28.909V15.1965C40.2542 14.0643 39.3233 13.083 38.1156 13.083Z" fill="#4D4D4F"/>
<path d="M47.397 27.1729V23.6504H51.1963C52.2027 23.6504 53.0079 22.8705 53.0079 21.9144C53.0079 21.0086 52.2027 20.2034 51.1963 20.2034H47.397V16.7564H53.5111C54.5175 16.7564 55.3478 15.9513 55.3478 14.9197C55.3478 13.9636 54.5175 13.1585 53.5111 13.1585H45.5603C44.2268 13.1585 43.2707 14.1146 43.2707 15.4481V28.4813C43.2707 29.8148 44.2268 30.7709 45.5603 30.7709H53.7627C54.7691 30.7709 55.5994 29.9657 55.5994 28.9593C55.5994 27.9781 54.7691 27.1729 53.7627 27.1729H47.397Z" fill="#4D4D4F"/>
<path d="M79.2745 13.083C78.3687 13.083 77.5133 13.6114 77.2868 14.4165L74.645 24.4053L71.1728 14.4165C70.7954 13.4101 70.0154 13.083 69.3109 13.083C68.5561 13.083 67.8516 13.4101 67.4742 14.4165L64.002 24.4053L61.3602 14.4165C61.1337 13.6114 60.2783 13.083 59.3725 13.083C58.2403 13.083 57.3596 13.9385 57.3596 14.9449C57.3596 15.3726 57.5106 15.8003 57.6364 16.1526L61.6621 29.3871C61.9892 30.4438 62.8195 30.9219 63.8511 30.9219C64.8827 30.9219 65.6375 30.4438 66.0149 29.3871L69.3361 20.3293L72.6321 29.3871C73.0095 30.4438 73.7643 30.9219 74.7959 30.9219C75.8275 30.9219 76.6578 30.4438 76.9849 29.3871L81.0106 16.1526C81.1112 15.8003 81.2874 15.3726 81.2874 14.9449C81.2874 13.9385 80.4067 13.083 79.2745 13.083Z" fill="#4D4D4F"/>
</g>
</g>
</g>
</g>
</svg>
