<svg width="90" height="100" viewBox="0 0 90 100" fill="none" xmlns="http://www.w3.org/2000/svg">
<g opacity="0.3">
<path d="M44.7801 59.9535L67.4211 24.0214C69.6359 20.5064 74.2184 19.3464 77.8389 21.3842V21.3842C81.4594 23.4221 82.845 27.9416 80.9891 31.6586L68.4771 56.7166" stroke="#FF6B00" stroke-width="5.06"/>
<path d="M73.5491 70.8255C71.7343 85.6894 59.0692 97.2021 43.7152 97.2021C27.1152 97.2021 13.6582 83.7451 13.6582 67.1451C13.6582 64.6056 13.9731 62.1396 14.5661 59.7842" stroke="#FF6B00" stroke-width="5.06" stroke-linecap="round"/>
<path d="M8.75 56.7158C34.5131 70.2108 52.302 49.3549 78.6785 59.7829" stroke="#FF6B00" stroke-width="5.06" stroke-linecap="round"/>
<path d="M40.668 38.4013C26.1429 25.7119 41.7113 7.8487 50.8875 6.71464C49.5938 10.7657 47.7487 20.3435 50.7176 26.2466C52.9971 30.7789 50.1186 34.5887 46.6778 36.6942" stroke="#FF6B00" stroke-width="5.06" stroke-linecap="round" stroke-linejoin="round"/>
<path d="M32.0572 51.4219C14.3371 59.0375 4.95527 37.2787 7.89782 28.5134C10.9921 31.4306 18.8322 37.2333 25.4386 37.1068C30.511 37.0096 32.7028 41.2518 33.1147 45.2646" stroke="#FF6B00" stroke-width="5.06" stroke-linecap="round" stroke-linejoin="round"/>
</g>
<path d="M48.4461 56.2865L71.0871 20.3544C73.3019 16.8394 77.8845 15.6794 81.5049 17.7173V17.7173C85.1254 19.7552 86.511 24.2746 84.6551 27.9916L72.1432 53.0497" stroke="#FF6B00" stroke-width="5.06"/>
<path d="M77.2151 67.1585C75.4004 82.0224 62.7352 93.5351 47.3812 93.5351C30.7812 93.5351 17.3242 80.0781 17.3242 63.4781C17.3242 60.9386 17.6392 58.4726 18.2321 56.1172" stroke="#FF6B00" stroke-width="5.06" stroke-linecap="round"/>
<path d="M12.416 53.0488C38.1791 66.5438 55.968 45.6879 82.3445 56.1159" stroke="#4D4D4F" stroke-width="5.06" stroke-linecap="round"/>
<path d="M44.334 34.7343C29.8089 22.0449 45.3773 4.1817 54.5535 3.04765C53.2598 7.09869 51.4147 16.6765 54.3836 22.5796C56.6631 27.1119 53.7846 30.9217 50.3438 33.0272" stroke="#4D4D4F" stroke-width="5.06" stroke-linecap="round" stroke-linejoin="round"/>
<path d="M35.7232 47.7549C18.0031 55.3706 8.62129 33.6117 11.5638 24.8464C14.6581 27.7636 22.4982 33.5663 29.1046 33.4398C34.177 33.3426 36.3688 37.5848 36.7807 41.5976" stroke="#4D4D4F" stroke-width="5.06" stroke-linecap="round" stroke-linejoin="round"/>
</svg>
