<svg width="96" height="90" viewBox="0 0 96 90" fill="none" xmlns="http://www.w3.org/2000/svg">
<g id="Mua s&#225;&#186;&#175;m c&#195;&#185;ng TTDP">
<g id="Mua s&#225;&#186;&#175;m c&#195;&#185;ng TTDP_2">
<g id="Mua s&#225;&#186;&#175;m c&#195;&#185;ng TTDP_3" opacity="0.3">
<g id="&#196;&#144;&#198;&#161;n h&#195;&#160;ng 3">
<path id="Vector" d="M32.7553 89.0829C36.3957 89.0829 39.3583 86.1203 39.3583 82.4799C39.3583 78.8395 36.3957 75.877 32.7553 75.877C29.1149 75.877 26.1523 78.8395 26.1523 82.4799C26.1523 86.1203 29.1149 89.0829 32.7553 89.0829Z" fill="#FF6B00"/>
<path id="Vector_2" d="M75.6596 89.0829C79.3 89.0829 82.2626 86.1203 82.2626 82.4799C82.2626 78.8395 79.3 75.877 75.6596 75.877C72.0192 75.877 69.0566 78.8395 69.0566 82.4799C69.0566 86.1203 72.0192 89.0829 75.6596 89.0829Z" fill="#FF6B00"/>
<path id="Vector_3" d="M3.08008 6.60742H10.0094C10.7375 6.60742 11.4153 6.8334 11.9928 7.26021C12.5702 7.68702 12.972 8.28958 13.1729 8.99255L28.111 61.2137C28.4876 62.5945 29.3412 63.7996 30.471 64.6784C31.6259 65.532 33.0068 66.009 34.463 66.009H73.9803C75.4114 66.009 76.8174 65.5571 77.9723 64.6784C79.1272 63.8248 79.9557 62.5945 80.3323 61.2137L91.2284 23.1023" stroke="#FF6B00" stroke-width="5.09658" stroke-linecap="round" stroke-linejoin="round"/>
</g>
<g id="Group 1000001415">
<path id="Vector_4" d="M69.5619 22.8754H67.2223C66.7611 22.8758 66.3044 22.7865 65.8783 22.6126C65.4521 22.4387 65.0649 22.1836 64.7388 21.862C64.4127 21.5403 64.1541 21.1584 63.9778 20.7381C63.8015 20.3178 63.711 19.8673 63.7114 19.4124V17.1047C63.7114 14.8102 62.7873 12.6096 61.1423 10.9871C59.4974 9.36463 57.2664 8.45312 54.9401 8.45312C52.6138 8.45313 50.3828 9.36463 48.7378 10.9871C47.0929 12.6096 46.1688 14.8102 46.1688 17.1047V19.4124C46.1688 19.8677 46.0778 20.3185 45.901 20.739C45.7242 21.1595 45.465 21.5416 45.1384 21.8632C44.8117 22.1848 44.424 22.4398 43.9973 22.6135C43.5707 22.7872 43.1135 22.8762 42.6519 22.8754H40.3123C37.986 22.8754 35.755 23.7869 34.1101 25.4094C32.4651 27.0319 31.541 29.2325 31.541 31.527V31.527C31.541 33.8216 32.4651 36.0221 34.1101 37.6446C35.755 39.2671 37.986 40.1786 40.3123 40.1786H42.6519C43.5828 40.1794 44.4754 40.5445 45.1336 41.1938C45.7919 41.843 46.162 42.7234 46.1628 43.6416V45.9493C46.1648 47.8877 46.827 49.7692 48.043 51.292C49.259 52.8147 50.9584 53.8904 52.8684 54.3464C54.7785 54.8024 56.7885 54.6123 58.5759 53.8065C60.3633 53.0008 61.8244 51.6262 62.7249 49.9032L53.0326 32.6C52.7431 32.1025 52.6645 31.5123 52.8139 30.9579C52.9634 30.4035 53.3288 29.9298 53.8306 29.6399C54.3325 29.3499 54.9301 29.2672 55.4935 29.4098C56.0568 29.5524 56.5403 29.9087 56.8386 30.4011L63.3031 40.6372C63.2613 39.7141 63.8693 38.8734 64.6562 38.3707C66.0033 37.4888 67.7379 37.5887 68.787 38.9763C68.9081 39.1394 69.0148 39.3125 69.1059 39.4937C68.6618 38.3736 69.1059 37.2066 70.5723 36.6598C71.7346 36.2247 72.9566 36.2805 73.8924 37.5417C74.099 37.8303 74.2701 38.1421 74.4021 38.4706C74.3682 38.1512 74.4399 37.8296 74.6064 37.5536C74.7728 37.2776 75.0252 37.0621 75.326 36.939C75.7389 36.728 76.1962 36.6153 76.6612 36.6098C77.7527 35.1372 78.3404 33.36 78.3392 31.5358V31.5358C78.3403 30.3984 78.1141 29.272 77.6735 28.2209C77.2328 27.1699 76.5864 26.2148 75.7712 25.4104C74.9559 24.606 73.9879 23.9681 72.9224 23.5331C71.857 23.0981 70.715 22.8746 69.5619 22.8754V22.8754ZM61.0886 33.1262C61.0714 33.1909 61.0415 33.2516 61.0005 33.3048C60.9595 33.358 60.9082 33.4028 60.8497 33.4365C60.7912 33.4702 60.7265 33.4922 60.6593 33.5013C60.5922 33.5103 60.5238 33.5063 60.4583 33.4893C60.3927 33.4723 60.3312 33.4427 60.2772 33.4023C60.2232 33.3619 60.1779 33.3113 60.1437 33.2536C60.1095 33.1959 60.0872 33.132 60.078 33.0658C60.0688 32.9996 60.073 32.9322 60.0902 32.8675C60.3589 31.8617 60.3193 30.7999 59.9762 29.8163C59.6331 28.8328 59.002 27.9717 58.1628 27.3419C57.3236 26.712 56.3138 26.3418 55.2613 26.2781C54.2087 26.2143 53.1606 26.4598 52.2495 26.9835C51.3385 27.5073 50.6053 28.2857 50.1427 29.2204C49.6801 30.1552 49.509 31.2042 49.6509 32.2349C49.7927 33.2656 50.2413 34.2316 50.9398 35.0109C51.6383 35.7901 52.5554 36.3476 53.5751 36.6127C53.6954 36.6448 53.7999 36.7189 53.8692 36.8211C53.9385 36.9234 53.9678 37.047 53.9518 37.1689C53.9358 37.2909 53.8756 37.403 53.7822 37.4845C53.6888 37.5661 53.5686 37.6114 53.4439 37.6122C53.4004 37.6182 53.3563 37.6182 53.3128 37.6122C52.096 37.2958 51.0016 36.6306 50.1681 35.7007C49.3345 34.7708 48.7992 33.618 48.6299 32.3881C48.4605 31.1582 48.6646 29.9063 49.2165 28.7908C49.7684 27.6753 50.6432 26.7463 51.7303 26.1212C52.8175 25.496 54.0681 25.2029 55.3242 25.2788C56.5802 25.3547 57.7852 25.7962 58.7869 26.5475C59.7885 27.2989 60.5418 28.3263 60.9515 29.4999C61.3612 30.6735 61.409 31.9406 61.0886 33.1409V33.1262ZM64.832 34.1022C64.8111 34.1762 64.7616 34.2391 64.6942 34.2776C64.6268 34.316 64.5468 34.3269 64.4714 34.308C64.3966 34.2884 64.3325 34.241 64.2926 34.1757C64.2729 34.1422 64.2602 34.1053 64.2551 34.0669C64.25 34.0286 64.2526 33.9896 64.2628 33.9523C64.7484 32.133 64.6762 30.2126 64.0554 28.4338C63.4345 26.655 62.293 25.0977 60.7749 23.9587C59.2569 22.8198 57.4306 22.1504 55.5269 22.0352C53.6232 21.9199 51.7276 22.364 50.0797 23.3113C48.4319 24.2586 47.1058 25.6665 46.2691 27.357C45.4324 29.0476 45.1226 30.9449 45.379 32.8091C45.6354 34.6733 46.4465 36.4206 47.7096 37.8302C48.9727 39.2398 50.6311 40.2484 52.4753 40.7283C52.5503 40.749 52.6141 40.7978 52.6531 40.8643C52.6921 40.9307 52.7032 41.0096 52.6839 41.084C52.6665 41.1482 52.6275 41.2046 52.5734 41.2441C52.5193 41.2836 52.4532 41.3039 52.3859 41.3016C52.3612 41.3056 52.3361 41.3056 52.3114 41.3016C50.3543 40.7909 48.5946 39.7193 47.2548 38.2223C45.915 36.7254 45.0552 34.8702 44.7842 32.8913C44.5132 30.9125 44.843 28.8988 45.7321 27.1048C46.6212 25.3109 48.0295 23.8172 49.7791 22.8126C51.5287 21.808 53.541 21.3375 55.5616 21.4608C57.5822 21.584 59.5203 22.2954 61.1311 23.505C62.7419 24.7145 63.9529 26.368 64.6111 28.2563C65.2693 30.1447 65.3452 32.1831 64.829 34.114L64.832 34.1022Z" fill="#FF6B00"/>
<path id="Vector_5" d="M36.8619 19.5273C35.4263 20.0525 34.1097 20.8516 32.9874 21.8791C31.8841 22.8827 30.9927 24.0915 30.3647 25.4361C29.7424 26.7494 29.3899 28.1711 29.3275 29.6194C29.2753 31.0389 29.5082 32.4546 30.013 33.7849C29.671 32.4397 29.6011 31.0412 29.8073 29.6693C30.0075 28.3228 30.4766 27.0289 31.1873 25.8624C31.8804 24.7265 32.7915 23.735 33.8696 22.9432C34.9298 22.1747 36.1328 21.6193 37.4103 21.3088C37.5345 21.2824 37.652 21.2318 37.7559 21.1598C37.8598 21.0879 37.9479 20.996 38.0152 20.8898C38.0824 20.7836 38.1273 20.6651 38.1472 20.5414C38.1671 20.4177 38.1616 20.2913 38.1311 20.1698C38.1005 20.0482 38.0455 19.934 37.9693 19.8338C37.8931 19.7336 37.7973 19.6496 37.6876 19.5866C37.5778 19.5237 37.4563 19.4831 37.3304 19.4674C37.2044 19.4516 37.0765 19.461 36.9543 19.4949C36.9208 19.502 36.8879 19.5119 36.856 19.5243L36.8619 19.5273Z" fill="#FF6B00"/>
</g>
</g>
<g id="Mua s&#225;&#186;&#175;m c&#195;&#185;ng TTDP_4">
<g id="&#196;&#144;&#198;&#161;n h&#195;&#160;ng 3_2">
<path id="Vector_6" d="M34.1674 85.3925C37.8078 85.3925 40.7704 82.4299 40.7704 78.7895C40.7704 75.1491 37.8078 72.1865 34.1674 72.1865C30.527 72.1865 27.5645 75.1491 27.5645 78.7895C27.5645 82.4299 30.527 85.3925 34.1674 85.3925Z" fill="#FF6B00"/>
<path id="Vector_7" d="M77.0717 85.3925C80.7121 85.3925 83.6747 82.4299 83.6747 78.7895C83.6747 75.1491 80.7121 72.1865 77.0717 72.1865C73.4313 72.1865 70.4688 75.1491 70.4688 78.7895C70.4688 82.4299 73.4313 85.3925 77.0717 85.3925Z" fill="#FF6B00"/>
<path id="Vector_8" d="M4.49219 2.91699H11.4216C12.1496 2.91699 12.8275 3.14297 13.4049 3.56978C13.9823 3.99659 14.3841 4.59915 14.585 5.30212L29.5231 57.5233C29.8997 58.9041 30.7533 60.1092 31.8831 60.9879C33.038 61.8416 34.4189 62.3186 35.8751 62.3186H75.3924C76.8235 62.3186 78.2295 61.8667 79.3844 60.9879C80.5393 60.1343 81.3678 58.9041 81.7444 57.5233L92.6405 19.4119" stroke="#FF6B00" stroke-width="5.09658" stroke-linecap="round" stroke-linejoin="round"/>
</g>
<g id="Group 1000001415_2">
<path id="Vector_9" d="M70.974 19.185H68.6344C68.1732 19.1854 67.7165 19.0961 67.2904 18.9222C66.8642 18.7483 66.477 18.4932 66.1509 18.1715C65.8248 17.8499 65.5662 17.468 65.3899 17.0477C65.2136 16.6273 65.1231 16.1769 65.1235 15.722V13.4143C65.1235 11.1198 64.1994 8.91918 62.5544 7.29669C60.9095 5.6742 58.6785 4.7627 56.3522 4.7627C54.0259 4.7627 51.7949 5.6742 50.15 7.29669C48.505 8.91918 47.5809 11.1198 47.5809 13.4143V15.722C47.5809 16.1772 47.4899 16.628 47.3131 17.0486C47.1363 17.4691 46.8771 17.8511 46.5505 18.1728C46.2238 18.4944 45.8361 18.7494 45.4094 18.9231C44.9828 19.0967 44.5256 19.1857 44.064 19.185H41.7244C39.3981 19.185 37.1671 20.0965 35.5222 21.719C33.8772 23.3415 32.9531 25.542 32.9531 27.8366V27.8366C32.9531 30.1311 33.8772 32.3317 35.5222 33.9542C37.1671 35.5767 39.3981 36.4882 41.7244 36.4882H44.064C44.9949 36.489 45.8875 36.8541 46.5457 37.5033C47.204 38.1526 47.5741 39.033 47.5749 39.9512V42.2589C47.5769 44.1972 48.2391 46.0788 49.4551 47.6015C50.6711 49.1243 52.3705 50.2 54.2806 50.656C56.1906 51.112 58.2006 50.9218 59.988 50.1161C61.7754 49.3104 63.2365 47.9357 64.137 46.2128L54.4447 28.9096C54.1552 28.4121 54.0766 27.8219 54.226 27.2675C54.3755 26.7131 54.7409 26.2394 55.2427 25.9494C55.7446 25.6595 56.3422 25.5768 56.9056 25.7194C57.4689 25.8619 57.9524 26.2182 58.2507 26.7107L64.7152 36.9468C64.6735 36.0237 65.2815 35.1829 66.0683 34.6803C67.4154 33.7983 69.15 33.8983 70.1991 35.2858C70.3202 35.449 70.4269 35.6221 70.518 35.8032C70.0739 34.6832 70.518 33.5161 71.9844 32.9693C73.1467 32.5343 74.3687 32.5901 75.3045 33.8512C75.5111 34.1399 75.6822 34.4517 75.8142 34.7802C75.7803 34.4608 75.852 34.1392 76.0185 33.8632C76.185 33.5872 76.4374 33.3716 76.7381 33.2486C77.151 33.0376 77.6083 32.9249 78.0733 32.9194C79.1648 31.4468 79.7526 29.6696 79.7513 27.8454V27.8454C79.7524 26.708 79.5262 25.5816 79.0856 24.5305C78.6449 23.4794 77.9985 22.5244 77.1833 21.72C76.368 20.9156 75.4 20.2777 74.3345 19.8427C73.2691 19.4077 72.1271 19.1842 70.974 19.185V19.185ZM62.5007 29.4358C62.4835 29.5005 62.4536 29.5611 62.4126 29.6144C62.3716 29.6676 62.3203 29.7124 62.2618 29.7461C62.2033 29.7798 62.1386 29.8018 62.0714 29.8109C62.0043 29.8199 61.936 29.8158 61.8704 29.7988C61.8048 29.7819 61.7433 29.7523 61.6893 29.7119C61.6354 29.6714 61.59 29.6209 61.5558 29.5632C61.5216 29.5054 61.4993 29.4416 61.4901 29.3754C61.481 29.3091 61.4851 29.2418 61.5023 29.1771C61.771 28.1713 61.7314 27.1095 61.3883 26.1259C61.0452 25.1424 60.4142 24.2812 59.5749 23.6514C58.7357 23.0216 57.7259 22.6514 56.6734 22.5876C55.6208 22.5238 54.5727 22.7693 53.6617 23.2931C52.7506 23.8168 52.0174 24.5953 51.5548 25.53C51.0923 26.4648 50.9211 27.5138 51.063 28.5445C51.2049 29.5752 51.6534 30.5412 52.3519 31.3204C53.0504 32.0997 53.9675 32.6571 54.9872 32.9223C55.1075 32.9544 55.2121 33.0284 55.2813 33.1307C55.3506 33.233 55.38 33.3565 55.3639 33.4785C55.3479 33.6005 55.2877 33.7126 55.1943 33.7941C55.1009 33.8756 54.9807 33.921 54.856 33.9218C54.8125 33.9277 54.7684 33.9277 54.7249 33.9218C53.5081 33.6054 52.4137 32.9401 51.5802 32.0103C50.7466 31.0804 50.2113 29.9276 50.042 28.6977C49.8726 27.4677 50.0767 26.2159 50.6286 25.1004C51.1805 23.9849 52.0553 23.0559 53.1424 22.4307C54.2296 21.8056 55.4802 21.5124 56.7363 21.5883C57.9923 21.6642 59.1973 22.1058 60.199 22.8571C61.2006 23.6085 61.9539 24.6359 62.3636 25.8095C62.7734 26.9831 62.8211 28.2501 62.5007 29.4505V29.4358ZM66.2441 30.4118C66.2232 30.4857 66.1737 30.5487 66.1063 30.5871C66.0389 30.6256 65.9589 30.6365 65.8835 30.6176C65.8087 30.598 65.7446 30.5506 65.7047 30.4853C65.6851 30.4518 65.6723 30.4148 65.6672 30.3765C65.6621 30.3381 65.6647 30.2992 65.6749 30.2618C66.1605 28.4426 66.0883 26.5222 65.4675 24.7433C64.8467 22.9645 63.7051 21.4072 62.187 20.2683C60.669 19.1294 58.8427 18.46 56.939 18.3447C55.0353 18.2295 53.1397 18.6736 51.4918 19.6209C49.844 20.5681 48.5179 21.976 47.6812 23.6666C46.8445 25.3572 46.5347 27.2545 46.7911 29.1187C47.0475 30.9829 47.8586 32.7302 49.1217 34.1398C50.3848 35.5494 52.0433 36.5579 53.8874 37.0379C53.9624 37.0586 54.0262 37.1074 54.0652 37.1738C54.1042 37.2403 54.1153 37.3192 54.096 37.3936C54.0786 37.4577 54.0396 37.5142 53.9855 37.5537C53.9314 37.5932 53.8653 37.6134 53.798 37.6112C53.7733 37.6152 53.7482 37.6152 53.7235 37.6112C51.7664 37.1005 50.0067 36.0289 48.6669 34.5319C47.3271 33.0349 46.4673 31.1798 46.1963 29.2009C45.9253 27.2221 46.2552 25.2084 47.1442 23.4144C48.0333 21.6204 49.4416 20.1267 51.1912 19.1221C52.9408 18.1175 54.9531 17.6471 56.9737 17.7704C58.9943 17.8936 60.9325 18.605 62.5432 19.8145C64.154 21.0241 65.365 22.6776 66.0232 24.5659C66.6815 26.4543 66.7573 28.4927 66.2411 30.4235L66.2441 30.4118Z" fill="#FF6B00"/>
<path id="Vector_10" d="M38.274 15.8369C36.8384 16.362 35.5218 17.1612 34.3995 18.1886C33.2962 19.1923 32.4048 20.4011 31.7768 21.7457C31.1546 23.0589 30.8021 24.4807 30.7396 25.9289C30.6874 27.3484 30.9204 28.7641 31.4251 30.0945C31.0831 28.7493 31.0132 27.3508 31.2194 25.9789C31.4196 24.6324 31.8887 23.3384 32.5994 22.172C33.2925 21.0361 34.2036 20.0445 35.2817 19.2528C36.3419 18.4842 37.5449 17.9289 38.8224 17.6183C38.9466 17.592 39.0641 17.5414 39.168 17.4694C39.2719 17.3974 39.3601 17.3056 39.4273 17.1994C39.4945 17.0931 39.5394 16.9746 39.5593 16.851C39.5792 16.7273 39.5737 16.6009 39.5432 16.4794C39.5126 16.3578 39.4576 16.2436 39.3814 16.1434C39.3052 16.0432 39.2094 15.9591 39.0997 15.8962C38.9899 15.8333 38.8684 15.7927 38.7425 15.777C38.6165 15.7612 38.4886 15.7706 38.3664 15.8045C38.3329 15.8116 38.3 15.8214 38.2681 15.8339L38.274 15.8369Z" fill="#FF6B00"/>
</g>
</g>
</g>
</g>
</svg>
