<svg width="102" height="108" viewBox="0 0 102 108" fill="none" xmlns="http://www.w3.org/2000/svg">
<g id="H&#225;&#187;&#151; tr&#225;&#187;&#163; &#196;&#145;&#225;&#187;&#157;i s&#225;&#187;&#145;ng v&#195;&#160; ph&#225;&#187;&#165;c h&#225;&#187;&#147;i ch&#225;&#187;&#169;c n&#196;&#131;ng">
<g id="Group 1000001677">
<g id="Group 1000001659" opacity="0.3">
<g id="Group">
<path id="Vector" d="M31.2266 72.6992V101.767" stroke="#FF6B00" stroke-width="5.06" stroke-linecap="round" stroke-linejoin="round"/>
<path id="Vector_2" d="M45.7648 87.2285H16.6973" stroke="#FF6B00" stroke-width="5.06" stroke-linecap="round" stroke-linejoin="round"/>
<path id="Vector_3" d="M16.6973 85.5598V55.2273C16.6973 52.019 14.1032 49.4248 10.8948 49.4248H4.65234" stroke="#FF6B00" stroke-width="5.06" stroke-linecap="round" stroke-linejoin="round"/>
<path id="Vector_4" d="M26.0742 73.1024V42.7332C26.0742 39.7632 28.3292 37.3799 31.1251 37.3799C33.9209 37.3799 36.1759 39.7724 36.1759 42.7332V73.1024" stroke="#FF6B00" stroke-width="5.06" stroke-linecap="round" stroke-linejoin="round"/>
<path id="Vector_5" d="M60.7154 87.6497V83.1122C60.7154 77.5847 56.2421 73.1113 50.7146 73.1113H36.2129" stroke="#FF6B00" stroke-width="5.06" stroke-linecap="round" stroke-linejoin="round"/>
<path id="Vector_6" d="M60.3392 80.3711H44.0684" stroke="#FF6B00" stroke-width="5.06" stroke-linecap="round" stroke-linejoin="round"/>
<path id="Vector_7" d="M31.2356 101.766C39.2564 101.766 45.7739 95.2486 45.7739 87.2278C45.7739 79.207 39.2564 72.6895 31.2356 72.6895C23.2148 72.6895 16.6973 79.207 16.6973 87.2278C16.6973 95.2486 23.2148 101.766 31.2356 101.766V101.766Z" stroke="#FF6B00" stroke-width="5.06" stroke-linecap="round" stroke-linejoin="round"/>
<path id="Vector_8" d="M60.7165 101.766C64.6032 101.766 67.7749 98.5948 67.7749 94.699C67.7749 90.8031 64.6032 87.6406 60.7165 87.6406C56.8299 87.6406 53.6582 90.8123 53.6582 94.699C53.6582 98.5856 56.8299 101.766 60.7165 101.766Z" stroke="#FF6B00" stroke-width="5.06" stroke-linecap="round" stroke-linejoin="round"/>
</g>
<path id="Vector_9" d="M9.78516 37.6643C16.6143 21.5126 32.6102 10.1826 51.246 10.1826C76.0968 10.1826 96.236 30.3218 96.236 55.1726C96.236 69.4085 89.6268 82.1043 79.296 90.3451" stroke="#FF6B00" stroke-width="5.06" stroke-linecap="round" stroke-linejoin="round"/>
</g>
<g id="Group 1000001658">
<g id="Group_2">
<path id="Vector_10" d="M33.9766 69.9492V99.0167" stroke="#4D4D4F" stroke-width="5.06" stroke-linecap="round" stroke-linejoin="round"/>
<path id="Vector_11" d="M48.5148 84.4785H19.4473" stroke="#4D4D4F" stroke-width="5.06" stroke-linecap="round" stroke-linejoin="round"/>
<path id="Vector_12" d="M19.4473 82.8098V52.4773C19.4473 49.269 16.8532 46.6748 13.6448 46.6748H7.40234" stroke="#4D4D4F" stroke-width="5.06" stroke-linecap="round" stroke-linejoin="round"/>
<path id="Vector_13" d="M28.8242 70.3524V39.9832C28.8242 37.0132 31.0792 34.6299 33.8751 34.6299C36.6709 34.6299 38.9259 37.0224 38.9259 39.9832V70.3524" stroke="#4D4D4F" stroke-width="5.06" stroke-linecap="round" stroke-linejoin="round"/>
<path id="Vector_14" d="M63.4654 84.8997V80.3622C63.4654 74.8347 58.9921 70.3613 53.4646 70.3613H38.9629" stroke="#4D4D4F" stroke-width="5.06" stroke-linecap="round" stroke-linejoin="round"/>
<path id="Vector_15" d="M63.0892 77.6211H46.8184" stroke="#4D4D4F" stroke-width="5.06" stroke-linecap="round" stroke-linejoin="round"/>
<path id="Vector_16" d="M33.9856 99.0161C42.0064 99.0161 48.5239 92.4986 48.5239 84.4778C48.5239 76.457 42.0064 69.9395 33.9856 69.9395C25.9648 69.9395 19.4473 76.457 19.4473 84.4778C19.4473 92.4986 25.9648 99.0161 33.9856 99.0161V99.0161Z" stroke="#FF6B00" stroke-width="5.06" stroke-linecap="round" stroke-linejoin="round"/>
<path id="Vector_17" d="M63.4665 99.0165C67.3532 99.0165 70.5249 95.8448 70.5249 91.949C70.5249 88.0531 67.3532 84.8906 63.4665 84.8906C59.5799 84.8906 56.4082 88.0623 56.4082 91.949C56.4082 95.8356 59.5799 99.0165 63.4665 99.0165Z" stroke="#FF6B00" stroke-width="5.06" stroke-linecap="round" stroke-linejoin="round"/>
</g>
<path id="Vector_18" d="M12.5352 34.9143C19.3643 18.7626 35.3602 7.43262 53.996 7.43262C78.8468 7.43262 98.986 27.5718 98.986 52.4226C98.986 66.6585 92.3768 79.3543 82.046 87.5951" stroke="#FF6B00" stroke-width="5.06" stroke-linecap="round" stroke-linejoin="round"/>
</g>
</g>
</g>
</svg>
