<svg width="100" height="29" viewBox="0 0 100 29" fill="none" xmlns="http://www.w3.org/2000/svg">
<path d="M98.7663 25.3826C98.7663 26.9117 97.502 28.1502 95.9381 28.1502H3.38367C1.82055 28.1502 0.551758 26.9117 0.551758 25.3826V3.3122C0.551758 1.78389 1.82055 0.541016 3.38367 0.541016H95.9374C97.502 0.541016 98.7656 1.78389 98.7656 3.3122L98.7663 25.3826Z" fill="white"/>
<path d="M95.6397 0.574242C97.3428 0.574242 98.7286 1.92545 98.7286 3.586V25.1049C98.7286 26.7655 97.3428 28.1167 95.6397 28.1167H3.67845C1.97533 28.1167 0.589471 26.7655 0.589471 25.1049V3.586C0.589471 1.92545 1.97533 0.574242 3.67845 0.574242H95.6397ZM95.6397 -0.000491467H3.67845C1.65622 -0.000491467 0 1.61432 0 3.586V25.1049C0 27.0766 1.65622 28.6914 3.67845 28.6914H95.6397C97.6619 28.6914 99.3181 27.0766 99.3181 25.1049V3.586C99.3181 1.61432 97.6619 -0.000491467 95.6397 -0.000491467Z" fill="#4D4D4F"/>
<path d="M22.1651 14.1906C22.1438 11.8787 24.1066 10.754 24.1964 10.7016C23.0847 9.12142 21.3617 8.90551 20.7563 8.8883C19.3092 8.73981 17.9055 9.73255 17.1683 9.73255C16.4164 9.73255 15.2813 8.90264 14.0578 8.92703C12.4834 8.9507 11.0106 9.83943 10.2028 11.2195C8.53573 14.0335 9.77905 18.1687 11.3762 20.4432C12.1752 21.5572 13.1088 22.801 14.3308 22.7572C15.5263 22.7092 15.9728 22.0141 17.4155 22.0141C18.845 22.0141 19.2643 22.7572 20.5106 22.7293C21.7936 22.7092 22.6014 21.6103 23.3724 20.4863C24.2957 19.2095 24.6665 17.9521 24.6812 17.8875C24.651 17.8775 22.1894 16.9615 22.1651 14.1906Z" fill="#4D4D4F"/>
<path d="M19.8109 7.39201C20.4539 6.60801 20.8938 5.54139 20.7717 4.45898C19.8411 4.49915 18.6772 5.08662 18.007 5.85341C17.414 6.5291 16.8843 7.63661 17.0212 8.67813C18.0666 8.75416 19.14 8.16383 19.8109 7.39201Z" fill="#4D4D4F"/>
<path d="M36.0859 7.18092C36.0859 8.02518 35.8262 8.66071 35.3076 9.0875C34.8272 9.48129 34.1444 9.67855 33.2601 9.67855C32.8217 9.67855 32.4465 9.6599 32.1323 9.6226V5.00966C32.5421 4.9451 32.9835 4.91211 33.4602 4.91211C34.3026 4.91211 34.9375 5.09072 35.3657 5.44793C35.8454 5.85177 36.0859 6.42919 36.0859 7.18092ZM35.273 7.20172C35.273 6.65443 35.1244 6.23481 34.8272 5.94215C34.5299 5.65021 34.0959 5.50388 33.5243 5.50388C33.2815 5.50388 33.0747 5.51966 32.9033 5.55266V9.05952C32.9982 9.07387 33.1719 9.08033 33.4242 9.08033C34.0142 9.08033 34.4696 8.92037 34.7904 8.60045C35.1111 8.28054 35.273 7.8143 35.273 7.20172Z" fill="#4D4D4F"/>
<path d="M40.3962 7.9171C40.3962 8.43714 40.2439 8.86322 39.9393 9.19748C39.62 9.54106 39.197 9.7125 38.6688 9.7125C38.1597 9.7125 37.7543 9.54824 37.452 9.21828C37.1503 8.88904 36.9995 8.47373 36.9995 7.97305C36.9995 7.44942 37.1547 7.01976 37.4667 6.68622C37.7786 6.35268 38.198 6.18555 38.7262 6.18555C39.2353 6.18555 39.6443 6.34981 39.954 6.67905C40.2483 6.99896 40.3962 7.41213 40.3962 7.9171ZM39.5965 7.94149C39.5965 7.62947 39.5273 7.36191 39.3898 7.13883C39.2279 6.86913 38.9976 6.73428 38.6982 6.73428C38.3885 6.73428 38.1531 6.86913 37.9912 7.13883C37.8529 7.36191 37.7845 7.63377 37.7845 7.95512C37.7845 8.26714 37.8536 8.5347 37.9912 8.75777C38.1582 9.02748 38.3907 9.16233 38.6909 9.16233C38.9851 9.16233 39.2161 9.02533 39.3824 8.7506C39.5251 8.52322 39.5965 8.25352 39.5965 7.94149Z" fill="#4D4D4F"/>
<path d="M46.1756 6.25391L45.0905 9.63525H44.3842L43.9347 8.16694C43.8207 7.8004 43.728 7.43601 43.6559 7.07449H43.6419C43.575 7.44605 43.4823 7.80972 43.3631 8.16694L42.8856 9.63525H42.1713L41.1509 6.25391H41.9432L42.3353 7.86137C42.4302 8.24154 42.5082 8.60377 42.5708 8.94664H42.5847C42.6421 8.66403 42.737 8.30394 42.8709 7.86854L43.3631 6.25462H43.9914L44.463 7.83411C44.577 8.2193 44.6697 8.59014 44.741 8.94736H44.7624C44.8146 8.59947 44.8933 8.22863 44.9978 7.83411L45.4186 6.25462H46.1756V6.25391Z" fill="#4D4D4F"/>
<path d="M50.1727 9.63595H49.4017V7.69924C49.4017 7.10245 49.1692 6.80406 48.7028 6.80406C48.474 6.80406 48.2893 6.88583 48.1459 7.05009C48.0039 7.21435 47.9318 7.40802 47.9318 7.62967V9.63523H47.1608V7.22081C47.1608 6.92385 47.1512 6.60178 47.1328 6.25317H47.8104L47.8464 6.78182H47.8678C47.9575 6.61756 48.0914 6.48199 48.2672 6.37368C48.4762 6.24743 48.7101 6.18359 48.9661 6.18359C49.2898 6.18359 49.5591 6.28545 49.7732 6.48988C50.0395 6.74022 50.1727 7.11393 50.1727 7.6103V9.63595V9.63595Z" fill="#4D4D4F"/>
<path d="M52.2991 9.63598H51.5288V4.70312H52.2991V9.63598Z" fill="#4D4D4F"/>
<path d="M56.8386 7.9171C56.8386 8.43714 56.6863 8.86322 56.3817 9.19748C56.0624 9.54106 55.6387 9.7125 55.1112 9.7125C54.6013 9.7125 54.196 9.54824 53.8943 9.21828C53.5927 8.88904 53.4419 8.47373 53.4419 7.97305C53.4419 7.44942 53.5971 7.01976 53.9091 6.68622C54.221 6.35268 54.6403 6.18555 55.1678 6.18555C55.6777 6.18555 56.086 6.34981 56.3964 6.67905C56.6907 6.99896 56.8386 7.41213 56.8386 7.9171ZM56.0381 7.94149C56.0381 7.62947 55.969 7.36191 55.8314 7.13883C55.6703 6.86913 55.4393 6.73428 55.1406 6.73428C54.8301 6.73428 54.5947 6.86913 54.4336 7.13883C54.2953 7.36191 54.2269 7.63377 54.2269 7.95512C54.2269 8.26714 54.296 8.5347 54.4336 8.75777C54.6006 9.02748 54.8331 9.16233 55.1332 9.16233C55.4275 9.16233 55.6578 9.02533 55.8241 8.7506C55.9675 8.52322 56.0381 8.25352 56.0381 7.94149Z" fill="#4D4D4F"/>
<path d="M60.5698 9.63575H59.8775L59.8201 9.24625H59.7988C59.5619 9.55684 59.2242 9.7125 58.7857 9.7125C58.4583 9.7125 58.1935 9.60992 57.9941 9.40621C57.8131 9.22115 57.7227 8.9909 57.7227 8.71761C57.7227 8.30444 57.8992 7.98955 58.2546 7.77149C58.6092 7.55343 59.108 7.44656 59.7502 7.45158V7.38845C59.7502 6.94301 59.5104 6.72065 59.03 6.72065C58.6879 6.72065 58.3863 6.80457 58.1258 6.97099L57.9691 6.47749C58.2913 6.2831 58.6894 6.18555 59.1587 6.18555C60.0651 6.18555 60.5197 6.65179 60.5197 7.58428V8.8295C60.5197 9.16735 60.5367 9.43634 60.5698 9.63575ZM59.7693 8.47373V7.95225C58.9189 7.9379 58.4937 8.16529 58.4937 8.63368C58.4937 8.81014 58.5422 8.94212 58.6415 9.03035C58.7408 9.11858 58.8674 9.16233 59.0182 9.16233C59.1874 9.16233 59.3456 9.10997 59.4898 9.00596C59.6347 8.90123 59.7237 8.76853 59.7568 8.60571C59.7649 8.56913 59.7693 8.52465 59.7693 8.47373Z" fill="#4D4D4F"/>
<path d="M64.9507 9.63598H64.2665L64.2305 9.09299H64.2092C63.9907 9.50615 63.6184 9.71273 63.0953 9.71273C62.6775 9.71273 62.3295 9.55277 62.0536 9.23286C61.7777 8.91294 61.6401 8.49763 61.6401 7.98763C61.6401 7.44033 61.7895 6.99704 62.0896 6.65848C62.3802 6.34287 62.7363 6.18506 63.1601 6.18506C63.6258 6.18506 63.9517 6.33785 64.1371 6.64413H64.1518V4.70312H64.9235V8.72501C64.9235 9.05425 64.9323 9.35767 64.9507 9.63598ZM64.1518 8.20999V7.6462C64.1518 7.54864 64.1444 7.46974 64.1304 7.40949C64.087 7.22873 63.9936 7.07666 63.8516 6.954C63.7082 6.83135 63.5353 6.76966 63.3359 6.76966C63.0482 6.76966 62.8231 6.88084 62.6576 7.10392C62.4935 7.327 62.4104 7.61177 62.4104 7.95966C62.4104 8.29392 62.4891 8.56505 62.6473 8.77379C62.8143 8.99615 63.0394 9.10733 63.3212 9.10733C63.5743 9.10733 63.7766 9.0148 63.9303 8.82902C64.0789 8.65759 64.1518 8.451 64.1518 8.20999Z" fill="#4D4D4F"/>
<path d="M71.5446 7.9171C71.5446 8.43714 71.3923 8.86322 71.0878 9.19748C70.7685 9.54106 70.3462 9.7125 69.8172 9.7125C69.3089 9.7125 68.9035 9.54824 68.6004 9.21828C68.2988 8.88904 68.1479 8.47373 68.1479 7.97305C68.1479 7.44942 68.3032 7.01976 68.6151 6.68622C68.927 6.35268 69.3464 6.18555 69.8753 6.18555C70.3837 6.18555 70.7935 6.34981 71.1025 6.67905C71.3968 6.99896 71.5446 7.41213 71.5446 7.9171ZM70.7457 7.94149C70.7457 7.62947 70.6765 7.36191 70.5389 7.13883C70.3764 6.86913 70.1468 6.73428 69.8467 6.73428C69.5377 6.73428 69.3022 6.86913 69.1397 7.13883C69.0013 7.36191 68.9329 7.63377 68.9329 7.95512C68.9329 8.26714 69.0021 8.5347 69.1397 8.75777C69.3067 9.02748 69.5391 9.16233 69.8393 9.16233C70.1336 9.16233 70.3653 9.02533 70.5316 8.7506C70.6736 8.52322 70.7457 8.25352 70.7457 7.94149Z" fill="#4D4D4F"/>
<path d="M75.6905 9.63595H74.9202V7.69924C74.9202 7.10245 74.6878 6.80406 74.2206 6.80406C73.9918 6.80406 73.8071 6.88583 73.6644 7.05009C73.5217 7.21435 73.4503 7.40802 73.4503 7.62967V9.63523H72.6786V7.22081C72.6786 6.92385 72.6698 6.60178 72.6514 6.25317H73.3282L73.3643 6.78182H73.3856C73.4761 6.61756 73.61 6.48199 73.7851 6.37368C73.9947 6.24743 74.228 6.18359 74.4847 6.18359C74.8077 6.18359 75.0769 6.28545 75.291 6.48988C75.5581 6.74022 75.6905 7.11393 75.6905 7.6103V9.63595V9.63595Z" fill="#4D4D4F"/>
<path d="M80.8788 6.81729H80.0298V8.45991C80.0298 8.87737 80.1806 9.08611 80.4793 9.08611C80.6176 9.08611 80.7324 9.07463 80.8229 9.05096L80.8427 9.62121C80.6904 9.67716 80.4903 9.70513 80.2439 9.70513C79.9393 9.70513 79.7024 9.61476 79.531 9.434C79.3588 9.25324 79.2735 8.9491 79.2735 8.52231V6.81729H78.7666V6.25422H79.2735V5.63447L80.029 5.41211V6.2535H80.878V6.81729H80.8788Z" fill="#4D4D4F"/>
<path d="M84.9607 9.63598H84.1889V7.71362C84.1889 7.10751 83.9564 6.80409 83.4907 6.80409C83.1332 6.80409 82.8889 6.97983 82.7551 7.3313C82.7322 7.40519 82.719 7.49556 82.719 7.60172V9.63526H81.9487V4.70312H82.719V6.74097H82.7337C82.9765 6.37012 83.3245 6.18506 83.7755 6.18506C84.0947 6.18506 84.3589 6.28692 84.5685 6.49135C84.8297 6.74599 84.9607 7.12472 84.9607 7.6254V9.63598V9.63598Z" fill="#4D4D4F"/>
<path d="M89.1712 7.78572C89.1712 7.92057 89.1609 8.0339 89.1425 8.12643H86.8302C86.8405 8.46069 86.9509 8.71533 87.1649 8.89179C87.3606 9.04959 87.613 9.1285 87.922 9.1285C88.2641 9.1285 88.576 9.07542 88.857 8.96854L88.9777 9.49073C88.6488 9.62989 88.2619 9.69947 87.8138 9.69947C87.2768 9.69947 86.8537 9.54525 86.5477 9.23681C86.2402 8.92837 86.0879 8.51449 86.0879 7.99517C86.0879 7.48517 86.2299 7.06053 86.5161 6.72196C86.8148 6.36045 87.2186 6.17969 87.7285 6.17969C88.2273 6.17969 88.6062 6.36045 88.8622 6.72196C89.0689 7.00888 89.1712 7.36395 89.1712 7.78572ZM88.4355 7.59133C88.4414 7.36825 88.3906 7.17601 88.2861 7.0139C88.1522 6.80517 87.9484 6.70045 87.6726 6.70045C87.421 6.70045 87.2157 6.8023 87.059 7.00673C86.931 7.16956 86.8552 7.36395 86.8302 7.59133H88.4355Z" fill="#4D4D4F"/>
<path d="M39.4666 22.5985H37.7959L36.8807 19.7946H33.6996L32.8278 22.5985H31.2012L34.3529 13.0527H36.2995L39.4666 22.5985ZM36.6048 18.6182L35.7772 16.1256C35.6896 15.871 35.5256 15.2713 35.2835 14.3274H35.2541C35.1577 14.7334 35.0025 15.333 34.7891 16.1256L33.9762 18.6182H36.6048V18.6182Z" fill="#4D4D4F"/>
<path d="M47.5715 19.0725C47.5715 20.2431 47.247 21.1684 46.5981 21.8477C46.0169 22.4524 45.2952 22.7544 44.4337 22.7544C43.5038 22.7544 42.8358 22.4287 42.429 21.7774H42.3996V25.4033H40.8311V17.9815C40.8311 17.2455 40.8112 16.4902 40.7729 15.7155H42.1524L42.2399 16.8065H42.2693C42.7924 15.9845 43.5862 15.5742 44.6515 15.5742C45.4843 15.5742 46.1795 15.8949 46.7357 16.5368C47.2934 17.1795 47.5715 18.0245 47.5715 19.0725ZM45.9735 19.1284C45.9735 18.4585 45.819 17.9062 45.5086 17.4715C45.1694 17.0181 44.714 16.7915 44.1431 16.7915C43.7562 16.7915 43.4045 16.9177 43.0904 17.1666C42.7755 17.4177 42.5695 17.7455 42.4731 18.1515C42.4246 18.3408 42.4003 18.4958 42.4003 18.6177V19.7654C42.4003 20.2661 42.5577 20.6886 42.8726 21.0336C43.1875 21.3786 43.5965 21.5507 44.0997 21.5507C44.6905 21.5507 45.1503 21.3284 45.4792 20.8851C45.8087 20.4411 45.9735 19.8558 45.9735 19.1284Z" fill="#4D4D4F"/>
<path d="M55.6913 19.0725C55.6913 20.2431 55.3669 21.1684 54.7173 21.8477C54.1368 22.4524 53.4151 22.7544 52.5536 22.7544C51.6237 22.7544 50.9557 22.4287 50.5496 21.7774H50.5202V25.4033H48.9517V17.9815C48.9517 17.2455 48.9318 16.4902 48.8936 15.7155H50.273L50.3605 16.8065H50.3899C50.9123 15.9845 51.7061 15.5742 52.7721 15.5742C53.6042 15.5742 54.2994 15.8949 54.8571 16.5368C55.4125 17.1795 55.6913 18.0245 55.6913 19.0725ZM54.0934 19.1284C54.0934 18.4585 53.9382 17.9062 53.6277 17.4715C53.2886 17.0181 52.8346 16.7915 52.263 16.7915C51.8753 16.7915 51.5244 16.9177 51.2095 17.1666C50.8946 17.4177 50.6894 17.7455 50.593 18.1515C50.5452 18.3408 50.5202 18.4958 50.5202 18.6177V19.7654C50.5202 20.2661 50.6776 20.6886 50.991 21.0336C51.3059 21.3779 51.7149 21.5507 52.2196 21.5507C52.8104 21.5507 53.2702 21.3284 53.599 20.8851C53.9286 20.4411 54.0934 19.8558 54.0934 19.1284Z" fill="#4D4D4F"/>
<path d="M64.7697 19.9208C64.7697 20.7328 64.4805 21.3934 63.9001 21.9034C63.2622 22.4608 62.3743 22.7391 61.2332 22.7391C60.1797 22.7391 59.3351 22.5411 58.6958 22.1444L59.0592 20.8698C59.7478 21.2758 60.5034 21.4795 61.3266 21.4795C61.9174 21.4795 62.3772 21.349 62.7075 21.0893C63.0364 20.8296 63.2004 20.481 63.2004 20.0464C63.2004 19.659 63.0651 19.3326 62.7936 19.068C62.5236 18.8033 62.0726 18.5572 61.4429 18.3299C59.7287 17.7065 58.8724 16.7934 58.8724 15.5927C58.8724 14.8079 59.1725 14.1645 59.7736 13.6638C60.3724 13.1624 61.1714 12.9121 62.1705 12.9121C63.0614 12.9121 63.8015 13.0635 64.3922 13.3654L64.0001 14.6121C63.4484 14.3194 62.8245 14.1731 62.1263 14.1731C61.5746 14.1731 61.1434 14.3058 60.8345 14.5698C60.5733 14.8058 60.4423 15.0934 60.4423 15.4341C60.4423 15.8114 60.5917 16.1235 60.8918 16.3688C61.153 16.5954 61.6275 16.8407 62.3161 17.1054C63.1585 17.4361 63.7772 17.8227 64.1752 18.266C64.5718 18.7079 64.7697 19.2609 64.7697 19.9208Z" fill="#4D4D4F"/>
<path d="M69.9556 16.8627H68.2267V20.2046C68.2267 21.0546 68.5313 21.4793 69.1419 21.4793C69.4222 21.4793 69.6547 21.4556 69.8386 21.4082L69.882 22.5696C69.5731 22.6822 69.1662 22.7388 68.6623 22.7388C68.0428 22.7388 67.5587 22.5545 67.2093 22.1865C66.8613 21.8178 66.6862 21.1995 66.6862 20.3309V16.8613H65.6562V15.7136H66.6862V14.4533L68.2267 14V15.7136H69.9556V16.8627Z" fill="#4D4D4F"/>
<path d="M77.7561 19.0997C77.7561 20.1578 77.4456 21.0264 76.8261 21.7057C76.1765 22.405 75.3143 22.7536 74.2395 22.7536C73.2036 22.7536 72.3789 22.4187 71.7639 21.7487C71.1488 21.0788 70.8413 20.2331 70.8413 19.2138C70.8413 18.1472 71.1577 17.2735 71.7926 16.5942C72.426 15.9142 73.2809 15.5742 74.3557 15.5742C75.3915 15.5742 76.2251 15.9092 76.8541 16.5799C77.4559 17.2305 77.7561 18.0704 77.7561 19.0997ZM76.1287 19.1492C76.1287 18.5144 75.9897 17.97 75.7079 17.5159C75.379 16.9665 74.9089 16.6925 74.2998 16.6925C73.6693 16.6925 73.1904 16.9672 72.8615 17.5159C72.5797 17.9707 72.4407 18.5237 72.4407 19.1779C72.4407 19.8127 72.5797 20.3572 72.8615 20.8105C73.2007 21.3599 73.6744 21.6339 74.2858 21.6339C74.8847 21.6339 75.3548 21.3542 75.6939 20.7961C75.983 20.3335 76.1287 19.7833 76.1287 19.1492Z" fill="#4D4D4F"/>
<path d="M82.8547 17.0605C82.6995 17.0325 82.5339 17.0181 82.3603 17.0181C81.8085 17.0181 81.3818 17.2211 81.0817 17.6278C80.8205 17.9865 80.6895 18.4398 80.6895 18.9871V22.5987H79.1218L79.1365 17.8832C79.1365 17.0899 79.1166 16.3675 79.0776 15.7162H80.4438L80.5012 17.0332H80.5446C80.7101 16.5806 80.9713 16.2162 81.3289 15.9429C81.6783 15.6969 82.0557 15.5742 82.4626 15.5742C82.6075 15.5742 82.7384 15.5843 82.8547 15.6022V17.0605Z" fill="#4D4D4F"/>
<path d="M89.8697 18.8307C89.8697 19.1047 89.8513 19.3357 89.8123 19.5243H85.1068C85.1252 20.2043 85.3525 20.7244 85.7895 21.083C86.1861 21.4037 86.6988 21.5643 87.3286 21.5643C88.0253 21.5643 88.6609 21.456 89.2326 21.2387L89.4783 22.3003C88.8103 22.5843 88.0216 22.7256 87.1116 22.7256C86.0169 22.7256 85.1576 22.4115 84.5322 21.7838C83.9084 21.1562 83.5957 20.3134 83.5957 19.2561C83.5957 18.2181 83.8863 17.3538 84.4682 16.6645C85.0774 15.9285 85.9006 15.5605 86.9365 15.5605C87.9539 15.5605 88.7242 15.9285 89.2473 16.6645C89.6615 17.2491 89.8697 17.9721 89.8697 18.8307ZM88.374 18.434C88.3843 17.9807 88.282 17.5891 88.0694 17.2584C87.798 16.833 87.3808 16.6207 86.8195 16.6207C86.3067 16.6207 85.8896 16.828 85.571 17.244C85.3099 17.5747 85.1546 17.9714 85.1068 18.4333H88.374V18.434Z" fill="#4D4D4F"/>
</svg>
