<svg width="100" height="29" viewBox="0 0 100 29" fill="none" xmlns="http://www.w3.org/2000/svg">
<path d="M95.6397 28.6914H3.67845C1.65622 28.6914 0 27.0766 0 25.1049V3.58599C0 1.61432 1.65622 -0.000493829 3.67845 -0.000493829H95.6397C97.6619 -0.000493829 99.3181 1.61432 99.3181 3.58599V25.1049C99.3181 27.0766 97.6619 28.6914 95.6397 28.6914Z" fill="white"/>
<path d="M95.6397 0.57424C97.3428 0.57424 98.7286 1.92545 98.7286 3.58599V25.1049C98.7286 26.7655 97.3428 28.1167 95.6397 28.1167H3.67845C1.97533 28.1167 0.589471 26.7655 0.589471 25.1049V3.58599C0.589471 1.92545 1.97533 0.57424 3.67845 0.57424H95.6397ZM95.6397 -0.000493829H3.67845C1.65622 -0.000493829 0 1.61432 0 3.58599V25.1049C0 27.0766 1.65622 28.6914 3.67845 28.6914H95.6397C97.6619 28.6914 99.3181 27.0766 99.3181 25.1049V3.58599C99.3181 1.61432 97.6619 -0.000493829 95.6397 -0.000493829Z" fill="#4D4D4F"/>
<path d="M7.12536 5.40708C6.90925 5.62765 6.78418 5.97106 6.78418 6.41578V22.2788C6.78418 22.7235 6.90925 23.067 7.12536 23.2875L7.17869 23.3359L16.2957 14.4504V14.2406L7.17869 5.35508L7.12536 5.40708Z" fill="#4D4D4F"/>
<path d="M20.4351 17.4141L17.3994 14.4507V14.2409L20.4387 11.2776L20.5068 11.3161L24.1061 13.3129C25.1334 13.8796 25.1334 14.8121 24.1061 15.3823L20.5068 17.3755L20.4351 17.4141V17.4141Z" fill="#4D4D4F"/>
<path d="M19.9545 17.9264L16.8471 14.8968L7.67676 23.8388C8.01793 24.1884 8.5743 24.2306 9.20699 23.8809L19.9545 17.9264" fill="#4D4D4F"/>
<path d="M19.9545 10.7633L9.20699 4.80882C8.5743 4.46272 8.01793 4.50486 7.67676 4.85455L16.8471 13.793L19.9545 10.7633Z" fill="#4D4D4F"/>
<path d="M34.8848 7.3474C34.8848 7.94634 34.7009 8.42603 34.3386 8.78379C33.922 9.20789 33.3794 9.42128 32.7145 9.42128C32.0791 9.42128 31.5365 9.2043 31.0914 8.77661C30.6454 8.34265 30.4229 7.81005 30.4229 7.17256C30.4229 6.53506 30.6454 6.00246 31.0914 5.57209C31.5365 5.14081 32.0791 4.92383 32.7145 4.92383C33.0309 4.92383 33.3325 4.98749 33.6203 5.10584C33.9073 5.22509 34.1408 5.38648 34.3101 5.58553L33.9257 5.96391C33.6305 5.62409 33.2286 5.45642 32.7145 5.45642C32.251 5.45642 31.8492 5.61423 31.508 5.93253C31.1705 6.25172 31.0013 6.66507 31.0013 7.17256C31.0013 7.68004 31.1705 8.09697 31.508 8.41617C31.8492 8.73088 32.251 8.89228 32.7145 8.89228C33.2065 8.89228 33.6203 8.73088 33.9468 8.41258C34.162 8.20188 34.2843 7.91137 34.3165 7.54017H32.7145V7.02192H34.8517C34.8775 7.134 34.8848 7.24249 34.8848 7.3474V7.3474Z" fill="#4D4D4F" stroke="#4D4D4F" stroke-width="0.0882828" stroke-miterlimit="10"/>
<path d="M38.2755 5.55155H36.268V6.91441H38.0778V7.43266H36.268V8.79552H38.2755V9.32364H35.6997V5.02344H38.2755V5.55155Z" fill="#4D4D4F" stroke="#4D4D4F" stroke-width="0.0882828" stroke-miterlimit="10"/>
<path d="M40.6678 9.32364H40.0995V5.55155H38.8682V5.02344H41.9001V5.55155H40.6678V9.32364V9.32364Z" fill="#4D4D4F" stroke="#4D4D4F" stroke-width="0.0882828" stroke-miterlimit="10"/>
<path d="M44.0947 9.32364V5.02344H44.6621V9.32364H44.0947Z" fill="#4D4D4F" stroke="#4D4D4F" stroke-width="0.0882828" stroke-miterlimit="10"/>
<path d="M47.1771 9.32364H46.6134V5.55155H45.3774V5.02344H48.4131V5.55155H47.1771V9.32364Z" fill="#4D4D4F" stroke="#4D4D4F" stroke-width="0.0882828" stroke-miterlimit="10"/>
<path d="M54.1533 8.76944C53.7183 9.2043 53.1794 9.42128 52.5366 9.42128C51.8901 9.42128 51.3513 9.2043 50.9163 8.76944C50.4822 8.33547 50.2661 7.80288 50.2661 7.17256C50.2661 6.54223 50.4822 6.00964 50.9163 5.57567C51.3513 5.14081 51.8901 4.92383 52.5366 4.92383C53.1758 4.92383 53.7147 5.14081 54.1496 5.57926C54.5874 6.01681 54.8035 6.54582 54.8035 7.17256C54.8035 7.80288 54.5874 8.33547 54.1533 8.76944ZM51.3365 8.409C51.6639 8.73088 52.0621 8.89228 52.5366 8.89228C53.0075 8.89228 53.4093 8.73088 53.7331 8.409C54.0595 8.08711 54.225 7.67377 54.225 7.17256C54.225 6.67134 54.0595 6.258 53.7331 5.93611C53.4093 5.61423 53.0075 5.45284 52.5366 5.45284C52.0621 5.45284 51.6639 5.61423 51.3365 5.93611C51.0101 6.258 50.8446 6.67134 50.8446 7.17256C50.8446 7.67377 51.0101 8.08711 51.3365 8.409V8.409Z" fill="#4D4D4F" stroke="#4D4D4F" stroke-width="0.0882828" stroke-miterlimit="10"/>
<path d="M55.6011 9.32364V5.02344H56.2908L58.4353 8.36784H58.4601L58.4353 7.54115V5.02344H59.0027V9.32364H58.4105L56.1648 5.81426H56.14L56.1648 6.64453V9.32364H55.6011V9.32364Z" fill="#4D4D4F" stroke="#4D4D4F" stroke-width="0.0882828" stroke-miterlimit="10"/>
<path d="M50.1264 15.6027C48.3984 15.6027 46.9868 16.8848 46.9868 18.6539C46.9868 20.4086 48.3984 21.7042 50.1264 21.7042C51.858 21.7042 53.2696 20.4086 53.2696 18.6539C53.2696 16.8848 51.858 15.6027 50.1264 15.6027ZM50.1264 20.5027C49.1783 20.5027 48.3626 19.7397 48.3626 18.6539C48.3626 17.5537 49.1783 16.8041 50.1264 16.8041C51.0745 16.8041 51.8939 17.5537 51.8939 18.6539C51.8939 19.7397 51.0745 20.5027 50.1264 20.5027V20.5027ZM43.2762 15.6027C41.5446 15.6027 40.1366 16.8848 40.1366 18.6539C40.1366 20.4086 41.5446 21.7042 43.2762 21.7042C45.0069 21.7042 46.4157 20.4086 46.4157 18.6539C46.4157 16.8848 45.0069 15.6027 43.2762 15.6027ZM43.2762 20.5027C42.3271 20.5027 41.5087 19.7397 41.5087 18.6539C41.5087 17.5537 42.3271 16.8041 43.2762 16.8041C44.2243 16.8041 45.04 17.5537 45.04 18.6539C45.04 19.7397 44.2243 20.5027 43.2762 20.5027ZM35.1247 16.5378V17.8344H38.3002C38.2073 18.5588 37.959 19.0914 37.5783 19.4626C37.1148 19.9109 36.3929 20.4086 35.1247 20.4086C33.1706 20.4086 31.6403 18.8709 31.6403 16.9655C31.6403 15.0602 33.1706 13.5225 35.1247 13.5225C36.1814 13.5225 36.9502 13.9251 37.5176 14.4469L38.4547 13.5333C37.661 12.7945 36.6053 12.2269 35.1247 12.2269C32.445 12.2269 30.1929 14.3528 30.1929 16.9655C30.1929 19.5783 32.445 21.7042 35.1247 21.7042C36.5731 21.7042 37.661 21.2415 38.5163 20.3736C39.3927 19.5191 39.6658 18.3176 39.6658 17.3475C39.6658 17.0462 39.64 16.7692 39.5941 16.5378H35.1247ZM68.457 17.543C68.1986 16.8606 67.4013 15.6027 65.7773 15.6027C64.1679 15.6027 62.8281 16.8391 62.8281 18.6539C62.8281 20.3628 64.1541 21.7042 65.9317 21.7042C67.3691 21.7042 68.1986 20.8497 68.5398 20.3521L67.473 19.659C67.1171 20.1665 66.6325 20.5027 65.9317 20.5027C65.2356 20.5027 64.7363 20.1916 64.4162 19.5783L68.6014 17.89L68.457 17.543V17.543ZM64.19 18.5588C64.1541 17.3825 65.1271 16.7799 65.8242 16.7799C66.3704 16.7799 66.8339 17.0462 66.9884 17.4273L64.19 18.5588V18.5588ZM60.7884 21.5186H62.1641V12.5524H60.7884V21.5186ZM58.5353 16.2823H58.4893C58.1803 15.9255 57.5909 15.6027 56.8441 15.6027C55.2771 15.6027 53.8444 16.944 53.8444 18.6637C53.8444 20.3736 55.2771 21.7042 56.8441 21.7042C57.5909 21.7042 58.1803 21.3787 58.4893 21.0111H58.5353V21.4486C58.5353 22.6151 57.8962 23.2419 56.8653 23.2419C56.0248 23.2419 55.5034 22.6501 55.2882 22.1525L54.0917 22.6394C54.4366 23.4481 55.3498 24.4434 56.8653 24.4434C58.4783 24.4434 59.8393 23.518 59.8393 21.2666V15.7883H58.5353V16.2823V16.2823ZM56.9619 20.5027C56.0137 20.5027 55.2201 19.7289 55.2201 18.6637C55.2201 17.5887 56.0137 16.8041 56.9619 16.8041C57.8962 16.8041 58.6328 17.5887 58.6328 18.6637C58.6328 19.7289 57.8962 20.5027 56.9619 20.5027V20.5027ZM74.898 12.5524H71.6076V21.5186H72.9797V18.1213H74.898C76.4218 18.1213 77.9161 17.0462 77.9161 15.3364C77.9161 13.6274 76.4181 12.5524 74.898 12.5524V12.5524ZM74.9338 16.8741H72.9797V13.7996H74.9338C75.9583 13.7996 76.5432 14.6289 76.5432 15.3364C76.5432 16.0304 75.9583 16.8741 74.9338 16.8741ZM83.4154 15.5856C82.4241 15.5856 81.3932 16.0124 80.9692 16.9584L82.1868 17.456C82.4489 16.9584 82.9308 16.797 83.4402 16.797C84.152 16.797 84.8739 17.2139 84.885 17.95V18.0442C84.6367 17.9043 84.1051 17.6972 83.4513 17.6972C82.1399 17.6972 80.8037 18.401 80.8037 19.7146C80.8037 20.9161 81.8778 21.6898 83.0853 21.6898C84.0086 21.6898 84.518 21.2837 84.838 20.8111H84.885V21.5042H86.2101V18.0648C86.2101 16.4751 84.9925 15.5856 83.4154 15.5856ZM83.2499 20.4991C82.8011 20.4991 82.1758 20.2821 82.1758 19.7397C82.1758 19.0457 82.9556 18.7794 83.6306 18.7794C84.2348 18.7794 84.518 18.9094 84.885 19.0807C84.7774 19.9109 84.0444 20.4991 83.2499 20.4991V20.4991ZM91.0381 15.782L89.4609 19.6688H89.414L87.7836 15.782H86.3039L88.7538 21.2137L87.3559 24.2362H88.7896L92.5646 15.782H91.0381V15.782ZM78.6702 21.5186H80.046V12.5524H78.6702V21.5186Z" fill="#4D4D4F"/>
</svg>
