<svg width="48" height="48" viewBox="0 0 48 48" fill="none" xmlns="http://www.w3.org/2000/svg">
<g id="Thu&#225;&#187;&#145;c ch&#225;&#187;&#145;ng ung th&#198;&#176;">
<g id="Thu&#225;&#187;&#145;c ch&#225;&#187;&#145;ng ung th&#198;&#176;_2" opacity="0.3">
<path id="Vector" d="M35.6259 23.869C37.4663 23.869 38.9491 22.3757 38.9491 20.5458C38.9491 18.716 37.4558 17.2227 35.6259 17.2227C33.7961 17.2227 32.3027 18.716 32.3027 20.5458C32.3027 22.3757 33.7961 23.869 35.6259 23.869Z" stroke="#FF6B00" stroke-width="2.13483" stroke-linecap="round" stroke-linejoin="round"/>
<path id="Vector_2" d="M10.9655 22.4905C13.2581 22.4905 15.1195 20.6292 15.1195 18.3366C15.1195 16.044 13.2581 14.1826 10.9655 14.1826C8.67292 14.1826 6.81152 16.044 6.81152 18.3366C6.81152 20.6292 8.67292 22.4905 10.9655 22.4905Z" stroke="#FF6B00" stroke-width="2.13483" stroke-linecap="round" stroke-linejoin="round"/>
<path id="Vector_3" d="M23.0165 23.5927C24.6992 23.5927 26.0663 22.2256 26.0663 20.5429C26.0663 18.8603 24.6992 17.4932 23.0165 17.4932C21.3339 17.4932 19.9668 18.8603 19.9668 20.5429C19.9668 22.2256 21.3339 23.5927 23.0165 23.5927Z" stroke="#FF6B00" stroke-width="2.13483" stroke-linecap="round" stroke-linejoin="round"/>
<path id="Vector_4" d="M29.2529 13.4784C30.9355 13.4784 32.3026 12.1113 32.3026 10.4287C32.3026 8.74603 30.9355 7.37891 29.2529 7.37891C27.5703 7.37891 26.2031 8.74603 26.2031 10.4287C26.2031 12.1113 27.5703 13.4784 29.2529 13.4784Z" stroke="#FF6B00" stroke-width="2.13483" stroke-linecap="round" stroke-linejoin="round"/>
<path id="Vector_5" d="M26.2031 33.9863C27.8857 33.9863 29.2528 32.6191 29.2528 30.9365C29.2528 29.2539 27.8857 27.8867 26.2031 27.8867C24.5205 27.8867 23.1533 29.2539 23.1533 30.9365C23.1533 32.6191 24.5205 33.9863 26.2031 33.9863Z" stroke="#FF6B00" stroke-width="2.13483" stroke-linecap="round" stroke-linejoin="round"/>
<path id="Vector_6" d="M18.1679 39.5272C19.8506 39.5272 21.2177 38.1601 21.2177 36.4775C21.2177 34.7949 19.8506 33.4277 18.1679 33.4277C16.4853 33.4277 15.1182 34.7949 15.1182 36.4775C15.1182 38.1601 16.4853 39.5272 18.1679 39.5272Z" stroke="#FF6B00" stroke-width="2.13483" stroke-linecap="round" stroke-linejoin="round"/>
<path id="Vector_7" d="M9.3017 33.4276C10.9843 33.4276 12.3515 32.0605 12.3515 30.3778C12.3515 28.6952 10.9843 27.3281 9.3017 27.3281C7.61908 27.3281 6.25195 28.6952 6.25195 30.3778C6.25195 32.0605 7.61908 33.4276 9.3017 33.4276Z" stroke="#FF6B00" stroke-width="2.13483" stroke-linecap="round" stroke-linejoin="round"/>
<path id="Vector_8" d="M35.6259 37.0341C37.3085 37.0341 38.6757 35.667 38.6757 33.9844C38.6757 32.3017 37.3085 30.9346 35.6259 30.9346C33.9433 30.9346 32.5762 32.3017 32.5762 33.9844C32.5762 35.667 33.9433 37.0341 35.6259 37.0341Z" stroke="#FF6B00" stroke-width="2.13483" stroke-linecap="round" stroke-linejoin="round"/>
<path id="Vector_9" d="M26.2143 40.453C27.0556 40.453 27.7392 39.7695 27.7392 38.9281C27.7392 38.0868 27.0556 37.4033 26.2143 37.4033C25.373 37.4033 24.6895 38.0868 24.6895 38.9281C24.6895 39.7695 25.373 40.453 26.2143 40.453Z" fill="#FF6B00"/>
<path id="Vector_10" d="M19.9653 14.1709C20.8066 14.1709 21.4902 13.4873 21.4902 12.646C21.4902 11.8047 20.8066 11.1211 19.9653 11.1211C19.124 11.1211 18.4404 11.8047 18.4404 12.646C18.4404 13.4873 19.124 14.1709 19.9653 14.1709Z" fill="#FF6B00"/>
<path id="Vector_11" d="M10.6912 22.4814L9.86035 27.3295" stroke="#FF6B00" stroke-width="2.13483" stroke-linecap="round" stroke-linejoin="round"/>
<path id="Vector_12" d="M11.6592 32.3232L15.5397 34.9523" stroke="#FF6B00" stroke-width="2.13483" stroke-linecap="round" stroke-linejoin="round"/>
<path id="Vector_13" d="M20.6621 34.6789L23.5752 32.46" stroke="#FF6B00" stroke-width="2.13483" stroke-linecap="round" stroke-linejoin="round"/>
<path id="Vector_14" d="M25.3725 28.0336L23.9844 23.459" stroke="#FF6B00" stroke-width="2.13483" stroke-linecap="round" stroke-linejoin="round"/>
<path id="Vector_15" d="M19.9662 20.2741L15.1182 19.1699" stroke="#FF6B00" stroke-width="2.13483" stroke-linecap="round" stroke-linejoin="round"/>
<path id="Vector_16" d="M24.6895 18.0551L27.7392 13.0703" stroke="#FF6B00" stroke-width="2.13483" stroke-linecap="round" stroke-linejoin="round"/>
<path id="Vector_17" d="M26.0654 20.5449H32.3017" stroke="#FF6B00" stroke-width="2.13483" stroke-linecap="round" stroke-linejoin="round"/>
<path id="Vector_18" d="M29.2529 31.6289L32.7128 32.7332" stroke="#FF6B00" stroke-width="2.13483" stroke-linecap="round" stroke-linejoin="round"/>
<path id="Vector_19" d="M35.6267 21.2387C36.0053 21.2387 36.3208 20.9337 36.3208 20.5446C36.3208 20.1555 36.0053 19.8506 35.6267 19.8506C35.2481 19.8506 34.9326 20.1555 34.9326 20.5446C34.9326 20.9337 35.2376 21.2387 35.6267 21.2387Z" fill="#FF6B00"/>
<path id="Vector_20" d="M23.0163 21.2387C23.3949 21.2387 23.7104 20.9337 23.7104 20.5446C23.7104 20.1555 23.4054 19.8506 23.0163 19.8506C22.6272 19.8506 22.3223 20.1555 22.3223 20.5446C22.3223 20.9337 22.6272 21.2387 23.0163 21.2387Z" fill="#FF6B00"/>
<path id="Vector_21" d="M29.2527 11.1225C29.6313 11.1225 29.9468 10.8176 29.9468 10.4285C29.9468 10.0394 29.6313 9.73438 29.2527 9.73438C28.8741 9.73438 28.5586 10.0394 28.5586 10.4285C28.5586 10.8176 28.8636 11.1225 29.2527 11.1225Z" fill="#FF6B00"/>
<path id="Vector_22" d="M17.3376 9.32372C17.7162 9.32372 18.0317 9.01874 18.0317 8.62963C18.0317 8.24053 17.7267 7.93555 17.3376 7.93555C16.9485 7.93555 16.6436 8.24053 16.6436 8.62963C16.6436 9.01874 16.9591 9.32372 17.3376 9.32372Z" fill="#FF6B00"/>
<path id="Vector_23" d="M10.9646 19.022C11.3432 19.022 11.6587 18.7065 11.6587 18.3279C11.6587 17.9493 11.3537 17.6338 10.9646 17.6338C10.5755 17.6338 10.2705 17.9388 10.2705 18.3279C10.2705 18.717 10.586 19.022 10.9646 19.022Z" fill="#FF6B00"/>
<path id="Vector_24" d="M9.30249 31.0737C9.68108 31.0737 9.99657 30.7687 9.99657 30.3796C9.99657 29.9905 9.69159 29.6855 9.30249 29.6855C8.91338 29.6855 8.6084 30.001 8.6084 30.3796C8.6084 30.7582 8.91338 31.0737 9.30249 31.0737Z" fill="#FF6B00"/>
<path id="Vector_25" d="M18.1667 37.1704C18.5453 37.1704 18.8608 36.8655 18.8608 36.4763C18.8608 36.0872 18.5453 35.7822 18.1667 35.7822C17.7882 35.7822 17.4727 36.0978 17.4727 36.4763C17.4727 36.8549 17.7776 37.1704 18.1667 37.1704Z" fill="#FF6B00"/>
<path id="Vector_26" d="M26.2029 31.6283C26.5815 31.6283 26.8969 31.3129 26.8969 30.9343C26.8969 30.5557 26.592 30.2402 26.2029 30.2402C25.8138 30.2402 25.5088 30.5452 25.5088 30.9343C25.5088 31.3234 25.8138 31.6283 26.2029 31.6283Z" fill="#FF6B00"/>
<path id="Vector_27" d="M35.6267 34.6802C36.0053 34.6802 36.3208 34.3752 36.3208 33.9861C36.3208 33.597 36.0053 33.292 35.6267 33.292C35.2481 33.292 34.9326 33.6075 34.9326 33.9861C34.9326 34.3647 35.2376 34.6802 35.6267 34.6802Z" fill="#FF6B00"/>
<path id="Vector_28" d="M31.0505 40.2222C31.4291 40.2222 31.7446 39.9171 31.7446 39.528C31.7446 39.1389 31.4396 38.834 31.0505 38.834C30.6614 38.834 30.3564 39.1494 30.3564 39.528C30.3564 39.9066 30.6719 40.2222 31.0505 40.2222Z" fill="#FF6B00"/>
<path id="Vector_29" d="M38.6765 9.32227L7.7793 40.2195" stroke="#FF6B00" stroke-width="2.13483" stroke-linecap="round" stroke-linejoin="round"/>
<path id="Vector_30" d="M23.2268 46.5943C35.2786 46.5943 45.0484 36.8245 45.0484 24.7727C45.0484 12.7209 35.2786 2.95117 23.2268 2.95117C11.175 2.95117 1.40527 12.7209 1.40527 24.7727C1.40527 36.8245 11.175 46.5943 23.2268 46.5943Z" stroke="#FF6B00" stroke-width="2.13483" stroke-linecap="round" stroke-linejoin="round"/>
</g>
<g id="Thu&#225;&#187;&#145;c ch&#225;&#187;&#145;ng ung th&#198;&#176;_3">
<path id="Vector_31" d="M37.1708 22.3231C39.0112 22.3231 40.494 20.8298 40.494 18.9999C40.494 17.1701 39.0007 15.6768 37.1708 15.6768C35.341 15.6768 33.8477 17.1701 33.8477 18.9999C33.8477 20.8298 35.341 22.3231 37.1708 22.3231Z" stroke="#4D4D4F" stroke-width="2.13483" stroke-linecap="round" stroke-linejoin="round"/>
<path id="Vector_32" d="M12.5104 20.9437C14.803 20.9437 16.6644 19.0823 16.6644 16.7897C16.6644 14.4972 14.803 12.6357 12.5104 12.6357C10.2178 12.6357 8.35645 14.4972 8.35645 16.7897C8.35645 19.0823 10.2178 20.9437 12.5104 20.9437Z" stroke="#4D4D4F" stroke-width="2.13483" stroke-linecap="round" stroke-linejoin="round"/>
<path id="Vector_33" d="M24.5615 22.0468C26.2441 22.0468 27.6112 20.6797 27.6112 18.997C27.6112 17.3144 26.2441 15.9473 24.5615 15.9473C22.8788 15.9473 21.5117 17.3144 21.5117 18.997C21.5117 20.6797 22.8788 22.0468 24.5615 22.0468Z" stroke="#4D4D4F" stroke-width="2.13483" stroke-linecap="round" stroke-linejoin="round"/>
<path id="Vector_34" d="M30.7978 11.9325C32.4804 11.9325 33.8476 10.5654 33.8476 8.88276C33.8476 7.20013 32.4804 5.83301 30.7978 5.83301C29.1152 5.83301 27.748 7.20013 27.748 8.88276C27.748 10.5654 29.1152 11.9325 30.7978 11.9325Z" stroke="#4D4D4F" stroke-width="2.13483" stroke-linecap="round" stroke-linejoin="round"/>
<path id="Vector_35" d="M27.748 32.4404C29.4306 32.4404 30.7978 31.0732 30.7978 29.3906C30.7978 27.708 29.4306 26.3408 27.748 26.3408C26.0654 26.3408 24.6982 27.708 24.6982 29.3906C24.6982 31.0732 26.0654 32.4404 27.748 32.4404Z" stroke="#4D4D4F" stroke-width="2.13483" stroke-linecap="round" stroke-linejoin="round"/>
<path id="Vector_36" d="M19.7129 37.9813C21.3955 37.9813 22.7626 36.6142 22.7626 34.9316C22.7626 33.249 21.3955 31.8818 19.7129 31.8818C18.0302 31.8818 16.6631 33.249 16.6631 34.9316C16.6631 36.6142 18.0302 37.9813 19.7129 37.9813Z" stroke="#4D4D4F" stroke-width="2.13483" stroke-linecap="round" stroke-linejoin="round"/>
<path id="Vector_37" d="M10.8466 31.8817C12.5293 31.8817 13.8964 30.5146 13.8964 28.8319C13.8964 27.1493 12.5293 25.7822 10.8466 25.7822C9.164 25.7822 7.79688 27.1493 7.79688 28.8319C7.79688 30.5146 9.164 31.8817 10.8466 31.8817Z" stroke="#4D4D4F" stroke-width="2.13483" stroke-linecap="round" stroke-linejoin="round"/>
<path id="Vector_38" d="M37.1708 35.4882C38.8535 35.4882 40.2206 34.1211 40.2206 32.4385C40.2206 30.7558 38.8535 29.3887 37.1708 29.3887C35.4882 29.3887 34.1211 30.7558 34.1211 32.4385C34.1211 34.1211 35.4882 35.4882 37.1708 35.4882Z" stroke="#4D4D4F" stroke-width="2.13483" stroke-linecap="round" stroke-linejoin="round"/>
<path id="Vector_39" d="M27.7593 38.9071C28.6006 38.9071 29.2841 38.2236 29.2841 37.3822C29.2841 36.5409 28.6006 35.8574 27.7593 35.8574C26.9179 35.8574 26.2344 36.5409 26.2344 37.3822C26.2344 38.2236 26.9179 38.9071 27.7593 38.9071Z" fill="#FF6B00"/>
<path id="Vector_40" d="M21.5102 12.625C22.3515 12.625 23.0351 11.9414 23.0351 11.1001C23.0351 10.2588 22.3515 9.5752 21.5102 9.5752C20.6689 9.5752 19.9854 10.2588 19.9854 11.1001C19.9854 11.9414 20.6689 12.625 21.5102 12.625Z" fill="#4D4D4F"/>
<path id="Vector_41" d="M12.2361 20.9346L11.4053 25.7826" stroke="#4D4D4F" stroke-width="2.13483" stroke-linecap="round" stroke-linejoin="round"/>
<path id="Vector_42" d="M13.2041 30.7773L17.0847 33.4064" stroke="#4D4D4F" stroke-width="2.13483" stroke-linecap="round" stroke-linejoin="round"/>
<path id="Vector_43" d="M22.207 33.132L25.1201 30.9131" stroke="#4D4D4F" stroke-width="2.13483" stroke-linecap="round" stroke-linejoin="round"/>
<path id="Vector_44" d="M26.9175 26.4877L25.5293 21.9131" stroke="#4D4D4F" stroke-width="2.13483" stroke-linecap="round" stroke-linejoin="round"/>
<path id="Vector_45" d="M21.5112 18.7282L16.6631 17.624" stroke="#4D4D4F" stroke-width="2.13483" stroke-linecap="round" stroke-linejoin="round"/>
<path id="Vector_46" d="M26.2344 16.5082L29.2841 11.5234" stroke="#4D4D4F" stroke-width="2.13483" stroke-linecap="round" stroke-linejoin="round"/>
<path id="Vector_47" d="M27.6104 18.999H33.8466" stroke="#4D4D4F" stroke-width="2.13483" stroke-linecap="round" stroke-linejoin="round"/>
<path id="Vector_48" d="M30.7979 30.083L34.2577 31.1873" stroke="#4D4D4F" stroke-width="2.13483" stroke-linecap="round" stroke-linejoin="round"/>
<path id="Vector_49" d="M37.1716 19.6928C37.5502 19.6928 37.8657 19.3878 37.8657 18.9987C37.8657 18.6096 37.5502 18.3047 37.1716 18.3047C36.793 18.3047 36.4775 18.6096 36.4775 18.9987C36.4775 19.3878 36.7825 19.6928 37.1716 19.6928Z" fill="#4D4D4F"/>
<path id="Vector_50" d="M24.5613 19.6928C24.9398 19.6928 25.2553 19.3878 25.2553 18.9987C25.2553 18.6096 24.9504 18.3047 24.5613 18.3047C24.1722 18.3047 23.8672 18.6096 23.8672 18.9987C23.8672 19.3878 24.1722 19.6928 24.5613 19.6928Z" fill="#4D4D4F"/>
<path id="Vector_51" d="M30.7976 9.57662C31.1762 9.57662 31.4917 9.27167 31.4917 8.88256C31.4917 8.49346 31.1762 8.18848 30.7976 8.18848C30.419 8.18848 30.1035 8.49346 30.1035 8.88256C30.1035 9.27167 30.4085 9.57662 30.7976 9.57662Z" fill="#4D4D4F"/>
<path id="Vector_52" d="M18.8826 7.77685C19.2612 7.77685 19.5767 7.47187 19.5767 7.08276C19.5767 6.69365 19.2717 6.38867 18.8826 6.38867C18.4935 6.38867 18.1885 6.69365 18.1885 7.08276C18.1885 7.47187 18.504 7.77685 18.8826 7.77685Z" fill="#FF6B00"/>
<path id="Vector_53" d="M12.5095 17.4761C12.8881 17.4761 13.2036 17.1606 13.2036 16.782C13.2036 16.4034 12.8986 16.0879 12.5095 16.0879C12.1204 16.0879 11.8154 16.3929 11.8154 16.782C11.8154 17.1711 12.1309 17.4761 12.5095 17.4761Z" fill="#4D4D4F"/>
<path id="Vector_54" d="M10.8474 29.5278C11.226 29.5278 11.5415 29.2228 11.5415 28.8337C11.5415 28.4446 11.2365 28.1396 10.8474 28.1396C10.4583 28.1396 10.1533 28.4551 10.1533 28.8337C10.1533 29.2123 10.4583 29.5278 10.8474 29.5278Z" fill="#4D4D4F"/>
<path id="Vector_55" d="M19.7117 35.6245C20.0903 35.6245 20.4057 35.3196 20.4057 34.9304C20.4057 34.5413 20.0903 34.2363 19.7117 34.2363C19.3331 34.2363 19.0176 34.5519 19.0176 34.9304C19.0176 35.309 19.3226 35.6245 19.7117 35.6245Z" fill="#4D4D4F"/>
<path id="Vector_56" d="M27.7478 30.0824C28.1264 30.0824 28.4419 29.767 28.4419 29.3884C28.4419 29.0098 28.1369 28.6943 27.7478 28.6943C27.3587 28.6943 27.0537 28.9993 27.0537 29.3884C27.0537 29.7775 27.3587 30.0824 27.7478 30.0824Z" fill="#4D4D4F"/>
<path id="Vector_57" d="M37.1716 33.1343C37.5502 33.1343 37.8657 32.8293 37.8657 32.4402C37.8657 32.0511 37.5502 31.7461 37.1716 31.7461C36.793 31.7461 36.4775 32.0616 36.4775 32.4402C36.4775 32.8188 36.7825 33.1343 37.1716 33.1343Z" fill="#4D4D4F"/>
<path id="Vector_58" d="M32.5955 38.6753C32.974 38.6753 33.2895 38.3703 33.2895 37.9812C33.2895 37.5921 32.9846 37.2871 32.5955 37.2871C32.2063 37.2871 31.9014 37.6026 31.9014 37.9812C31.9014 38.3598 32.2169 38.6753 32.5955 38.6753Z" fill="#4D4D4F"/>
<path id="Vector_59" d="M40.2214 7.77539L9.32422 38.6726" stroke="#FF6B00" stroke-width="2.13483" stroke-linecap="round" stroke-linejoin="round"/>
<path id="Vector_60" d="M24.7717 45.0484C36.8235 45.0484 46.5933 35.2787 46.5933 23.2268C46.5933 11.175 36.8235 1.40527 24.7717 1.40527C12.7199 1.40527 2.9502 11.175 2.9502 23.2268C2.9502 35.2787 12.7199 45.0484 24.7717 45.0484Z" stroke="#FF6B00" stroke-width="2.13483" stroke-linecap="round" stroke-linejoin="round"/>
</g>
</g>
</svg>
