<svg width="32" height="42" viewBox="0 0 32 42" fill="none" xmlns="http://www.w3.org/2000/svg">
<g id="H&#225;&#187;&#135; c&#198;&#161;-x&#198;&#176;&#198;&#161;ng">
<g id="H&#225;&#187;&#135; c&#198;&#161;-x&#198;&#176;&#198;&#161;ng_2" opacity="0.3">
<path id="Vector" d="M15.2061 8.275C7.9287 8.275 6.68359 7.85638 6.68359 2.86523" stroke="#FF6B00" stroke-width="2.17893" stroke-linecap="round" stroke-linejoin="round"/>
<path id="Vector_2" d="M15.2061 19.0845C7.9287 19.0845 6.68359 18.6659 6.68359 13.6748" stroke="#FF6B00" stroke-width="2.17893" stroke-linecap="round" stroke-linejoin="round"/>
<path id="Vector_3" d="M15.2061 29.902C7.9287 29.902 6.68359 29.4833 6.68359 24.4922" stroke="#FF6B00" stroke-width="2.17893" stroke-linecap="round" stroke-linejoin="round"/>
<path id="Vector_4" d="M6.68359 21.918V35.3028C6.68359 40.294 7.9287 40.7126 15.2061 40.7126" stroke="#FF6B00" stroke-width="2.17893" stroke-linecap="round" stroke-linejoin="round"/>
<path id="Vector_5" d="M1.69238 33.4346H6.68352" stroke="#FF6B00" stroke-width="2.17893" stroke-linecap="round" stroke-linejoin="round"/>
<path id="Vector_6" d="M1.69238 22.4111H6.68352" stroke="#FF6B00" stroke-width="2.17893" stroke-linecap="round" stroke-linejoin="round"/>
<path id="Vector_7" d="M1.69238 11.3984H6.68352" stroke="#FF6B00" stroke-width="2.17893" stroke-linecap="round" stroke-linejoin="round"/>
<path id="Vector_8" d="M15.2061 8.275C22.4835 8.275 23.7286 7.85638 23.7286 2.86523" stroke="#FF6B00" stroke-width="2.17893" stroke-linecap="round" stroke-linejoin="round"/>
<path id="Vector_9" d="M15.2061 19.0845C22.4835 19.0845 23.7286 18.6659 23.7286 13.6748" stroke="#FF6B00" stroke-width="2.17893" stroke-linecap="round" stroke-linejoin="round"/>
<path id="Vector_10" d="M15.2061 29.902C22.4835 29.902 23.7286 29.4833 23.7286 24.4922" stroke="#FF6B00" stroke-width="2.17893" stroke-linecap="round" stroke-linejoin="round"/>
<path id="Vector_11" d="M23.7393 21.918V35.3028C23.7393 40.294 22.4942 40.7126 15.2168 40.7126" stroke="#FF6B00" stroke-width="2.17893" stroke-linecap="round" stroke-linejoin="round"/>
<path id="Vector_12" d="M28.7294 33.4346H23.7383" stroke="#FF6B00" stroke-width="2.17893" stroke-linecap="round" stroke-linejoin="round"/>
<path id="Vector_13" d="M28.7294 22.4111H23.7383" stroke="#FF6B00" stroke-width="2.17893" stroke-linecap="round" stroke-linejoin="round"/>
<path id="Vector_14" d="M28.7294 11.3984H23.7383" stroke="#FF6B00" stroke-width="2.17893" stroke-linecap="round" stroke-linejoin="round"/>
<path id="Vector_15" d="M6.68359 2.86523V24.4935" stroke="#FF6B00" stroke-width="2.17893" stroke-linecap="round" stroke-linejoin="round"/>
<path id="Vector_16" d="M23.7383 2.86523V24.4935" stroke="#FF6B00" stroke-width="2.17893" stroke-linecap="round" stroke-linejoin="round"/>
</g>
<g id="H&#225;&#187;&#135; c&#198;&#161;-x&#198;&#176;&#198;&#161;ng_3">
<path id="Vector_17" d="M16.7842 6.69687C9.50682 6.69687 8.26172 6.27825 8.26172 1.28711" stroke="#4D4D4F" stroke-width="2.17893" stroke-linecap="round" stroke-linejoin="round"/>
<path id="Vector_18" d="M16.7842 17.5064C9.50682 17.5064 8.26172 17.0878 8.26172 12.0967" stroke="#4D4D4F" stroke-width="2.17893" stroke-linecap="round" stroke-linejoin="round"/>
<path id="Vector_19" d="M16.7842 28.3238C9.50682 28.3238 8.26172 27.9052 8.26172 22.9141" stroke="#FF6B00" stroke-width="2.17893" stroke-linecap="round" stroke-linejoin="round"/>
<path id="Vector_20" d="M8.26172 20.3398V33.7247C8.26172 38.7158 9.50682 39.1345 16.7842 39.1345" stroke="#FF6B00" stroke-width="2.17893" stroke-linecap="round" stroke-linejoin="round"/>
<path id="Vector_21" d="M3.27051 31.8564H8.26165" stroke="#FF6B00" stroke-width="2.17893" stroke-linecap="round" stroke-linejoin="round"/>
<path id="Vector_22" d="M3.27051 20.834H8.26165" stroke="#FF6B00" stroke-width="2.17893" stroke-linecap="round" stroke-linejoin="round"/>
<path id="Vector_23" d="M3.27051 9.82031H8.26165" stroke="#FF6B00" stroke-width="2.17893" stroke-linecap="round" stroke-linejoin="round"/>
<path id="Vector_24" d="M16.7842 6.69687C24.0616 6.69687 25.3067 6.27825 25.3067 1.28711" stroke="#4D4D4F" stroke-width="2.17893" stroke-linecap="round" stroke-linejoin="round"/>
<path id="Vector_25" d="M16.7842 17.5064C24.0616 17.5064 25.3067 17.0878 25.3067 12.0967" stroke="#4D4D4F" stroke-width="2.17893" stroke-linecap="round" stroke-linejoin="round"/>
<path id="Vector_26" d="M16.7842 28.3238C24.0616 28.3238 25.3067 27.9052 25.3067 22.9141" stroke="#FF6B00" stroke-width="2.17893" stroke-linecap="round" stroke-linejoin="round"/>
<path id="Vector_27" d="M25.3174 20.3398V33.7247C25.3174 38.7158 24.0723 39.1345 16.7949 39.1345" stroke="#FF6B00" stroke-width="2.17893" stroke-linecap="round" stroke-linejoin="round"/>
<path id="Vector_28" d="M30.3076 31.8564H25.3164" stroke="#FF6B00" stroke-width="2.17893" stroke-linecap="round" stroke-linejoin="round"/>
<path id="Vector_29" d="M30.3076 20.834H25.3164" stroke="#FF6B00" stroke-width="2.17893" stroke-linecap="round" stroke-linejoin="round"/>
<path id="Vector_30" d="M30.3076 9.82031H25.3164" stroke="#FF6B00" stroke-width="2.17893" stroke-linecap="round" stroke-linejoin="round"/>
<path id="Vector_31" d="M8.26172 1.28711V22.9154" stroke="#4D4D4F" stroke-width="2.17893" stroke-linecap="round" stroke-linejoin="round"/>
<path id="Vector_32" d="M25.3164 1.28711V22.9154" stroke="#4D4D4F" stroke-width="2.17893" stroke-linecap="round" stroke-linejoin="round"/>
</g>
</g>
</svg>
