<svg width="55" height="43" viewBox="0 0 55 43" fill="none" xmlns="http://www.w3.org/2000/svg">
<g id="Thu&#225;&#187;&#145;c da li&#225;&#187;&#133;u">
<g id="Thu&#225;&#187;&#145;c da li&#225;&#187;&#133;u_2" opacity="0.3">
<path id="Vector" d="M25.9954 27.1374C25.9638 27.6422 25.1541 27.7158 24.807 28.0944C23.9762 28.9988 23.4609 30.2082 23.4609 31.5332C23.4609 34.3411 25.7325 36.6127 28.5404 36.6127C31.3482 36.6127 33.6198 34.3411 33.6198 31.5332C33.6198 30.3133 33.1886 29.1986 32.484 28.3257C32.1265 27.8841 31.6953 27.5055 31.2115 27.211C31.2115 27.211 30.9907 7.99755 33.4305 3.10742C33.4305 3.10742 26.4897 18.5665 25.9849 27.1374H25.9954Z" stroke="#FF6B00" stroke-width="2.13483" stroke-linecap="round" stroke-linejoin="round"/>
<path id="Vector_2" d="M51.572 29.2851C46.5241 27.7918 42.4017 29.6637 39.9724 28.9065C37.5431 28.1598 38.0058 29.3482 38.0058 29.3482C38.132 29.9582 38.1951 30.5891 38.1951 31.2412C38.1951 36.5625 33.8834 40.8742 28.5621 40.8742C23.2408 40.8742 18.9291 36.5625 18.9291 31.2412C18.9291 29.243 19.539 27.3816 20.5801 25.8462C20.5801 25.8462 21.8316 24.416 19.213 24.416C16.5944 24.416 14.7225 24.416 11.7253 26.656C8.73866 28.9065 1.25098 27.2239 1.25098 27.2239" stroke="#FF6B00" stroke-width="2.13483" stroke-linecap="round" stroke-linejoin="round"/>
<path id="Vector_3" d="M13.9858 32.0498C14.8271 32.0498 15.5107 31.3662 15.5107 30.5249C15.5107 29.6836 14.8271 29 13.9858 29C13.1445 29 12.4609 29.6836 12.4609 30.5249C12.4609 31.3662 13.1445 32.0498 13.9858 32.0498Z" fill="#FF6B00"/>
<path id="Vector_4" d="M15.2075 37.5508C16.0488 37.5508 16.7324 36.8672 16.7324 36.0259C16.7324 35.1846 16.0488 34.501 15.2075 34.501C14.3662 34.501 13.6826 35.1846 13.6826 36.0259C13.6826 36.8672 14.3662 37.5508 15.2075 37.5508Z" fill="#FF6B00"/>
<path id="Vector_5" d="M19.0766 42.4394C19.918 42.4394 20.6015 41.7559 20.6015 40.9145C20.6015 40.0732 19.918 39.3896 19.0766 39.3896C18.2353 39.3896 17.5518 40.0732 17.5518 40.9145C17.5518 41.7559 18.2353 42.4394 19.0766 42.4394Z" fill="#FF6B00"/>
<path id="Vector_6" d="M42.7182 35.5088C43.5596 35.5088 44.2431 34.8252 44.2431 33.9839C44.2431 33.1426 43.5596 32.459 42.7182 32.459C41.8769 32.459 41.1934 33.1426 41.1934 33.9839C41.1934 34.8252 41.8769 35.5088 42.7182 35.5088Z" fill="#FF6B00"/>
<path id="Vector_7" d="M48.6167 34.8964C49.458 34.8964 50.1416 34.2128 50.1416 33.3715C50.1416 32.5302 49.458 31.8467 48.6167 31.8467C47.7754 31.8467 47.0918 32.5302 47.0918 33.3715C47.0918 34.2128 47.7754 34.8964 48.6167 34.8964Z" fill="#FF6B00"/>
<path id="Vector_8" d="M46.3784 39.9902C47.2197 39.9902 47.9033 39.3066 47.9033 38.4653C47.9033 37.624 47.2197 36.9404 46.3784 36.9404C45.5371 36.9404 44.8535 37.624 44.8535 38.4653C44.8535 39.3066 45.5371 39.9902 46.3784 39.9902Z" fill="#FF6B00"/>
<path id="Vector_9" d="M39.6567 42.0283C40.498 42.0283 41.1816 41.3447 41.1816 40.5034C41.1816 39.6621 40.498 38.9785 39.6567 38.9785C38.8154 38.9785 38.1318 39.6621 38.1318 40.5034C38.1318 41.3447 38.8154 42.0283 39.6567 42.0283Z" fill="#FF6B00"/>
<path id="Vector_10" d="M51.6772 42.4394C52.5185 42.4394 53.2021 41.7559 53.2021 40.9145C53.2021 40.0732 52.5185 39.3896 51.6772 39.3896C50.8359 39.3896 50.1523 40.0732 50.1523 40.9145C50.1523 41.7559 50.8359 42.4394 51.6772 42.4394Z" fill="#FF6B00"/>
<path id="Vector_11" d="M9.50633 36.5273C10.3476 36.5273 11.0312 35.8437 11.0312 35.0024C11.0312 34.1611 10.3476 33.4775 9.50633 33.4775C8.66501 33.4775 7.98145 34.1611 7.98145 35.0024C7.98145 35.8437 8.66501 36.5273 9.50633 36.5273Z" fill="#FF6B00"/>
<path id="Vector_12" d="M3.99558 41.0097C4.8369 41.0097 5.52046 40.3261 5.52046 39.4848C5.52046 38.6435 4.8369 37.96 3.99558 37.96C3.15427 37.96 2.4707 38.6435 2.4707 39.4848C2.4707 40.3261 3.15427 41.0097 3.99558 41.0097Z" fill="#FF6B00"/>
<path id="Vector_13" d="M4.61668 34.0791C5.45799 34.0791 6.14156 33.3955 6.14156 32.5542C6.14156 31.7129 5.45799 31.0293 4.61668 31.0293C3.77536 31.0293 3.0918 31.7129 3.0918 32.5542C3.0918 33.3955 3.77536 34.0791 4.61668 34.0791Z" fill="#FF6B00"/>
<path id="Vector_14" d="M12.5561 41.6181C13.3974 41.6181 14.081 40.9346 14.081 40.0933C14.081 39.2519 13.3974 38.5684 12.5561 38.5684C11.7148 38.5684 11.0312 39.2519 11.0312 40.0933C11.0312 40.9346 11.7148 41.6181 12.5561 41.6181Z" fill="#FF6B00"/>
</g>
<g id="Thu&#225;&#187;&#145;c da li&#225;&#187;&#133;u_3">
<path id="Vector_15" d="M27.5403 25.5915C27.5088 26.0963 26.699 26.1699 26.352 26.5485C25.5212 27.4529 25.0059 28.6623 25.0059 29.9873C25.0059 32.7952 27.2774 35.0668 30.0853 35.0668C32.8932 35.0668 35.1647 32.7952 35.1647 29.9873C35.1647 28.7674 34.7335 27.6527 34.0289 26.7798C33.6714 26.3382 33.2402 25.9596 32.7565 25.6651C32.7565 25.6651 32.5356 6.45165 34.9754 1.56152C34.9754 1.56152 28.0346 17.0206 27.5298 25.5915H27.5403Z" stroke="#4D4D4F" stroke-width="2.13483" stroke-linecap="round" stroke-linejoin="round"/>
<path id="Vector_16" d="M53.1169 27.7392C48.069 26.2459 43.9466 28.1178 41.5173 27.3606C39.088 26.6139 39.5507 27.8023 39.5507 27.8023C39.6769 28.4123 39.74 29.0432 39.74 29.6953C39.74 35.0166 35.4283 39.3283 30.107 39.3283C24.7857 39.3283 20.474 35.0166 20.474 29.6953C20.474 27.6971 21.0839 25.8357 22.1251 24.3003C22.1251 24.3003 23.3765 22.8701 20.7579 22.8701C18.1393 22.8701 16.2674 22.8701 13.2702 25.1101C10.2836 27.3606 2.7959 25.678 2.7959 25.678" stroke="#FF6B00" stroke-width="2.13483" stroke-linecap="round" stroke-linejoin="round"/>
<path id="Vector_17" d="M15.5307 30.5039C16.3721 30.5039 17.0556 29.8203 17.0556 28.979C17.0556 28.1377 16.3721 27.4541 15.5307 27.4541C14.6894 27.4541 14.0059 28.1377 14.0059 28.979C14.0059 29.8203 14.6894 30.5039 15.5307 30.5039Z" fill="#4D4D4F"/>
<path id="Vector_18" d="M16.7524 36.0049C17.5937 36.0049 18.2773 35.3213 18.2773 34.48C18.2773 33.6387 17.5937 32.9551 16.7524 32.9551C15.9111 32.9551 15.2275 33.6387 15.2275 34.48C15.2275 35.3213 15.9111 36.0049 16.7524 36.0049Z" fill="#4D4D4F"/>
<path id="Vector_19" d="M20.6216 40.8935C21.4629 40.8935 22.1464 40.21 22.1464 39.3686C22.1464 38.5273 21.4629 37.8438 20.6216 37.8438C19.7802 37.8438 19.0967 38.5273 19.0967 39.3686C19.0967 40.21 19.7802 40.8935 20.6216 40.8935Z" fill="#4D4D4F"/>
<path id="Vector_20" d="M44.2632 33.9629C45.1045 33.9629 45.788 33.2793 45.788 32.438C45.788 31.5967 45.1045 30.9131 44.2632 30.9131C43.4218 30.9131 42.7383 31.5967 42.7383 32.438C42.7383 33.2793 43.4218 33.9629 44.2632 33.9629Z" fill="#4D4D4F"/>
<path id="Vector_21" d="M50.1616 33.3505C51.0029 33.3505 51.6865 32.6669 51.6865 31.8256C51.6865 30.9843 51.0029 30.3008 50.1616 30.3008C49.3203 30.3008 48.6367 30.9843 48.6367 31.8256C48.6367 32.6669 49.3203 33.3505 50.1616 33.3505Z" fill="#4D4D4F"/>
<path id="Vector_22" d="M47.9233 38.4443C48.7646 38.4443 49.4482 37.7607 49.4482 36.9194C49.4482 36.0781 48.7646 35.3945 47.9233 35.3945C47.082 35.3945 46.3984 36.0781 46.3984 36.9194C46.3984 37.7607 47.082 38.4443 47.9233 38.4443Z" fill="#4D4D4F"/>
<path id="Vector_23" d="M41.2016 40.4824C42.043 40.4824 42.7265 39.7988 42.7265 38.9575C42.7265 38.1162 42.043 37.4326 41.2016 37.4326C40.3603 37.4326 39.6768 38.1162 39.6768 38.9575C39.6768 39.7988 40.3603 40.4824 41.2016 40.4824Z" fill="#4D4D4F"/>
<path id="Vector_24" d="M53.2221 40.8935C54.0635 40.8935 54.747 40.21 54.747 39.3686C54.747 38.5273 54.0635 37.8438 53.2221 37.8438C52.3808 37.8438 51.6973 38.5273 51.6973 39.3686C51.6973 40.21 52.3808 40.8935 53.2221 40.8935Z" fill="#4D4D4F"/>
<path id="Vector_25" d="M11.0512 34.9814C11.8926 34.9814 12.5761 34.2978 12.5761 33.4565C12.5761 32.6152 11.8926 31.9316 11.0512 31.9316C10.2099 31.9316 9.52637 32.6152 9.52637 33.4565C9.52637 34.2978 10.2099 34.9814 11.0512 34.9814Z" fill="#4D4D4F"/>
<path id="Vector_26" d="M5.5405 39.4638C6.38182 39.4638 7.06538 38.7802 7.06538 37.9389C7.06538 37.0976 6.38182 36.4141 5.5405 36.4141C4.69919 36.4141 4.01562 37.0976 4.01562 37.9389C4.01562 38.7802 4.69919 39.4638 5.5405 39.4638Z" fill="#4D4D4F"/>
<path id="Vector_27" d="M6.1616 32.5332C7.00291 32.5332 7.68648 31.8496 7.68648 31.0083C7.68648 30.167 7.00291 29.4834 6.1616 29.4834C5.32029 29.4834 4.63672 30.167 4.63672 31.0083C4.63672 31.8496 5.32029 32.5332 6.1616 32.5332Z" fill="#4D4D4F"/>
<path id="Vector_28" d="M14.1011 40.0722C14.9424 40.0722 15.6259 39.3887 15.6259 38.5474C15.6259 37.706 14.9424 37.0225 14.1011 37.0225C13.2597 37.0225 12.5762 37.706 12.5762 38.5474C12.5762 39.3887 13.2597 40.0722 14.1011 40.0722Z" fill="#4D4D4F"/>
</g>
</g>
</svg>
