<svg width="41" height="40" viewBox="0 0 41 40" fill="none" xmlns="http://www.w3.org/2000/svg">
<g id="D&#225;&#187;&#139; &#225;&#187;&#169;ng &#38; h&#225;&#187;&#135; mi&#225;&#187;&#133;n d&#225;&#187;&#139;ch">
<g id="D&#225;&#187;&#139; &#225;&#187;&#169;ng &#38; h&#225;&#187;&#135; mi&#225;&#187;&#133;n d&#225;&#187;&#139;ch_2" opacity="0.3">
<path id="Vector" d="M16.7371 29.1847C18.3777 29.1847 19.9867 28.701 21.3538 27.786C22.7209 26.8711 23.7831 25.5776 24.4141 24.0632C25.0451 22.5489 25.2028 20.8768 24.8873 19.2677C24.5718 17.6587 23.7726 16.1759 22.6158 15.0191C21.459 13.8623 19.9762 13.0631 18.3672 12.7476C16.7581 12.4321 15.086 12.5898 13.5717 13.2208C12.0573 13.8518 10.7533 14.914 9.84886 16.2811C8.94445 17.6482 8.4502 19.2573 8.4502 20.8978C8.4502 21.9915 8.6605 23.0642 9.08115 24.0738C9.50181 25.0833 10.1118 25.9983 10.8795 26.766C11.6472 27.5336 12.5621 28.1541 13.5717 28.5642C14.5813 28.9849 15.6644 29.1952 16.7476 29.1952L16.7371 29.1847Z" stroke="#FF6B00" stroke-width="2.13483" stroke-linecap="round" stroke-linejoin="round"/>
<path id="Vector_2" d="M16.7783 17.7109V23.8315" stroke="#FF6B00" stroke-width="2.13483" stroke-linecap="round" stroke-linejoin="round"/>
<path id="Vector_3" d="M16.7783 17.7109V23.8315" stroke="#FF6B00" stroke-width="2.13483" stroke-linecap="round" stroke-linejoin="round"/>
<path id="Vector_4" d="M19.828 20.7627H13.7285" stroke="#FF6B00" stroke-width="2.13483" stroke-linecap="round" stroke-linejoin="round"/>
<path id="Vector_5" d="M16.779 3.04199L1.709 9.77249C-0.530996 25.463 3.1287 37.5253 16.779 38.5033" stroke="#FF6B00" stroke-width="2.13483" stroke-linecap="round" stroke-linejoin="round"/>
<path id="Vector_6" d="M22.7832 37.1143C20.8692 37.903 18.8501 38.3762 16.7783 38.5024" stroke="#FF6B00" stroke-width="2.13483" stroke-linecap="round" stroke-linejoin="round"/>
<path id="Vector_7" d="M16.7783 3.04199L31.8799 9.77249C32.2269 12.0651 32.4267 14.3787 32.4898 16.6923V19.8262" stroke="#FF6B00" stroke-width="2.13483" stroke-linecap="round" stroke-linejoin="round"/>
<path id="Vector_8" d="M37.9702 32.8233L25.0876 31.3089C24.7721 31.2669 24.4776 31.1091 24.2778 30.8462C24.078 30.5938 23.9834 30.2678 24.0255 29.9523C24.0465 29.7946 24.0885 29.6368 24.1727 29.5001C24.2463 29.3634 24.3515 29.2372 24.4776 29.132C24.6038 29.0374 24.7511 28.9638 24.9088 28.9112C25.0666 28.8691 25.2243 28.8586 25.382 28.8797L38.2962 30.373C38.4539 30.394 38.6012 30.4466 38.7484 30.5202C38.8851 30.5938 39.0113 30.699 39.106 30.8252C39.2006 30.9514 39.2742 31.0881 39.3163 31.2458C39.3584 31.4036 39.3689 31.5613 39.3478 31.7191C39.3268 31.8768 39.2742 32.0241 39.2006 32.1713C39.127 32.308 39.0218 32.4342 38.8956 32.5289C38.7694 32.6235 38.6327 32.6971 38.475 32.7392C38.3172 32.7812 38.1595 32.7917 38.0017 32.7707L37.9702 32.8128V32.8233Z" fill="#FF6B00"/>
<path id="Vector_9" d="M30.8171 38.4922C30.5016 38.4502 30.2072 38.2924 30.0074 38.04C29.8075 37.7876 29.7129 37.4721 29.7549 37.1461L31.2798 24.3372C31.3324 24.0322 31.5007 23.7587 31.7531 23.5695C32.0054 23.3802 32.3104 23.3066 32.6259 23.3381C32.9309 23.3697 33.2149 23.5274 33.4147 23.7693C33.6145 24.0111 33.7091 24.3161 33.6986 24.6211L32.1842 37.4827C32.1316 37.7876 31.9634 38.0716 31.711 38.2609C31.4586 38.4502 31.1431 38.5343 30.8276 38.4922H30.8171Z" fill="#FF6B00"/>
<path id="Vector_10" d="M26.4319 36.0627C26.2742 36.0521 26.1164 35.9996 25.9797 35.9259C25.843 35.8523 25.7168 35.7472 25.6222 35.621C25.517 35.4948 25.4434 35.3476 25.4013 35.2003C25.3593 35.0426 25.3487 34.8848 25.3593 34.7271C25.3803 34.5693 25.4329 34.4116 25.5065 34.2749C25.5906 34.1382 25.6958 34.012 25.822 33.9173L36.0019 25.9038C36.1281 25.7986 36.2753 25.7145 36.4225 25.6724C36.5803 25.6199 36.738 25.6094 36.9063 25.6199C37.064 25.6409 37.2218 25.683 37.369 25.7671C37.5162 25.8407 37.6424 25.9564 37.7371 26.0826C37.8422 26.2088 37.9159 26.356 37.9579 26.5138C38 26.6715 38.0105 26.8398 37.9895 26.9975C37.9684 27.1553 37.9158 27.313 37.8317 27.4602C37.7476 27.597 37.6424 27.7232 37.5057 27.8178L27.3258 35.8313C27.1996 35.9259 27.0524 35.9996 26.9052 36.0416C26.7474 36.0837 26.5897 36.0942 26.4319 36.0732V36.0627Z" fill="#FF6B00"/>
<path id="Vector_11" d="M35.5499 37.1482C35.3921 37.1377 35.2344 37.0851 35.0977 37.0115C34.961 36.9379 34.8348 36.8327 34.7401 36.7065L26.7056 26.5372C26.6004 26.411 26.5163 26.2637 26.4742 26.1165C26.4216 25.9588 26.4111 25.801 26.4216 25.6328C26.4427 25.475 26.4847 25.3173 26.5688 25.17C26.6425 25.0228 26.7582 24.8966 26.8844 24.802C27.0106 24.6968 27.1578 24.6232 27.3155 24.5811C27.4733 24.5391 27.6415 24.5285 27.7993 24.5496C27.957 24.5706 28.1148 24.6232 28.262 24.7073C28.3987 24.7915 28.5249 24.9071 28.6196 25.0333L36.6541 35.2027C36.8539 35.4551 36.938 35.7811 36.9065 36.0966C36.8644 36.4121 36.7067 36.7065 36.4543 36.9064C36.3281 37.001 36.1808 37.0746 36.0336 37.1167C35.8759 37.1587 35.7181 37.1692 35.5604 37.1482H35.5499Z" fill="#FF6B00"/>
<path id="Vector_12" d="M31.0176 36.2932C32.0903 36.4194 33.184 36.2301 34.1515 35.7358C35.119 35.2416 35.9183 34.4738 36.4441 33.5274C36.9699 32.5809 37.2118 31.4977 37.1276 30.4145C37.0435 29.3313 36.6334 28.3007 35.9708 27.4489C35.2978 26.5971 34.3933 25.9661 33.3627 25.6296C32.3321 25.293 31.2174 25.272 30.1763 25.5665C29.1351 25.8609 28.1992 26.4604 27.4946 27.2807C26.79 28.1009 26.3483 29.121 26.2221 30.1937C26.138 30.9088 26.1906 31.6344 26.3904 32.3285C26.5902 33.0226 26.9162 33.6746 27.3579 34.232C27.7996 34.7999 28.357 35.2731 28.9879 35.6202C29.6189 35.9672 30.313 36.1986 31.0281 36.2827L31.0176 36.2932Z" fill="#FF6B00"/>
</g>
<g id="D&#225;&#187;&#139; &#225;&#187;&#169;ng &#38; h&#225;&#187;&#135; mi&#225;&#187;&#133;n d&#225;&#187;&#139;ch_3">
<path id="Vector_13" d="M18.282 27.6388C19.9226 27.6388 21.5316 27.1551 22.8987 26.2401C24.2659 25.3252 25.328 24.0317 25.959 22.5173C26.59 21.003 26.7477 19.3309 26.4322 17.7218C26.1167 16.1128 25.3175 14.63 24.1607 13.4732C23.0039 12.3164 21.5211 11.5172 19.9121 11.2017C18.3031 10.8862 16.631 11.0439 15.1166 11.6749C13.6022 12.3059 12.2982 13.3681 11.3938 14.7352C10.4894 16.1023 9.99512 17.7114 9.99512 19.3519C9.99512 20.4456 10.2054 21.5183 10.6261 22.5279C11.0467 23.5374 11.6567 24.4524 12.4244 25.2201C13.1921 25.9878 14.107 26.6082 15.1166 27.0183C16.1262 27.439 17.2094 27.6493 18.2925 27.6493L18.282 27.6388Z" stroke="#4D4D4F" stroke-width="2.13483" stroke-linecap="round" stroke-linejoin="round"/>
<path id="Vector_14" d="M18.3232 16.165V22.2856" stroke="#FF6B00" stroke-width="2.13483" stroke-linecap="round" stroke-linejoin="round"/>
<path id="Vector_15" d="M18.3232 16.165V22.2856" stroke="#FF6B00" stroke-width="2.13483" stroke-linecap="round" stroke-linejoin="round"/>
<path id="Vector_16" d="M21.3729 19.2168H15.2734" stroke="#FF6B00" stroke-width="2.13483" stroke-linecap="round" stroke-linejoin="round"/>
<path id="Vector_17" d="M18.3239 1.49609L3.25392 8.22659C1.01393 23.9171 4.67362 35.9794 18.3239 36.9574" stroke="#FF6B00" stroke-width="2.13483" stroke-linecap="round" stroke-linejoin="round"/>
<path id="Vector_18" d="M24.3281 35.5684C22.4141 36.3571 20.395 36.8303 18.3232 36.9565" stroke="#FF6B00" stroke-width="2.13483" stroke-linecap="round" stroke-linejoin="round"/>
<path id="Vector_19" d="M18.3232 1.49609L33.4248 8.22659C33.7719 10.5192 33.9717 12.8328 34.0348 15.1464V18.2803" stroke="#FF6B00" stroke-width="2.13483" stroke-linecap="round" stroke-linejoin="round"/>
<path id="Vector_20" d="M39.5151 31.2774L26.6325 29.763C26.317 29.721 26.0226 29.5632 25.8228 29.3003C25.6229 29.0479 25.5283 28.7219 25.5704 28.4064C25.5914 28.2487 25.6335 28.0909 25.7176 27.9542C25.7912 27.8175 25.8964 27.6913 26.0226 27.5861C26.1488 27.4915 26.296 27.4179 26.4537 27.3653C26.6115 27.3232 26.7692 27.3127 26.927 27.3338L39.8411 28.8271C39.9989 28.8481 40.1461 28.9007 40.2933 28.9743C40.4301 29.0479 40.5563 29.1531 40.6509 29.2793C40.7455 29.4055 40.8191 29.5422 40.8612 29.7C40.9033 29.8577 40.9138 30.0154 40.8928 30.1732C40.8717 30.3309 40.8192 30.4782 40.7455 30.6254C40.6719 30.7621 40.5668 30.8883 40.4406 30.983C40.3144 31.0776 40.1777 31.1512 40.0199 31.1933C39.8622 31.2353 39.7044 31.2458 39.5467 31.2248L39.5151 31.2669V31.2774Z" fill="#FF6B00"/>
<path id="Vector_21" d="M32.362 36.9463C32.0465 36.9043 31.7521 36.7465 31.5523 36.4941C31.3525 36.2417 31.2578 35.9262 31.2999 35.6002L32.8248 22.7913C32.8773 22.4863 33.0456 22.2128 33.298 22.0236C33.5504 21.8343 33.8554 21.7607 34.1709 21.7922C34.4758 21.8238 34.7598 21.9815 34.9596 22.2234C35.1594 22.4652 35.254 22.7702 35.2435 23.0752L33.7292 35.9368C33.6766 36.2417 33.5083 36.5257 33.2559 36.715C33.0035 36.9043 32.688 36.9884 32.3726 36.9463H32.362Z" fill="#FF6B00"/>
<path id="Vector_22" d="M27.9768 34.5168C27.8191 34.5062 27.6614 34.4537 27.5246 34.38C27.3879 34.3064 27.2617 34.2013 27.1671 34.0751C27.0619 33.9489 26.9883 33.8017 26.9463 33.6544C26.9042 33.4967 26.8937 33.3389 26.9042 33.1812C26.9252 33.0234 26.9778 32.8657 27.0514 32.729C27.1355 32.5923 27.2407 32.4661 27.3669 32.3714L37.5468 24.3579C37.673 24.2527 37.8202 24.1686 37.9674 24.1265C38.1252 24.074 38.2829 24.0635 38.4512 24.074C38.609 24.095 38.7667 24.1371 38.9139 24.2212C39.0612 24.2948 39.1873 24.4105 39.282 24.5367C39.3871 24.6629 39.4608 24.8101 39.5029 24.9679C39.5449 25.1256 39.5554 25.2939 39.5344 25.4516C39.5134 25.6094 39.4608 25.7671 39.3766 25.9144C39.2925 26.0511 39.1873 26.1773 39.0506 26.2719L28.8707 34.2854C28.7445 34.38 28.5973 34.4537 28.4501 34.4957C28.2923 34.5378 28.1346 34.5483 27.9768 34.5273V34.5168Z" fill="#FF6B00"/>
<path id="Vector_23" d="M37.0948 35.6023C36.937 35.5918 36.7793 35.5392 36.6426 35.4656C36.5059 35.392 36.3797 35.2868 36.285 35.1606L28.2505 24.9913C28.1453 24.8651 28.0612 24.7178 28.0191 24.5706C27.9665 24.4129 27.956 24.2551 27.9666 24.0869C27.9876 23.9291 28.0296 23.7714 28.1138 23.6241C28.1874 23.4769 28.3031 23.3507 28.4293 23.2561C28.5555 23.1509 28.7027 23.0773 28.8604 23.0352C29.0182 22.9932 29.1865 22.9826 29.3442 23.0037C29.502 23.0247 29.6597 23.0773 29.8069 23.1614C29.9436 23.2456 30.0698 23.3612 30.1645 23.4874L38.199 33.6568C38.3988 33.9092 38.483 34.2352 38.4514 34.5507C38.4094 34.8662 38.2516 35.1606 37.9992 35.3605C37.873 35.4551 37.7258 35.5287 37.5785 35.5708C37.4208 35.6128 37.2631 35.6233 37.1053 35.6023H37.0948Z" fill="#FF6B00"/>
<path id="Vector_24" d="M32.5625 34.7473C33.6352 34.8735 34.7289 34.6842 35.6964 34.1899C36.6639 33.6957 37.4632 32.9279 37.989 31.9815C38.5148 31.035 38.7567 29.9518 38.6726 28.8686C38.5884 27.7854 38.1783 26.7548 37.5157 25.903C36.8427 25.0512 35.9383 24.4202 34.9077 24.0837C33.8771 23.7471 32.7623 23.7261 31.7212 24.0206C30.6801 24.315 29.7441 24.9145 29.0395 25.7348C28.3349 26.555 27.8932 27.5751 27.767 28.6478C27.6829 29.3629 27.7355 30.0885 27.9353 30.7826C28.1351 31.4767 28.4611 32.1287 28.9028 32.6861C29.3445 33.254 29.9019 33.7272 30.5329 34.0743C31.1638 34.4213 31.8579 34.6527 32.573 34.7368L32.5625 34.7473Z" fill="#FF6B00"/>
</g>
</g>
</svg>
