<svg width="30" height="44" viewBox="0 0 30 44" fill="none" xmlns="http://www.w3.org/2000/svg">
<g id="Dinh d&#198;&#176;&#225;&#187;&#161;ng">
<g id="Dinh d&#198;&#176;&#225;&#187;&#161;ng_2" opacity="0.3">
<path id="Vector" d="M7.13321 10.924C7.13321 22.0766 2.20996 16.8897 2.20996 25.2542V38.7931C2.20996 43.1763 3.4031 42.3725 7.76118 42.3725H20.4461C24.8042 42.3725 25.9973 43.1637 25.9973 38.7931V25.2542C25.9973 16.8897 21.074 22.0641 21.074 10.924H25.2061V3.36328H3.01376V10.924H14.1162" stroke="#FF6B00" stroke-width="2.47573" stroke-linecap="round" stroke-linejoin="round"/>
<path id="Vector_2" d="M14.5058 20.873L11.3408 28.0444H17.6833L13.3252 35.6051" stroke="#FF6B00" stroke-width="2.47573" stroke-linecap="round" stroke-linejoin="round"/>
</g>
<g id="Dinh d&#198;&#176;&#225;&#187;&#161;ng_3">
<path id="Vector_3" d="M8.92618 9.13101C8.92618 20.2837 4.00293 15.0967 4.00293 23.4612V37.0001C4.00293 41.3833 5.19606 40.5795 9.55414 40.5795H22.239C26.5971 40.5795 27.7903 41.3708 27.7903 37.0001V23.4612C27.7903 15.0967 22.867 20.2711 22.867 9.13101H26.999V1.57031H4.80673V9.13101H15.9092" stroke="#4D4D4F" stroke-width="2.47573" stroke-linecap="round" stroke-linejoin="round"/>
<path id="Vector_4" d="M16.2987 19.0801L13.1338 26.2514H19.4762L15.1182 33.8121" stroke="#FF6B00" stroke-width="2.47573" stroke-linecap="round" stroke-linejoin="round"/>
</g>
</g>
</svg>
