<svg width="44" height="44" viewBox="0 0 44 44" fill="none" xmlns="http://www.w3.org/2000/svg">
<g id="H&#195;&#180; h&#225;&#186;&#165;p">
<g id="H&#225;&#187;&#135; h&#195;&#180; h&#225;&#186;&#165;p" opacity="0.3">
<path id="Vector" d="M21.1133 23.7254V3.14941" stroke="#FF6B00" stroke-width="2.17893" stroke-linecap="round" stroke-linejoin="round"/>
<path id="Vector_2" d="M13.9229 29.1569L21.1255 23.7139" stroke="#FF6B00" stroke-width="2.17893" stroke-linecap="round" stroke-linejoin="round"/>
<path id="Vector_3" d="M28.3159 29.1569L21.1133 23.7139" stroke="#FF6B00" stroke-width="2.17893" stroke-linecap="round" stroke-linejoin="round"/>
<path id="Vector_4" d="M16.4753 18.5279C16.4753 13.7927 13.9226 14.0368 9.2727 15.9284C4.63475 17.82 2.0701 20.6636 2.0701 31.7693C2.0701 42.8749 1.84239 42.6431 5.55755 42.6431C9.2727 42.6431 16.4753 42.4112 16.4753 32.9531" stroke="#FF6B00" stroke-width="2.17893" stroke-linecap="round" stroke-linejoin="round"/>
<path id="Vector_5" d="M25.7617 18.5279C25.7617 13.7927 28.3144 14.0368 32.9643 15.9284C37.6143 17.82 40.1669 20.6636 40.1669 31.7693C40.1669 42.8749 40.3946 42.6431 36.6795 42.6431C32.9643 42.6431 25.7617 42.4112 25.7617 32.9531" stroke="#FF6B00" stroke-width="2.17893" stroke-linecap="round" stroke-linejoin="round"/>
</g>
<g id="H&#225;&#187;&#135; h&#195;&#180; h&#225;&#186;&#165;p_2">
<path id="Vector_6" d="M22.876 21.9315V1.35547" stroke="#FF6B00" stroke-width="2.17893" stroke-linecap="round" stroke-linejoin="round"/>
<path id="Vector_7" d="M15.6855 27.3629L22.8881 21.9199" stroke="#FF6B00" stroke-width="2.17893" stroke-linecap="round" stroke-linejoin="round"/>
<path id="Vector_8" d="M30.0786 27.3629L22.876 21.9199" stroke="#FF6B00" stroke-width="2.17893" stroke-linecap="round" stroke-linejoin="round"/>
<path id="Vector_9" d="M18.238 16.7339C18.238 11.9988 15.6853 12.2428 11.0354 14.1345C6.39745 16.0261 3.83279 18.8697 3.83279 29.9753C3.83279 41.081 3.60509 40.8491 7.32024 40.8491C11.0354 40.8491 18.238 40.6172 18.238 31.1591" stroke="#4D4D4F" stroke-width="2.17893" stroke-linecap="round" stroke-linejoin="round"/>
<path id="Vector_10" d="M27.5244 16.7339C27.5244 11.9988 30.0771 12.2428 34.727 14.1345C39.3769 16.0261 41.9296 18.8697 41.9296 29.9753C41.9296 41.081 42.1573 40.8491 38.4422 40.8491C34.727 40.8491 27.5244 40.6172 27.5244 31.1591" stroke="#4D4D4F" stroke-width="2.17893" stroke-linecap="round" stroke-linejoin="round"/>
</g>
</g>
</svg>
