<svg width="58" height="40" viewBox="0 0 58 40" fill="none" xmlns="http://www.w3.org/2000/svg">
<g id="Hooc-mon (N&#225;&#187;&#153;i ti&#225;&#186;&#191;t t&#225;&#187;&#145;)">
<g id="Hooc-mon (N&#225;&#187;&#153;i ti&#225;&#186;&#191;t t&#225;&#187;&#145;)_2" opacity="0.3">
<path id="Vector" d="M20.7862 30.843V25.3324L16.0118 22.5771L11.2373 25.3324V30.843L16.0118 33.5983L20.7862 30.843Z" stroke="#FF6B00" stroke-width="2.13483" stroke-linecap="round" stroke-linejoin="round"/>
<path id="Vector_2" d="M30.3155 30.8294V25.3188L25.541 22.5635L20.7666 25.3188V30.8294L25.541 33.5847L30.3155 30.8294Z" stroke="#FF6B00" stroke-width="2.13483" stroke-linecap="round" stroke-linejoin="round"/>
<path id="Vector_3" d="M35.0362 22.5957V17.0746L30.2618 14.3193L25.4873 17.0746V22.5957L30.2618 25.351L35.0362 22.5957Z" stroke="#FF6B00" stroke-width="2.13483" stroke-linecap="round" stroke-linejoin="round"/>
<path id="Vector_4" d="M44.4073 22.5889V17.0678L39.6328 14.3125L34.8584 17.0678V22.5889L39.6328 25.3442L44.4073 22.5889Z" stroke="#FF6B00" stroke-width="2.13483" stroke-linecap="round" stroke-linejoin="round"/>
<path id="Vector_5" d="M11.2055 31.2734L7.90332 33.1874" stroke="#FF6B00" stroke-width="2.13483" stroke-linecap="round" stroke-linejoin="round"/>
<path id="Vector_6" d="M30.3145 14.2586V9.74707" stroke="#FF6B00" stroke-width="2.13483" stroke-linecap="round" stroke-linejoin="round"/>
<path id="Vector_7" d="M44.374 17.0341L48.8856 14.2578" stroke="#FF6B00" stroke-width="2.13483" stroke-linecap="round" stroke-linejoin="round"/>
<path id="Vector_8" d="M5.13802 38.0466C6.86271 38.0466 8.26139 36.6479 8.26139 34.9232C8.26139 33.1985 6.86271 31.7998 5.13802 31.7998C3.41333 31.7998 2.01465 33.1985 2.01465 34.9232C2.01465 36.6479 3.41333 38.0466 5.13802 38.0466V38.0466Z" stroke="#FF6B00" stroke-width="2.13483" stroke-linecap="round" stroke-linejoin="round"/>
<path id="Vector_9" d="M30.304 9.74577C32.0287 9.74577 33.4274 8.34709 33.4274 6.6224C33.4274 4.89771 32.0287 3.49902 30.304 3.49902C28.5793 3.49902 27.1807 4.89771 27.1807 6.6224C27.1807 8.34709 28.5793 9.74577 30.304 9.74577Z" stroke="#FF6B00" stroke-width="2.13483" stroke-linecap="round" stroke-linejoin="round"/>
<path id="Vector_10" d="M51.3158 15.4762C53.0404 15.4762 54.4391 14.0776 54.4391 12.3529C54.4391 10.6282 53.0404 9.22949 51.3158 9.22949C49.5911 9.22949 48.1924 10.6282 48.1924 12.3529C48.1924 14.0776 49.5911 15.4762 51.3158 15.4762Z" stroke="#FF6B00" stroke-width="2.13483" stroke-linecap="round" stroke-linejoin="round"/>
</g>
<g id="Hooc-mon (N&#225;&#187;&#153;i ti&#225;&#186;&#191;t t&#225;&#187;&#145;)_3">
<path id="Vector_11" d="M22.3311 29.2971V23.7865L17.5567 21.0312L12.7822 23.7865V29.2971L17.5567 32.0524L22.3311 29.2971Z" stroke="#FF6B00" stroke-width="2.13483" stroke-linecap="round" stroke-linejoin="round"/>
<path id="Vector_12" d="M31.8604 29.2835V23.7729L27.086 21.0176L22.3115 23.7729V29.2835L27.086 32.0388L31.8604 29.2835Z" stroke="#FF6B00" stroke-width="2.13483" stroke-linecap="round" stroke-linejoin="round"/>
<path id="Vector_13" d="M36.5811 21.0498V15.5287L31.8067 12.7734L27.0322 15.5287V21.0498L31.8067 23.8051L36.5811 21.0498Z" stroke="#FF6B00" stroke-width="2.13483" stroke-linecap="round" stroke-linejoin="round"/>
<path id="Vector_14" d="M45.9522 21.043V15.5219L41.1778 12.7666L36.4033 15.5219V21.043L41.1778 23.7983L45.9522 21.043Z" stroke="#FF6B00" stroke-width="2.13483" stroke-linecap="round" stroke-linejoin="round"/>
<path id="Vector_15" d="M12.7504 29.7275L9.44824 31.6415" stroke="#FF6B00" stroke-width="2.13483" stroke-linecap="round" stroke-linejoin="round"/>
<path id="Vector_16" d="M31.8594 12.7117V8.2002" stroke="#FF6B00" stroke-width="2.13483" stroke-linecap="round" stroke-linejoin="round"/>
<path id="Vector_17" d="M45.9189 15.4882L50.4305 12.7119" stroke="#FF6B00" stroke-width="2.13483" stroke-linecap="round" stroke-linejoin="round"/>
<path id="Vector_18" d="M6.68294 36.5007C8.40763 36.5007 9.80632 35.102 9.80632 33.3773C9.80632 31.6526 8.40763 30.2539 6.68294 30.2539C4.95825 30.2539 3.55957 31.6526 3.55957 33.3773C3.55957 35.102 4.95825 36.5007 6.68294 36.5007V36.5007Z" stroke="#4D4D4F" stroke-width="2.13483" stroke-linecap="round" stroke-linejoin="round"/>
<path id="Vector_19" d="M31.849 8.19987C33.5736 8.19987 34.9723 6.80119 34.9723 5.0765C34.9723 3.35181 33.5736 1.95312 31.849 1.95312C30.1243 1.95312 28.7256 3.35181 28.7256 5.0765C28.7256 6.80119 30.1243 8.19987 31.849 8.19987Z" stroke="#4D4D4F" stroke-width="2.13483" stroke-linecap="round" stroke-linejoin="round"/>
<path id="Vector_20" d="M52.8607 13.9303C54.5854 13.9303 55.9841 12.5317 55.9841 10.807C55.9841 9.08228 54.5854 7.68359 52.8607 7.68359C51.136 7.68359 49.7373 9.08228 49.7373 10.807C49.7373 12.5317 51.136 13.9303 52.8607 13.9303Z" stroke="#4D4D4F" stroke-width="2.13483" stroke-linecap="round" stroke-linejoin="round"/>
</g>
</g>
</svg>
