<svg width="49" height="41" viewBox="0 0 49 41" fill="none" xmlns="http://www.w3.org/2000/svg">
<g id="Thu&#225;&#187;&#145;c kh&#195;&#161;ng khu&#225;&#186;&#169;n (&#196;&#145;&#198;&#176;&#225;&#187;&#157;ng to&#195;&#160;n th&#195;&#162;n)">
<g id="Thu&#225;&#187;&#145;c kh&#195;&#161;ng khu&#225;&#186;&#169;n (&#196;&#145;&#198;&#176;&#225;&#187;&#157;ng to&#195;&#160;n th&#195;&#162;n)_2" opacity="0.3">
<path id="Vector" d="M45.7294 33.8377H32.7521C32.0791 33.8377 31.5322 33.2909 31.5322 32.6283C31.5322 31.9658 32.0791 31.4189 32.7521 31.4189H45.7294C46.4024 31.4189 46.9493 31.9658 46.9493 32.6283C46.9493 33.2909 46.4024 33.8377 45.7294 33.8377Z" fill="#FF6B00"/>
<path id="Vector_2" d="M39.2414 40.3154C38.5683 40.3154 38.0215 39.7686 38.0215 39.106V26.1498C38.0215 25.4768 38.5683 24.9404 39.2414 24.9404C39.9144 24.9404 40.4613 25.4873 40.4613 26.1498V39.106C40.4613 39.7791 39.9144 40.3154 39.2414 40.3154Z" fill="#FF6B00"/>
<path id="Vector_3" d="M34.646 38.4253C34.3305 38.4253 34.0255 38.3097 33.7836 38.0678C33.3104 37.5946 33.3104 36.8268 33.7836 36.3536L42.9539 27.1938C43.4272 26.7206 44.1949 26.7206 44.6786 27.1938C45.1519 27.667 45.1519 28.4347 44.6786 28.908L35.5083 38.0678C35.2665 38.3097 34.9615 38.4253 34.646 38.4253Z" fill="#FF6B00"/>
<path id="Vector_4" d="M43.8261 38.4253C43.5106 38.4253 43.2056 38.3097 42.9637 38.0678L33.7934 28.908C33.3202 28.4347 33.3202 27.667 33.7934 27.1938C34.2666 26.7206 35.0343 26.7206 35.5181 27.1938L44.6884 36.3536C45.1616 36.8268 45.1616 37.5946 44.6884 38.0678C44.4465 38.3097 44.1415 38.4253 43.8261 38.4253Z" fill="#FF6B00"/>
<path id="Vector_5" d="M39.2396 38.1104C42.2683 38.1104 44.7291 35.6601 44.7291 32.6314C44.7291 29.6027 42.2683 27.1523 39.2396 27.1523C36.2108 27.1523 33.75 29.6027 33.75 32.6314C33.75 35.6601 36.2108 38.1104 39.2396 38.1104Z" fill="#FF6B00"/>
<path id="Vector_6" d="M39.923 20.6105H31.941C31.5309 20.6105 31.1943 20.274 31.1943 19.8638C31.1943 19.4537 31.5309 19.1172 31.941 19.1172H39.923C40.3331 19.1172 40.6696 19.4537 40.6696 19.8638C40.6696 20.274 40.3331 20.6105 39.923 20.6105Z" fill="#FF6B00"/>
<path id="Vector_7" d="M35.9381 24.5966C35.5279 24.5966 35.1914 24.2601 35.1914 23.8499V15.8785C35.1914 15.4684 35.5279 15.1318 35.9381 15.1318C36.3482 15.1318 36.6847 15.4684 36.6847 15.8785V23.8499C36.6847 24.2601 36.3482 24.5966 35.9381 24.5966Z" fill="#FF6B00"/>
<path id="Vector_8" d="M33.1187 23.428C32.9294 23.428 32.7401 23.3544 32.5929 23.2071C32.2985 22.9127 32.2985 22.4395 32.5929 22.1555L38.2402 16.5187C38.5347 16.2242 39.0079 16.2242 39.3024 16.5187C39.5968 16.8132 39.5968 17.2864 39.3024 17.5703L33.6551 23.2071C33.5078 23.3544 33.3185 23.428 33.1292 23.428H33.1187Z" fill="#FF6B00"/>
<path id="Vector_9" d="M38.7553 23.428C38.566 23.428 38.3767 23.3544 38.2295 23.2071L32.5822 17.5703C32.2877 17.2759 32.2877 16.8026 32.5822 16.5187C32.8766 16.2242 33.3499 16.2242 33.6443 16.5187L39.2916 22.1555C39.5861 22.45 39.5861 22.9232 39.2916 23.2071C39.1444 23.3544 38.9551 23.428 38.7658 23.428H38.7553Z" fill="#FF6B00"/>
<path id="Vector_10" d="M35.9392 23.2389C37.8006 23.2389 39.315 21.7245 39.315 19.8631C39.315 18.0017 37.8006 16.4873 35.9392 16.4873C34.0778 16.4873 32.5635 18.0017 32.5635 19.8631C32.5635 21.7245 34.0778 23.2389 35.9392 23.2389Z" fill="#FF6B00"/>
<path id="Vector_11" d="M29.9972 31.1124H24.434C24.1501 31.1124 23.9082 30.8811 23.9082 30.5971C23.9082 30.3132 24.1396 30.0713 24.434 30.0713H29.9972C30.2812 30.0713 30.523 30.3027 30.523 30.5971C30.523 30.8916 30.2917 31.1124 29.9972 31.1124Z" fill="#FF6B00"/>
<path id="Vector_12" d="M27.2104 33.8936C26.9264 33.8936 26.6846 33.6622 26.6846 33.3783V27.8256C26.6846 27.5417 26.9159 27.2998 27.2104 27.2998C27.5049 27.2998 27.7362 27.5312 27.7362 27.8256V33.3783C27.7362 33.6622 27.5049 33.8936 27.2104 33.8936Z" fill="#FF6B00"/>
<path id="Vector_13" d="M25.2543 33.0809C25.1175 33.0809 24.9914 33.0283 24.8862 32.9337C24.6864 32.7338 24.6864 32.3973 24.8862 32.1975L28.8193 28.2749C29.0191 28.075 29.3557 28.075 29.5555 28.2749C29.7553 28.4747 29.7553 28.8112 29.5555 29.011L25.6223 32.9337C25.5172 33.0388 25.391 33.0809 25.2543 33.0809Z" fill="#FF6B00"/>
<path id="Vector_14" d="M29.1874 33.0809C29.0507 33.0809 28.9245 33.0283 28.8193 32.9337L24.8862 29.011C24.6864 28.8112 24.6864 28.4747 24.8862 28.2749C25.086 28.075 25.4225 28.075 25.6223 28.2749L29.5555 32.1975C29.7553 32.3973 29.7553 32.7338 29.5555 32.9337C29.4503 33.0388 29.3241 33.0809 29.1874 33.0809Z" fill="#FF6B00"/>
<path id="Vector_15" d="M27.2209 32.9471C28.525 32.9471 29.5766 31.8955 29.5766 30.602C29.5766 29.3085 28.525 28.2568 27.2209 28.2568C25.9169 28.2568 24.8652 29.3085 24.8652 30.602C24.8652 31.8955 25.9169 32.9471 27.2209 32.9471Z" fill="#FF6B00"/>
<path id="Vector_16" d="M10.877 15.1318L23.1706 24.7123" stroke="#FF6B00" stroke-width="2.13483" stroke-linecap="round" stroke-linejoin="round"/>
<path id="Vector_17" d="M4.48368 35.8368C1.09739 33.1761 0.508485 28.286 3.17965 24.8997L17.9131 6.20157C20.5738 2.8258 25.485 2.23689 28.8607 4.89754C32.247 7.55819 32.8359 12.4483 30.1647 15.8346L15.4313 34.5328C12.7706 37.9085 7.85944 38.4974 4.48368 35.8368V35.8368Z" stroke="#FF6B00" stroke-width="2.13483" stroke-linecap="round" stroke-linejoin="round"/>
</g>
<g id="Thu&#225;&#187;&#145;c kh&#195;&#161;ng khu&#225;&#186;&#169;n (&#196;&#145;&#198;&#176;&#225;&#187;&#157;ng to&#195;&#160;n th&#195;&#162;n)_3">
<path id="Vector_18" d="M47.2743 32.2918H34.2971C33.624 32.2918 33.0771 31.745 33.0771 31.0824C33.0771 30.4199 33.624 29.873 34.2971 29.873H47.2743C47.9473 29.873 48.4942 30.4199 48.4942 31.0824C48.4942 31.745 47.9473 32.2918 47.2743 32.2918Z" fill="#FF6B00"/>
<path id="Vector_19" d="M40.7863 38.7695C40.1133 38.7695 39.5664 38.2227 39.5664 37.5601V24.6039C39.5664 23.9309 40.1133 23.3945 40.7863 23.3945C41.4594 23.3945 42.0062 23.9414 42.0062 24.6039V37.5601C42.0062 38.2332 41.4594 38.7695 40.7863 38.7695Z" fill="#FF6B00"/>
<path id="Vector_20" d="M36.1909 36.8794C35.8754 36.8794 35.5704 36.7638 35.3286 36.5219C34.8553 36.0487 34.8553 35.2809 35.3286 34.8077L44.4989 25.6479C44.9721 25.1747 45.7398 25.1747 46.2236 25.6479C46.6968 26.1211 46.6968 26.8888 46.2236 27.3621L37.0533 36.5219C36.8114 36.7638 36.5064 36.8794 36.1909 36.8794Z" fill="#FF6B00"/>
<path id="Vector_21" d="M45.371 36.8794C45.0555 36.8794 44.7505 36.7638 44.5086 36.5219L35.3383 27.3621C34.8651 26.8888 34.8651 26.1211 35.3383 25.6479C35.8116 25.1747 36.5793 25.1747 37.063 25.6479L46.2333 34.8077C46.7066 35.2809 46.7066 36.0487 46.2333 36.5219C45.9914 36.7638 45.6865 36.8794 45.371 36.8794Z" fill="#FF6B00"/>
<path id="Vector_22" d="M40.7845 36.5645C43.8132 36.5645 46.2741 34.1142 46.2741 31.0855C46.2741 28.0568 43.8132 25.6064 40.7845 25.6064C37.7558 25.6064 35.2949 28.0568 35.2949 31.0855C35.2949 34.1142 37.7558 36.5645 40.7845 36.5645Z" fill="#FF6B00"/>
<path id="Vector_23" d="M41.4679 19.0646H33.4859C33.0758 19.0646 32.7393 18.7281 32.7393 18.3179C32.7393 17.9078 33.0758 17.5713 33.4859 17.5713H41.4679C41.878 17.5713 42.2145 17.9078 42.2145 18.3179C42.2145 18.7281 41.878 19.0646 41.4679 19.0646Z" fill="#FF6B00"/>
<path id="Vector_24" d="M37.483 23.0507C37.0728 23.0507 36.7363 22.7142 36.7363 22.304V14.3326C36.7363 13.9225 37.0728 13.5859 37.483 13.5859C37.8931 13.5859 38.2297 13.9225 38.2297 14.3326V22.304C38.2297 22.7142 37.8931 23.0507 37.483 23.0507Z" fill="#FF6B00"/>
<path id="Vector_25" d="M34.6637 21.8821C34.4744 21.8821 34.2851 21.8085 34.1378 21.6612C33.8434 21.3668 33.8434 20.8936 34.1378 20.6096L39.7851 14.9728C40.0796 14.6783 40.5528 14.6783 40.8473 14.9728C41.1418 15.2673 41.1418 15.7405 40.8473 16.0244L35.2 21.6612C35.0528 21.8085 34.8635 21.8821 34.6742 21.8821H34.6637Z" fill="#FF6B00"/>
<path id="Vector_26" d="M40.3002 21.8821C40.1109 21.8821 39.9216 21.8085 39.7744 21.6612L34.1271 16.0244C33.8326 15.73 33.8326 15.2567 34.1271 14.9728C34.4216 14.6783 34.8948 14.6783 35.1893 14.9728L40.8366 20.6096C41.131 20.9041 41.131 21.3773 40.8366 21.6612C40.6893 21.8085 40.5 21.8821 40.3107 21.8821H40.3002Z" fill="#FF6B00"/>
<path id="Vector_27" d="M37.4842 21.692C39.3456 21.692 40.8599 20.1776 40.8599 18.3162C40.8599 16.4548 39.3456 14.9404 37.4842 14.9404C35.6228 14.9404 34.1084 16.4548 34.1084 18.3162C34.1084 20.1776 35.6228 21.692 37.4842 21.692Z" fill="#FF6B00"/>
<path id="Vector_28" d="M31.5421 29.5665H25.9789C25.695 29.5665 25.4531 29.3352 25.4531 29.0512C25.4531 28.7673 25.6845 28.5254 25.9789 28.5254H31.5421C31.8261 28.5254 32.068 28.7568 32.068 29.0512C32.068 29.3457 31.8366 29.5665 31.5421 29.5665Z" fill="#FF6B00"/>
<path id="Vector_29" d="M28.7553 32.3477C28.4714 32.3477 28.2295 32.1163 28.2295 31.8324V26.2797C28.2295 25.9958 28.4609 25.7539 28.7553 25.7539C29.0498 25.7539 29.2811 25.9853 29.2811 26.2797V31.8324C29.2811 32.1163 29.0498 32.3477 28.7553 32.3477Z" fill="#FF6B00"/>
<path id="Vector_30" d="M26.7992 31.534C26.6625 31.534 26.5363 31.4814 26.4311 31.3868C26.2313 31.187 26.2313 30.8504 26.4311 30.6506L30.3642 26.728C30.564 26.5282 30.9006 26.5282 31.1004 26.728C31.3002 26.9278 31.3002 27.2643 31.1004 27.4641L27.1673 31.3868C27.0621 31.4919 26.9359 31.534 26.7992 31.534Z" fill="#FF6B00"/>
<path id="Vector_31" d="M30.7323 31.534C30.5956 31.534 30.4694 31.4814 30.3642 31.3868L26.4311 27.4641C26.2313 27.2643 26.2313 26.9278 26.4311 26.728C26.6309 26.5282 26.9674 26.5282 27.1673 26.728L31.1004 30.6506C31.3002 30.8504 31.3002 31.187 31.1004 31.3868C30.9952 31.4919 30.869 31.534 30.7323 31.534Z" fill="#FF6B00"/>
<path id="Vector_32" d="M28.7658 31.4012C30.0699 31.4012 31.1215 30.3496 31.1215 29.0561C31.1215 27.7626 30.0699 26.7109 28.7658 26.7109C27.4618 26.7109 26.4102 27.7626 26.4102 29.0561C26.4102 30.3496 27.4618 31.4012 28.7658 31.4012Z" fill="#FF6B00"/>
<path id="Vector_33" d="M12.4219 13.5859L24.7156 23.1664" stroke="#4D4D4F" stroke-width="2.13483" stroke-linecap="round" stroke-linejoin="round"/>
<path id="Vector_34" d="M6.0286 34.2909C2.64232 31.6302 2.05341 26.7401 4.72457 23.3538L19.4581 4.65567C22.1187 1.2799 27.0299 0.690993 30.4056 3.35164C33.7919 6.01229 34.3808 10.9024 31.7097 14.2887L16.9762 32.9869C14.3155 36.3626 9.40437 36.9515 6.0286 34.2909V34.2909Z" stroke="#FF6B00" stroke-width="2.13483" stroke-linecap="round" stroke-linejoin="round"/>
</g>
</g>
</svg>
