<svg width="42" height="26" viewBox="0 0 42 26" fill="none" xmlns="http://www.w3.org/2000/svg">
<g id="M&#225;&#186;&#175;t">
<g id="M&#225;&#186;&#175;t_2" opacity="0.3">
<path id="Vector" d="M38.5977 15.8817C38.5977 15.8817 30.3616 24.8572 20.209 24.8572C10.0565 24.8572 1.82031 15.8817 1.82031 15.8817C1.82031 15.8817 10.0565 6.90625 20.209 6.90625C30.3616 6.90625 38.5977 15.8817 38.5977 15.8817Z" stroke="#FF6B00" stroke-width="2.13483" stroke-linecap="round" stroke-linejoin="round"/>
<path id="Vector_2" d="M20.188 20.4849C22.718 20.4849 24.7744 18.4269 24.7744 15.8948C24.7744 13.3627 22.718 11.3047 20.188 11.3047C17.6579 11.3047 15.6016 13.3627 15.6016 15.8948C15.6016 18.4269 17.6579 20.4849 20.188 20.4849Z" stroke="#FF6B00" stroke-width="2.13483" stroke-linecap="round" stroke-linejoin="round"/>
<path id="Vector_3" d="M20.209 6.90818V2.72754" stroke="#FF6B00" stroke-width="2.13483" stroke-linecap="round" stroke-linejoin="round"/>
<path id="Vector_4" d="M7.27908 11.2911L5.19043 8.37109" stroke="#FF6B00" stroke-width="2.13483" stroke-linecap="round" stroke-linejoin="round"/>
<path id="Vector_5" d="M13.5335 8.17185L12.0693 4.62695" stroke="#FF6B00" stroke-width="2.13483" stroke-linecap="round" stroke-linejoin="round"/>
<path id="Vector_6" d="M33.1494 11.2911L35.2381 8.37109" stroke="#FF6B00" stroke-width="2.13483" stroke-linecap="round" stroke-linejoin="round"/>
<path id="Vector_7" d="M26.8838 8.17185L28.348 4.62695" stroke="#FF6B00" stroke-width="2.13483" stroke-linecap="round" stroke-linejoin="round"/>
</g>
<g id="M&#225;&#186;&#175;t_3">
<path id="Vector_8" d="M40.1817 14.2977C40.1817 14.2977 31.9456 23.2732 21.793 23.2732C11.6405 23.2732 3.4043 14.2977 3.4043 14.2977C3.4043 14.2977 11.6405 5.32227 21.793 5.32227C31.9456 5.32227 40.1817 14.2977 40.1817 14.2977Z" stroke="#FF6B00" stroke-width="2.13483" stroke-linecap="round" stroke-linejoin="round"/>
<path id="Vector_9" d="M21.772 18.9009C24.302 18.9009 26.3584 16.8429 26.3584 14.3108C26.3584 11.7787 24.302 9.7207 21.772 9.7207C19.2419 9.7207 17.1855 11.7787 17.1855 14.3108C17.1855 16.8429 19.2419 18.9009 21.772 18.9009Z" stroke="#4D4D4F" stroke-width="2.13483" stroke-linecap="round" stroke-linejoin="round"/>
<path id="Vector_10" d="M21.793 5.3242V1.14355" stroke="#4D4D4F" stroke-width="2.13483" stroke-linecap="round" stroke-linejoin="round"/>
<path id="Vector_11" d="M8.86306 9.70712L6.77441 6.78711" stroke="#4D4D4F" stroke-width="2.13483" stroke-linecap="round" stroke-linejoin="round"/>
<path id="Vector_12" d="M15.1175 6.58787L13.6533 3.04297" stroke="#4D4D4F" stroke-width="2.13483" stroke-linecap="round" stroke-linejoin="round"/>
<path id="Vector_13" d="M34.7334 9.70712L36.822 6.78711" stroke="#4D4D4F" stroke-width="2.13483" stroke-linecap="round" stroke-linejoin="round"/>
<path id="Vector_14" d="M28.4678 6.58787L29.932 3.04297" stroke="#4D4D4F" stroke-width="2.13483" stroke-linecap="round" stroke-linejoin="round"/>
</g>
</g>
</svg>
