<svg width="48" height="48" viewBox="0 0 48 48" fill="none" xmlns="http://www.w3.org/2000/svg">
<g id="H&#225;&#187;&#135; n&#225;&#187;&#153;i ti&#225;&#186;&#191;t &#38; chuy&#225;&#187;&#131;n h&#195;&#179;a">
<g id="H&#225;&#187;&#135; n&#225;&#187;&#153;i ti&#225;&#186;&#191;t &#38; chuy&#225;&#187;&#131;n h&#195;&#179;a_2" opacity="0.3">
<path id="Vector" d="M22.3523 35.6181C21.9475 35.5859 21.549 35.5315 21.158 35.4561M34.0896 24.7909C34.0896 18.7914 29.227 13.9287 23.2274 13.9287C21.0722 13.9287 19.0636 14.5565 17.3745 15.639M27.2117 34.9175C28.4728 34.413 29.171 33.9085 29.7171 33.501C30.4785 32.9328 31.163 32.2672 31.7519 31.5226M14.0954 30.6749C13.0007 28.9793 12.3652 26.9593 12.3652 24.7909C12.3652 23.1857 12.7135 21.6617 13.3387 20.2903" stroke="#FF6B00" stroke-width="2.1335" stroke-miterlimit="10" stroke-linecap="round" stroke-linejoin="round"/>
<path id="Vector_2" d="M15.0147 20.7627C16.7115 20.7627 18.087 19.3872 18.087 17.6905C18.087 15.9937 16.7115 14.6182 15.0147 14.6182C13.3179 14.6182 11.9424 15.9937 11.9424 17.6905C11.9424 19.3872 13.3179 20.7627 15.0147 20.7627Z" stroke="#FF6B00" stroke-width="2.1335" stroke-miterlimit="10" stroke-linecap="round" stroke-linejoin="round"/>
<path id="Vector_3" d="M17.1325 37.93C19.4148 37.93 21.265 36.0799 21.265 33.7975C21.265 31.5152 19.4148 29.665 17.1325 29.665C14.8502 29.665 13 31.5152 13 33.7975C13 36.0799 14.8502 37.93 17.1325 37.93Z" stroke="#FF6B00" stroke-width="2.1335" stroke-miterlimit="10" stroke-linecap="round" stroke-linejoin="round"/>
<path id="Vector_4" d="M33.346 31.6773C35.1017 31.6773 36.5249 30.254 36.5249 28.4983C36.5249 26.7426 35.1017 25.3193 33.346 25.3193C31.5903 25.3193 30.167 26.7426 30.167 28.4983C30.167 30.254 31.5903 31.6773 33.346 31.6773Z" stroke="#FF6B00" stroke-width="2.1335" stroke-miterlimit="10" stroke-linecap="round" stroke-linejoin="round"/>
<path id="Vector_5" d="M24.3936 23.5177C25.886 23.5177 27.0958 22.3079 27.0958 20.8155C27.0958 19.3231 25.886 18.1133 24.3936 18.1133C22.9012 18.1133 21.6914 19.3231 21.6914 20.8155C21.6914 22.3079 22.9012 23.5177 24.3936 23.5177Z" stroke="#FF6B00" stroke-width="2.1335" stroke-miterlimit="10" stroke-linecap="round" stroke-linejoin="round"/>
<g id="Group">
<path id="Vector_6" d="M16.6579 43.5954C10.0165 41.2783 4.97549 35.5438 3.64355 28.499" stroke="#FF6B00" stroke-width="2.1335" stroke-miterlimit="10" stroke-linecap="round" stroke-linejoin="round"/>
<path id="Vector_7" d="M3.59675 28.4717L1.58301 31.9691" stroke="#FF6B00" stroke-width="2.1335" stroke-miterlimit="10" stroke-linecap="round" stroke-linejoin="round"/>
<path id="Vector_8" d="M3.5957 28.4717L6.8797 30.8022" stroke="#FF6B00" stroke-width="2.1335" stroke-miterlimit="10" stroke-linecap="round" stroke-linejoin="round"/>
</g>
<g id="Group_2">
<path id="Vector_9" d="M4.40527 18.2018C6.72241 11.5605 12.4569 6.51944 19.5017 5.1875" stroke="#FF6B00" stroke-width="2.1335" stroke-miterlimit="10" stroke-linecap="round" stroke-linejoin="round"/>
<path id="Vector_10" d="M19.5289 5.14265L16.0332 3.12891" stroke="#FF6B00" stroke-width="2.1335" stroke-miterlimit="10" stroke-linecap="round" stroke-linejoin="round"/>
<path id="Vector_11" d="M19.5287 5.14258L17.1982 8.42658" stroke="#FF6B00" stroke-width="2.1335" stroke-miterlimit="10" stroke-linecap="round" stroke-linejoin="round"/>
</g>
<g id="Group_3">
<path id="Vector_12" d="M29.7959 5.9502C36.4372 8.26733 41.4783 14.0018 42.8102 21.0466" stroke="#FF6B00" stroke-width="2.1335" stroke-miterlimit="10" stroke-linecap="round" stroke-linejoin="round"/>
<path id="Vector_13" d="M42.8574 21.0738L44.8712 17.5781" stroke="#FF6B00" stroke-width="2.1335" stroke-miterlimit="10" stroke-linecap="round" stroke-linejoin="round"/>
<path id="Vector_14" d="M42.8572 21.0736L39.5732 18.7432" stroke="#FF6B00" stroke-width="2.1335" stroke-miterlimit="10" stroke-linecap="round" stroke-linejoin="round"/>
</g>
<g id="Group_4">
<path id="Vector_15" d="M42.0495 31.3408C39.7324 37.9822 33.9979 43.0232 26.9531 44.3551" stroke="#FF6B00" stroke-width="2.1335" stroke-miterlimit="10" stroke-linecap="round" stroke-linejoin="round"/>
<path id="Vector_16" d="M26.9268 44.4023L30.4241 46.4161" stroke="#FF6B00" stroke-width="2.1335" stroke-miterlimit="10" stroke-linecap="round" stroke-linejoin="round"/>
<path id="Vector_17" d="M26.9268 44.4012L29.2572 41.1172" stroke="#FF6B00" stroke-width="2.1335" stroke-miterlimit="10" stroke-linecap="round" stroke-linejoin="round"/>
</g>
</g>
<g id="H&#225;&#187;&#135; n&#225;&#187;&#153;i ti&#225;&#186;&#191;t &#38; chuy&#225;&#187;&#131;n h&#195;&#179;a_3">
<path id="Vector_18" d="M23.8972 34.0722C23.4924 34.04 23.094 33.9856 22.7029 33.9102M35.6346 23.245C35.6346 17.2455 30.7719 12.3828 24.7724 12.3828C22.6171 12.3828 20.6085 13.0106 18.9194 14.0931M28.7566 33.3716C30.0178 32.8671 30.7159 32.3626 31.262 31.9551C32.0234 31.3869 32.7079 30.7213 33.2968 29.9767M15.6403 29.129C14.5456 27.4334 13.9102 25.4134 13.9102 23.245C13.9102 21.6398 14.2585 20.1158 14.8836 18.7444" stroke="#FF6B00" stroke-width="2.1335" stroke-miterlimit="10" stroke-linecap="round" stroke-linejoin="round"/>
<path id="Vector_19" d="M16.5596 19.2168C18.2564 19.2168 19.6319 17.8413 19.6319 16.1446C19.6319 14.4478 18.2564 13.0723 16.5596 13.0723C14.8628 13.0723 13.4873 14.4478 13.4873 16.1446C13.4873 17.8413 14.8628 19.2168 16.5596 19.2168Z" stroke="#4D4D4F" stroke-width="2.1335" stroke-miterlimit="10" stroke-linecap="round" stroke-linejoin="round"/>
<path id="Vector_20" d="M18.6774 36.3841C20.9597 36.3841 22.8099 34.534 22.8099 32.2516C22.8099 29.9693 20.9597 28.1191 18.6774 28.1191C16.3951 28.1191 14.5449 29.9693 14.5449 32.2516C14.5449 34.534 16.3951 36.3841 18.6774 36.3841Z" stroke="#4D4D4F" stroke-width="2.1335" stroke-miterlimit="10" stroke-linecap="round" stroke-linejoin="round"/>
<path id="Vector_21" d="M34.8909 30.1314C36.6466 30.1314 38.0699 28.7081 38.0699 26.9524C38.0699 25.1967 36.6466 23.7734 34.8909 23.7734C33.1352 23.7734 31.7119 25.1967 31.7119 26.9524C31.7119 28.7081 33.1352 30.1314 34.8909 30.1314Z" stroke="#4D4D4F" stroke-width="2.1335" stroke-miterlimit="10" stroke-linecap="round" stroke-linejoin="round"/>
<path id="Vector_22" d="M25.9376 21.9718C27.43 21.9718 28.6398 20.762 28.6398 19.2696C28.6398 17.7772 27.43 16.5674 25.9376 16.5674C24.4452 16.5674 23.2354 17.7772 23.2354 19.2696C23.2354 20.762 24.4452 21.9718 25.9376 21.9718Z" stroke="#4D4D4F" stroke-width="2.1335" stroke-miterlimit="10" stroke-linecap="round" stroke-linejoin="round"/>
<g id="Group_5">
<path id="Vector_23" d="M18.2018 42.0505C11.5605 39.7334 6.51944 33.9989 5.1875 26.9541" stroke="#4D4D4F" stroke-width="2.1335" stroke-miterlimit="10" stroke-linecap="round" stroke-linejoin="round"/>
<path id="Vector_24" d="M5.1407 26.9268L3.12695 30.4241" stroke="#4D4D4F" stroke-width="2.1335" stroke-miterlimit="10" stroke-linecap="round" stroke-linejoin="round"/>
<path id="Vector_25" d="M5.13965 26.9268L8.42365 29.2572" stroke="#4D4D4F" stroke-width="2.1335" stroke-miterlimit="10" stroke-linecap="round" stroke-linejoin="round"/>
</g>
<g id="Group_6">
<path id="Vector_26" d="M5.95117 16.6559C8.26831 10.0146 14.0028 4.97354 21.0476 3.6416" stroke="#FF6B00" stroke-width="2.1335" stroke-miterlimit="10" stroke-linecap="round" stroke-linejoin="round"/>
<path id="Vector_27" d="M21.0758 3.59675L17.5801 1.58301" stroke="#FF6B00" stroke-width="2.1335" stroke-miterlimit="10" stroke-linecap="round" stroke-linejoin="round"/>
<path id="Vector_28" d="M21.0746 3.59668L18.7441 6.88068" stroke="#FF6B00" stroke-width="2.1335" stroke-miterlimit="10" stroke-linecap="round" stroke-linejoin="round"/>
</g>
<g id="Group_7">
<path id="Vector_29" d="M31.3418 4.4043C37.9831 6.72143 43.0242 12.4559 44.3561 19.5007" stroke="#4D4D4F" stroke-width="2.1335" stroke-miterlimit="10" stroke-linecap="round" stroke-linejoin="round"/>
<path id="Vector_30" d="M44.4033 19.5279L46.4171 16.0322" stroke="#4D4D4F" stroke-width="2.1335" stroke-miterlimit="10" stroke-linecap="round" stroke-linejoin="round"/>
<path id="Vector_31" d="M44.4031 19.5277L41.1191 17.1973" stroke="#4D4D4F" stroke-width="2.1335" stroke-miterlimit="10" stroke-linecap="round" stroke-linejoin="round"/>
</g>
<g id="Group_8">
<path id="Vector_32" d="M43.5935 29.7949C41.2763 36.4363 35.5418 41.4773 28.4971 42.8092" stroke="#FF6B00" stroke-width="2.1335" stroke-miterlimit="10" stroke-linecap="round" stroke-linejoin="round"/>
<path id="Vector_33" d="M28.4707 42.8564L31.9681 44.8702" stroke="#FF6B00" stroke-width="2.1335" stroke-miterlimit="10" stroke-linecap="round" stroke-linejoin="round"/>
<path id="Vector_34" d="M28.4707 42.8553L30.8012 39.5713" stroke="#FF6B00" stroke-width="2.1335" stroke-miterlimit="10" stroke-linecap="round" stroke-linejoin="round"/>
</g>
</g>
</g>
</svg>
