<svg width="113" height="130" viewBox="0 0 113 130" fill="none" xmlns="http://www.w3.org/2000/svg">
<g opacity="0.3">
<path d="M16.416 91.2443C22.8646 87.0541 30.2654 82.8911 38.1561 82.7551C51.5157 82.5102 61.7463 92.0878 64.6033 104.495C66.263 111.733 66.6439 119.433 66.0998 126.834" stroke="#FF6B00" stroke-width="5.52344" stroke-linecap="round" stroke-linejoin="round"/>
<path d="M42.2924 126.858V112.546C42.2924 112.546 23.0556 118.451 20.0898 109.091C17.124 99.7311 22.5658 106.125 22.5658 98.2346C22.5658 98.2346 14.1854 99.214 16.6615 91.3234C16.6615 91.3234 11.7366 89.8541 13.2059 82.943C13.2059 82.943 0.880197 82.943 4.33575 77.0386C7.7913 71.1343 11.0564 64.1143 11.0564 64.1143C10.5394 61.2846 10.2401 58.3461 10.2401 55.3531C10.2401 28.9331 31.6536 7.51953 58.0736 7.51953C84.4936 7.51953 105.907 28.9331 105.907 55.3531C105.907 73.2294 96.1119 88.8202 81.5823 97.0102L86.1806 126.831" stroke="#FF6B00" stroke-width="5.52344" stroke-linecap="round" stroke-linejoin="round"/>
<path d="M63.0259 73.5825C66.9712 72.603 68.9302 73.5826 68.4405 76.0586C67.9507 78.5346 73.3653 89.3638 81.2559 80.9835C89.1466 72.6031 80.7662 71.6236 88.1671 64.7125C95.5679 57.8014 97.0372 49.4209 91.6226 41.5303C86.208 33.6397 70.9165 33.6396 65.9917 48.9311" stroke="#FF6B00" stroke-width="5.52344" stroke-linecap="round" stroke-linejoin="round"/>
<path d="M73.8526 48.9263C76.8184 44.0015 85.1987 42.5051 84.709 49.906C84.2192 57.3068 79.2944 66.177 72.873 64.7077" stroke="#FF6B00" stroke-width="5.52344" stroke-linecap="round" stroke-linejoin="round"/>
<path d="M22.5941 98.2641C22.5941 98.2641 14.2137 99.2437 16.6897 91.3531C16.6897 91.3531 11.7649 89.8838 13.2342 82.9727" stroke="#FF6B00" stroke-width="5.52344" stroke-linecap="round" stroke-linejoin="round"/>
</g>
<path d="M20.416 87.2443C26.8646 83.0541 34.2654 78.8911 42.1561 78.7551C55.5157 78.5102 65.7463 88.0878 68.6033 100.495C70.263 107.733 70.6439 115.433 70.0998 122.834" stroke="#FF6B00" stroke-width="5.52344" stroke-linecap="round" stroke-linejoin="round"/>
<path d="M46.2924 122.858V108.546C46.2924 108.546 27.0556 114.451 24.0898 105.091C21.124 95.7311 26.5658 102.125 26.5658 94.2346C26.5658 94.2346 18.1854 95.214 20.6615 87.3234C20.6615 87.3234 15.7366 85.8541 17.2059 78.943C17.2059 78.943 4.8802 78.943 8.33575 73.0386C11.7913 67.1343 15.0564 60.1143 15.0564 60.1143C14.5394 57.2846 14.2401 54.3461 14.2401 51.3531C14.2401 24.9331 35.6536 3.51953 62.0736 3.51953C88.4936 3.51953 109.907 24.9331 109.907 51.3531C109.907 69.2294 100.112 84.8202 85.5823 93.0102L90.1806 122.831" stroke="#4D4D4F" stroke-width="5.52344" stroke-linecap="round" stroke-linejoin="round"/>
<path d="M67.0259 69.5825C70.9712 68.603 72.9302 69.5826 72.4405 72.0586C71.9507 74.5346 77.3653 85.3638 85.2559 76.9835C93.1466 68.6031 84.7662 67.6236 92.1671 60.7125C99.5679 53.8014 101.037 45.4209 95.6226 37.5303C90.208 29.6397 74.9165 29.6396 69.9917 44.9311" stroke="#FF6B00" stroke-width="5.52344" stroke-linecap="round" stroke-linejoin="round"/>
<path d="M77.8526 44.9263C80.8184 40.0015 89.1987 38.5051 88.709 45.906C88.2192 53.3068 83.2944 62.177 76.873 60.7077" stroke="#FF6B00" stroke-width="5.52344" stroke-linecap="round" stroke-linejoin="round"/>
<path d="M26.5941 94.2641C26.5941 94.2641 18.2137 95.2437 20.6897 87.3531C20.6897 87.3531 15.7649 85.8838 17.2342 78.9727" stroke="#FF6B00" stroke-width="5.52344" stroke-linecap="round" stroke-linejoin="round"/>
</svg>
