<svg width="44" height="46" viewBox="0 0 44 46" fill="none" xmlns="http://www.w3.org/2000/svg">
<g id="H&#225;&#187;&#135; th&#225;&#186;&#167;n kinh trung &#198;&#176;&#198;&#161;ng">
<g id="H&#225;&#187;&#135; th&#225;&#186;&#167;n kinh trung &#198;&#176;&#198;&#161;ng_2" opacity="0.3">
<path id="Vector" d="M8.72559 23.3657C17.8478 23.3657 18.0771 23.1344 18.0771 15.8181V11.0947" stroke="#FF6B00" stroke-width="2.15512" stroke-linecap="round" stroke-linejoin="round"/>
<path id="Vector_2" d="M18.0789 7.08824C18.0789 7.08824 18.5495 3.31445 15.9793 3.31445C13.4092 3.31445 13.4092 5.20133 13.4092 7.08824V12.5177" stroke="#FF6B00" stroke-width="2.15512" stroke-linecap="round" stroke-linejoin="round"/>
<path id="Vector_3" d="M13.3953 8.4502C6.61392 8.4502 5.91406 8.98582 5.91406 17.7143" stroke="#FF6B00" stroke-width="2.15512" stroke-linecap="round" stroke-linejoin="round"/>
<path id="Vector_4" d="M18.0789 40.6999C18.0789 40.6999 18.5495 44.4737 15.9793 44.4737C13.4092 44.4737 13.4092 42.5868 13.4092 40.6999V35.2705" stroke="#FF6B00" stroke-width="2.15512" stroke-linecap="round" stroke-linejoin="round"/>
<path id="Vector_5" d="M13.3953 39.3483C6.61392 39.3483 5.91406 38.4596 5.91406 29.2686" stroke="#FF6B00" stroke-width="2.15512" stroke-linecap="round" stroke-linejoin="round"/>
<path id="Vector_6" d="M13.1668 17.7041H4.75652C1.48651 17.7041 1.9571 20.5284 1.9571 23.3649C1.9571 30.2064 4.75652 29.2569 8.73845 29.2569H15.7491C18.5485 29.2569 18.0899 31.3751 18.0899 34.9176C18.0899 38.4601 18.0899 36.0984 18.0899 36.0984" stroke="#FF6B00" stroke-width="2.15512" stroke-linecap="round" stroke-linejoin="round"/>
<path id="Vector_7" d="M33.499 23.3657C24.3767 23.3657 24.1475 23.1344 24.1475 15.8181V11.0947" stroke="#FF6B00" stroke-width="2.15512" stroke-linecap="round" stroke-linejoin="round"/>
<path id="Vector_8" d="M24.1461 7.08824C24.1461 7.08824 23.6755 3.31445 26.2457 3.31445C28.8158 3.31445 28.8158 5.20133 28.8158 7.08824V12.5177" stroke="#FF6B00" stroke-width="2.15512" stroke-linecap="round" stroke-linejoin="round"/>
<path id="Vector_9" d="M28.8281 8.4502C35.6095 8.4502 36.3093 8.98582 36.3093 17.7143" stroke="#FF6B00" stroke-width="2.15512" stroke-linecap="round" stroke-linejoin="round"/>
<path id="Vector_10" d="M24.1461 40.6999C24.1461 40.6999 23.6755 44.4737 26.2457 44.4737C28.8158 44.4737 28.8158 42.5868 28.8158 40.6999V35.2705" stroke="#FF6B00" stroke-width="2.15512" stroke-linecap="round" stroke-linejoin="round"/>
<path id="Vector_11" d="M28.8281 39.3483C35.6095 39.3483 36.3093 38.4596 36.3093 29.2686" stroke="#FF6B00" stroke-width="2.15512" stroke-linecap="round" stroke-linejoin="round"/>
<path id="Vector_12" d="M29.0594 17.7041H37.4697C40.7398 17.7041 40.2692 20.5284 40.2692 23.3649C40.2692 30.2064 37.4697 29.2569 33.4878 29.2569H26.4772C23.6778 29.2569 24.1363 31.3751 24.1363 34.9176C24.1363 38.4601 24.1363 36.0984 24.1363 36.0984" stroke="#FF6B00" stroke-width="2.15512" stroke-linecap="round" stroke-linejoin="round"/>
</g>
<g id="H&#225;&#187;&#135; th&#225;&#186;&#167;n kinh trung &#198;&#176;&#198;&#161;ng_3">
<path id="Vector_13" d="M10.5 21.5767C19.6222 21.5767 19.8515 21.3454 19.8515 14.029V9.30566" stroke="#FF6B00" stroke-width="2.15512" stroke-linecap="round" stroke-linejoin="round"/>
<path id="Vector_14" d="M19.8533 5.29917C19.8533 5.29917 20.3239 1.52539 17.7537 1.52539C15.1836 1.52539 15.1836 3.41227 15.1836 5.29917V10.7286" stroke="#FF6B00" stroke-width="2.15512" stroke-linecap="round" stroke-linejoin="round"/>
<path id="Vector_15" d="M15.1697 6.66113C8.38833 6.66113 7.68848 7.19675 7.68848 15.9252" stroke="#FF6B00" stroke-width="2.15512" stroke-linecap="round" stroke-linejoin="round"/>
<path id="Vector_16" d="M19.8533 38.9109C19.8533 38.9109 20.3239 42.6847 17.7537 42.6847C15.1836 42.6847 15.1836 40.7978 15.1836 38.9109V33.4814" stroke="#FF6B00" stroke-width="2.15512" stroke-linecap="round" stroke-linejoin="round"/>
<path id="Vector_17" d="M15.1697 37.5592C8.38833 37.5592 7.68848 36.6706 7.68848 27.4795" stroke="#FF6B00" stroke-width="2.15512" stroke-linecap="round" stroke-linejoin="round"/>
<path id="Vector_18" d="M14.9412 15.915H6.53093C3.26092 15.915 3.73151 18.7393 3.73151 21.5758C3.73151 28.4173 6.53093 27.4678 10.5129 27.4678H17.5235C20.3229 27.4678 19.8644 29.586 19.8644 33.1285C19.8644 36.671 19.8644 34.3094 19.8644 34.3094" stroke="#FF6B00" stroke-width="2.15512" stroke-linecap="round" stroke-linejoin="round"/>
<path id="Vector_19" d="M35.2734 21.5767C26.1511 21.5767 25.9219 21.3454 25.9219 14.029V9.30566" stroke="#4D4D4F" stroke-width="2.15512" stroke-linecap="round" stroke-linejoin="round"/>
<path id="Vector_20" d="M25.9205 5.29917C25.9205 5.29917 25.4499 1.52539 28.0201 1.52539C30.5902 1.52539 30.5902 3.41227 30.5902 5.29917V10.7286" stroke="#4D4D4F" stroke-width="2.15512" stroke-linecap="round" stroke-linejoin="round"/>
<path id="Vector_21" d="M30.6025 6.66113C37.3839 6.66113 38.0837 7.19675 38.0837 15.9252" stroke="#4D4D4F" stroke-width="2.15512" stroke-linecap="round" stroke-linejoin="round"/>
<path id="Vector_22" d="M25.9205 38.9109C25.9205 38.9109 25.4499 42.6847 28.0201 42.6847C30.5902 42.6847 30.5902 40.7978 30.5902 38.9109V33.4814" stroke="#4D4D4F" stroke-width="2.15512" stroke-linecap="round" stroke-linejoin="round"/>
<path id="Vector_23" d="M30.6025 37.5592C37.3839 37.5592 38.0837 36.6706 38.0837 27.4795" stroke="#4D4D4F" stroke-width="2.15512" stroke-linecap="round" stroke-linejoin="round"/>
<path id="Vector_24" d="M30.8338 15.915H39.2442C42.5142 15.915 42.0436 18.7393 42.0436 21.5758C42.0436 28.4173 39.2442 27.4678 35.2622 27.4678H28.2516C25.4522 27.4678 25.9107 29.586 25.9107 33.1285C25.9107 36.671 25.9107 34.3094 25.9107 34.3094" stroke="#4D4D4F" stroke-width="2.15512" stroke-linecap="round" stroke-linejoin="round"/>
</g>
</g>
</svg>
