<svg width="30" height="46" viewBox="0 0 30 46" fill="none" xmlns="http://www.w3.org/2000/svg">
<g id="Thu&#225;&#187;&#145;c ng&#225;&#187;&#171;a thai ">
<g id="Thu&#225;&#187;&#145;c ng&#225;&#187;&#171;a thai" opacity="0.3">
<path id="Vector" d="M6.20848 40.0221H1.31836V2.88867H27.1361V40.0221H22.3617" stroke="#FF6B00" stroke-width="2.13483" stroke-linecap="round" stroke-linejoin="round"/>
<path id="Vector_2" d="M14.285 44.6579C19.4065 44.6579 23.571 40.504 23.571 35.3719C23.571 30.2399 19.417 26.0859 14.285 26.0859C9.15299 26.0859 4.99902 30.2399 4.99902 35.3719C4.99902 40.504 9.15299 44.6579 14.285 44.6579Z" stroke="#FF6B00" stroke-width="2.13483" stroke-linecap="round" stroke-linejoin="round"/>
<path id="Vector_3" d="M14.232 33.2523C15.1679 33.2523 15.9356 32.2638 15.9356 31.0544C15.9356 29.845 15.1785 28.8564 14.232 28.8564C13.2855 28.8564 12.5283 29.845 12.5283 31.0544C12.5283 32.2638 13.2855 33.2523 14.232 33.2523Z" fill="#FF6B00"/>
<path id="Vector_4" d="M14.3276 31.0527C14.5274 35.2593 13.7281 34.6599 11.9298 36.2584C10.9308 37.1523 17.7349 37.2574 15.9366 38.6561C14.1383 40.0548 9.13247 40.0548 14.3381 42.2632" stroke="#FF6B00" stroke-width="2.13483" stroke-linecap="round" stroke-linejoin="round"/>
<path id="Vector_5" d="M6.72395 9.94398C7.67042 9.94398 8.43811 9.17628 8.43811 8.2298C8.43811 7.28333 7.67042 6.51562 6.72395 6.51562C5.77747 6.51562 5.00977 7.28333 5.00977 8.2298C5.00977 9.17628 5.77747 9.94398 6.72395 9.94398Z" fill="#FF6B00"/>
<path id="Vector_6" d="M14.2845 9.94398C15.231 9.94398 15.9987 9.17628 15.9987 8.2298C15.9987 7.28333 15.231 6.51562 14.2845 6.51562C13.338 6.51562 12.5703 7.28333 12.5703 8.2298C12.5703 9.17628 13.338 9.94398 14.2845 9.94398Z" fill="#FF6B00"/>
<path id="Vector_7" d="M21.847 10.2818C22.7935 10.2818 23.5612 9.51417 23.5612 8.5677C23.5612 7.62122 22.7935 6.85352 21.847 6.85352C20.9005 6.85352 20.1328 7.62122 20.1328 8.5677C20.1328 9.51417 20.9005 10.2818 21.847 10.2818Z" fill="#FF6B00"/>
<path id="Vector_8" d="M6.72395 16.2955C7.67042 16.2955 8.43811 15.5278 8.43811 14.5814C8.43811 13.6349 7.67042 12.8672 6.72395 12.8672C5.77747 12.8672 5.00977 13.6349 5.00977 14.5814C5.00977 15.5278 5.77747 16.2955 6.72395 16.2955Z" fill="#FF6B00"/>
<path id="Vector_9" d="M14.2845 16.2955C15.231 16.2955 15.9987 15.5278 15.9987 14.5814C15.9987 13.6349 15.231 12.8672 14.2845 12.8672C13.338 12.8672 12.5703 13.6349 12.5703 14.5814C12.5703 15.5278 13.338 16.2955 14.2845 16.2955Z" fill="#FF6B00"/>
<path id="Vector_10" d="M21.847 16.6452C22.7935 16.6452 23.5612 15.8775 23.5612 14.931C23.5612 13.9845 22.7935 13.2168 21.847 13.2168C20.9005 13.2168 20.1328 13.9845 20.1328 14.931C20.1328 15.8775 20.9005 16.6452 21.847 16.6452Z" fill="#FF6B00"/>
<path id="Vector_11" d="M6.72395 22.6588C7.67042 22.6588 8.43811 21.8911 8.43811 20.9446C8.43811 19.9982 7.67042 19.2305 6.72395 19.2305C5.77747 19.2305 5.00977 19.9982 5.00977 20.9446C5.00977 21.8911 5.77747 22.6588 6.72395 22.6588Z" fill="#FF6B00"/>
<path id="Vector_12" d="M14.2845 22.6588C15.231 22.6588 15.9987 21.8911 15.9987 20.9446C15.9987 19.9982 15.231 19.2305 14.2845 19.2305C13.338 19.2305 12.5703 19.9982 12.5703 20.9446C12.5703 21.8911 13.338 22.6588 14.2845 22.6588Z" fill="#FF6B00"/>
<path id="Vector_13" d="M21.847 23.0074C22.7935 23.0074 23.5612 22.2397 23.5612 21.2932C23.5612 20.3468 22.7935 19.5791 21.847 19.5791C20.9005 19.5791 20.1328 20.3468 20.1328 21.2932C20.1328 22.2397 20.9005 23.0074 21.847 23.0074Z" fill="#FF6B00"/>
<path id="Vector_14" d="M8.96387 27.8242L19.7958 42.7786" stroke="#FF6B00" stroke-width="2.13483" stroke-linecap="round" stroke-linejoin="round"/>
</g>
<g id="Thu&#225;&#187;&#145;c ng&#225;&#187;&#171;a thai_2">
<path id="Vector_15" d="M7.7534 38.4762H2.86328V1.34277H28.6811V38.4762H23.9066" stroke="#FF6B00" stroke-width="2.13483" stroke-linecap="round" stroke-linejoin="round"/>
<path id="Vector_16" d="M15.8299 43.112C20.9514 43.112 25.1159 38.9581 25.1159 33.826C25.1159 28.694 20.9619 24.54 15.8299 24.54C10.6979 24.54 6.54395 28.694 6.54395 33.826C6.54395 38.9581 10.6979 43.112 15.8299 43.112Z" stroke="#4D4D4F" stroke-width="2.13483" stroke-linecap="round" stroke-linejoin="round"/>
<path id="Vector_17" d="M15.7769 31.7064C16.7129 31.7064 17.4806 30.7179 17.4806 29.5085C17.4806 28.2991 16.7234 27.3105 15.7769 27.3105C14.8304 27.3105 14.0732 28.2991 14.0732 29.5085C14.0732 30.7179 14.8304 31.7064 15.7769 31.7064Z" fill="#FF6B00"/>
<path id="Vector_18" d="M15.8725 29.5068C16.0723 33.7134 15.2731 33.114 13.4748 34.7125C12.4757 35.6064 19.2798 35.7115 17.4815 37.1102C15.6832 38.5089 10.6774 38.5089 15.883 40.7173" stroke="#FF6B00" stroke-width="2.13483" stroke-linecap="round" stroke-linejoin="round"/>
<path id="Vector_19" d="M8.26887 8.39809C9.21534 8.39809 9.98303 7.63038 9.98303 6.68391C9.98303 5.73743 9.21534 4.96973 8.26887 4.96973C7.32239 4.96973 6.55469 5.73743 6.55469 6.68391C6.55469 7.63038 7.32239 8.39809 8.26887 8.39809Z" fill="#4D4D4F"/>
<path id="Vector_20" d="M15.8294 8.39809C16.7759 8.39809 17.5436 7.63038 17.5436 6.68391C17.5436 5.73743 16.7759 4.96973 15.8294 4.96973C14.8829 4.96973 14.1152 5.73743 14.1152 6.68391C14.1152 7.63038 14.8829 8.39809 15.8294 8.39809Z" fill="#4D4D4F"/>
<path id="Vector_21" d="M23.3919 8.73594C24.3384 8.73594 25.1061 7.96827 25.1061 7.0218C25.1061 6.07532 24.3384 5.30762 23.3919 5.30762C22.4454 5.30762 21.6777 6.07532 21.6777 7.0218C21.6777 7.96827 22.4454 8.73594 23.3919 8.73594Z" fill="#4D4D4F"/>
<path id="Vector_22" d="M8.26887 14.7496C9.21534 14.7496 9.98303 13.9819 9.98303 13.0355C9.98303 12.089 9.21534 11.3213 8.26887 11.3213C7.32239 11.3213 6.55469 12.089 6.55469 13.0355C6.55469 13.9819 7.32239 14.7496 8.26887 14.7496Z" fill="#4D4D4F"/>
<path id="Vector_23" d="M15.8294 14.7496C16.7759 14.7496 17.5436 13.9819 17.5436 13.0355C17.5436 12.089 16.7759 11.3213 15.8294 11.3213C14.8829 11.3213 14.1152 12.089 14.1152 13.0355C14.1152 13.9819 14.8829 14.7496 15.8294 14.7496Z" fill="#4D4D4F"/>
<path id="Vector_24" d="M23.3919 15.0993C24.3384 15.0993 25.1061 14.3316 25.1061 13.3851C25.1061 12.4386 24.3384 11.6709 23.3919 11.6709C22.4454 11.6709 21.6777 12.4386 21.6777 13.3851C21.6777 14.3316 22.4454 15.0993 23.3919 15.0993Z" fill="#4D4D4F"/>
<path id="Vector_25" d="M8.26887 21.1129C9.21534 21.1129 9.98303 20.3452 9.98303 19.3987C9.98303 18.4523 9.21534 17.6846 8.26887 17.6846C7.32239 17.6846 6.55469 18.4523 6.55469 19.3987C6.55469 20.3452 7.32239 21.1129 8.26887 21.1129Z" fill="#4D4D4F"/>
<path id="Vector_26" d="M15.8294 21.1129C16.7759 21.1129 17.5436 20.3452 17.5436 19.3987C17.5436 18.4523 16.7759 17.6846 15.8294 17.6846C14.8829 17.6846 14.1152 18.4523 14.1152 19.3987C14.1152 20.3452 14.8829 21.1129 15.8294 21.1129Z" fill="#4D4D4F"/>
<path id="Vector_27" d="M23.3919 21.4615C24.3384 21.4615 25.1061 20.6938 25.1061 19.7474C25.1061 18.8009 24.3384 18.0332 23.3919 18.0332C22.4454 18.0332 21.6777 18.8009 21.6777 19.7474C21.6777 20.6938 22.4454 21.4615 23.3919 21.4615Z" fill="#4D4D4F"/>
<path id="Vector_28" d="M10.5088 26.2783L21.3407 41.2327" stroke="#4D4D4F" stroke-width="2.13483" stroke-linecap="round" stroke-linejoin="round"/>
</g>
</g>
</svg>
