<svg width="46" height="46" viewBox="0 0 46 46" fill="none" xmlns="http://www.w3.org/2000/svg">
<g id="H&#225;&#187;&#135; ti&#225;&#186;&#191;t ni&#225;&#187;&#135;u-sinh d&#225;&#187;&#165;c">
<g id="H&#225;&#187;&#135; ti&#225;&#186;&#191;t ni&#225;&#187;&#135;u-sinh d&#225;&#187;&#165;c_2" opacity="0.3">
<path id="Vector" d="M28.3156 35.1298C29.4198 35.1298 30.5976 34.9615 31.502 34.2674C32.4275 33.5628 32.6904 32.2483 32.7325 31.1441C32.7745 29.9767 32.6378 28.7884 32.5852 27.6211C32.5432 26.7482 32.6694 25.8543 32.1646 25.0866C31.481 24.0455 30.0192 24.5292 29.0097 24.5608C27.2008 24.6134 27.3376 22.9938 27.3481 21.6057C27.3481 20.1439 27.4427 18.6716 27.5689 17.2098C27.6741 16.0004 27.7898 14.8121 28.4733 13.7709C29.4619 12.2566 31.2181 11.6782 32.9638 11.6782C32.9638 11.6782 38.1484 10.7843 38.3272 16.3264" stroke="#FF6B00" stroke-width="2.13483" stroke-linecap="round" stroke-linejoin="round"/>
<path id="Vector_2" d="M36.7195 8.4707C36.3619 9.54338 34.2691 11.5836 33.5225 11.6362" stroke="#FF6B00" stroke-width="2.13483" stroke-linecap="round" stroke-linejoin="round"/>
<path id="Vector_3" d="M34.0382 2.92871C38.8757 2.92871 42.8088 6.85136 42.8088 11.6994C42.8088 16.5475 38.8862 20.4701 34.0382 20.4701C29.1901 20.4701 30.105 14.5704 33.5018 14.5704C30.4626 12.9614 30.4626 10.1009 33.1443 9.02821C28.6748 6.88287 30.2838 2.94976 34.0382 2.94976V2.92871Z" stroke="#FF6B00" stroke-width="2.13483" stroke-linecap="round" stroke-linejoin="round"/>
<path id="Vector_4" d="M16.1483 35.1298C15.0441 35.1298 13.8663 34.9615 12.9619 34.2674C12.0364 33.5628 11.7735 32.2483 11.7314 31.1441C11.6894 29.9767 11.8261 28.7884 11.8787 27.6211C11.9207 26.7482 11.7945 25.8543 12.2993 25.0866C12.9829 24.0455 14.4447 24.5292 15.4543 24.5608C17.2631 24.6134 17.1264 22.9938 17.1159 21.6057C17.1159 20.1439 17.0212 18.6716 16.895 17.2098C16.7898 16.0004 16.6742 14.8121 15.9906 13.7709C15.002 12.2566 13.2458 11.6782 11.5001 11.6782C11.5001 11.6782 6.3155 10.7843 6.13672 16.3264" stroke="#FF6B00" stroke-width="2.13483" stroke-linecap="round" stroke-linejoin="round"/>
<path id="Vector_5" d="M7.73438 8.4707C8.09193 9.54338 10.1847 11.5836 10.9314 11.6362" stroke="#FF6B00" stroke-width="2.13483" stroke-linecap="round" stroke-linejoin="round"/>
<path id="Vector_6" d="M10.4172 2.92871C5.57962 2.92871 1.64648 6.85136 1.64648 11.6994C1.64648 16.5475 5.5691 20.4701 10.4172 20.4701C15.2652 20.4701 14.3503 14.5704 10.9535 14.5704C13.9928 12.9614 13.9927 10.1009 11.3111 9.02821C15.7805 6.88287 14.1715 2.94976 10.4172 2.94976V2.92871Z" stroke="#FF6B00" stroke-width="2.13483" stroke-linecap="round" stroke-linejoin="round"/>
<path id="Vector_7" d="M20.2594 40.0431C17.8616 39.349 16.1475 37.4139 16.1475 35.1318C16.1475 32.2609 18.8712 29.9473 22.2259 29.9473C25.5807 29.9473 28.3044 32.2714 28.3044 35.1318C28.3044 37.4139 26.5797 39.349 24.1925 40.0431L23.4774 44.6177H20.9745L20.2594 40.0431Z" stroke="#FF6B00" stroke-width="2.13483" stroke-linecap="round" stroke-linejoin="round"/>
</g>
<g id="H&#225;&#187;&#135; ti&#225;&#186;&#191;t ni&#225;&#187;&#135;u-sinh d&#225;&#187;&#165;c_3">
<path id="Vector_8" d="M29.8605 33.5839C30.9647 33.5839 32.1426 33.4156 33.047 32.7215C33.9724 32.0169 34.2353 30.7024 34.2774 29.5982C34.3195 28.4308 34.1827 27.2425 34.1302 26.0752C34.0881 25.2023 34.2143 24.3084 33.7095 23.5407C33.0259 22.4996 31.5642 22.9833 30.5546 23.0149C28.7458 23.0675 28.8825 21.4479 28.893 20.0598C28.893 18.598 28.9876 17.1257 29.1138 15.6639C29.219 14.4545 29.3347 13.2662 30.0183 12.225C31.0068 10.7107 32.763 10.1323 34.5087 10.1323C34.5087 10.1323 39.6933 9.23837 39.8721 14.7805" stroke="#4D4D4F" stroke-width="2.13483" stroke-linecap="round" stroke-linejoin="round"/>
<path id="Vector_9" d="M38.2644 6.9248C37.9068 7.99748 35.814 10.0377 35.0674 10.0903" stroke="#4D4D4F" stroke-width="2.13483" stroke-linecap="round" stroke-linejoin="round"/>
<path id="Vector_10" d="M35.5831 1.38281C40.4206 1.38281 44.3538 5.30546 44.3538 10.1535C44.3538 15.0016 40.4311 18.9242 35.5831 18.9242C30.735 18.9242 31.6499 13.0245 35.0467 13.0245C32.0075 11.4155 32.0075 8.55499 34.6892 7.48232C30.2197 5.33697 31.8287 1.40387 35.5831 1.40387V1.38281Z" stroke="#FF6B00" stroke-width="2.13483" stroke-linecap="round" stroke-linejoin="round"/>
<path id="Vector_11" d="M17.6933 33.5839C16.589 33.5839 15.4112 33.4156 14.5068 32.7215C13.5814 32.0169 13.3184 30.7024 13.2764 29.5982C13.2343 28.4308 13.371 27.2425 13.4236 26.0752C13.4657 25.2023 13.3395 24.3084 13.8443 23.5407C14.5278 22.4996 15.9896 22.9833 16.9992 23.0149C18.808 23.0675 18.6713 21.4479 18.6608 20.0598C18.6608 18.598 18.5661 17.1257 18.4399 15.6639C18.3348 14.4545 18.2191 13.2662 17.5355 12.225C16.547 10.7107 14.7907 10.1323 13.045 10.1323C13.045 10.1323 7.86042 9.23837 7.68164 14.7805" stroke="#4D4D4F" stroke-width="2.13483" stroke-linecap="round" stroke-linejoin="round"/>
<path id="Vector_12" d="M9.2793 6.9248C9.63685 7.99748 11.7296 10.0377 12.4763 10.0903" stroke="#4D4D4F" stroke-width="2.13483" stroke-linecap="round" stroke-linejoin="round"/>
<path id="Vector_13" d="M11.9621 1.38281C7.12454 1.38281 3.19141 5.30546 3.19141 10.1535C3.19141 15.0016 7.11402 18.9242 11.9621 18.9242C16.8102 18.9242 15.8952 13.0245 12.4984 13.0245C15.5377 11.4155 15.5377 8.55499 12.856 7.48232C17.3255 5.33697 15.7164 1.40387 11.9621 1.40387V1.38281Z" stroke="#FF6B00" stroke-width="2.13483" stroke-linecap="round" stroke-linejoin="round"/>
<path id="Vector_14" d="M21.8043 38.4972C19.4065 37.8031 17.6924 35.868 17.6924 33.5859C17.6924 30.715 20.4161 28.4014 23.7709 28.4014C27.1256 28.4014 29.8493 30.7255 29.8493 33.5859C29.8493 35.868 28.1247 37.8031 25.7374 38.4972L25.0223 43.0718H22.5194L21.8043 38.4972Z" stroke="#FF6B00" stroke-width="2.13483" stroke-linecap="round" stroke-linejoin="round"/>
</g>
</g>
</svg>
