<svg width="40" height="46" viewBox="0 0 40 46" fill="none" xmlns="http://www.w3.org/2000/svg">
<g id="H&#225;&#187;&#135; ti&#195;&#170;u h&#195;&#179;a &#38; gan m&#225;&#186;&#173;t">
<g id="H&#225;&#187;&#135; ti&#195;&#170;u h&#195;&#179;a &#38; gan m&#225;&#186;&#173;t_2" opacity="0.3">
<path id="Vector" d="M18.4423 3.62891V10.0671H7.91514C7.91514 10.0671 1.6875 9.63492 1.6875 15.8626C1.6875 21.658 4.69051 22.5224 7.69351 22.5224H28.7367C31.3076 22.5224 30.6649 21.2369 30.6649 15.0093" stroke="#FF6B00" stroke-width="2.24949" stroke-linecap="round" stroke-linejoin="round"/>
<path id="Vector_2" d="M15.2188 43.9974V34.124" stroke="#FF6B00" stroke-width="2.24949" stroke-linecap="round" stroke-linejoin="round"/>
<path id="Vector_3" d="M24.8795 34.1144H10.064C4.05794 34.1144 4.47902 31.7541 4.47902 26.6013C4.47902 24.6732 5.5539 22.5234 11.0613 22.5234" stroke="#FF6B00" stroke-width="2.24949" stroke-linecap="round" stroke-linejoin="round"/>
<path id="Vector_4" d="M21.6561 44.0002V39.7007H25.9556C31.3189 39.7007 30.6762 37.3404 30.6762 31.7555C30.6762 31.7555 30.6762 28.3203 26.1661 28.3203H8.99023" stroke="#FF6B00" stroke-width="2.24949" stroke-linecap="round" stroke-linejoin="round"/>
<path id="Vector_5" d="M23.8728 28.3169C36.6826 28.3169 36.6826 27.0315 36.6826 17.8008C36.6826 11.7948 35.6078 9.21289 30.6766 9.21289C30.045 9.21289 29.4023 9.30154 28.7707 9.42343C26.5101 9.87776 24.8812 11.8502 24.8812 14.1551C24.8812 16.46 24.8812 16.726 18.0108 16.726H6.19824" stroke="#FF6B00" stroke-width="2.24949" stroke-linecap="round" stroke-linejoin="round"/>
<path id="Vector_6" d="M24.8799 3.62891V13.8679" stroke="#FF6B00" stroke-width="2.24949" stroke-linecap="round" stroke-linejoin="round"/>
</g>
<g id="H&#225;&#187;&#135; ti&#195;&#170;u h&#195;&#179;a &#38; gan m&#225;&#186;&#173;t_3">
<path id="Vector_7" d="M20.0712 2V8.43818H9.54405C9.54405 8.43818 3.31641 8.00601 3.31641 14.2337C3.31641 20.0291 6.31941 20.8935 9.32242 20.8935H30.3656C32.9365 20.8935 32.2938 19.608 32.2938 13.3804" stroke="#4D4D4F" stroke-width="2.24949" stroke-linecap="round" stroke-linejoin="round"/>
<path id="Vector_8" d="M16.8477 42.3685V32.4951" stroke="#4D4D4F" stroke-width="2.24949" stroke-linecap="round" stroke-linejoin="round"/>
<path id="Vector_9" d="M26.5084 32.4855H11.6929C5.68684 32.4855 6.10793 30.1252 6.10793 24.9724C6.10793 23.0443 7.18281 20.8945 12.6902 20.8945" stroke="#4D4D4F" stroke-width="2.24949" stroke-linecap="round" stroke-linejoin="round"/>
<path id="Vector_10" d="M23.285 42.3713V38.0718H27.5845C32.9478 38.0718 32.3051 35.7115 32.3051 30.1266C32.3051 30.1266 32.3051 26.6914 27.795 26.6914H10.6191" stroke="#FF6B00" stroke-width="2.24949" stroke-linecap="round" stroke-linejoin="round"/>
<path id="Vector_11" d="M25.5017 26.688C38.3116 26.688 38.3115 25.4026 38.3115 16.1719C38.3115 10.1659 37.2367 7.58398 32.3055 7.58398C31.6739 7.58398 31.0312 7.67263 30.3996 7.79453C28.139 8.24886 26.5101 10.2213 26.5101 12.5262C26.5101 14.8311 26.5101 15.097 19.6397 15.097H7.82715" stroke="#FF6B00" stroke-width="2.24949" stroke-linecap="round" stroke-linejoin="round"/>
<path id="Vector_12" d="M26.5088 2V12.239" stroke="#FF6B00" stroke-width="2.24949" stroke-linecap="round" stroke-linejoin="round"/>
</g>
</g>
</svg>
