<svg width="44" height="44" viewBox="0 0 44 44" fill="none" xmlns="http://www.w3.org/2000/svg">
<g id="H&#225;&#187;&#135; tim m&#225;&#186;&#161;ch &#38; t&#225;&#186;&#161;o m&#195;&#161;u">
<g id="H&#225;&#187;&#135; tim m&#225;&#186;&#161;ch &#38; t&#225;&#186;&#161;o m&#195;&#161;u_2" opacity="0.3">
<path id="Vector" d="M10.0155 3.29199V15.8791H1.93262" stroke="#FF6B00" stroke-width="2.1181" stroke-linecap="round" stroke-linejoin="round"/>
<path id="Vector_2" d="M1.93262 21.7266H10.0155V27.7939C10.0155 36.7846 15.6283 39.0352 19.6756 39.0352" stroke="#FF6B00" stroke-width="2.1181" stroke-linecap="round" stroke-linejoin="round"/>
<path id="Vector_3" d="M16.5321 3.29199V12.5032C16.5321 12.5032 16.3118 17.0044 19.2226 18.1181" stroke="#FF6B00" stroke-width="2.1181" stroke-linecap="round" stroke-linejoin="round"/>
<path id="Vector_4" d="M22.1563 3.29199C22.1563 10.4846 21.704 12.7352 25.0786 12.7352C25.0786 12.7352 30.4711 12.5148 35.1909 16.5519C39.9108 20.6007 40.3631 24.6378 40.3631 32.0624V38.8026C40.3631 42.8514 35.8635 42.3989 32.7208 42.3989H25.5309C18.1206 42.3989 18.7932 34.5335 18.7932 32.5149" stroke="#FF6B00" stroke-width="2.1181" stroke-linecap="round" stroke-linejoin="round"/>
<path id="Vector_5" d="M32.0391 21.0518C34.2888 22.8499 35.1818 25.1005 35.1818 28.0239" stroke="#FF6B00" stroke-width="2.1181" stroke-linecap="round" stroke-linejoin="round"/>
</g>
<g id="H&#225;&#187;&#135; tim m&#225;&#186;&#161;ch &#38; t&#225;&#186;&#161;o m&#195;&#161;u_3">
<path id="Vector_6" d="M11.7196 1.58594V14.173H3.63672" stroke="#FF6B00" stroke-width="2.1181" stroke-linecap="round" stroke-linejoin="round"/>
<path id="Vector_7" d="M3.63672 20.0205H11.7196V26.0878C11.7196 35.0786 17.3324 37.3292 21.3797 37.3292" stroke="#4D4D4F" stroke-width="2.1181" stroke-linecap="round" stroke-linejoin="round"/>
<path id="Vector_8" d="M18.2362 1.58594V10.7971C18.2362 10.7971 18.0159 15.2983 20.9267 16.412" stroke="#4D4D4F" stroke-width="2.1181" stroke-linecap="round" stroke-linejoin="round"/>
<path id="Vector_9" d="M23.8604 1.58594C23.8604 8.77855 23.4081 11.0291 26.7827 11.0291C26.7827 11.0291 32.1752 10.8087 36.895 14.8459C41.6149 18.8946 42.0672 22.9317 42.0672 30.3564V37.0966C42.0672 41.1453 37.5676 40.6929 34.4249 40.6929H27.235C19.8247 40.6929 20.4973 32.8274 20.4973 30.8088" stroke="#FF6B00" stroke-width="2.1181" stroke-linecap="round" stroke-linejoin="round"/>
<path id="Vector_10" d="M33.7432 19.3457C35.9929 21.1439 36.8859 23.3944 36.8859 26.3179" stroke="#FF6B00" stroke-width="2.1181" stroke-linecap="round" stroke-linejoin="round"/>
</g>
</g>
</svg>
