<svg width="50" height="40" viewBox="0 0 50 40" fill="none" xmlns="http://www.w3.org/2000/svg">
<g id="Vitamin &#38; kho&#195;&#161;ng ch&#225;&#186;&#165;t">
<g id="Vitamin &#38; kho&#195;&#161;ng ch&#225;&#186;&#165;t_2" opacity="0.3">
<path id="Vector" d="M12.5478 25.3434L24.2223 13.6689L16.0981 5.54474C12.8783 2.32493 7.65413 2.32493 4.42365 5.54474C1.20384 8.76456 1.20384 13.9888 4.42365 17.2192L12.5478 25.3434Z" stroke="#FF6B00" stroke-width="2.16431" stroke-linecap="round" stroke-linejoin="round"/>
<path id="Vector_2" d="M35.8854 25.3434L24.2109 13.6689L32.3351 5.54474C35.5549 2.32493 40.7791 2.32493 44.0096 5.54474C47.2294 8.76456 47.2294 13.9888 44.0096 17.2192L35.8854 25.3434Z" stroke="#FF6B00" stroke-width="2.16431" stroke-linecap="round" stroke-linejoin="round"/>
<path id="Vector_3" d="M24.4037 25.6297C25.6618 25.6297 26.6747 24.6169 26.6747 23.3588C26.6747 22.1008 25.6618 21.0879 24.4037 21.0879C23.1457 21.0879 22.1328 22.1008 22.1328 23.3588C22.1328 24.6169 23.1457 25.6297 24.4037 25.6297Z" stroke="#FF6B00" stroke-width="2.16431" stroke-linecap="round" stroke-linejoin="round"/>
<path id="Vector_4" d="M24.4037 38.4374C25.6618 38.4374 26.6747 37.4245 26.6747 36.1664C26.6747 34.9084 25.6618 33.8955 24.4037 33.8955C23.1457 33.8955 22.1328 34.9084 22.1328 36.1664C22.1328 37.4245 23.1457 38.4374 24.4037 38.4374Z" stroke="#FF6B00" stroke-width="2.16431" stroke-linecap="round" stroke-linejoin="round"/>
<path id="Vector_5" d="M28.3364 31.827C29.5944 31.827 30.6073 30.8142 30.6073 29.5561C30.6073 28.298 29.5944 27.2852 28.3364 27.2852C27.0783 27.2852 26.0654 28.298 26.0654 29.5561C26.0654 30.8142 27.0783 31.827 28.3364 31.827Z" stroke="#FF6B00" stroke-width="2.16431" stroke-linecap="round" stroke-linejoin="round"/>
<path id="Vector_6" d="M20.0639 31.827C21.322 31.827 22.3348 30.8142 22.3348 29.5561C22.3348 28.298 21.322 27.2852 20.0639 27.2852C18.8058 27.2852 17.793 28.298 17.793 29.5561C17.793 30.8142 18.8058 31.827 20.0639 31.827Z" stroke="#FF6B00" stroke-width="2.16431" stroke-linecap="round" stroke-linejoin="round"/>
<path id="Vector_7" d="M32.4643 38.4374C33.7224 38.4374 34.7352 37.4245 34.7352 36.1664C34.7352 34.9084 33.7224 33.8955 32.4643 33.8955C31.2062 33.8955 30.1934 34.9084 30.1934 36.1664C30.1934 37.4245 31.2062 38.4374 32.4643 38.4374Z" stroke="#FF6B00" stroke-width="2.16431" stroke-linecap="round" stroke-linejoin="round"/>
<path id="Vector_8" d="M15.9389 38.4374C17.197 38.4374 18.2098 37.4245 18.2098 36.1664C18.2098 34.9084 17.197 33.8955 15.9389 33.8955C14.6808 33.8955 13.668 34.9084 13.668 36.1664C13.668 37.4245 14.6808 38.4374 15.9389 38.4374Z" stroke="#FF6B00" stroke-width="2.16431" stroke-linecap="round" stroke-linejoin="round"/>
<path id="Vector_9" d="M10.9806 8.07227L12.4732 13.595L7.12109 11.6013" stroke="#FF6B00" stroke-width="2.16431" stroke-linecap="round" stroke-linejoin="round"/>
<path id="Vector_10" d="M9.74414 22.5313L15.9385 16.3369" stroke="#FF6B00" stroke-width="2.16431" stroke-linecap="round" stroke-linejoin="round"/>
<path id="Vector_11" d="M18.21 14.0613L18.6257 13.6455" stroke="#FF6B00" stroke-width="2.16431" stroke-linecap="round" stroke-linejoin="round"/>
<path id="Vector_12" d="M27.3037 10.8018L33.4981 16.9962" stroke="#FF6B00" stroke-width="2.16431" stroke-linecap="round" stroke-linejoin="round"/>
<path id="Vector_13" d="M35.7676 19.2676L36.1834 19.6834" stroke="#FF6B00" stroke-width="2.16431" stroke-linecap="round" stroke-linejoin="round"/>
</g>
<g id="Vitamin &#38; kho&#195;&#161;ng ch&#225;&#186;&#165;t_3">
<path id="Vector_14" d="M14.1162 23.776L25.7906 12.1015L17.6665 3.97736C14.4467 0.757546 9.22249 0.757546 5.99201 3.97736C2.77219 7.19718 2.77219 12.4214 5.99201 15.6519L14.1162 23.776Z" stroke="#4D4D4F" stroke-width="2.16431" stroke-linecap="round" stroke-linejoin="round"/>
<path id="Vector_15" d="M37.4538 23.776L25.7793 12.1015L33.9035 3.97736C37.1233 0.757546 42.3475 0.757546 45.578 3.97736C48.7978 7.19718 48.7978 12.4214 45.578 15.6519L37.4538 23.776Z" stroke="#4D4D4F" stroke-width="2.16431" stroke-linecap="round" stroke-linejoin="round"/>
<path id="Vector_16" d="M25.9721 24.0624C27.2302 24.0624 28.243 23.0495 28.243 21.7914C28.243 20.5334 27.2302 19.5205 25.9721 19.5205C24.714 19.5205 23.7012 20.5334 23.7012 21.7914C23.7012 23.0495 24.714 24.0624 25.9721 24.0624Z" stroke="#FF6B00" stroke-width="2.16431" stroke-linecap="round" stroke-linejoin="round"/>
<path id="Vector_17" d="M25.9721 36.87C27.2302 36.87 28.243 35.8571 28.243 34.5991C28.243 33.341 27.2302 32.3281 25.9721 32.3281C24.714 32.3281 23.7012 33.341 23.7012 34.5991C23.7012 35.8571 24.714 36.87 25.9721 36.87Z" stroke="#FF6B00" stroke-width="2.16431" stroke-linecap="round" stroke-linejoin="round"/>
<path id="Vector_18" d="M29.9047 30.2596C31.1628 30.2596 32.1757 29.2468 32.1757 27.9887C32.1757 26.7306 31.1628 25.7178 29.9047 25.7178C28.6466 25.7178 27.6338 26.7306 27.6338 27.9887C27.6338 29.2468 28.6466 30.2596 29.9047 30.2596Z" stroke="#FF6B00" stroke-width="2.16431" stroke-linecap="round" stroke-linejoin="round"/>
<path id="Vector_19" d="M21.6323 30.2596C22.8903 30.2596 23.9032 29.2468 23.9032 27.9887C23.9032 26.7306 22.8903 25.7178 21.6323 25.7178C20.3742 25.7178 19.3613 26.7306 19.3613 27.9887C19.3613 29.2468 20.3742 30.2596 21.6323 30.2596Z" stroke="#FF6B00" stroke-width="2.16431" stroke-linecap="round" stroke-linejoin="round"/>
<path id="Vector_20" d="M34.0327 36.87C35.2907 36.87 36.3036 35.8571 36.3036 34.5991C36.3036 33.341 35.2907 32.3281 34.0327 32.3281C32.7746 32.3281 31.7617 33.341 31.7617 34.5991C31.7617 35.8571 32.7746 36.87 34.0327 36.87Z" stroke="#FF6B00" stroke-width="2.16431" stroke-linecap="round" stroke-linejoin="round"/>
<path id="Vector_21" d="M17.5073 36.87C18.7653 36.87 19.7782 35.8571 19.7782 34.5991C19.7782 33.341 18.7653 32.3281 17.5073 32.3281C16.2492 32.3281 15.2363 33.341 15.2363 34.5991C15.2363 35.8571 16.2492 36.87 17.5073 36.87Z" stroke="#FF6B00" stroke-width="2.16431" stroke-linecap="round" stroke-linejoin="round"/>
<path id="Vector_22" d="M12.549 6.50488L14.0416 12.0276L8.68945 10.0339" stroke="#FF6B00" stroke-width="2.16431" stroke-linecap="round" stroke-linejoin="round"/>
<path id="Vector_23" d="M11.3125 20.9639L17.5069 14.7695" stroke="#4D4D4F" stroke-width="2.16431" stroke-linecap="round" stroke-linejoin="round"/>
<path id="Vector_24" d="M19.7783 12.4939L20.1941 12.0781" stroke="#FF6B00" stroke-width="2.16431" stroke-linecap="round" stroke-linejoin="round"/>
<path id="Vector_25" d="M28.8721 9.23438L35.0665 15.4288" stroke="#4D4D4F" stroke-width="2.16431" stroke-linecap="round" stroke-linejoin="round"/>
<path id="Vector_26" d="M37.3359 17.7002L37.7517 18.116" stroke="#FF6B00" stroke-width="2.16431" stroke-linecap="round" stroke-linejoin="round"/>
</g>
</g>
</svg>
