<svg width="73" height="64" viewBox="0 0 73 64" fill="none" xmlns="http://www.w3.org/2000/svg">
<g id="Dinh d&#198;&#176;&#225;&#187;&#161;ng, TPCN">
<g id="Dinh d&#198;&#176;&#225;&#187;&#161;ng, TPCN_2" opacity="0.3">
<path id="Vector" d="M7.45856 28.3973C7.45856 40.1003 2.27734 34.6655 2.27734 43.4518V57.673C2.27734 62.2745 3.52738 61.4411 8.12887 61.4411H21.4985C26.1 61.4411 27.3501 62.2745 27.3501 57.673V43.4518C27.3501 34.6655 22.1689 40.1003 22.1689 28.3973H26.5167V20.4443H3.1107V28.3973H14.8137" stroke="#FF6B00" stroke-width="3.67757" stroke-linecap="round" stroke-linejoin="round"/>
<path id="Vector_2" d="M15.2314 38.8496L11.8799 46.3678H18.5647L13.9632 54.3208" stroke="#FF6B00" stroke-width="3.67757" stroke-linecap="round" stroke-linejoin="round"/>
<path id="Vector_3" d="M51.3017 33.2158L47.9502 40.7521H54.635L50.0335 48.7051" stroke="#FF6B00" stroke-width="3.67757" stroke-linecap="round" stroke-linejoin="round"/>
<path id="Vector_4" d="M62.366 10.2066H40.21V8.05079C40.21 6.18483 41.7317 4.66309 43.5977 4.66309H58.9783C60.8442 4.66309 62.366 6.18483 62.366 8.05079V10.2066V10.2066Z" stroke="#FF6B00" stroke-width="3.67757" stroke-linecap="round" stroke-linejoin="round"/>
<path id="Vector_5" d="M64.2916 61.9993H38.3131C36.2297 61.9993 34.5449 60.3145 34.5449 58.2312V23.6656C34.5449 21.5822 36.2297 19.8975 38.3131 19.8975H64.2916C66.375 19.8975 68.0597 21.5822 68.0597 23.6656V58.2312C68.0597 60.3145 66.375 61.9993 64.2916 61.9993Z" stroke="#FF6B00" stroke-width="3.67757" stroke-linecap="round" stroke-linejoin="round"/>
<path id="Vector_6" d="M62.1317 19.8962H40.4467C38.3996 19.8962 36.751 18.2477 36.751 16.2005V13.8998C36.751 11.8527 38.3996 10.2041 40.4467 10.2041H62.1317C64.1788 10.2041 65.8274 11.8527 65.8274 13.8998V16.2005C65.8274 18.2477 64.1788 19.8962 62.1317 19.8962Z" stroke="#FF6B00" stroke-width="3.67757" stroke-linecap="round" stroke-linejoin="round"/>
</g>
<g id="Dinh d&#198;&#176;&#225;&#187;&#161;ng, TPCN_3">
<path id="Vector_7" d="M10.1207 25.7342C10.1207 37.4372 4.93945 32.0024 4.93945 40.7887V55.0099C4.93945 59.6114 6.18949 58.778 10.791 58.778H24.1607C28.7622 58.778 30.0122 59.6114 30.0122 55.0099V40.7887C30.0122 32.0024 24.831 37.4372 24.831 25.7342H29.1788V17.7812H5.77281V25.7342H17.4758" stroke="#4D4D4F" stroke-width="3.67757" stroke-linecap="round" stroke-linejoin="round"/>
<path id="Vector_8" d="M17.8935 36.1855L14.542 43.7038H21.2268L16.6253 51.6567" stroke="#FF6B00" stroke-width="3.67757" stroke-linecap="round" stroke-linejoin="round"/>
<path id="Vector_9" d="M53.9638 30.5527L50.6123 38.089H57.2972L52.6956 46.042" stroke="#4D4D4F" stroke-width="3.67757" stroke-linecap="round" stroke-linejoin="round"/>
<path id="Vector_10" d="M65.0281 7.54353H42.8721V5.38771C42.8721 3.52175 44.3938 2 46.2598 2H61.6404C63.5063 2 65.0281 3.52175 65.0281 5.38771V7.54353V7.54353Z" stroke="#FF6B00" stroke-width="3.67757" stroke-linecap="round" stroke-linejoin="round"/>
<path id="Vector_11" d="M66.9537 59.3362H40.9752C38.8918 59.3362 37.207 57.6514 37.207 55.5681V21.0025C37.207 18.9191 38.8918 17.2344 40.9752 17.2344H66.9537C69.0371 17.2344 70.7219 18.9191 70.7219 21.0025V55.5681C70.7219 57.6514 69.0371 59.3362 66.9537 59.3362Z" stroke="#FF6B00" stroke-width="3.67757" stroke-linecap="round" stroke-linejoin="round"/>
<path id="Vector_12" d="M64.7938 17.2322H43.1088C41.0617 17.2322 39.4131 15.5836 39.4131 13.5365V11.2357C39.4131 9.18859 41.0617 7.54004 43.1088 7.54004H64.7938C66.8409 7.54004 68.4895 9.18859 68.4895 11.2357V13.5365C68.4895 15.5836 66.8409 17.2322 64.7938 17.2322Z" stroke="#FF6B00" stroke-width="3.67757" stroke-linecap="round" stroke-linejoin="round"/>
</g>
</g>
</svg>
