<svg width="14" height="15" viewBox="0 0 14 15" fill="none" xmlns="http://www.w3.org/2000/svg">
<g opacity="0.3">
<path d="M11.2906 5.99805V12.8501C11.2906 13.1805 11.1574 13.4974 10.9204 13.7311C10.6834 13.9647 10.3619 14.096 10.0267 14.096H3.70725C3.37204 14.096 3.05057 13.9647 2.81354 13.7311C2.57652 13.4974 2.44336 13.1805 2.44336 12.8501V5.99805" stroke="#4D4D4F" stroke-width="0.996667" stroke-linecap="round" stroke-linejoin="round"/>
<path d="M8.13129 7.24219V10.9797M5.60352 7.24219V10.9797" stroke="#4D4D4F" stroke-width="0.996667" stroke-linecap="round" stroke-linejoin="round"/>
<path d="M1.17969 4.12839H9.39496M9.39496 4.12839H12.5547M9.39496 4.12839V2.88255C9.39496 2.55214 9.2618 2.23525 9.02478 2.00161C8.78775 1.76798 8.46628 1.63672 8.13108 1.63672H5.6033C5.26809 1.63672 4.94662 1.76798 4.70959 2.00161C4.63081 2.07928 4.56349 2.16614 4.50873 2.25964" stroke="#4D4D4F" stroke-width="0.996667" stroke-linecap="round" stroke-linejoin="round"/>
</g>
<path d="M12.0132 5.45703V12.3091C12.0132 12.6395 11.8801 12.9564 11.6431 13.1901C11.406 13.4237 11.0846 13.5549 10.7493 13.5549H4.4299C4.0947 13.5549 3.77323 13.4237 3.5362 13.1901C3.29917 12.9564 3.16602 12.6395 3.16602 12.3091V5.45703" stroke="#4D4D4F" stroke-width="0.996667" stroke-linecap="round" stroke-linejoin="round"/>
<path d="M8.85395 6.70117V10.4387M6.32617 6.70117V10.4387" stroke="#4D4D4F" stroke-width="0.996667" stroke-linecap="round" stroke-linejoin="round"/>
<path d="M1.90234 3.58737H10.1176M10.1176 3.58737H13.2773M10.1176 3.58737V2.34154C10.1176 2.01112 9.98446 1.69424 9.74744 1.4606C9.51041 1.22696 9.18894 1.0957 8.85373 1.0957H6.32595C5.99075 1.0957 5.66928 1.22696 5.43225 1.4606C5.35346 1.53826 5.28615 1.62512 5.23139 1.71862" stroke="#4D4D4F" stroke-width="0.996667" stroke-linecap="round" stroke-linejoin="round"/>
</svg>
