<svg width="69" height="70" viewBox="0 0 69 70" fill="none" xmlns="http://www.w3.org/2000/svg">
<g opacity="0.3">
<path d="M15.76 12.3323C14.5706 13.5398 13.9219 15.1617 13.9219 16.8558V31.2142M52.2718 10.4941H58.6515C59.4985 10.4941 60.3274 10.6563 61.1024 10.9627C61.8773 11.2691 62.5802 11.7376 63.1749 12.3323C64.3643 13.5398 65.013 15.1617 65.013 16.8558V61.5313C65.013 62.3783 64.8509 63.2073 64.5265 63.9822C64.2021 64.7571 63.7335 65.46 63.1388 66.0547C62.5441 66.6494 61.8412 67.1179 61.0663 67.4423C60.2914 67.7667 59.4624 67.9289 58.6154 67.9289H20.3195C19.4725 67.9289 18.6435 67.7667 17.8686 67.4423C17.0937 67.1179 16.3908 66.6494 15.7961 66.0547C15.2014 65.46 14.7328 64.7571 14.4084 63.9822C14.084 63.2073 13.9219 62.3783 13.9219 61.5313V59.0324" stroke="#FF6B00" stroke-width="3.65838" stroke-linecap="round" stroke-linejoin="round"/>
<path d="M52.1826 10.4743V7.23038C52.1826 6.81589 52.0925 6.4014 51.9483 6.00493C51.7861 5.62648 51.5518 5.26603 51.2635 4.97768C50.9751 4.68934 50.6147 4.45508 50.2362 4.29288C49.8578 4.13069 49.4433 4.05859 49.0108 4.05859H29.8538C29.0068 4.05859 28.1958 4.40101 27.6011 4.99572C27.0064 5.59044 26.6641 6.40141 26.6641 7.24842V13.6281C26.6641 14.4751 27.0064 15.286 27.6011 15.8807C28.1958 16.4755 29.0068 16.8179 29.8538 16.8179H49.0108C49.8578 16.8179 50.6687 16.4755 51.2635 15.8807C51.8582 15.286 52.2006 14.4751 52.2006 13.6281V10.4743H52.1826Z" stroke="#FF6B00" stroke-width="3.65838" stroke-linecap="round" stroke-linejoin="round"/>
<path d="M23.4922 24.5654H56.0932" stroke="#FF6B00" stroke-width="3.65838" stroke-linecap="round"/>
<path d="M34.4551 33.2012H56.3122" stroke="#FF6B00" stroke-width="3.65838" stroke-linecap="round"/>
<path d="M34.4551 41.8115H56.3122" stroke="#FF6B00" stroke-width="3.65838" stroke-linecap="round"/>
<path d="M34.4551 50.4219H56.3122" stroke="#FF6B00" stroke-width="3.65838" stroke-linecap="round"/>
<path d="M23.4922 59.3467H56.0932" stroke="#FF6B00" stroke-width="3.65838" stroke-linecap="round"/>
<path d="M13.9221 31.2148L2 36.2727V43.8595C2 50.8772 7.08675 57.4398 13.9221 59.033C20.7574 57.4398 25.8442 50.8772 25.8442 43.8595V36.2727L13.9221 31.2148Z" stroke="#FF6B00" stroke-width="3.6561" stroke-linejoin="round"/>
<path d="M9.28516 44.1305L13.2592 48.7668L19.8826 42.4746" stroke="#FF6B00" stroke-width="3.6561" stroke-linecap="round" stroke-linejoin="round"/>
</g>
<path d="M17.7463 10.345C16.5569 11.5525 15.9082 13.1744 15.9082 14.8685V29.2269M54.2581 8.50684H60.6378C61.4848 8.50684 62.3138 8.66902 63.0887 8.97539C63.8636 9.28175 64.5665 9.75031 65.1612 10.345C66.3507 11.5525 66.9994 13.1744 66.9994 14.8685V59.544C66.9994 60.391 66.8372 61.22 66.5128 61.9949C66.1885 62.7698 65.7199 63.4726 65.1251 64.0674C64.5304 64.6621 63.8276 65.1306 63.0526 65.455C62.2777 65.7794 61.4487 65.9416 60.6017 65.9416H22.3058C21.4588 65.9416 20.6299 65.7794 19.8549 65.455C19.08 65.1306 18.3771 64.6621 17.7824 64.0674C17.1877 63.4726 16.7191 62.7698 16.3947 61.9949C16.0703 61.22 15.9082 60.391 15.9082 59.544V57.0451" stroke="#FF6B00" stroke-width="3.65838" stroke-linecap="round" stroke-linejoin="round"/>
<path d="M54.1689 8.48697V5.24308C54.1689 4.82858 54.0788 4.4141 53.9346 4.01762C53.7724 3.63917 53.5381 3.27873 53.2498 2.99038C52.9614 2.70203 52.601 2.46777 52.2225 2.30558C51.8441 2.14338 51.4296 2.07129 50.9971 2.07129H31.8401C30.9931 2.07129 30.1822 2.41371 29.5874 3.00842C28.9927 3.60313 28.6504 4.4141 28.6504 5.26112V11.6407C28.6504 12.4878 28.9927 13.2987 29.5874 13.8934C30.1822 14.4882 30.9931 14.8306 31.8401 14.8306H50.9971C51.8441 14.8306 52.6551 14.4882 53.2498 13.8934C53.8445 13.2987 54.1869 12.4878 54.1869 11.6407V8.48697H54.1689Z" stroke="#4D4D4F" stroke-width="3.65838" stroke-linecap="round" stroke-linejoin="round"/>
<path d="M25.4785 22.5781H58.0795" stroke="#4D4D4F" stroke-width="3.65838" stroke-linecap="round"/>
<path d="M36.4414 31.2139H58.2986" stroke="#4D4D4F" stroke-width="3.65838" stroke-linecap="round"/>
<path d="M36.4414 39.8242H58.2986" stroke="#4D4D4F" stroke-width="3.65838" stroke-linecap="round"/>
<path d="M36.4414 48.4346H58.2986" stroke="#4D4D4F" stroke-width="3.65838" stroke-linecap="round"/>
<path d="M25.4785 57.3594H58.0795" stroke="#4D4D4F" stroke-width="3.65838" stroke-linecap="round"/>
<path d="M15.9084 29.2275L3.98633 34.2854V41.8722C3.98633 48.8899 9.07308 55.4525 15.9084 57.0457C22.7437 55.4525 27.8305 48.8899 27.8305 41.8722V34.2854L15.9084 29.2275Z" stroke="#FF6B00" stroke-width="3.6561" stroke-linejoin="round"/>
<path d="M11.2715 42.1431L15.2455 46.7795L21.8689 40.4873" stroke="#4D4D4F" stroke-width="3.6561" stroke-linecap="round" stroke-linejoin="round"/>
</svg>
