<svg width="29" height="17" viewBox="0 0 29 17" fill="none" xmlns="http://www.w3.org/2000/svg">
<g opacity="0.3">
<path d="M5.82372 16.2985H1.14844V12.959C1.68141 12.9792 2.21438 12.8982 2.71362 12.7093C3.21285 12.5204 3.67161 12.2303 4.05615 11.8593C4.4407 11.4882 4.75106 11.043 4.9602 10.5505C5.16934 10.058 5.27726 9.53176 5.27726 8.99204C5.27726 8.45233 5.16934 7.9261 4.9602 7.43361C4.75106 6.94112 4.4407 6.49586 4.05615 6.1248C3.67161 5.75375 3.21285 5.46364 2.71362 5.27474C2.21438 5.08584 1.68141 4.99814 1.14844 5.02513V1.69238H26.8591V5.02513C26.3262 5.00489 25.7932 5.08584 25.2939 5.27474C24.7947 5.46364 24.336 5.75375 23.9514 6.1248C23.5669 6.49586 23.2566 6.94112 23.0474 7.43361C22.8383 7.9261 22.7303 8.45233 22.7303 8.99204C22.7303 9.53176 22.8383 10.058 23.0474 10.5505C23.2566 11.043 23.5669 11.4882 23.9514 11.8593C24.336 12.2303 24.7947 12.5204 25.2939 12.7093C25.7932 12.8982 26.3262 12.9859 26.8591 12.959V16.2985H10.074" stroke="#FF6B00" stroke-width="1.36953" stroke-linecap="round" stroke-linejoin="round"/>
<path d="M19.4258 7.0293V10.9692" stroke="#FF6B00" stroke-width="1.36953" stroke-linecap="round" stroke-linejoin="round"/>
<path d="M19.4258 1.70117V3.53619" stroke="#FF6B00" stroke-width="1.36953" stroke-linecap="round" stroke-linejoin="round"/>
<path d="M19.4258 16.2998V14.458" stroke="#FF6B00" stroke-width="1.36953" stroke-linecap="round" stroke-linejoin="round"/>
<path d="M9.62876 7.8122C10.4518 7.8122 11.113 7.1443 11.113 6.32798C11.113 5.51166 10.4451 4.84375 9.62876 4.84375C8.81244 4.84375 8.14453 5.51166 8.14453 6.32798C8.14453 7.1443 8.81244 7.8122 9.62876 7.8122Z" stroke="#FF6B00" stroke-width="1.36953" stroke-linecap="round" stroke-linejoin="round"/>
<path d="M14.66 12.8444C15.483 12.8444 16.1442 12.1765 16.1442 11.3602C16.1442 10.5439 15.4763 9.87598 14.66 9.87598C13.8436 9.87598 13.1758 10.5439 13.1758 11.3602C13.1758 12.1765 13.8436 12.8444 14.66 12.8444Z" stroke="#FF6B00" stroke-width="1.36953" stroke-linecap="round" stroke-linejoin="round"/>
<path d="M14.6628 6.32715L9.63672 11.3533" stroke="#FF6B00" stroke-width="1.36953" stroke-linecap="round" stroke-linejoin="round"/>
</g>
<path d="M6.81591 15.3063H2.14062V11.9668C2.67359 11.987 3.20657 11.9061 3.70581 11.7172C4.20504 11.5283 4.66379 11.2381 5.04834 10.8671C5.43289 10.496 5.74324 10.0508 5.95238 9.55828C6.16152 9.06579 6.26945 8.53957 6.26945 7.99985C6.26945 7.46014 6.16152 6.93392 5.95238 6.44143C5.74324 5.94894 5.43289 5.50367 5.04834 5.13261C4.66379 4.76156 4.20504 4.47146 3.70581 4.28256C3.20657 4.09366 2.67359 4.00595 2.14062 4.03294V0.700195H27.8513V4.03294C27.3183 4.0127 26.7854 4.09366 26.2861 4.28256C25.7869 4.47146 25.3281 4.76156 24.9436 5.13261C24.5591 5.50367 24.2487 5.94894 24.0396 6.44143C23.8305 6.93392 23.7225 7.46014 23.7225 7.99985C23.7225 8.53957 23.8305 9.06579 24.0396 9.55828C24.2487 10.0508 24.5591 10.496 24.9436 10.8671C25.3281 11.2381 25.7869 11.5283 26.2861 11.7172C26.7854 11.9061 27.3183 11.9938 27.8513 11.9668V15.3063H11.0662" stroke="#FF6B00" stroke-width="1.36953" stroke-linecap="round" stroke-linejoin="round"/>
<path d="M20.418 6.03711V9.97701" stroke="#FF6B00" stroke-width="1.36953" stroke-linecap="round" stroke-linejoin="round"/>
<path d="M20.418 0.708984V2.544" stroke="#FF6B00" stroke-width="1.36953" stroke-linecap="round" stroke-linejoin="round"/>
<path d="M20.418 15.3076V13.4658" stroke="#FF6B00" stroke-width="1.36953" stroke-linecap="round" stroke-linejoin="round"/>
<path d="M10.6209 6.82001C11.444 6.82001 12.1052 6.15211 12.1052 5.33579C12.1052 4.51947 11.4373 3.85156 10.6209 3.85156C9.80462 3.85156 9.13672 4.51947 9.13672 5.33579C9.13672 6.15211 9.80462 6.82001 10.6209 6.82001Z" stroke="#4D4D4F" stroke-width="1.36953" stroke-linecap="round" stroke-linejoin="round"/>
<path d="M15.6522 11.8522C16.4752 11.8522 17.1364 11.1843 17.1364 10.368C17.1364 9.5517 16.4685 8.88379 15.6522 8.88379C14.8358 8.88379 14.168 9.5517 14.168 10.368C14.168 11.1843 14.8358 11.8522 15.6522 11.8522Z" stroke="#4D4D4F" stroke-width="1.36953" stroke-linecap="round" stroke-linejoin="round"/>
<path d="M15.655 5.33496L10.6289 10.3611" stroke="#4D4D4F" stroke-width="1.36953" stroke-linecap="round" stroke-linejoin="round"/>
</svg>
