<svg width="22" height="20" viewBox="0 0 22 20" fill="none" xmlns="http://www.w3.org/2000/svg">
<g opacity="0.3">
<path d="M17.6639 10.289L17.3912 10.8002C17.6162 10.9202 17.8932 10.879 18.0736 10.6987L17.6639 10.289ZM15.973 16.2326C16.1865 15.9942 16.1662 15.6278 15.9277 15.4144C15.6893 15.201 15.323 15.2213 15.1095 15.4598L15.973 16.2326ZM20.6537 8.11854C20.88 7.89226 20.88 7.52538 20.6537 7.2991C20.4274 7.07282 20.0606 7.07282 19.8343 7.2991L20.6537 8.11854ZM14.9594 8.18992C14.6771 8.03933 14.3261 8.14614 14.1755 8.42851C14.0249 8.71087 14.1317 9.06185 14.4141 9.21244L14.9594 8.18992ZM9.32802 18.0454C5.04428 18.0454 1.57162 14.5727 1.57162 10.289H0.412757C0.412757 15.2127 4.40426 19.2042 9.32802 19.2042V18.0454ZM1.57162 10.289C1.57162 6.00522 5.04428 2.53256 9.32802 2.53256V1.37369C4.40426 1.37369 0.412757 5.36519 0.412757 10.289H1.57162ZM9.32802 2.53256C13.6118 2.53256 17.0844 6.00522 17.0844 10.289H18.2433C18.2433 5.36519 14.2518 1.37369 9.32802 1.37369V2.53256ZM15.1095 15.4598C13.6885 17.0475 11.6252 18.0454 9.32802 18.0454V19.2042C11.9685 19.2042 14.3414 18.0556 15.973 16.2326L15.1095 15.4598ZM18.0736 10.6987L20.6537 8.11854L19.8343 7.2991L17.2541 9.87924L18.0736 10.6987ZM17.9365 9.7777L14.9594 8.18992L14.4141 9.21244L17.3912 10.8002L17.9365 9.7777Z" fill="#FF6B00"/>
<path d="M9.32813 6.31925L9.32812 10.6457L11.5113 12.2734" stroke="#FF6B00" stroke-width="1.15886" stroke-linecap="round" stroke-linejoin="round"/>
</g>
<path d="M18.617 9.33583L18.3443 9.8471C18.5693 9.96711 18.8464 9.92589 19.0267 9.74555L18.617 9.33583ZM16.9262 15.2795C17.1396 15.041 17.1193 14.6747 16.8808 14.4613C16.6424 14.2479 16.2761 14.2682 16.0627 14.5066L16.9262 15.2795ZM21.6068 7.16541C21.8331 6.93913 21.8331 6.57226 21.6068 6.34598C21.3806 6.11969 21.0137 6.11969 20.7874 6.34598L21.6068 7.16541ZM15.9126 7.23679C15.6302 7.0862 15.2792 7.19302 15.1286 7.47538C14.978 7.75774 15.0849 8.10873 15.3672 8.25932L15.9126 7.23679ZM10.2811 17.0922C5.9974 17.0922 2.52474 13.6196 2.52474 9.33583H1.36588C1.36588 14.2596 5.35738 18.2511 10.2811 18.2511V17.0922ZM2.52474 9.33583C2.52474 5.05209 5.9974 1.57943 10.2811 1.57943V0.420569C5.35738 0.420569 1.36588 4.41207 1.36588 9.33583H2.52474ZM10.2811 1.57943C14.5649 1.57943 18.0375 5.05209 18.0375 9.33583H19.1964C19.1964 4.41207 15.2049 0.420569 10.2811 0.420569V1.57943ZM16.0627 14.5066C14.6416 16.0944 12.5783 17.0922 10.2811 17.0922V18.2511C12.9216 18.2511 15.2946 17.1025 16.9262 15.2795L16.0627 14.5066ZM19.0267 9.74555L21.6068 7.16541L20.7874 6.34598L18.2073 8.92611L19.0267 9.74555ZM18.8897 8.82457L15.9126 7.23679L15.3672 8.25932L18.3443 9.8471L18.8897 8.82457Z" fill="#FF6B00"/>
<path d="M10.2813 5.36612L10.2812 9.69258L12.4644 11.3203" stroke="#4D4D4F" stroke-width="1.15886" stroke-linecap="round" stroke-linejoin="round"/>
</svg>
