<svg width="55" height="57" viewBox="0 0 55 57" fill="none" xmlns="http://www.w3.org/2000/svg">
<g opacity="0.3">
<path d="M19.3799 4.58203C19.3799 13.3425 2.14551 11.8798 2.14551 11.8798" stroke="#FF6B00" stroke-width="3.06088" stroke-linecap="round" stroke-linejoin="round"/>
<path d="M22.3055 28.5402C7.3932 28.5402 3.02051 30.5907 3.02051 24.1523" stroke="#FF6B00" stroke-width="3.06088" stroke-linecap="round" stroke-linejoin="round"/>
<path d="M13.8307 44.6171C9.45797 37.8922 6.44233 32.7807 6.05029 28.6191" stroke="#FF6B00" stroke-width="3.06088" stroke-linecap="round" stroke-linejoin="round"/>
<path d="M9.15723 37.0176V55.428" stroke="#FF6B00" stroke-width="3.06088" stroke-linecap="round" stroke-linejoin="round"/>
<path d="M33.4038 4.58203C33.4038 13.3425 50.6382 11.8798 50.6382 11.8798" stroke="#FF6B00" stroke-width="3.06088" stroke-linecap="round" stroke-linejoin="round"/>
<path d="M30.4761 28.5402C45.3733 28.5402 49.7611 30.5907 49.7611 24.1523" stroke="#FF6B00" stroke-width="3.06088" stroke-linecap="round" stroke-linejoin="round"/>
<path d="M38.9512 44.6171C43.3239 37.8922 46.3395 32.7807 46.7315 28.6191" stroke="#FF6B00" stroke-width="3.06088" stroke-linecap="round" stroke-linejoin="round"/>
<path d="M43.6108 37.0176V55.428" stroke="#FF6B00" stroke-width="3.06088" stroke-linecap="round" stroke-linejoin="round"/>
<path d="M26.9649 56.0001C27.9299 56.0001 28.714 55.2161 28.714 54.2511C28.714 53.2861 27.9299 52.502 26.9649 52.502C25.9999 52.502 25.2158 53.2861 25.2158 54.2511C25.2158 55.2161 25.9999 56.0001 26.9649 56.0001Z" fill="#FF6B00"/>
</g>
<path d="M21.5967 2.36523C21.5967 11.1257 4.3623 9.66303 4.3623 9.66303" stroke="#4D4D4F" stroke-width="3.06088" stroke-linecap="round" stroke-linejoin="round"/>
<path d="M24.5223 26.3234C9.61 26.3234 5.2373 28.3739 5.2373 21.9355" stroke="#4D4D4F" stroke-width="3.06088" stroke-linecap="round" stroke-linejoin="round"/>
<path d="M16.0474 42.4003C11.6748 35.6754 8.65912 30.5639 8.26709 26.4023" stroke="#4D4D4F" stroke-width="3.06088" stroke-linecap="round" stroke-linejoin="round"/>
<path d="M11.374 34.8008V53.2112" stroke="#4D4D4F" stroke-width="3.06088" stroke-linecap="round" stroke-linejoin="round"/>
<path d="M35.6206 2.36523C35.6206 11.1257 52.855 9.66303 52.855 9.66303" stroke="#FF6B00" stroke-width="3.06088" stroke-linecap="round" stroke-linejoin="round"/>
<path d="M32.6929 26.3234C47.5901 26.3234 51.9779 28.3739 51.9779 21.9355" stroke="#FF6B00" stroke-width="3.06088" stroke-linecap="round" stroke-linejoin="round"/>
<path d="M41.1685 42.4003C45.5411 35.6754 48.5568 30.5639 48.9488 26.4023" stroke="#FF6B00" stroke-width="3.06088" stroke-linecap="round" stroke-linejoin="round"/>
<path d="M45.8276 34.8008V53.2112" stroke="#FF6B00" stroke-width="3.06088" stroke-linecap="round" stroke-linejoin="round"/>
<path d="M29.1817 53.7833C30.1467 53.7833 30.9308 52.9993 30.9308 52.0343C30.9308 51.0693 30.1467 50.2852 29.1817 50.2852C28.2167 50.2852 27.4326 51.0693 27.4326 52.0343C27.4326 52.9993 28.2167 53.7833 29.1817 53.7833Z" fill="#4D4D4F"/>
</svg>
