<svg width="42" height="43" viewBox="0 0 42 43" fill="none" xmlns="http://www.w3.org/2000/svg">
<rect y="0.724609" width="42" height="42" rx="5" fill="white"/>
<g opacity="0.3">
<path d="M23.3489 9.02459L22.1005 7.04432C21.9959 6.87213 21.8237 6.74298 21.6269 6.69378C21.4301 6.64458 21.221 6.66918 21.0427 6.76143L11.9531 11.6383" stroke="#FF6B00" stroke-width="1.48623" stroke-linecap="round" stroke-linejoin="round"/>
<path d="M26.7869 11.5264L25.8398 9.02958C25.766 8.83893 25.6246 8.68518 25.4401 8.59293C25.2556 8.50684 25.0465 8.48839 24.8497 8.54989L21.6641 9.86597" stroke="#FF6B00" stroke-width="1.48623" stroke-linecap="round" stroke-linejoin="round"/>
<path d="M23.6933 25.925H12.562C12.1253 25.925 11.7071 25.7528 11.3996 25.4453C11.0921 25.1378 10.9199 24.7196 10.9199 24.2768V13.1762C10.9199 12.7396 11.0921 12.3214 11.3996 12.0139C11.7071 11.7064 12.1253 11.5342 12.562 11.5342H27.3463C27.783 11.5342 28.2012 11.7064 28.5148 12.0139C28.8223 12.3214 28.9945 12.7396 28.9945 13.1762V16.245" stroke="#FF6B00" stroke-width="1.48623" stroke-linecap="round" stroke-linejoin="round"/>
<path d="M28.99 21.3184V24.2765C28.99 24.7131 28.8178 25.1313 28.5103 25.4449C28.2028 25.7586 27.7846 25.9246 27.3418 25.9246" stroke="#FF6B00" stroke-width="1.48623" stroke-linecap="round" stroke-linejoin="round"/>
<path d="M-nan -nanL24.8736 16.252H27.6411C29.0405 16.252 30.1749 17.3864 30.1749 18.7857V18.7857C30.1749 20.1851 29.0405 21.3195 27.6411 21.3195H24.8736C24.2033 21.3195 23.5575 21.055 23.084 20.5753C22.6105 20.1018 22.3398 19.4561 22.3398 18.7857C22.3398 18.1154 22.6043 17.4696 23.084 16.9961C23.5637 16.5225 24.2033 16.252 24.8736 16.252L-nan -nanL-nan -nanZ" stroke="#FF6B00" stroke-width="1.48623" stroke-linecap="round" stroke-linejoin="round"/>
<path d="M25.0348 19.7697C25.5821 19.7697 26.0188 19.3269 26.0188 18.7857C26.0188 18.2446 25.5759 17.8018 25.0348 17.8018C24.4936 17.8018 24.0508 18.2446 24.0508 18.7857C24.0508 19.3269 24.4936 19.7697 25.0348 19.7697Z" stroke="#FF6B00" stroke-width="1.48623" stroke-linecap="round" stroke-linejoin="round"/>
</g>
<path d="M24.2532 8.1203L23.0048 6.14003C22.9002 5.96783 22.728 5.83868 22.5312 5.78948C22.3344 5.74028 22.1253 5.76488 21.947 5.85713L12.8574 10.734" stroke="#FF6B00" stroke-width="1.48623" stroke-linecap="round" stroke-linejoin="round"/>
<path d="M27.6912 10.6221L26.7441 8.12528C26.6703 7.93463 26.5289 7.78089 26.3444 7.68864C26.1599 7.60254 25.9508 7.58409 25.754 7.64559L22.5684 8.96167" stroke="#FF6B00" stroke-width="1.48623" stroke-linecap="round" stroke-linejoin="round"/>
<path d="M24.5976 25.0207H13.4663C13.0296 25.0207 12.6114 24.8485 12.3039 24.541C11.9964 24.2335 11.8242 23.8153 11.8242 23.3725V12.2719C11.8242 11.8353 11.9964 11.4171 12.3039 11.1096C12.6114 10.8021 13.0296 10.6299 13.4663 10.6299H28.2506C28.6873 10.6299 29.1055 10.8021 29.4191 11.1096C29.7266 11.4171 29.8988 11.8353 29.8988 12.2719V15.3407" stroke="#FF6B00" stroke-width="1.48623" stroke-linecap="round" stroke-linejoin="round"/>
<path d="M29.8943 20.4141V23.3722C29.8943 23.8088 29.7221 24.227 29.4146 24.5407C29.1071 24.8543 28.6889 25.0203 28.2461 25.0203" stroke="#FF6B00" stroke-width="1.48623" stroke-linecap="round" stroke-linejoin="round"/>
<path d="M-nan -nanL25.7799 15.3477H28.5473C29.9467 15.3477 31.0811 16.4821 31.0811 17.8814V17.8814C31.0811 19.2808 29.9467 20.4152 28.5473 20.4152H25.7799C25.1095 20.4152 24.4638 20.1507 23.9902 19.671C23.5167 19.1975 23.2461 18.5518 23.2461 17.8814C23.2461 17.2111 23.5106 16.5653 23.9902 16.0918C24.4699 15.6183 25.1095 15.3477 25.7799 15.3477L-nan -nanL-nan -nanZ" stroke="#4D4D4F" stroke-width="1.48623" stroke-linecap="round" stroke-linejoin="round"/>
<path d="M25.939 18.8654C26.4864 18.8654 26.9231 18.4226 26.9231 17.8814C26.9231 17.3403 26.4802 16.8975 25.939 16.8975C25.3979 16.8975 24.9551 17.3403 24.9551 17.8814C24.9551 18.4226 25.3979 18.8654 25.939 18.8654Z" stroke="#4D4D4F" stroke-width="1.48623" stroke-linecap="round" stroke-linejoin="round"/>
<path d="M10.3482 35.1996C9.89551 35.5963 9.34017 35.7946 8.68217 35.7946C7.99151 35.7946 7.39417 35.5566 6.89017 35.0806C6.39084 34.5953 6.14117 33.9933 6.14117 33.2746C6.14117 32.5513 6.39084 31.9516 6.89017 31.4756C7.38951 30.9949 7.98684 30.7546 8.68217 30.7546C9.32151 30.7546 9.86751 30.9483 10.3202 31.3356L9.76717 31.9656C9.44984 31.7323 9.10684 31.6156 8.73817 31.6156C8.27617 31.6156 7.88651 31.7743 7.56917 32.0916C7.25184 32.4089 7.09317 32.8033 7.09317 33.2746C7.09317 33.7506 7.25184 34.1473 7.56917 34.4646C7.88184 34.7773 8.27151 34.9336 8.73817 34.9336C9.12551 34.9336 9.47784 34.8076 9.79517 34.5556L10.3482 35.1996ZM11.0108 35.7246V30.8246H11.9278L14.2588 34.2196H14.3078V30.8246H15.2248V35.7246H14.3078L11.9768 32.3296H11.9278V35.7246H11.0108ZM16.0626 35.7246V30.8246H16.9796L19.3106 34.2196H19.3596V30.8246H20.2766V35.7246H19.3596L17.0286 32.3296H16.9796V35.7246H16.0626ZM24.5035 30.8246C25.0448 30.8246 25.4788 30.9763 25.8055 31.2796C26.1322 31.5783 26.2955 31.9749 26.2955 32.4696C26.2955 32.9596 26.1345 33.3469 25.8125 33.6316C25.4952 33.9163 25.0588 34.0586 24.5035 34.0586H23.7335V35.7246H22.8165V30.8246H24.5035ZM24.4545 33.2676C24.7485 33.2676 24.9748 33.2023 25.1335 33.0716C25.2968 32.9409 25.3785 32.7403 25.3785 32.4696C25.3785 32.2036 25.2968 32.0053 25.1335 31.8746C24.9748 31.7393 24.7485 31.6716 24.4545 31.6716H23.7335V33.2676H24.4545ZM28.247 35.7946C27.7896 35.7946 27.3743 35.6289 27.001 35.2976C26.6323 34.9616 26.448 34.4973 26.448 33.9046C26.448 33.3073 26.6323 32.8453 27.001 32.5186C27.3696 32.1826 27.785 32.0146 28.247 32.0146C28.387 32.0146 28.5176 32.0333 28.639 32.0706C28.7603 32.1033 28.8676 32.1476 28.961 32.2036C29.059 32.2596 29.1406 32.3226 29.206 32.3926C29.276 32.4626 29.3296 32.5326 29.367 32.6026H29.416V32.0846H30.312V35.7246H29.416V35.2066H29.367C29.3296 35.2766 29.276 35.3466 29.206 35.4166C29.1406 35.4866 29.059 35.5496 28.961 35.6056C28.8676 35.6616 28.7603 35.7059 28.639 35.7386C28.5176 35.7759 28.387 35.7946 28.247 35.7946ZM27.631 34.7096C27.8456 34.9009 28.093 34.9966 28.373 34.9966C28.653 34.9966 28.9003 34.9009 29.115 34.7096C29.3296 34.5229 29.437 34.2546 29.437 33.9046C29.437 33.5546 29.3296 33.2863 29.115 33.0996C28.9003 32.9083 28.653 32.8126 28.373 32.8126C28.093 32.8126 27.8456 32.9083 27.631 33.0996C27.4256 33.2909 27.323 33.5593 27.323 33.9046C27.323 34.2499 27.4256 34.5183 27.631 34.7096ZM33.7928 32.0846H34.7168L33.1278 35.7246L32.5118 37.0546H31.6158L32.2668 35.6336L30.7268 32.0846H31.6508L32.7218 34.6396L33.7928 32.0846Z" fill="#FF6B00"/>
</svg>
