<svg width="17" height="17" viewBox="0 0 17 17" fill="none" xmlns="http://www.w3.org/2000/svg">
<g id="Attention">
<path id="Vector" d="M8.43896 11.9331C8.67868 11.9331 8.88766 12.0129 9.06592 12.1789C9.23803 12.3387 9.32407 12.5723 9.32407 12.8673C9.32407 13.1378 9.23802 13.3591 9.05976 13.5312C8.88151 13.7033 8.67868 13.7955 8.43896 13.7955C8.19923 13.7955 8.00868 13.7156 7.83657 13.5558C7.66446 13.396 7.57227 13.1685 7.57227 12.8673C7.57227 12.5661 7.65831 12.3449 7.83042 12.1789C8.00253 12.0129 8.20538 11.9331 8.43896 11.9331ZM7.57227 9.9661V4.45862C7.57227 4.07752 7.65832 3.78864 7.82428 3.59194C7.99025 3.39525 8.19923 3.29688 8.4574 3.29688C8.71556 3.29688 8.92454 3.39525 9.08436 3.5981C9.24417 3.80094 9.32407 4.08367 9.32407 4.45862V9.90461C9.32407 10.2796 9.24417 10.5685 9.08436 10.759C8.92454 10.9496 8.71556 11.0418 8.4574 11.0418C8.19923 11.0418 7.99025 10.9496 7.82428 10.759C7.65832 10.5685 7.57227 10.3042 7.57227 9.9661Z" fill="#4D4D4F"/>
<path id="Vector_2" d="M8.45053 16.0964C12.6193 16.0964 15.9987 12.717 15.9987 8.5482C15.9987 4.37946 12.6193 1 8.45053 1C4.28178 1 0.902344 4.37946 0.902344 8.5482C0.902344 12.717 4.28178 16.0964 8.45053 16.0964Z" stroke="#0A66C2" stroke-width="1.24701"/>
</g>
</svg>
