<svg width="36" height="37" viewBox="0 0 36 37" fill="none" xmlns="http://www.w3.org/2000/svg">
<g opacity="0.3">
<path d="M33.0953 17.9508C33.1459 18.4607 33.1718 18.9778 33.1718 19.5009C33.1718 28.0619 26.2318 35.0019 17.6709 35.0019C9.10993 35.0019 2.16992 28.0619 2.16992 19.5009C2.16992 10.94 9.10993 4 17.6709 4C20.6016 4 23.3423 4.81332 25.6797 6.22656" stroke="#4D4D4F" stroke-width="2.72" stroke-linecap="round"/>
<path d="M23.4466 24.5567V26.8147H13.4512V24.8879L18.1779 19.8199C18.653 19.2914 19.0276 18.8264 19.3019 18.425C19.5762 18.0169 19.7736 17.6523 19.894 17.3311C20.0212 17.0033 20.0847 16.6922 20.0847 16.3978C20.0847 15.9562 20.0111 15.5782 19.8639 15.2638C19.7167 14.9426 19.4993 14.6951 19.2116 14.5212C18.9306 14.3472 18.5827 14.2602 18.1679 14.2602C17.7263 14.2602 17.345 14.3673 17.0239 14.5814C16.7094 14.7955 16.4686 15.0932 16.3013 15.4745C16.1407 15.8559 16.0604 16.2874 16.0604 16.7691H13.1602C13.1602 15.8994 13.3676 15.1032 13.7824 14.3807C14.1972 13.6514 14.7826 13.0727 15.5386 12.6445C16.2946 12.2096 17.1911 11.9922 18.2281 11.9922C19.2518 11.9922 20.1148 12.1594 20.8173 12.494C21.5265 12.8218 22.0617 13.2968 22.423 13.919C22.791 14.5345 22.975 15.2705 22.975 16.1268C22.975 16.6086 22.898 17.0802 22.7441 17.5419C22.5903 17.9968 22.3695 18.4518 22.0818 18.9067C21.8008 19.355 21.4596 19.8099 21.0582 20.2715C20.6567 20.7332 20.2118 21.2115 19.7234 21.7066L17.1844 24.5567H23.4466Z" fill="#4D4D4F"/>
</g>
<path d="M34.0953 15.9508C34.1459 16.4607 34.1718 16.9778 34.1718 17.5009C34.1718 26.0619 27.2318 33.0019 18.6709 33.0019C10.1099 33.0019 3.16992 26.0619 3.16992 17.5009C3.16992 8.94 10.1099 2 18.6709 2C21.6016 2 24.3423 2.81332 26.6797 4.22656" stroke="#4D4D4F" stroke-width="2.72" stroke-linecap="round"/>
<path d="M24.4466 22.5567V24.8147H14.4512V22.8879L19.1779 17.8199C19.653 17.2914 20.0276 16.8264 20.3019 16.425C20.5762 16.0169 20.7736 15.6523 20.894 15.3311C21.0212 15.0033 21.0847 14.6922 21.0847 14.3978C21.0847 13.9562 21.0111 13.5782 20.8639 13.2638C20.7167 12.9426 20.4993 12.6951 20.2116 12.5212C19.9306 12.3472 19.5827 12.2602 19.1679 12.2602C18.7263 12.2602 18.345 12.3673 18.0239 12.5814C17.7094 12.7955 17.4686 13.0932 17.3013 13.4745C17.1407 13.8559 17.0604 14.2874 17.0604 14.7691H14.1602C14.1602 13.8994 14.3676 13.1032 14.7824 12.3807C15.1972 11.6514 15.7826 11.0727 16.5386 10.6445C17.2946 10.2096 18.1911 9.99219 19.2281 9.99219C20.2518 9.99219 21.1148 10.1594 21.8173 10.494C22.5265 10.8218 23.0617 11.2968 23.423 11.919C23.791 12.5345 23.975 13.2705 23.975 14.1268C23.975 14.6086 23.898 15.0802 23.7441 15.5419C23.5903 15.9968 23.3695 16.4518 23.0818 16.9067C22.8008 17.355 22.4596 17.8099 22.0582 18.2715C21.6567 18.7332 21.2118 19.2115 20.7234 19.7066L18.1844 22.5567H24.4466Z" fill="#4D4D4F"/>
</svg>
