<svg width="36" height="37" viewBox="0 0 36 37" fill="none" xmlns="http://www.w3.org/2000/svg">
<g id="Group 1000001648">
<g id="4">
<g id="Group 1000001643" opacity="0.3">
<g id="Ho&#195;&#160;n th&#195;&#160;nh">
<g id="Ho&#195;&#160;n th&#195;&#160;nh_2">
<path id="Ellipse 706" d="M32.9253 17.9508C32.9759 18.4607 33.0019 18.9778 33.0019 19.5009C33.0019 28.0619 26.0619 35.0019 17.5009 35.0019C8.94 35.0019 2 28.0619 2 19.5009C2 10.94 8.94 4 17.5009 4C20.4316 4 23.1724 4.81332 25.5097 6.22656" stroke="#0A66C2" stroke-width="2.72" stroke-linecap="round"/>
</g>
</g>
<path id="1" d="M19.3508 11.9922V26.6341H16.4606V15.324L12.9883 16.4279V14.1498L19.0397 11.9922H19.3508Z" fill="#0A66C2"/>
</g>
<g id="Group 1000001637">
<g id="Ho&#195;&#160;n th&#195;&#160;nh_3">
<g id="Ho&#195;&#160;n th&#195;&#160;nh_4">
<path id="Ellipse 706_2" d="M33.9195 15.9508C33.9701 16.4607 33.996 16.9778 33.996 17.5009C33.996 26.0619 27.056 33.0019 18.4951 33.0019C9.93414 33.0019 2.99414 26.0619 2.99414 17.5009C2.99414 8.94 9.93414 2 18.4951 2C21.4258 2 24.1665 2.81332 26.5039 4.22656" stroke="#0A66C2" stroke-width="2.72" stroke-linecap="round"/>
</g>
</g>
<path id="1_2" d="M20.3489 9.99219V24.6341H17.4586V13.324L13.9863 14.4279V12.1498L20.0378 9.99219H20.3489Z" fill="#4D4D4F"/>
</g>
</g>
</g>
</svg>
