<svg width="124" height="124" viewBox="0 0 124 124" fill="none" xmlns="http://www.w3.org/2000/svg">
<circle cx="62" cy="62" r="62" fill="white"/>
<path opacity="0.3" d="M81.6476 55.3325V43.0883C81.6476 37.6744 79.4128 32.4807 75.4153 28.6406C71.4178 24.8005 66.0038 22.6602 60.3696 22.6602C54.7353 22.6602 49.29 24.8005 45.2925 28.6406C41.295 32.4807 39.0601 37.6744 39.0601 43.0883V55.3325H30.5301C25.8087 55.3325 22 58.9838 22 63.4849C22 119.796 98.6761 119.796 98.6761 63.4849C98.6761 58.9838 94.8676 55.3325 90.1462 55.3325H51.8081" stroke="#0A66C2" stroke-width="5.52344" stroke-linecap="round" stroke-linejoin="round"/>
<path d="M85.3077 51.6724V39.4282C85.3077 34.0142 83.073 28.8206 79.0755 24.9805C75.078 21.1404 69.664 19 64.0297 19C58.3955 19 52.9502 21.1404 48.9527 24.9805C44.9552 28.8206 42.7202 34.0142 42.7202 39.4282V51.6724H34.1903C29.4689 51.6724 25.6602 55.3236 25.6602 59.8247C25.6602 116.136 102.336 116.136 102.336 59.8247C102.336 55.3236 98.5278 51.6724 93.8063 51.6724H55.4683" stroke="#0A66C2" stroke-width="5.52344" stroke-linecap="round" stroke-linejoin="round"/>
</svg>
