<svg width="74" height="57" viewBox="0 0 74 57" fill="none" xmlns="http://www.w3.org/2000/svg">
<g id="H&#225;&#187;&#151; tr&#225;&#187;&#163; 24/7">
<g id="H&#225;&#187;&#151; tr&#225;&#187;&#163; 24/7_2" opacity="0.3">
<path id="Vector" d="M51.698 42.4154V49.91C51.698 50.5962 51.5535 51.2825 51.2826 51.9145C51.0118 52.5466 50.5964 53.1245 50.0907 53.594C49.5851 54.0636 48.9891 54.4248 48.339 54.6596C47.6889 54.8943 46.9845 54.9846 46.2983 54.9304C38.587 54.0997 31.1827 51.463 24.6814 47.2552C18.6496 43.4267 13.5208 38.2979 9.69224 32.2661C5.46638 25.7648 2.8478 18.3605 2.01707 10.6493C1.96289 9.963 2.03516 9.25867 2.26993 8.59048C2.48664 7.92228 2.8478 7.30827 3.31734 6.78455C3.78688 6.2789 4.34674 5.86356 4.97881 5.57462C5.61088 5.30373 6.29712 5.15918 7.00143 5.15918H14.5141C15.724 5.15918 16.9159 5.57451 17.837 6.36912C18.7399 7.14566 19.3359 8.21124 19.5165 9.38509C19.8596 11.787 20.4555 14.1527 21.3224 16.4101C21.6655 17.2951 21.7378 18.2702 21.5391 19.2093C21.3405 20.1484 20.8709 20.9972 20.2027 21.6834L17.0243 24.8619C20.582 31.1103 25.7649 36.2933 32.0134 39.851L35.1919 36.6725C35.8781 36.0044 36.7269 35.5348 37.666 35.3362C38.6051 35.1375 39.5622 35.2098 40.4652 35.5529C42.7406 36.4197 45.0883 37.0157 47.4902 37.3588C48.7182 37.5394 49.8379 38.1895 50.6144 39.1647C51.3729 40.0857 51.7702 41.2596 51.7522 42.4515L51.698 42.4154Z" stroke="#FF6B00" stroke-width="3.66374" stroke-linecap="round" stroke-linejoin="round"/>
<path id="Vector_2" d="M41.7295 21.5347V23.7019H32.2304V21.8598L36.7271 17.0018C37.1786 16.4962 37.5398 16.0447 37.7926 15.6655C38.0454 15.2682 38.2441 14.925 38.3524 14.618C38.4788 14.311 38.533 14.004 38.533 13.7151C38.533 13.2997 38.4608 12.9205 38.3163 12.6315C38.1718 12.3245 37.9732 12.0897 37.7023 11.9272C37.4314 11.7647 37.1063 11.6744 36.709 11.6744C36.2937 11.6744 35.9325 11.7828 35.6255 11.9814C35.3185 12.1801 35.1018 12.469 34.9392 12.8302C34.7948 13.1914 34.7045 13.6067 34.7045 14.0763H31.9414C31.9414 13.2455 32.1401 12.487 32.5374 11.7827C32.9347 11.0784 33.4945 10.5366 34.1988 10.1213C34.9212 9.70592 35.77 9.48926 36.7632 9.48926C37.7565 9.48926 38.5511 9.65172 39.2193 9.97678C39.8875 10.2838 40.3931 10.7533 40.7543 11.3493C41.0974 11.9453 41.278 12.6496 41.278 13.4623C41.278 13.9318 41.2058 14.3833 41.0613 14.8167C40.9168 15.2502 40.7001 15.6835 40.4292 16.117C40.1583 16.5504 39.8333 16.9839 39.454 17.4173C39.0748 17.8688 38.6414 18.3202 38.1899 18.7897L35.77 21.5167H41.7295V21.5347Z" fill="#FF6B00"/>
<path id="Vector_3" d="M53.1761 18.4711V20.6382H43.1713L43.0449 18.9587L48.8419 9.69434H51.0271L48.6613 13.6855L45.7719 18.4711H53.1761V18.4711ZM51.605 9.69434V23.7083H48.86V9.69434H51.605Z" fill="#FF6B00"/>
<path id="Vector_4" d="M60.7076 9.71094L55.6149 24.9168H53.5742L58.6669 9.71094H60.7076Z" fill="#FF6B00"/>
<path id="Vector_5" d="M71.3457 9.71094V11.2099L65.9821 23.7249H63.0746L68.4382 11.8781H61.5215V9.71094H71.3276H71.3457Z" fill="#FF6B00"/>
</g>
<g id="H&#225;&#187;&#151; tr&#225;&#187;&#163; 24/7_3">
<path id="Vector_6" d="M54.3523 39.7601V47.2547C54.3523 47.941 54.2078 48.6272 53.9369 49.2593C53.6661 49.8913 53.2507 50.4692 52.745 50.9387C52.2394 51.4083 51.6434 51.7695 50.9933 52.0043C50.3431 52.2391 49.6388 52.3293 48.9526 52.2751C41.2413 51.4444 33.837 48.8077 27.3357 44.5999C21.3039 40.7714 16.1751 35.6426 12.3465 29.6108C8.12068 23.1095 5.50209 15.7053 4.67137 7.99398C4.61719 7.30773 4.68945 6.60339 4.92422 5.9352C5.14093 5.26701 5.50209 4.653 5.97163 4.12928C6.44117 3.62362 7.00103 3.20829 7.63311 2.91934C8.26518 2.64845 8.95142 2.50391 9.65573 2.50391H17.1684C18.3783 2.50391 19.5702 2.91924 20.4913 3.71384C21.3942 4.49039 21.9902 5.55596 22.1708 6.72981C22.5139 9.13169 23.1098 11.4975 23.9767 13.7549C24.3198 14.6398 24.3921 15.615 24.1934 16.554C23.9948 17.4931 23.5252 18.3419 22.857 19.0281L19.6786 22.2066C23.2363 28.4551 28.4192 33.638 34.6677 37.1957L37.8462 34.0173C38.5324 33.3491 39.3812 32.8796 40.3203 32.6809C41.2594 32.4823 42.2165 32.5545 43.1195 32.8976C45.3949 33.7644 47.7426 34.3604 50.1445 34.7035C51.3725 34.8841 52.4922 35.5343 53.2687 36.5094C54.0272 37.4305 54.4245 38.6043 54.4065 39.7962L54.3523 39.7601Z" stroke="#FF6B00" stroke-width="3.66374" stroke-linecap="round" stroke-linejoin="round"/>
<path id="Vector_7" d="M44.3838 18.8795V21.0466H34.8847V19.2045L39.3814 14.3466C39.8329 13.8409 40.1941 13.3895 40.4469 13.0102C40.6997 12.6129 40.8984 12.2697 41.0067 11.9627C41.1331 11.6557 41.1873 11.3487 41.1873 11.0598C41.1873 10.6444 41.1151 10.2652 40.9706 9.97627C40.8261 9.66926 40.6275 9.43447 40.3566 9.27194C40.0857 9.1094 39.7606 9.01908 39.3633 9.01908C38.948 9.01908 38.5868 9.12751 38.2798 9.32617C37.9728 9.52482 37.7561 9.81371 37.5935 10.1749C37.4491 10.5361 37.3588 10.9514 37.3588 11.421H34.5957C34.5957 10.5903 34.7944 9.83174 35.1917 9.12743C35.589 8.42312 36.1488 7.88138 36.8531 7.46601C37.5755 7.05065 38.4243 6.83398 39.4175 6.83398C40.4108 6.83398 41.2054 6.99644 41.8736 7.32151C42.5418 7.62852 43.0474 8.09807 43.4086 8.69403C43.7517 9.28998 43.9323 9.99437 43.9323 10.807C43.9323 11.2766 43.8601 11.7281 43.7156 12.1615C43.5711 12.5949 43.3544 13.0283 43.0835 13.4617C42.8126 13.8951 42.4876 14.3286 42.1083 14.762C41.7291 15.2135 41.2957 15.6649 40.8442 16.1344L38.4242 18.8614H44.3838V18.8795Z" fill="#4D4D4F"/>
<path id="Vector_8" d="M55.8304 15.8158V17.9829H45.8256L45.6992 16.3035L51.4962 7.03906H53.6814L51.3156 11.0302L48.4262 15.8158H55.8304V15.8158ZM54.2593 7.03906V21.053H51.5143V7.03906H54.2593Z" fill="#4D4D4F"/>
<path id="Vector_9" d="M63.3619 7.05566L58.2692 22.2615H56.2285L61.3212 7.05566H63.3619Z" fill="#4D4D4F"/>
<path id="Vector_10" d="M74 7.05566V8.55461L68.6364 21.0696H65.7289L71.0925 9.22279H64.1758V7.05566H73.9819H74Z" fill="#4D4D4F"/>
</g>
</g>
</svg>
