<svg width="94" height="63" viewBox="0 0 94 63" fill="none" xmlns="http://www.w3.org/2000/svg">
<g id="V&#225;&#186;&#173;n chuy&#225;&#187;&#131;n mi&#225;&#187;&#133;n ph&#195;&#173;">
<g id="V&#225;&#186;&#173;n chuy&#225;&#187;&#131;n mi&#225;&#187;&#133;n ph&#195;&#173;_2" opacity="0.3">
<path id="Vector" d="M20.1379 50.3899H14.7695V44.3506" stroke="#FF6B00" stroke-width="3.88961" stroke-linecap="round" stroke-linejoin="round"/>
<path id="Vector_2" d="M14.7695 16.4149V5.39062H59.7676V50.3887H43.9886" stroke="#FF6B00" stroke-width="3.88961" stroke-linecap="round" stroke-linejoin="round"/>
<path id="Vector_3" d="M59.748 13.0811H76.0448L89.1013 23.9519V50.3909H86.8581" stroke="#FF6B00" stroke-width="3.88961" stroke-linecap="round" stroke-linejoin="round"/>
<path id="Vector_4" d="M58.4648 50.3877H63.3347" stroke="#FF6B00" stroke-width="3.88961" stroke-linecap="round" stroke-linejoin="round"/>
<path id="Vector_5" d="M67.2266 22.2477V35.5343H80.1872V26.3507L75.3557 22.2285H67.2266V22.2477Z" stroke="#FF6B00" stroke-width="3.88961" stroke-linecap="round" stroke-linejoin="round"/>
<path id="Vector_6" d="M18.4337 22.667H12.0684" stroke="#FF6B00" stroke-width="3.88961" stroke-linecap="round" stroke-linejoin="round"/>
<path id="Vector_7" d="M30.7582 30.7734H7.08008" stroke="#FF6B00" stroke-width="3.88961" stroke-linecap="round" stroke-linejoin="round"/>
<path id="Vector_8" d="M25.7563 39.3242H2.07812" stroke="#FF6B00" stroke-width="3.88961" stroke-linecap="round" stroke-linejoin="round"/>
<path id="Vector_9" d="M31.8537 60.8559C35.5348 60.8559 38.5258 57.865 38.5258 54.1839C38.5258 50.5027 35.5348 47.5117 31.8537 47.5117C28.1726 47.5117 25.1816 50.5027 25.1816 54.1839C25.1816 57.865 28.1726 60.8559 31.8537 60.8559Z" stroke="#FF6B00" stroke-width="3.88961" stroke-linecap="round" stroke-linejoin="round"/>
<path id="Vector_10" d="M75.0119 60.8764C78.693 60.8764 81.684 57.8854 81.684 54.2043C81.684 50.5231 78.693 47.5322 75.0119 47.5322C71.3308 47.5322 68.3398 50.5231 68.3398 54.2043C68.3398 57.8854 71.3308 60.8764 75.0119 60.8764Z" stroke="#FF6B00" stroke-width="3.88961" stroke-linecap="round" stroke-linejoin="round"/>
<path id="Vector_11" d="M27.8274 14.4766V24.3505H25.6992V14.4766H27.8274ZM31.9303 18.6946V20.2859H27.2522V18.6946H31.9303ZM32.4288 14.4766V16.0679H27.2522V14.4766H32.4288Z" fill="#FF6B00"/>
<path id="Vector_12" d="M35.3819 18.621V24.3537H33.3496V17.0297H35.2669L35.3819 18.621ZM37.6826 16.9722L37.6443 18.7744C37.5484 18.7744 37.4334 18.7552 37.28 18.736C37.1458 18.736 37.0116 18.7169 36.8965 18.7169C36.609 18.7169 36.3597 18.7553 36.1488 18.832C35.9379 18.9086 35.7654 19.0045 35.6311 19.1387C35.4969 19.2729 35.3819 19.4454 35.3244 19.6372C35.2669 19.8289 35.2285 20.0589 35.2094 20.3082L34.8067 20.1931C34.8067 19.7138 34.8642 19.292 34.9601 18.8894C35.056 18.4868 35.2094 18.1417 35.3819 17.8349C35.5736 17.5282 35.8037 17.2981 36.0913 17.1448C36.3789 16.9914 36.6856 16.8955 37.0499 16.8955C37.165 16.8955 37.28 16.8955 37.395 16.9147C37.5101 16.9147 37.6059 16.953 37.6826 16.9722V16.9722Z" fill="#FF6B00"/>
<path id="Vector_13" d="M42.0146 24.4835C41.4202 24.4835 40.8834 24.3878 40.4232 24.2152C39.9439 24.0235 39.5605 23.7742 39.2154 23.4483C38.8894 23.1223 38.6402 22.7389 38.4676 22.3171C38.2951 21.8762 38.1992 21.416 38.1992 20.9367V20.6682C38.1992 20.1122 38.2759 19.6137 38.4485 19.1344C38.621 18.6551 38.8511 18.2716 39.1578 17.9265C39.4646 17.5814 39.8481 17.3322 40.289 17.1405C40.73 16.9488 41.2285 16.8721 41.7845 16.8721C42.3405 16.8721 42.8006 16.9488 43.2224 17.1213C43.6442 17.2939 43.9893 17.5431 44.2769 17.8499C44.5645 18.1567 44.7754 18.54 44.9288 18.981C45.0822 19.422 45.1397 19.9013 45.1397 20.4381V21.2435H39.062V19.9396H43.1457V19.7863C43.1457 19.5179 43.0882 19.2687 42.9924 19.0578C42.8965 18.8469 42.7431 18.6743 42.5322 18.5401C42.3213 18.4059 42.0721 18.3484 41.7462 18.3484C41.4777 18.3484 41.2477 18.4058 41.0559 18.5209C40.8642 18.6359 40.7108 18.7893 40.5766 19.0002C40.4616 19.2111 40.3657 19.4412 40.3082 19.7096C40.2507 19.978 40.2315 20.2848 40.2315 20.6108V20.8792C40.2315 21.1668 40.2699 21.4352 40.3657 21.6844C40.4616 21.9337 40.5766 22.1445 40.7492 22.3362C40.9217 22.5088 41.1135 22.6622 41.3435 22.7581C41.5736 22.8539 41.842 22.9115 42.1488 22.9115C42.5131 22.9115 42.8582 22.8347 43.1649 22.7005C43.4909 22.5663 43.7593 22.3555 43.9893 22.0679L44.9863 23.1032C44.8329 23.3332 44.6029 23.5442 44.3344 23.7359C44.066 23.9468 43.7401 24.1002 43.3375 24.2344C42.954 24.3686 42.5131 24.4261 42.0146 24.4261V24.4835Z" fill="#FF6B00"/>
<path id="Vector_14" d="M49.8368 24.4835C49.2425 24.4835 48.7056 24.3878 48.2455 24.2152C47.7662 24.0235 47.3827 23.7742 47.0376 23.4483C46.7117 23.1223 46.4625 22.7389 46.2899 22.3171C46.1173 21.8762 46.0215 21.416 46.0215 20.9367V20.6682C46.0215 20.1122 46.0982 19.6137 46.2707 19.1344C46.4433 18.6551 46.6734 18.2716 46.9801 17.9265C47.2869 17.5814 47.6703 17.3322 48.1113 17.1405C48.5523 16.9488 49.0508 16.8721 49.6068 16.8721C50.1628 16.8721 50.6229 16.9488 51.0447 17.1213C51.4665 17.2939 51.8116 17.5431 52.0992 17.8499C52.3868 18.1567 52.5977 18.54 52.7511 18.981C52.9044 19.422 52.962 19.9013 52.962 20.4381V21.2435H46.8842V19.9396H50.968V19.7863C50.968 19.5179 50.9105 19.2687 50.8146 19.0578C50.7188 18.8469 50.5654 18.6743 50.3545 18.5401C50.1436 18.4059 49.8943 18.3484 49.5684 18.3484C49.3 18.3484 49.0699 18.4058 48.8782 18.5209C48.6865 18.6359 48.5331 18.7893 48.3989 19.0002C48.2839 19.2111 48.188 19.4412 48.1305 19.7096C48.073 19.978 48.0538 20.2848 48.0538 20.6108V20.8792C48.0538 21.1668 48.0921 21.4352 48.188 21.6844C48.2838 21.9337 48.3989 22.1445 48.5714 22.3362C48.744 22.5088 48.9357 22.6622 49.1658 22.7581C49.3959 22.8539 49.6643 22.9115 49.971 22.9115C50.3353 22.9115 50.6804 22.8347 50.9872 22.7005C51.3131 22.5663 51.5815 22.3555 51.8116 22.0679L52.8086 23.1032C52.6552 23.3332 52.4251 23.5442 52.1567 23.7359C51.8883 23.9468 51.5624 24.1002 51.1597 24.2344C50.7763 24.3686 50.3353 24.4261 49.8368 24.4261V24.4835Z" fill="#FF6B00"/>
</g>
<g id="V&#225;&#186;&#173;n chuy&#225;&#187;&#131;n mi&#225;&#187;&#133;n ph&#195;&#173;_3">
<path id="Vector_15" d="M22.9562 47.5715H17.5879V41.5322" stroke="#FF6B00" stroke-width="3.88961" stroke-linecap="round" stroke-linejoin="round"/>
<path id="Vector_16" d="M17.5879 13.5965V2.57227H62.586V47.5703H46.8069" stroke="#FF6B00" stroke-width="3.88961" stroke-linecap="round" stroke-linejoin="round"/>
<path id="Vector_17" d="M62.5664 10.2627H78.8631L91.9197 21.1335V47.5725H89.6765" stroke="#FF6B00" stroke-width="3.88961" stroke-linecap="round" stroke-linejoin="round"/>
<path id="Vector_18" d="M61.2832 47.5693H66.153" stroke="#FF6B00" stroke-width="3.88961" stroke-linecap="round" stroke-linejoin="round"/>
<path id="Vector_19" d="M70.0449 19.4293V32.7159H83.0056V23.5323L78.1741 19.4102H70.0449V19.4293Z" stroke="#FF6B00" stroke-width="3.88961" stroke-linecap="round" stroke-linejoin="round"/>
<path id="Vector_20" d="M21.252 19.8486H14.8867" stroke="#4D4D4F" stroke-width="3.88961" stroke-linecap="round" stroke-linejoin="round"/>
<path id="Vector_21" d="M33.5766 27.9551H9.89844" stroke="#4D4D4F" stroke-width="3.88961" stroke-linecap="round" stroke-linejoin="round"/>
<path id="Vector_22" d="M28.5746 36.5059H4.89648" stroke="#4D4D4F" stroke-width="3.88961" stroke-linecap="round" stroke-linejoin="round"/>
<path id="Vector_23" d="M34.6721 58.0375C38.3532 58.0375 41.3441 55.0466 41.3441 51.3655C41.3441 47.6844 38.3532 44.6934 34.6721 44.6934C30.9909 44.6934 28 47.6844 28 51.3655C28 55.0466 30.9909 58.0375 34.6721 58.0375Z" stroke="#4D4D4F" stroke-width="3.88961" stroke-linecap="round" stroke-linejoin="round"/>
<path id="Vector_24" d="M77.8303 58.058C81.5114 58.058 84.5023 55.067 84.5023 51.3859C84.5023 47.7048 81.5114 44.7139 77.8303 44.7139C74.1491 44.7139 71.1582 47.7048 71.1582 51.3859C71.1582 55.067 74.1491 58.058 77.8303 58.058Z" stroke="#4D4D4F" stroke-width="3.88961" stroke-linecap="round" stroke-linejoin="round"/>
<path id="Vector_25" d="M30.6457 11.6582V21.5321H28.5176V11.6582H30.6457ZM34.7487 15.8762V17.4676H30.0706V15.8762H34.7487ZM35.2472 11.6582V13.2496H30.0706V11.6582H35.2472Z" fill="#4D4D4F"/>
<path id="Vector_26" d="M38.2003 15.8026V21.5353H36.168V14.2114H38.0852L38.2003 15.8026ZM40.501 14.1538L40.4626 15.956C40.3668 15.956 40.2517 15.9368 40.0984 15.9176C39.9641 15.9176 39.8299 15.8986 39.7149 15.8986C39.4273 15.8986 39.1781 15.9369 38.9672 16.0136C38.7563 16.0903 38.5837 16.1861 38.4495 16.3203C38.3153 16.4545 38.2003 16.6271 38.1427 16.8188C38.0852 17.0105 38.0469 17.2406 38.0277 17.4898L37.6251 17.3748C37.6251 16.8955 37.6826 16.4737 37.7785 16.0711C37.8743 15.6684 38.0277 15.3233 38.2003 15.0166C38.392 14.7098 38.6221 14.4798 38.9097 14.3264C39.1972 14.173 39.504 14.0771 39.8683 14.0771C39.9833 14.0771 40.0984 14.0772 40.2134 14.0963C40.3284 14.0963 40.4243 14.1346 40.501 14.1538V14.1538Z" fill="#4D4D4F"/>
<path id="Vector_27" d="M44.831 21.6652C44.2366 21.6652 43.6998 21.5694 43.2396 21.3968C42.7603 21.2051 42.3769 20.9558 42.0318 20.6299C41.7058 20.304 41.4566 19.9206 41.284 19.4988C41.1115 19.0578 41.0156 18.5976 41.0156 18.1183V17.8498C41.0156 17.2938 41.0923 16.7954 41.2649 16.3161C41.4374 15.8367 41.6675 15.4533 41.9743 15.1082C42.281 14.7631 42.6645 14.5139 43.1054 14.3222C43.5464 14.1304 44.0449 14.0537 44.6009 14.0537C45.1569 14.0537 45.617 14.1304 46.0388 14.303C46.4606 14.4755 46.8057 14.7248 47.0933 15.0315C47.3809 15.3383 47.5918 15.7217 47.7452 16.1626C47.8986 16.6036 47.9561 17.083 47.9561 17.6198V18.4251H41.8784V17.1213H45.9622V16.968C45.9622 16.6996 45.9046 16.4503 45.8088 16.2394C45.7129 16.0285 45.5595 15.8559 45.3486 15.7217C45.1377 15.5875 44.8885 15.53 44.5626 15.53C44.2941 15.53 44.0641 15.5875 43.8723 15.7025C43.6806 15.8176 43.5272 15.9709 43.393 16.1818C43.278 16.3927 43.1821 16.6228 43.1246 16.8912C43.0671 17.1596 43.0479 17.4665 43.0479 17.7924V18.0608C43.0479 18.3484 43.0863 18.6168 43.1821 18.8661C43.278 19.1153 43.393 19.3261 43.5656 19.5179C43.7381 19.6904 43.9299 19.8438 44.1599 19.9397C44.39 20.0356 44.6584 20.0931 44.9652 20.0931C45.3295 20.0931 45.6746 20.0163 45.9813 19.8821C46.3073 19.7479 46.5757 19.5371 46.8058 19.2495L47.8027 20.2848C47.6493 20.5149 47.4193 20.7258 47.1509 20.9175C46.8824 21.1284 46.5565 21.2818 46.1539 21.416C45.7704 21.5502 45.3295 21.6077 44.831 21.6077V21.6652Z" fill="#4D4D4F"/>
<path id="Vector_28" d="M52.6552 21.6652C52.0608 21.6652 51.524 21.5694 51.0639 21.3968C50.5845 21.2051 50.2011 20.9558 49.856 20.6299C49.5301 20.304 49.2808 19.9206 49.1083 19.4988C48.9357 19.0578 48.8398 18.5976 48.8398 18.1183V17.8498C48.8398 17.2938 48.9165 16.7954 49.0891 16.3161C49.2616 15.8367 49.4917 15.4533 49.7985 15.1082C50.1052 14.7631 50.4887 14.5139 50.9297 14.3222C51.3706 14.1304 51.8691 14.0537 52.4251 14.0537C52.9811 14.0537 53.4413 14.1304 53.8631 14.303C54.2849 14.4755 54.63 14.7248 54.9176 15.0315C55.2051 15.3383 55.416 15.7217 55.5694 16.1626C55.7228 16.6036 55.7803 17.083 55.7803 17.6198V18.4251H49.7026V17.1213H53.7864V16.968C53.7864 16.6996 53.7289 16.4503 53.633 16.2394C53.5371 16.0285 53.3837 15.8559 53.1729 15.7217C52.962 15.5875 52.7127 15.53 52.3868 15.53C52.1184 15.53 51.8883 15.5875 51.6966 15.7025C51.5048 15.8176 51.3515 15.9709 51.2172 16.1818C51.1022 16.3927 51.0063 16.6228 50.9488 16.8912C50.8913 17.1596 50.8721 17.4665 50.8721 17.7924V18.0608C50.8721 18.3484 50.9105 18.6168 51.0063 18.8661C51.1022 19.1153 51.2172 19.3261 51.3898 19.5179C51.5624 19.6904 51.7541 19.8438 51.9841 19.9397C52.2142 20.0356 52.4826 20.0931 52.7894 20.0931C53.1537 20.0931 53.4988 20.0163 53.8055 19.8821C54.1315 19.7479 54.3999 19.5371 54.63 19.2495L55.6269 20.2848C55.4736 20.5149 55.2435 20.7258 54.9751 20.9175C54.7067 21.1284 54.3807 21.2818 53.9781 21.416C53.5946 21.5502 53.1537 21.6077 52.6552 21.6077V21.6652Z" fill="#4D4D4F"/>
</g>
</g>
</svg>
