<svg width="72" height="76" viewBox="0 0 72 76" fill="none" xmlns="http://www.w3.org/2000/svg">
<g id="S&#225;&#186;&#163;n ph&#225;&#186;&#169;m uy t&#195;&#173;n">
<g id="S&#225;&#186;&#163;n ph&#225;&#186;&#169;m uy t&#195;&#173;n_2" opacity="0.3">
<path id="Vector" d="M56.4717 47.875L65.9095 63.1884C66.2984 63.8435 65.8481 64.6624 65.0906 64.6624H57.0449C56.6969 64.6624 56.3898 64.8466 56.2056 65.1332L51.7016 72.749C51.3331 73.3836 50.4324 73.3836 50.0434 72.749L46.3379 66.7914" stroke="#FF6B00" stroke-width="4.1533" stroke-linecap="round"/>
<path id="Vector_2" d="M12.5179 47.875L3.08017 63.1884C2.6912 63.8435 3.14159 64.6624 3.89907 64.6624H11.9447C12.2927 64.6624 12.5998 64.8466 12.7841 65.1332L17.288 72.749C17.6565 73.3836 18.5573 73.3836 18.9463 72.749L28.0155 58.1727" stroke="#FF6B00" stroke-width="4.1533" stroke-linecap="round"/>
<path id="Vector_3" d="M27.0337 35.5994L20.0117 28.7617L29.7156 27.3491L34.0558 18.5664L38.3959 27.3491L48.0998 28.7617L41.0778 35.5994L42.736 45.2624L34.0762 40.697L25.3959 45.2624" stroke="#FF6B00" stroke-width="4.1533" stroke-linecap="round" stroke-linejoin="round"/>
<path id="Vector_4" d="M34.0349 58.5855C48.775 58.5855 60.7104 46.6296 60.7104 31.9099C60.7104 17.1903 48.7545 5.23438 34.0349 5.23438C19.3152 5.23438 7.35938 17.1903 7.35938 31.9099C7.35938 46.6296 19.3152 58.5855 34.0349 58.5855Z" stroke="#FF6B00" stroke-width="4.1533" stroke-linecap="round" stroke-linejoin="round"/>
</g>
<g id="S&#225;&#186;&#163;n ph&#225;&#186;&#169;m uy t&#195;&#173;n_3">
<path id="Vector_5" d="M59.4815 44.8652L68.9192 60.1786C69.3082 60.8338 68.8578 61.6526 68.1003 61.6526H60.0547C59.7067 61.6526 59.3996 61.8368 59.2153 62.1234L54.7114 69.7392C54.3429 70.3739 53.4421 70.3739 53.0532 69.7392L49.3477 63.7817" stroke="#4D4D4F" stroke-width="4.1533" stroke-linecap="round"/>
<path id="Vector_6" d="M15.5277 44.8652L6.08994 60.1786C5.70096 60.8338 6.15136 61.6526 6.90883 61.6526H14.9545C15.3025 61.6526 15.6096 61.8368 15.7938 62.1234L20.2978 69.7392C20.6663 70.3739 21.567 70.3739 21.956 69.7392L31.0253 55.1629" stroke="#4D4D4F" stroke-width="4.1533" stroke-linecap="round"/>
<path id="Vector_7" d="M30.0435 32.5897L23.0215 25.752L32.7254 24.3394L37.0655 15.5566L41.4057 24.3394L51.1096 25.752L44.0875 32.5897L45.7458 42.2527L37.086 37.6873L28.4057 42.2527" stroke="#4D4D4F" stroke-width="4.1533" stroke-linecap="round" stroke-linejoin="round"/>
<path id="Vector_8" d="M37.0446 55.5757C51.7847 55.5757 63.7201 43.6198 63.7201 28.9002C63.7201 14.1805 51.7643 2.22461 37.0446 2.22461C22.325 2.22461 10.3691 14.1805 10.3691 28.9002C10.3691 43.6198 22.325 55.5757 37.0446 55.5757Z" stroke="#FF6B00" stroke-width="4.1533" stroke-linecap="round" stroke-linejoin="round"/>
</g>
</g>
</svg>
