<svg width="22" height="10" viewBox="0 0 22 10" fill="none" xmlns="http://www.w3.org/2000/svg">
<g opacity="0.3">
<path d="M1 2.55957C1 2.55957 4.27548 6.16974 10.3585 6.16974C16.4416 6.16974 19.717 2.55957 19.717 2.55957" stroke="#6D6E71" stroke-width="1.54206" stroke-linecap="round" stroke-linejoin="round"/>
<path d="M2.8717 4.04395L1 6.16943M19.717 6.16943L17.8491 4.04665M7.47048 5.88062L6.61511 8.42579M13.225 5.88784L14.1019 8.42579" stroke="#6D6E71" stroke-width="1.54206" stroke-linecap="round" stroke-linejoin="round"/>
</g>
<path d="M1.83789 1.7207C1.83789 1.7207 5.11337 5.33088 11.1964 5.33088C17.2794 5.33088 20.5549 1.7207 20.5549 1.7207" stroke="#6D6E71" stroke-width="1.54206" stroke-linecap="round" stroke-linejoin="round"/>
<path d="M3.70959 3.20508L1.83789 5.33057M20.5549 5.33057L18.687 3.20779M8.30837 5.04175L7.453 7.58693M14.0629 5.04897L14.9398 7.58693" stroke="#6D6E71" stroke-width="1.54206" stroke-linecap="round" stroke-linejoin="round"/>
</svg>
