<svg width="22" height="17" viewBox="0 0 22 17" fill="none" xmlns="http://www.w3.org/2000/svg">
<g opacity="0.3">
<path d="M10.0569 2.19336C8.01937 2.19523 6.02196 2.75993 4.28507 3.82516C2.54818 4.89039 1.13931 6.41474 0.213939 8.23C0.0733807 8.50045 0 8.80076 0 9.10555C0 9.41034 0.0733807 9.71065 0.213939 9.98109C1.14203 11.7927 2.55206 13.313 4.28876 14.3746C6.02545 15.4362 8.02143 15.9979 10.0569 15.9979C12.0924 15.9979 14.0883 15.4362 15.825 14.3746C17.5617 13.313 18.9718 11.7927 19.8999 9.98109C20.0404 9.71065 20.1138 9.41034 20.1138 9.10555C20.1138 8.80076 20.0404 8.50045 19.8999 8.23C18.9745 6.41474 17.5656 4.89039 15.8287 3.82516C14.0918 2.75993 12.0944 2.19523 10.0569 2.19336V2.19336Z" stroke="#6D6E71" stroke-width="1.27861" stroke-linecap="round" stroke-linejoin="round"/>
<path d="M10.0558 12.3303C11.8373 12.3303 13.2815 10.8861 13.2815 9.10459C13.2815 7.3231 11.8373 5.87891 10.0558 5.87891C8.27427 5.87891 6.83008 7.3231 6.83008 9.10459C6.83008 10.8861 8.27427 12.3303 10.0558 12.3303Z" stroke="#6D6E71" stroke-width="1.27861" stroke-linecap="round" stroke-linejoin="round"/>
</g>
<path d="M10.8967 1.35449C8.85921 1.35636 6.86181 1.92106 5.12491 2.98629C3.38802 4.05152 1.97916 5.57587 1.05378 7.39114C0.913224 7.66158 0.839844 7.96189 0.839844 8.26668C0.839844 8.57147 0.913224 8.87178 1.05378 9.14223C1.98187 10.9538 3.39191 12.4741 5.1286 13.5357C6.86529 14.5973 8.86128 15.159 10.8967 15.159C12.9322 15.159 14.9282 14.5973 16.6649 13.5357C18.4016 12.4741 19.8116 10.9538 20.7397 9.14223C20.8803 8.87178 20.9536 8.57147 20.9536 8.26668C20.9536 7.96189 20.8803 7.66158 20.7397 7.39114C19.8143 5.57587 18.4055 4.05152 16.6686 2.98629C14.9317 1.92106 12.9343 1.35636 10.8967 1.35449V1.35449Z" stroke="#6D6E71" stroke-width="1.27861" stroke-linecap="round" stroke-linejoin="round"/>
<path d="M10.8956 11.4914C12.6771 11.4914 14.1213 10.0472 14.1213 8.26573C14.1213 6.48423 12.6771 5.04004 10.8956 5.04004C9.11411 5.04004 7.66992 6.48423 7.66992 8.26573C7.66992 10.0472 9.11411 11.4914 10.8956 11.4914Z" stroke="#6D6E71" stroke-width="1.27861" stroke-linecap="round" stroke-linejoin="round"/>
</svg>
