<svg width="85" height="91" viewBox="0 0 85 91" fill="none" xmlns="http://www.w3.org/2000/svg">
<g id="H&#225;&#187;&#151; tr&#225;&#187;&#163; &#196;&#145;&#225;&#187;&#157;i s&#225;&#187;&#145;ng v&#195;&#160; ph&#225;&#187;&#165;c h&#225;&#187;&#147;i ch&#225;&#187;&#169;c n&#196;&#131;ng">
<g id="Group 1000001677">
<g id="Group 1000001659" opacity="0.3">
<g id="Group">
<path id="Vector" d="M26.0352 61.3604V85.5616" stroke="#FF6B00" stroke-width="4.2129" stroke-linecap="round" stroke-linejoin="round"/>
<path id="Vector_2" d="M38.1397 73.457H13.9385" stroke="#FF6B00" stroke-width="4.2129" stroke-linecap="round" stroke-linejoin="round"/>
<path id="Vector_3" d="M13.9377 72.068V46.8135C13.9377 44.1423 11.7778 41.9824 9.10661 41.9824H3.90918" stroke="#FF6B00" stroke-width="4.2129" stroke-linecap="round" stroke-linejoin="round"/>
<path id="Vector_4" d="M21.7451 61.6962V36.4112C21.7451 33.9384 23.6226 31.9541 25.9504 31.9541C28.2782 31.9541 30.1556 33.9461 30.1556 36.4112V61.6962" stroke="#FF6B00" stroke-width="4.2129" stroke-linecap="round" stroke-linejoin="round"/>
<path id="Vector_5" d="M50.587 73.8085V70.0307C50.587 65.4285 46.8626 61.7041 42.2604 61.7041H30.1865" stroke="#FF6B00" stroke-width="4.2129" stroke-linecap="round" stroke-linejoin="round"/>
<path id="Vector_6" d="M50.2735 67.749H36.7266" stroke="#FF6B00" stroke-width="4.2129" stroke-linecap="round" stroke-linejoin="round"/>
<path id="Vector_7" d="M26.0429 85.5614C32.721 85.5614 38.1474 80.135 38.1474 73.457C38.1474 66.7789 32.721 61.3525 26.0429 61.3525C19.3649 61.3525 13.9385 66.7789 13.9385 73.457C13.9385 80.135 19.3649 85.5614 26.0429 85.5614V85.5614Z" stroke="#FF6B00" stroke-width="4.2129" stroke-linecap="round" stroke-linejoin="round"/>
<path id="Vector_8" d="M50.5876 85.5618C53.8236 85.5618 56.4643 82.9211 56.4643 79.6775C56.4643 76.4338 53.8236 73.8008 50.5876 73.8008C47.3516 73.8008 44.7109 76.4415 44.7109 79.6775C44.7109 82.9135 47.3516 85.5618 50.5876 85.5618Z" stroke="#FF6B00" stroke-width="4.2129" stroke-linecap="round" stroke-linejoin="round"/>
</g>
<path id="Vector_9" d="M8.18457 32.1905C13.8705 18.7428 27.1884 9.30957 42.7044 9.30957C63.3949 9.30957 80.1625 26.0772 80.1625 46.7677C80.1625 58.6203 74.6598 69.1907 66.0585 76.0519" stroke="#FF6B00" stroke-width="4.2129" stroke-linecap="round" stroke-linejoin="round"/>
</g>
<g id="Group 1000001658">
<g id="Group_2">
<path id="Vector_10" d="M28.3252 59.0713V83.2725" stroke="#4D4D4F" stroke-width="4.2129" stroke-linecap="round" stroke-linejoin="round"/>
<path id="Vector_11" d="M40.4298 71.168H16.2285" stroke="#4D4D4F" stroke-width="4.2129" stroke-linecap="round" stroke-linejoin="round"/>
<path id="Vector_12" d="M16.2277 69.7789V44.5245C16.2277 41.8532 14.0679 39.6934 11.3967 39.6934H6.19922" stroke="#4D4D4F" stroke-width="4.2129" stroke-linecap="round" stroke-linejoin="round"/>
<path id="Vector_13" d="M24.0352 59.4072V34.1222C24.0352 31.6494 25.9126 29.665 28.2404 29.665C30.5682 29.665 32.4457 31.657 32.4457 34.1222V59.4072" stroke="#4D4D4F" stroke-width="4.2129" stroke-linecap="round" stroke-linejoin="round"/>
<path id="Vector_14" d="M52.8771 71.5195V67.7416C52.8771 63.1395 49.1526 59.415 44.5505 59.415H32.4766" stroke="#4D4D4F" stroke-width="4.2129" stroke-linecap="round" stroke-linejoin="round"/>
<path id="Vector_15" d="M52.5645 65.46H39.0176" stroke="#4D4D4F" stroke-width="4.2129" stroke-linecap="round" stroke-linejoin="round"/>
<path id="Vector_16" d="M28.333 83.2724C35.011 83.2724 40.4374 77.846 40.4374 71.1679C40.4374 64.4899 35.011 59.0635 28.333 59.0635C21.6549 59.0635 16.2285 64.4899 16.2285 71.1679C16.2285 77.846 21.6549 83.2724 28.333 83.2724V83.2724Z" stroke="#FF6B00" stroke-width="4.2129" stroke-linecap="round" stroke-linejoin="round"/>
<path id="Vector_17" d="M52.8777 83.2727C56.1137 83.2727 58.7543 80.632 58.7543 77.3884C58.7543 74.1448 56.1137 71.5117 52.8777 71.5117C49.6417 71.5117 47.001 74.1524 47.001 77.3884C47.001 80.6244 49.6417 83.2727 52.8777 83.2727Z" stroke="#FF6B00" stroke-width="4.2129" stroke-linecap="round" stroke-linejoin="round"/>
</g>
<path id="Vector_18" d="M10.4746 29.9014C16.1605 16.4537 29.4784 7.02051 44.9944 7.02051C65.6849 7.02051 82.4526 23.7881 82.4526 44.4787C82.4526 56.3312 76.9498 66.9016 68.3485 73.7629" stroke="#FF6B00" stroke-width="4.2129" stroke-linecap="round" stroke-linejoin="round"/>
</g>
</g>
</g>
</svg>
