<svg width="347" height="96" viewBox="0 0 347 96" fill="none" xmlns="http://www.w3.org/2000/svg">
<path d="M248.84 31.4521C249.557 33.5575 247.407 35.6539 242.569 37.4816C237.542 39.3541 229.936 40.8234 220.717 41.6656C210.856 42.5253 200.945 42.669 191.062 42.0956C181.207 41.5312 172.445 40.3038 165.977 38.5657C159.642 36.8903 155.826 34.8476 154.903 32.7333C153.98 30.6189 155.871 28.6568 160.108 26.8919C164.346 25.1269 170.429 23.783 177.955 22.8423C186.053 21.8842 194.205 21.4473 202.36 21.5343C208.031 21.5791 213.675 21.8478 218.979 22.3316C223.878 22.7523 228.751 23.4432 233.574 24.4012C237.202 25.0807 240.748 26.1408 244.154 27.5638C246.842 28.7823 248.464 30.0993 248.903 31.4521" fill="#0A66C2"/>
<path d="M247.804 12.1574C259.019 13.2348 270.17 14.8915 281.213 17.1208C291.57 19.28 300.386 21.8602 307.069 24.754C314.12 27.8002 318.716 31.1599 320.4 34.6539C322.192 38.3631 320.633 42.1528 315.554 45.7813C310.178 49.6247 301.04 53.1726 288.479 56.147C275.381 59.2469 259.102 61.6032 240.753 62.9918C221.346 64.4215 201.874 64.7595 182.429 64.0042C164.511 63.4043 146.649 61.6657 128.952 58.799C128.145 58.6466 127.411 58.4764 126.766 58.2883C125.072 57.7328 124.248 57.0161 124.445 56.2725C124.642 55.5289 125.807 54.8032 127.733 54.2298C130.074 53.5973 132.478 53.2277 134.9 53.1278C137.476 52.9783 140.059 53.0803 142.614 53.4324C162.119 56.5771 185.69 58.0912 209.584 57.697C233.478 57.3028 255.151 55.0092 271.654 51.3628C287.323 47.8687 296.954 43.3623 299.749 38.5691C302.348 34.0895 298.898 29.6547 290.432 25.7127C282.512 22.0305 270.426 18.9127 255.823 16.6549C240.361 14.3764 224.771 13.0688 209.145 12.7398C193.022 12.3178 176.888 12.8054 160.819 14.2001C145.15 15.6157 131.165 17.9451 120.503 20.9822C119.65 21.2142 118.782 21.3878 117.905 21.5019C116.884 21.6452 115.773 21.7438 114.608 21.8065C113.443 21.8692 112.27 21.8782 111.141 21.8513C110.012 21.8244 108.973 21.7348 108.059 21.6183C107.308 21.5338 106.567 21.3778 105.846 21.1525C105.446 21.0722 105.087 20.8533 104.833 20.5343C104.601 20.0863 105.29 19.6384 106.751 19.2262C116.747 16.6256 126.901 14.6715 137.149 13.3759C148.259 11.9335 160.38 10.8494 172.923 10.276C185.305 9.69366 198.09 9.55031 210.731 9.85493C223.372 10.1595 236.014 10.939 247.84 12.1395" fill="#0A66C2"/>
<path d="M331.646 14.0446C332.094 14.1431 332.631 14.2327 333.231 14.3044C333.832 14.3761 334.468 14.4298 335.113 14.4567C336.251 14.5153 337.393 14.4824 338.526 14.3582C338.874 14.3176 339.217 14.2395 339.548 14.1252C339.772 14.0356 339.879 13.9281 339.861 13.8117C339.843 13.6952 339.727 13.5877 339.476 13.4802C339.138 13.3378 338.787 13.2297 338.428 13.1576C315.868 8.248 289.233 4.62849 261.28 2.47828C234.591 0.426629 206.351 -0.308024 178.909 0.3012C152.191 0.818675 125.521 2.80164 99.0204 6.24114C72.5371 9.82481 49.073 14.9136 31.6742 21.2657C11.973 28.4599 0.236446 37.1593 0.00350734 46.4589C-0.265268 57.2637 14.9116 68.2566 46.2419 77.4129C81.4783 87.707 132.492 94.3816 189.938 95.5821C248.173 96.8006 303.129 92.1956 343.965 83.111C344.383 83.0254 344.791 82.8963 345.183 82.7257C345.864 82.4121 346.195 82.0359 346.16 81.6237C346.124 81.2116 345.721 80.7278 344.995 80.3694C344.058 79.8809 343.061 79.5194 342.029 79.2943C340.722 78.9838 339.392 78.7771 338.051 78.6762C336.161 78.5125 334.257 78.5999 332.389 78.936C294.438 86.9992 243.998 91.1205 190.834 90.0454C138.315 88.9792 91.3245 83.0393 58.3278 73.7934C28.7356 65.4972 13.729 55.445 13.0391 45.4645C12.4478 36.783 22.7509 28.6033 40.8126 21.7853C51.6442 17.691 65.1905 14.1073 80.5824 11.1687C95.1053 8.38239 111.295 6.16947 128.362 4.57473C144.865 3.02479 162.272 2.03928 179.886 1.64508C197.347 1.25087 215.122 1.43006 232.521 2.18263C250.242 2.9352 267.695 4.297 284.135 6.21426C300.087 8.01274 315.936 10.6293 331.619 14.0535" fill="#0A66C2"/>
</svg>
