<svg width="18" height="19" viewBox="0 0 18 19" fill="none" xmlns="http://www.w3.org/2000/svg">
<g opacity="0.3">
<path d="M16.5701 9.2866C16.5948 9.53505 16.6074 9.78704 16.6074 10.042C16.6074 14.2138 13.2255 17.5957 9.05369 17.5957C4.8819 17.5957 1.5 14.2138 1.5 10.042C1.5 5.87018 4.8819 2.48828 9.05369 2.48828C10.4818 2.48828 11.8174 2.88462 12.9564 3.57329" stroke="#0A66C2" stroke-width="1.32369" stroke-linecap="round"/>
<path d="M5.78125 8.34045L8.97818 11.8061L16.6082 5.00781" stroke="#0A66C2" stroke-width="1.32369" stroke-linecap="round" stroke-linejoin="round"/>
</g>
<path d="M17.2888 8.32567C17.3135 8.57411 17.3261 8.8261 17.3261 9.08104C17.3261 13.2528 13.9442 16.6347 9.77244 16.6347C5.60065 16.6347 2.21875 13.2528 2.21875 9.08104C2.21875 4.90925 5.60065 1.52734 9.77244 1.52734C11.2006 1.52734 12.5362 1.92368 13.6752 2.61236" stroke="#0A66C2" stroke-width="1.32369" stroke-linecap="round"/>
<path d="M6.5 7.37951L9.69693 10.8452L17.327 4.04688" stroke="#4D4D4F" stroke-width="1.32369" stroke-linecap="round" stroke-linejoin="round"/>
</svg>
