<svg width="1920" height="358" viewBox="0 0 1920 358" fill="none" xmlns="http://www.w3.org/2000/svg">
<g clip-path="url(#clip0_337_425889)">
<rect width="1920" height="358" fill="#0A66C2"/>
<g style="mix-blend-mode:color-dodge" opacity="0.15">
<path d="M1966.32 -33.0856C1965.03 1.6859 1953.45 35.2943 1933.04 63.4875C1912.64 91.6807 1884.32 113.192 1851.67 125.299C1819.02 137.407 1783.51 139.567 1749.64 131.505C1715.76 123.444 1685.04 105.524 1661.36 80.013C1637.68 54.5016 1622.1 22.5451 1616.6 -11.8135C1611.1 -46.172 1615.93 -81.3887 1630.46 -113.008C1645 -144.627 1668.59 -171.228 1698.26 -189.445C1727.93 -207.662 1762.34 -216.677 1797.14 -215.348C1820.24 -214.527 1842.95 -209.155 1863.97 -199.541C1884.99 -189.928 1903.9 -176.262 1919.62 -159.328C1935.34 -142.393 1947.55 -122.524 1955.57 -100.86C1963.58 -79.1964 1967.24 -56.1643 1966.32 -33.0856Z" fill="#FF6B00"/>
<path d="M2005.05 -421.083C2055.19 -391.882 2099.08 -353.1 2134.22 -306.95C2169.36 -260.8 2195.06 -208.186 2209.84 -152.112C2224.63 -96.0387 2228.22 -37.6036 2220.41 19.8566C2212.6 77.3169 2193.54 132.677 2164.31 182.776C2135.09 232.875 2096.28 276.732 2050.09 311.843C2003.9 346.954 1951.25 372.631 1895.13 387.408C1839.01 402.186 1780.53 405.774 1723.02 397.968C1665.51 390.162 1610.11 371.115 1559.97 341.914C1557.34 340.289 1554.89 338.379 1552.67 336.218C1546.77 329.983 1543.28 321.842 1542.85 313.266C1542.43 304.69 1545.08 296.244 1550.34 289.451C1555.59 282.658 1563.11 277.967 1571.52 276.224C1579.94 274.481 1588.7 275.8 1596.22 279.945C1659.51 316.792 1732.31 334.057 1805.42 329.558C1878.52 325.058 1948.65 298.996 2006.93 254.667C2065.21 210.339 2109.03 149.735 2132.84 80.5224C2156.64 11.3095 2159.37 -63.4035 2140.68 -134.166C2121.98 -204.929 2082.71 -268.563 2027.81 -317.019C1972.92 -365.475 1904.88 -396.576 1832.3 -406.389C1759.71 -416.201 1685.85 -404.284 1620.04 -372.146C1554.24 -340.007 1499.45 -289.089 1462.61 -225.834C1460.23 -221.78 1457.07 -218.234 1453.32 -215.399C1449.57 -212.564 1445.29 -210.495 1440.74 -209.31C1436.19 -208.126 1431.45 -207.848 1426.79 -208.495C1422.13 -209.141 1417.64 -210.697 1413.59 -213.076C1409.53 -215.454 1405.98 -218.608 1403.14 -222.357C1400.31 -226.106 1398.23 -230.377 1397.05 -234.925C1394.65 -244.111 1396.01 -253.872 1400.82 -262.059C1429.99 -312.198 1468.76 -356.1 1514.93 -391.255C1561.09 -426.41 1613.73 -452.128 1669.85 -466.94C1725.97 -481.751 1784.46 -485.365 1841.97 -477.575C1899.49 -469.785 1954.9 -450.743 2005.05 -421.539" fill="#FF6B00"/>
<path d="M2366.93 -376.654C2368.25 -374.287 2370.05 -372.216 2372.21 -370.571C2374.36 -368.925 2376.83 -367.739 2379.47 -367.086C2384.74 -365.766 2390.31 -366.585 2394.97 -369.364C2397.28 -370.731 2399.3 -372.542 2400.9 -374.693C2402.51 -376.844 2403.67 -379.292 2404.32 -381.895C2405 -384.448 2405.17 -387.112 2404.82 -389.732C2404.47 -392.351 2403.6 -394.875 2402.27 -397.159C2331.49 -518.575 2226.27 -616.291 2099.91 -677.95C1973.56 -739.608 1831.73 -762.439 1692.39 -743.554C1553.04 -724.67 1422.43 -664.919 1317.07 -571.857C1211.72 -478.796 1136.35 -356.606 1100.49 -220.74C1064.64 -84.8739 1069.92 58.5639 1115.66 191.432C1161.4 324.3 1245.55 440.631 1357.46 525.71C1469.37 610.789 1604.02 660.795 1744.38 669.404C1884.74 678.013 2024.5 644.837 2145.99 574.074C2147.49 573.197 2148.87 572.124 2150.09 570.884C2152.6 568.341 2154.41 565.186 2155.33 561.731C2156.25 558.276 2156.24 554.642 2155.32 551.188C2154.4 547.734 2152.59 544.58 2150.07 542.041C2147.56 539.501 2144.42 537.663 2140.97 536.71C2135.66 535.309 2130.01 536.045 2125.24 538.76C2010.78 605.51 1879.08 636.816 1746.81 628.713C1614.54 620.61 1487.65 573.463 1382.21 493.243C1276.78 413.024 1197.54 303.341 1154.55 178.09C1111.55 52.8386 1106.73 -82.346 1140.68 -210.34C1163.06 -295.323 1201.97 -375.068 1255.2 -445.019C1308.43 -514.97 1374.93 -573.755 1450.91 -618.017C1526.88 -662.279 1610.84 -691.149 1697.98 -702.978C1785.13 -714.807 1873.75 -709.363 1958.79 -686.957C2043.98 -664.775 2123.91 -625.927 2193.97 -572.663C2264.03 -519.399 2322.82 -452.777 2366.93 -376.654" fill="#FF6B00"/>
</g>
</g>
<defs>
<clipPath id="clip0_337_425889">
<rect width="1920" height="358" fill="white"/>
</clipPath>
</defs>
</svg>
