<svg width="80" height="92" viewBox="0 0 80 92" fill="none" xmlns="http://www.w3.org/2000/svg">
<g id="Ho&#225;&#186;&#161;t ch&#225;&#186;&#165;t">
<g id="Ho&#225;&#186;&#161;t ch&#225;&#186;&#165;t_2" opacity="0.3">
<g id="Ho&#225;&#186;&#161;t ch&#225;&#186;&#165;t_3">
<g id="Group 1000001378">
<path id="Vector 1796" d="M32.6484 27.8969V20.536C32.6484 12.5617 32.6484 8.26783 25.2875 7.04102" stroke="#FF6B00" stroke-width="5.06" stroke-linecap="round"/>
<path id="Vector 1795" d="M44.916 27.8969V20.536C44.916 12.5617 44.916 8.26783 52.2769 7.04102" stroke="#FF6B00" stroke-width="5.06" stroke-linecap="round"/>
</g>
<path id="Ellipse 700" d="M66.5864 48.7552C62.5185 36.9744 51.3316 28.5127 38.1683 28.5127C29.0707 28.5127 20.9171 32.5546 15.4053 38.9406M68.0022 62.2501C66.1875 77.114 53.5224 88.6267 38.1683 88.6267C21.5683 88.6267 8.11133 75.1697 8.11133 58.5697C8.11133 56.0302 8.42627 53.5642 9.01922 51.2088" stroke="#FF6B00" stroke-width="5.06" stroke-linecap="round"/>
<path id="Vector 1797" d="M3.20312 48.1396C28.9663 61.6346 46.7551 40.7788 73.1316 51.2067" stroke="#FF6B00" stroke-width="5.06" stroke-linecap="round"/>
</g>
<circle id="Ellipse 701" cx="38.7801" cy="61.0213" r="3.68045" fill="#FF6B00"/>
<circle id="Ellipse 705" cx="57.1844" cy="59.7947" r="3.68045" fill="#FF6B00"/>
<circle id="Ellipse 702" cx="32.6472" cy="74.5144" r="3.68045" fill="#FF6B00"/>
<circle id="Ellipse 704" cx="49.8211" cy="72.0584" r="3.68045" fill="#FF6B00"/>
<circle id="Ellipse 703" cx="24.0594" cy="63.4773" r="3.68045" fill="#FF6B00"/>
</g>
<g id="Ho&#225;&#186;&#161;t ch&#225;&#186;&#165;t_4">
<g id="Ho&#225;&#186;&#161;t ch&#225;&#186;&#165;t_5">
<g id="Group 1000001378_2">
<path id="Vector 1796_2" d="M36.3145 24.2299V16.869C36.3145 8.89469 36.3145 4.60084 28.9536 3.37402" stroke="#4D4D4F" stroke-width="5.06" stroke-linecap="round"/>
<path id="Vector 1795_2" d="M48.582 24.2299V16.869C48.582 8.89469 48.582 4.60084 55.9429 3.37402" stroke="#4D4D4F" stroke-width="5.06" stroke-linecap="round"/>
</g>
<path id="Ellipse 700_2" d="M70.2525 45.0882C66.1846 33.3074 54.9976 24.8457 41.8343 24.8457C32.7367 24.8457 24.5831 28.8876 19.0714 35.2736M71.6682 58.5831C69.8535 73.447 57.1884 84.9597 41.8343 84.9597C25.2343 84.9597 11.7773 71.5027 11.7773 54.9027C11.7773 52.3632 12.0923 49.8973 12.6852 47.5418" stroke="#FF6B00" stroke-width="5.06" stroke-linecap="round"/>
<path id="Vector 1797_2" d="M6.86914 44.4727C32.6323 57.9676 50.4211 37.1118 76.7976 47.5397" stroke="#4D4D4F" stroke-width="5.06" stroke-linecap="round"/>
</g>
<circle id="Ellipse 701_2" cx="42.4461" cy="57.3543" r="3.68045" fill="#4D4D4F"/>
<circle id="Ellipse 705_2" cx="60.8504" cy="56.1277" r="3.68045" fill="#4D4D4F"/>
<circle id="Ellipse 702_2" cx="36.3133" cy="70.8474" r="3.68045" fill="#4D4D4F"/>
<circle id="Ellipse 704_2" cx="53.4871" cy="68.3924" r="3.68045" fill="#4D4D4F"/>
<circle id="Ellipse 703_2" cx="27.7273" cy="59.8103" r="3.68045" fill="#4D4D4F"/>
</g>
</g>
</svg>
