<svg width="82" height="92" viewBox="0 0 82 92" fill="none" xmlns="http://www.w3.org/2000/svg">
<g id="T&#195;&#138;N TH&#198;&#175;&#198;&#160;NG M&#225;&#186;&#160;I">
<g id="Group 1000001987" opacity="0.3">
<path id="Vector" d="M25.4219 35.417L54.5787 58.1389" stroke="#FF6B00" stroke-width="5.06" stroke-linecap="round" stroke-linejoin="round"/>
<path id="Vector_2" d="M10.2601 84.5224C2.22888 78.2122 0.832168 66.6144 7.16734 58.5832L42.1106 14.2369C48.4208 6.23068 60.0685 4.83397 68.0748 11.1442C76.106 17.4544 77.5027 29.0523 71.1675 37.0835L36.2243 81.4297C29.9141 89.436 18.2663 90.8327 10.2601 84.5224V84.5224Z" stroke="#FF6B00" stroke-width="5.06" stroke-linecap="round" stroke-linejoin="round"/>
</g>
<g id="Group 1000001379">
<path id="Vector_3" d="M29.0879 31.75L58.2447 54.4719" stroke="#4D4D4F" stroke-width="5.06" stroke-linecap="round" stroke-linejoin="round"/>
<path id="Vector_4" d="M13.9261 80.8555C5.89489 74.5452 4.49818 62.9474 10.8334 54.9162L45.7766 10.57C52.0868 2.56369 63.7346 1.16698 71.7408 7.47721C79.772 13.7874 81.1687 25.3853 74.8336 33.4165L39.8903 77.7627C33.5801 85.769 21.9324 87.1657 13.9261 80.8555V80.8555Z" stroke="#FF6B00" stroke-width="5.06" stroke-linecap="round" stroke-linejoin="round"/>
</g>
</g>
</svg>
