<svg width="96" height="98" viewBox="0 0 96 98" fill="none" xmlns="http://www.w3.org/2000/svg">
<g id="nh&#195;&#160; s&#225;&#186;&#163;n xu&#225;&#186;&#165;t">
<g id="Group 1000001996" opacity="0.3">
<path id="Vector" d="M57.8525 95.2917H37.3803C36.1547 95.2917 35.0631 94.4594 34.7184 93.2594L31.7308 82.6142C31.5393 81.9174 31.0797 81.3174 30.4477 80.969L26.1388 78.4529C25.526 78.0851 24.7791 77.9883 24.0897 78.1625L13.4802 80.8529C12.2737 81.1626 11.0289 80.6206 10.416 79.5367L3.00469 66.5689C2.39187 65.485 2.54507 64.1302 3.40686 63.2205L11.0289 55.285C11.5268 54.7624 11.814 54.0656 11.814 53.3495V48.3172C11.814 47.6011 11.5268 46.9043 11.0289 46.3817L3.40686 38.4462C2.54507 37.5558 2.37272 36.1816 3.00469 35.0978L10.416 22.1299C11.0289 21.0461 12.2928 20.5235 13.4802 20.8138L24.0897 23.5041C24.7791 23.6783 25.526 23.5816 26.1388 23.2138L30.4477 20.6977C31.0606 20.3299 31.5202 19.7493 31.7308 19.0525L34.7184 8.40727C35.0631 7.20726 36.1355 6.375 37.3803 6.375H52.203C53.4287 6.375 54.5203 7.20726 54.865 8.40727L57.8525 19.0525C58.044 19.7493 58.5036 20.3493 59.1356 20.6977L63.4445 23.2138C64.0573 23.5816 64.8042 23.6783 65.4936 23.5041L76.1032 20.8138C77.3097 20.5041 78.5545 21.0461 79.1673 22.1299L86.5786 35.0978C87.1915 36.1816 87.0383 37.5365 86.1765 38.4462L78.5545 46.3817C78.0565 46.9043 77.7693 47.6011 77.7693 48.3172V53.3495C77.7693 54.0656 78.0565 54.7624 78.5545 55.285L86.1765 63.2205" stroke="#FF6B00" stroke-width="5.06" stroke-miterlimit="10" stroke-linecap="round"/>
<path id="Vector_2" d="M89.1119 83.0265L62.9641 56.8788C62.2538 56.1685 62.0053 55.1305 62.1937 54.1438C62.699 51.4981 62.5723 48.7621 61.8135 46.1616C60.9021 43.0382 59.117 40.2403 56.6684 38.0978C54.2197 35.9553 51.2097 34.5573 47.993 34.0686C46.0999 33.781 44.1816 33.8154 42.3172 34.1612C40.4229 34.5125 39.9675 36.8055 41.3247 38.1729L46.9314 43.8217C47.9985 44.8968 47.9953 46.6324 46.9242 47.7035L42.1195 52.5081C41.0484 53.5792 39.3128 53.5825 38.2377 52.5154L32.5889 46.9087C31.2215 45.5514 28.9286 46.0068 28.5772 47.9011C28.2314 49.7656 28.197 51.6839 28.4846 53.577C28.9733 56.7937 30.3713 59.8037 32.5138 62.2523C34.6564 64.7009 37.4542 66.4861 40.5776 67.3975C43.1781 68.1563 45.9141 68.283 48.5598 67.7777C49.5465 67.5893 50.5845 67.8378 51.2948 68.5481L77.4426 94.6959C77.8311 95.0777 78.354 95.2917 78.8988 95.2917C79.4435 95.2917 79.9665 95.0777 80.355 94.6959L89.1119 85.939C89.4937 85.5505 89.7077 85.0275 89.7077 84.4828C89.7077 83.938 89.4937 83.4151 89.1119 83.0265Z" stroke="#FF6B00" stroke-width="5.06"/>
</g>
<g id="Group 1000001995">
<path id="Vector_3" d="M61.5185 91.6247H41.0463C39.8207 91.6247 38.7291 90.7924 38.3844 89.5924L35.3969 78.9472C35.2054 78.2504 34.7457 77.6504 34.1138 77.302L29.8048 74.7859C29.192 74.4181 28.4451 74.3213 27.7557 74.4955L17.1462 77.1859C15.9397 77.4956 14.6949 76.9536 14.0821 75.8697L6.67071 62.9019C6.05788 61.818 6.21109 60.4632 7.07287 59.5535L14.6949 51.618C15.1928 51.0954 15.4801 50.3986 15.4801 49.6825V44.6502C15.4801 43.9341 15.1928 43.2373 14.6949 42.7147L7.07287 34.7792C6.21109 33.8888 6.03873 32.5146 6.67071 31.4308L14.0821 18.4629C14.6949 17.3791 15.9588 16.8565 17.1462 17.1468L27.7557 19.8371C28.4451 20.0113 29.192 19.9146 29.8048 19.5468L34.1138 17.0307C34.7266 16.6629 35.1862 16.0823 35.3969 15.3855L38.3844 4.74028C38.7291 3.54027 39.8015 2.70801 41.0463 2.70801H55.869C57.0947 2.70801 58.1863 3.54027 58.531 4.74028L61.5185 15.3855C61.71 16.0823 62.1696 16.6823 62.8016 17.0307L67.1105 19.5468C67.7234 19.9146 68.4702 20.0113 69.1597 19.8371L79.7692 17.1468C80.9757 16.8371 82.2205 17.3791 82.8333 18.4629L90.2447 31.4308C90.8575 32.5146 90.7043 33.8695 89.8425 34.7792L82.2205 42.7147C81.7226 43.2373 81.4353 43.9341 81.4353 44.6502V49.6825C81.4353 50.3986 81.7226 51.0954 82.2205 51.618L89.8425 59.5535" stroke="#FF6B00" stroke-width="5.06" stroke-miterlimit="10" stroke-linecap="round"/>
<path id="Vector_4" d="M92.7779 79.3596L66.6301 53.2118C65.9199 52.5015 65.6713 51.4635 65.8597 50.4768C66.365 47.8311 66.2383 45.0951 65.4795 42.4946C64.5681 39.3712 62.783 36.5734 60.3344 34.4308C57.8858 32.2883 54.8757 30.8903 51.659 30.4016C49.7659 30.114 47.8476 30.1484 45.9832 30.4942C44.0889 30.8455 43.6335 33.1385 44.9907 34.5059L50.5974 40.1547C51.6645 41.2298 51.6613 42.9654 50.5902 44.0365L45.7856 48.8411C44.7145 49.9123 42.9789 49.9155 41.9038 48.8484L36.2549 43.2417C34.8875 41.8844 32.5946 42.3398 32.2432 44.2341C31.8974 46.0986 31.863 48.0169 32.1506 49.91C32.6393 53.1267 34.0373 56.1367 36.1798 58.5853C38.3224 61.034 41.1202 62.8191 44.2436 63.7305C46.8441 64.4893 49.5801 64.616 52.2258 64.1107C53.2125 63.9223 54.2505 64.1708 54.9608 64.8811L81.1086 91.0289C81.4971 91.4107 82.0201 91.6247 82.5648 91.6247C83.1096 91.6247 83.6325 91.4107 84.0211 91.0289L92.7779 82.272C93.1597 81.8835 93.3737 81.3605 93.3737 80.8158C93.3737 80.271 93.1597 79.7481 92.7779 79.3596Z" stroke="#4D4D4F" stroke-width="5.06"/>
</g>
</g>
</svg>
