<svg width="98" height="90" viewBox="0 0 98 90" fill="none" xmlns="http://www.w3.org/2000/svg">
<g id="Nh&#195;&#179;m &#196;&#145;i&#225;&#187;&#129;u tr&#225;&#187;&#139; 3">
<g id="Group 1000002000" opacity="0.3">
<path id="Vector" d="M29.8613 65.406L47.154 55.4209" stroke="#FF6B00" stroke-width="5.06" stroke-miterlimit="10"/>
<path id="Vector_2" d="M64.4749 65.406L47.1543 55.4209" stroke="#FF6B00" stroke-width="5.06" stroke-miterlimit="10"/>
<path id="Vector_3" d="M47.5169 35.3955L47.1543 55.4215" stroke="#FF6B00" stroke-width="5.06" stroke-miterlimit="10"/>
<path id="Vector_4" d="M17.4489 86.8861C25.3512 86.8861 31.7572 80.4801 31.7572 72.5778C31.7572 64.6756 25.3512 58.2695 17.4489 58.2695C9.54667 58.2695 3.14062 64.6756 3.14062 72.5778C3.14062 80.4801 9.54667 86.8861 17.4489 86.8861Z" stroke="#FF6B00" stroke-width="5.06" stroke-miterlimit="10"/>
<path id="Vector_5" d="M76.8864 86.8861C84.7887 86.8861 91.1947 80.4801 91.1947 72.5778C91.1947 64.6756 84.7887 58.2695 76.8864 58.2695C68.9842 58.2695 62.5781 64.6756 62.5781 72.5778C62.5781 80.4801 68.9842 86.8861 76.8864 86.8861Z" stroke="#FF6B00" stroke-width="5.06" stroke-miterlimit="10"/>
<path id="Vector_6" d="M47.152 35.3969C55.0543 35.3969 61.4603 28.9908 61.4603 21.0886C61.4603 13.1863 55.0543 6.78027 47.152 6.78027C39.2498 6.78027 32.8438 13.1863 32.8438 21.0886C32.8438 28.9908 39.2498 35.3969 47.152 35.3969Z" stroke="#FF6B00" stroke-width="5.06" stroke-miterlimit="10"/>
</g>
<g id="Group 1000001998">
<path id="Vector_7" d="M33.5273 61.739L50.82 51.7539" stroke="#4D4D4F" stroke-width="5.06" stroke-miterlimit="10"/>
<path id="Vector_8" d="M68.1409 61.739L50.8203 51.7539" stroke="#4D4D4F" stroke-width="5.06" stroke-miterlimit="10"/>
<path id="Vector_9" d="M51.1829 31.7285L50.8203 51.7546" stroke="#4D4D4F" stroke-width="5.06" stroke-miterlimit="10"/>
<path id="Vector_10" d="M21.1149 83.2191C29.0172 83.2191 35.4232 76.8131 35.4232 68.9108C35.4232 61.0086 29.0172 54.6025 21.1149 54.6025C13.2127 54.6025 6.80664 61.0086 6.80664 68.9108C6.80664 76.8131 13.2127 83.2191 21.1149 83.2191Z" stroke="#FF6B00" stroke-width="5.06" stroke-miterlimit="10"/>
<path id="Vector_11" d="M80.5505 83.2191C88.4527 83.2191 94.8588 76.8131 94.8588 68.9108C94.8588 61.0086 88.4527 54.6025 80.5505 54.6025C72.6482 54.6025 66.2422 61.0086 66.2422 68.9108C66.2422 76.8131 72.6482 83.2191 80.5505 83.2191Z" stroke="#FF6B00" stroke-width="5.06" stroke-miterlimit="10"/>
<path id="Vector_12" d="M50.8181 31.7299C58.7203 31.7299 65.1264 25.3238 65.1264 17.4216C65.1264 9.51932 58.7203 3.11328 50.8181 3.11328C42.9158 3.11328 36.5098 9.51932 36.5098 17.4216C36.5098 25.3238 42.9158 31.7299 50.8181 31.7299Z" stroke="#FF6B00" stroke-width="5.06" stroke-miterlimit="10"/>
</g>
</g>
</svg>
