<svg width="20" height="21" viewBox="0 0 20 21" fill="none" xmlns="http://www.w3.org/2000/svg">
<g opacity="0.3">
<path d="M10.4895 5.474L3.93359 5.474" stroke="#4D4D4F" stroke-width="1.11299" stroke-linecap="round" stroke-linejoin="round"/>
<path d="M10.4895 8.73303L3.93359 8.73303" stroke="#4D4D4F" stroke-width="1.11299" stroke-linecap="round" stroke-linejoin="round"/>
<path d="M5.57394 11.9756L3.93359 11.9756" stroke="#4D4D4F" stroke-width="1.11299" stroke-linecap="round" stroke-linejoin="round"/>
<path d="M5.57376 17.6545L2.29306 17.6545C1.85966 17.6545 1.44272 17.4845 1.13549 17.1827C0.828271 16.881 0.658203 16.4641 0.658203 16.0362L0.658202 3.05594C0.658202 2.84198 0.70208 2.63351 0.784372 2.43601C0.866664 2.23851 0.987373 2.06297 1.14098 1.90936C1.2946 1.75575 1.47562 1.63504 1.67312 1.55275C1.87062 1.47045 2.08459 1.42658 2.29855 1.42658L12.1352 1.42658C12.5686 1.42658 12.9855 1.60213 13.2928 1.90387C13.4464 2.05199 13.5671 2.23301 13.6494 2.43051C13.7317 2.62801 13.7755 2.83649 13.7755 3.05045L13.7755 9.54056" stroke="#4D4D4F" stroke-width="1.11299" stroke-linecap="round" stroke-linejoin="round"/>
<path d="M16.5876 16.1455L16.3257 16.6365C16.5418 16.7518 16.8079 16.7122 16.9811 16.539L16.5876 16.1455ZM15.9241 19.3394C16.129 19.1104 16.1095 18.7586 15.8805 18.5536C15.6515 18.3486 15.2997 18.3681 15.0947 18.5971L15.9241 19.3394ZM18.2916 15.2284C18.509 15.0111 18.509 14.6587 18.2916 14.4414C18.0743 14.224 17.722 14.224 17.5046 14.4414L18.2916 15.2284ZM15.3372 14.8479C15.066 14.7033 14.7289 14.8059 14.5843 15.0771C14.4397 15.3483 14.5423 15.6853 14.8135 15.83L15.3372 14.8479ZM12.3533 19.8232C10.3222 19.8232 8.67564 18.1766 8.67564 16.1455H7.56264C7.56264 18.7913 9.70752 20.9362 12.3533 20.9362V19.8232ZM8.67564 16.1455C8.67564 14.1143 10.3222 12.4678 12.3533 12.4678V11.3548C9.70752 11.3548 7.56264 13.4996 7.56264 16.1455H8.67564ZM12.3533 12.4678C14.3845 12.4678 16.0311 14.1143 16.0311 16.1455H17.1441C17.1441 13.4996 14.9992 11.3548 12.3533 11.3548V12.4678ZM15.0947 18.5971C14.4205 19.3504 13.4425 19.8232 12.3533 19.8232V20.9362C13.7722 20.9362 15.0476 20.3186 15.9241 19.3394L15.0947 18.5971ZM16.9811 16.539L18.2916 15.2284L17.5046 14.4414L16.1941 15.752L16.9811 16.539ZM16.8494 15.6544L15.3372 14.8479L14.8135 15.83L16.3257 16.6365L16.8494 15.6544Z" fill="#4D4D4F"/>
<path d="M12.3535 14.1291L12.3535 16.3268L13.4625 17.1536" stroke="#4D4D4F" stroke-width="1.11299" stroke-linecap="round" stroke-linejoin="round"/>
</g>
<path d="M11.2962 4.66772L4.74023 4.66772" stroke="#4D4D4F" stroke-width="1.11299" stroke-linecap="round" stroke-linejoin="round"/>
<path d="M11.2962 7.92676L4.74023 7.92676" stroke="#4D4D4F" stroke-width="1.11299" stroke-linecap="round" stroke-linejoin="round"/>
<path d="M6.38058 11.1693L4.74023 11.1693" stroke="#4D4D4F" stroke-width="1.11299" stroke-linecap="round" stroke-linejoin="round"/>
<path d="M6.3804 16.8481L3.0997 16.8481C2.6663 16.8481 2.24936 16.6781 1.94213 16.3763C1.63491 16.0746 1.46484 15.6577 1.46484 15.2298L1.46484 2.24955C1.46484 2.03559 1.50872 1.82711 1.59101 1.62961C1.6733 1.43211 1.79401 1.25657 1.94762 1.10296C2.10124 0.949351 2.28226 0.828642 2.47976 0.74635C2.67726 0.664058 2.89123 0.62018 3.10519 0.62018L12.9418 0.620179C13.3752 0.620179 13.7922 0.795732 14.0994 1.09747C14.253 1.2456 14.3737 1.42662 14.456 1.62412C14.5383 1.82162 14.5822 2.03009 14.5822 2.24405L14.5822 8.73416" stroke="#4D4D4F" stroke-width="1.11299" stroke-linecap="round" stroke-linejoin="round"/>
<path d="M17.3942 15.3391L17.1323 15.8301C17.3484 15.9454 17.6145 15.9058 17.7877 15.7326L17.3942 15.3391ZM16.7307 18.533C16.9357 18.304 16.9162 17.9522 16.6872 17.7472C16.4582 17.5422 16.1063 17.5617 15.9014 17.7907L16.7307 18.533ZM19.0983 14.422C19.3156 14.2047 19.3156 13.8523 19.0983 13.635C18.881 13.4177 18.5286 13.4177 18.3113 13.635L19.0983 14.422ZM16.1439 14.0415C15.8727 13.8969 15.5356 13.9995 15.391 14.2707C15.2463 14.5419 15.3489 14.8789 15.6201 15.0236L16.1439 14.0415ZM13.16 19.0168C11.1288 19.0168 9.48228 17.3702 9.48228 15.3391H8.36929C8.36929 17.9849 10.5142 20.1298 13.16 20.1298V19.0168ZM9.48228 15.3391C9.48228 13.3079 11.1288 11.6614 13.16 11.6614V10.5484C10.5142 10.5484 8.36929 12.6932 8.36929 15.3391H9.48228ZM13.16 11.6614C15.1911 11.6614 16.8377 13.3079 16.8377 15.3391H17.9507C17.9507 12.6932 15.8058 10.5484 13.16 10.5484V11.6614ZM15.9014 17.7907C15.2272 18.544 14.2492 19.0168 13.16 19.0168V20.1298C14.5789 20.1298 15.8543 19.5122 16.7307 18.533L15.9014 17.7907ZM17.7877 15.7326L19.0983 14.422L18.3113 13.635L17.0007 14.9456L17.7877 15.7326ZM17.6561 14.848L16.1439 14.0415L15.6201 15.0236L17.1323 15.8301L17.6561 14.848Z" fill="#4D4D4F"/>
<path d="M13.1602 13.3227L13.1602 15.5204L14.2691 16.3472" stroke="#4D4D4F" stroke-width="1.11299" stroke-linecap="round" stroke-linejoin="round"/>
</svg>
