<svg width="22" height="20" viewBox="0 0 22 20" fill="none" xmlns="http://www.w3.org/2000/svg">
<g opacity="0.3">
<path d="M7.5327 19.4569C8.32819 19.4569 8.97556 18.8095 8.97556 18.014C8.97556 17.2185 8.32819 16.5712 7.5327 16.5712C6.73721 16.5712 6.08984 17.2185 6.08984 18.014C6.08984 18.8095 6.73721 19.4569 7.5327 19.4569Z" fill="#4D4D4F"/>
<path d="M16.9097 19.4569C17.7051 19.4569 18.3525 18.8095 18.3525 18.014C18.3525 17.2185 17.7051 16.5712 16.9097 16.5712C16.1142 16.5712 15.4668 17.2185 15.4668 18.014C15.4668 18.8095 16.1142 19.4569 16.9097 19.4569Z" fill="#4D4D4F"/>
<path d="M1.04883 1.43481H2.56301C2.7221 1.43481 2.87022 1.4842 2.9964 1.57746C3.12258 1.67072 3.21038 1.80239 3.25427 1.956L6.51849 13.3672C6.60078 13.6689 6.78731 13.9322 7.03419 14.1242C7.28655 14.3108 7.5883 14.415 7.9065 14.415H16.5417C16.8544 14.415 17.1616 14.3163 17.414 14.1242C17.6663 13.9377 17.8474 13.6689 17.9297 13.3672L20.3106 5.03921" stroke="#4D4D4F" stroke-width="1.11369" stroke-linecap="round" stroke-linejoin="round"/>
<path d="M15.5777 4.98915H15.0665C14.9657 4.98923 14.8659 4.96971 14.7728 4.93172C14.6797 4.89372 14.595 4.83798 14.5238 4.7677C14.4525 4.69741 14.396 4.61396 14.3575 4.52211C14.319 4.43026 14.2992 4.33182 14.2993 4.23243V3.72816C14.2993 3.22677 14.0973 2.74591 13.7379 2.39137C13.3784 2.03683 12.8909 1.83765 12.3826 1.83765C11.8743 1.83765 11.3868 2.03683 11.0273 2.39137C10.6679 2.74591 10.4659 3.22677 10.4659 3.72816V4.23243C10.4659 4.33191 10.446 4.43041 10.4074 4.52231C10.3688 4.6142 10.3121 4.69768 10.2408 4.76796C10.1694 4.83825 10.0847 4.89396 9.99143 4.93191C9.8982 4.96987 9.7983 4.98931 9.69744 4.98915H9.1862C8.67787 4.98915 8.19036 5.18832 7.83091 5.54286C7.47147 5.8974 7.26953 6.37826 7.26953 6.87966C7.26953 7.38105 7.47147 7.86191 7.83091 8.21645C8.19036 8.57099 8.67787 8.77017 9.1862 8.77017H9.69744C9.90086 8.77034 10.0959 8.85012 10.2397 8.992C10.3836 9.13387 10.4645 9.32625 10.4646 9.52689V10.0312C10.4651 10.4547 10.6098 10.8659 10.8755 11.1986C11.1412 11.5314 11.5125 11.7664 11.9299 11.8661C12.3473 11.9657 12.7865 11.9242 13.1771 11.7481C13.5677 11.572 13.8869 11.2716 14.0837 10.8952L11.9658 7.11413C11.9025 7.00541 11.8853 6.87645 11.918 6.7553C11.9507 6.63416 12.0305 6.53064 12.1402 6.46729C12.2498 6.40393 12.3804 6.38586 12.5035 6.41702C12.6266 6.44817 12.7323 6.52602 12.7975 6.63363L14.21 8.87038C14.2009 8.66868 14.3338 8.48496 14.5057 8.37511C14.8001 8.1824 15.1791 8.20424 15.4084 8.50744C15.4348 8.54309 15.4582 8.58091 15.4781 8.6205C15.381 8.37575 15.4781 8.12073 15.7985 8.00125C16.0525 7.90618 16.3195 7.91838 16.524 8.19396C16.5691 8.25703 16.6065 8.32517 16.6354 8.39695C16.628 8.32716 16.6436 8.25688 16.68 8.19657C16.7164 8.13626 16.7715 8.08916 16.8372 8.06227C16.9275 8.01617 17.0274 7.99153 17.129 7.99033C17.3675 7.66854 17.496 7.2802 17.4957 6.88159C17.4959 6.63305 17.4465 6.3869 17.3502 6.15723C17.2539 5.92756 17.1127 5.71886 16.9345 5.54309C16.7564 5.36732 16.5449 5.22792 16.312 5.13287C16.0792 5.03782 15.8297 4.98898 15.5777 4.98915ZM13.7262 7.22911C13.7224 7.24324 13.7158 7.2565 13.7069 7.26814C13.6979 7.27977 13.6867 7.28955 13.6739 7.29692C13.6612 7.30428 13.647 7.30909 13.6323 7.31107C13.6177 7.31305 13.6027 7.31216 13.5884 7.30845C13.5741 7.30473 13.5606 7.29828 13.5489 7.28944C13.5371 7.2806 13.5271 7.26956 13.5197 7.25694C13.5122 7.24433 13.5073 7.23039 13.5053 7.21591C13.5033 7.20144 13.5042 7.18671 13.508 7.17258C13.5667 6.9528 13.558 6.72078 13.4831 6.50585C13.4081 6.29093 13.2702 6.10276 13.0868 5.96514C12.9034 5.82751 12.6828 5.74662 12.4528 5.73268C12.2228 5.71874 11.9938 5.77239 11.7947 5.88683C11.5956 6.00128 11.4354 6.17138 11.3343 6.37564C11.2332 6.57989 11.1958 6.80913 11.2268 7.03435C11.2578 7.25957 11.3558 7.47066 11.5085 7.64094C11.6611 7.81122 11.8615 7.93303 12.0843 7.99097C12.1106 7.99799 12.1335 8.01416 12.1486 8.03651C12.1637 8.05886 12.1702 8.08586 12.1667 8.11251C12.1632 8.13917 12.15 8.16367 12.1296 8.18148C12.1092 8.19929 12.0829 8.2092 12.0557 8.20938C12.0462 8.21067 12.0365 8.21067 12.027 8.20938C11.7611 8.14023 11.522 7.99487 11.3398 7.79168C11.1577 7.58848 11.0407 7.33658 11.0037 7.06782C10.9667 6.79906 11.0113 6.52552 11.1319 6.28176C11.2525 6.03801 11.4437 5.835 11.6812 5.6984C11.9188 5.56179 12.1921 5.49774 12.4665 5.51432C12.741 5.5309 13.0043 5.62739 13.2232 5.79157C13.4421 5.95575 13.6067 6.18026 13.6962 6.43671C13.7857 6.69316 13.7962 6.97003 13.7262 7.23232V7.22911ZM14.5441 7.44238C14.5396 7.45854 14.5288 7.4723 14.514 7.4807C14.4993 7.48911 14.4818 7.49149 14.4653 7.48735C14.449 7.48308 14.435 7.47271 14.4263 7.45844C14.422 7.45113 14.4192 7.44305 14.4181 7.43467C14.417 7.42629 14.4175 7.41778 14.4198 7.40962C14.5259 7.01208 14.5101 6.59244 14.3744 6.20374C14.2388 5.81504 13.9893 5.47474 13.6576 5.22587C13.3259 4.977 12.9268 4.83072 12.5108 4.80554C12.0948 4.78036 11.6806 4.8774 11.3205 5.08439C10.9604 5.29139 10.6707 5.59904 10.4878 5.96846C10.305 6.33787 10.2373 6.75247 10.2934 7.15982C10.3494 7.56717 10.5266 7.949 10.8026 8.25701C11.0786 8.56503 11.441 8.78541 11.844 8.8903C11.8604 8.89481 11.8743 8.90547 11.8829 8.92C11.8914 8.93453 11.8938 8.95176 11.8896 8.96803C11.8858 8.98204 11.8773 8.99437 11.8654 9.003C11.8536 9.01163 11.8392 9.01606 11.8245 9.01556C11.8191 9.01644 11.8136 9.01644 11.8082 9.01556C11.3805 8.90397 10.996 8.66981 10.7032 8.3427C10.4105 8.01559 10.2226 7.6102 10.1634 7.17779C10.1042 6.74538 10.1762 6.30536 10.3705 5.91335C10.5648 5.52133 10.8725 5.19494 11.2548 4.97541C11.6372 4.75589 12.0769 4.6531 12.5184 4.68003C12.9599 4.70696 13.3835 4.8624 13.7354 5.12672C14.0874 5.39103 14.3521 5.75234 14.4959 6.16497C14.6397 6.5776 14.6563 7.02303 14.5435 7.44495L14.5441 7.44238Z" fill="#4D4D4F"/>
<path d="M8.43117 4.25751C8.11746 4.37227 7.82976 4.5469 7.58452 4.77141C7.34342 4.99072 7.14865 5.25487 7.01141 5.54869C6.87545 5.83565 6.79842 6.14632 6.78477 6.46279C6.77336 6.77298 6.82427 7.08233 6.93456 7.37303C6.85984 7.07908 6.84457 6.77348 6.88963 6.47371C6.93337 6.17947 7.03586 5.89672 7.19116 5.64183C7.34262 5.39363 7.54172 5.17695 7.7773 5.00395C8.00896 4.83601 8.27185 4.71465 8.551 4.64679C8.57812 4.64104 8.6038 4.62997 8.62651 4.61425C8.64921 4.59852 8.66848 4.57845 8.68317 4.55524C8.69786 4.53202 8.70767 4.50613 8.71202 4.47911C8.71637 4.45208 8.71517 4.42447 8.7085 4.39791C8.70182 4.37135 8.6898 4.34638 8.67315 4.32449C8.6565 4.3026 8.63556 4.28423 8.61158 4.27048C8.58759 4.25672 8.56105 4.24786 8.53353 4.24442C8.50601 4.24098 8.47806 4.24303 8.45136 4.25044C8.44402 4.25199 8.43683 4.25414 8.42986 4.25687L8.43117 4.25751Z" fill="#4D4D4F"/>
</g>
<path d="M8.33934 18.6505C9.13483 18.6505 9.7822 18.0031 9.7822 17.2076C9.7822 16.4121 9.13483 15.7648 8.33934 15.7648C7.54385 15.7648 6.89648 16.4121 6.89648 17.2076C6.89648 18.0031 7.54385 18.6505 8.33934 18.6505Z" fill="#4D4D4F"/>
<path d="M17.7143 18.6505C18.5098 18.6505 19.1572 18.0031 19.1572 17.2076C19.1572 16.4121 18.5098 15.7648 17.7143 15.7648C16.9189 15.7648 16.2715 16.4121 16.2715 17.2076C16.2715 18.0031 16.9189 18.6505 17.7143 18.6505Z" fill="#4D4D4F"/>
<path d="M1.85547 0.628296H3.36965C3.52875 0.628296 3.67686 0.677676 3.80304 0.770941C3.92922 0.864205 4.01702 0.995874 4.06091 1.14949L7.32513 12.5606C7.40742 12.8624 7.59395 13.1257 7.84083 13.3177C8.09319 13.5043 8.39494 13.6085 8.71314 13.6085H17.3483C17.661 13.6085 17.9683 13.5097 18.2206 13.3177C18.473 13.1312 18.654 12.8624 18.7363 12.5606L21.1173 4.23269" stroke="#4D4D4F" stroke-width="1.11369" stroke-linecap="round" stroke-linejoin="round"/>
<path d="M16.3843 4.18287H15.8731C15.7723 4.18296 15.6725 4.16344 15.5794 4.12544C15.4863 4.08744 15.4017 4.03171 15.3304 3.96142C15.2592 3.89114 15.2027 3.80768 15.1641 3.71584C15.1256 3.62399 15.1058 3.52555 15.1059 3.42615V2.92189C15.1059 2.42049 14.904 1.93963 14.5445 1.58509C14.1851 1.23055 13.6976 1.03137 13.1892 1.03137C12.6809 1.03137 12.1934 1.23055 11.834 1.58509C11.4745 1.93963 11.2726 2.42049 11.2726 2.92189V3.42615C11.2726 3.52563 11.2527 3.62414 11.2141 3.71603C11.1754 3.80793 11.1188 3.8914 11.0474 3.96169C10.976 4.03197 10.8913 4.08769 10.7981 4.12564C10.7048 4.16359 10.6049 4.18304 10.5041 4.18287H9.99284C9.48451 4.18287 8.997 4.38205 8.63755 4.73659C8.27811 5.09113 8.07617 5.57199 8.07617 6.07338C8.07617 6.57478 8.27811 7.05564 8.63755 7.41018C8.997 7.76472 9.48451 7.9639 9.99284 7.9639H10.5041C10.7075 7.96407 10.9025 8.04385 11.0464 8.18572C11.1902 8.3276 11.2711 8.51998 11.2713 8.72062V9.22488C11.2717 9.64845 11.4164 10.0596 11.6821 10.3923C11.9478 10.7251 12.3192 10.9601 12.7366 11.0598C13.1539 11.1594 13.5932 11.1179 13.9837 10.9418C14.3743 10.7657 14.6936 10.4654 14.8903 10.0889L12.7724 6.30785C12.7092 6.19914 12.692 6.07017 12.7246 5.94903C12.7573 5.82789 12.8372 5.72437 12.9468 5.66101C13.0565 5.59766 13.1871 5.57959 13.3102 5.61074C13.4333 5.64189 13.5389 5.71975 13.6041 5.82735L15.0167 8.06411C15.0076 7.8624 15.1404 7.67868 15.3124 7.56884C15.6067 7.37612 15.9858 7.39797 16.215 7.70117C16.2415 7.73681 16.2648 7.77464 16.2847 7.81422C16.1877 7.56948 16.2847 7.31446 16.6051 7.19497C16.8591 7.0999 17.1261 7.11211 17.3306 7.38769C17.3758 7.45076 17.4132 7.5189 17.442 7.59068C17.4346 7.52088 17.4503 7.4506 17.4866 7.3903C17.523 7.32999 17.5782 7.28289 17.6439 7.256C17.7341 7.20989 17.834 7.18526 17.9357 7.18405C18.1742 6.86227 18.3026 6.47393 18.3023 6.07531C18.3026 5.82678 18.2531 5.58063 18.1569 5.35096C18.0606 5.12128 17.9193 4.91259 17.7412 4.73682C17.563 4.56104 17.3515 4.42164 17.1187 4.32659C16.8859 4.23154 16.6363 4.1827 16.3843 4.18287ZM14.5328 6.42284C14.529 6.43697 14.5225 6.45023 14.5135 6.46186C14.5046 6.4735 14.4934 6.48328 14.4806 6.49064C14.4678 6.49801 14.4537 6.50282 14.439 6.5048C14.4243 6.50678 14.4094 6.50588 14.3951 6.50217C14.3807 6.49846 14.3673 6.492 14.3555 6.48316C14.3437 6.47433 14.3338 6.46329 14.3263 6.45067C14.3188 6.43805 14.314 6.42411 14.312 6.40964C14.31 6.39516 14.3109 6.38044 14.3146 6.36631C14.3733 6.14652 14.3647 5.9145 14.2897 5.69958C14.2147 5.48465 14.0768 5.29648 13.8935 5.15886C13.7101 5.02124 13.4894 4.94034 13.2594 4.92641C13.0294 4.91247 12.8004 4.96611 12.6013 5.08056C12.4022 5.195 12.242 5.36511 12.1409 5.56937C12.0399 5.77362 12.0025 6.00285 12.0335 6.22807C12.0645 6.45329 12.1625 6.66439 12.3151 6.83467C12.4678 7.00494 12.6681 7.12675 12.891 7.1847C12.9173 7.19171 12.9401 7.20789 12.9552 7.23024C12.9704 7.25258 12.9768 7.27958 12.9733 7.30624C12.9698 7.33289 12.9566 7.35739 12.9362 7.3752C12.9158 7.39301 12.8896 7.40293 12.8623 7.4031C12.8528 7.4044 12.8432 7.4044 12.8337 7.4031C12.5678 7.33395 12.3286 7.18859 12.1465 6.9854C11.9643 6.78221 11.8474 6.53031 11.8104 6.26155C11.7733 5.99279 11.818 5.71924 11.9385 5.47549C12.0591 5.23173 12.2503 5.02872 12.4879 4.89212C12.7254 4.75552 12.9987 4.69146 13.2732 4.70805C13.5476 4.72463 13.811 4.82111 14.0298 4.98529C14.2487 5.14947 14.4133 5.37398 14.5028 5.63043C14.5924 5.88688 14.6028 6.16376 14.5328 6.42605V6.42284ZM15.3508 6.63611C15.3462 6.65227 15.3354 6.66602 15.3207 6.67443C15.3059 6.68283 15.2885 6.68522 15.272 6.68107C15.2557 6.6768 15.2416 6.66644 15.2329 6.65217C15.2286 6.64485 15.2258 6.63677 15.2247 6.6284C15.2236 6.62002 15.2242 6.61151 15.2264 6.60335C15.3325 6.20581 15.3167 5.78616 15.1811 5.39746C15.0454 5.00877 14.796 4.66847 14.4642 4.4196C14.1325 4.17072 13.7335 4.02445 13.3175 3.99927C12.9015 3.97408 12.4873 4.07112 12.1272 4.27812C11.7671 4.48511 11.4773 4.79276 11.2945 5.16218C11.1117 5.5316 11.044 5.94619 11.1 6.35355C11.156 6.7609 11.3333 7.14272 11.6093 7.45074C11.8853 7.75876 12.2477 7.97914 12.6506 8.08402C12.667 8.08854 12.681 8.0992 12.6895 8.11373C12.698 8.12825 12.7004 8.14549 12.6962 8.16175C12.6924 8.17577 12.6839 8.18809 12.6721 8.19672C12.6603 8.20536 12.6458 8.20978 12.6311 8.20929C12.6257 8.21016 12.6202 8.21016 12.6148 8.20929C12.1872 8.09769 11.8026 7.86354 11.5099 7.53642C11.2171 7.20931 11.0292 6.80393 10.97 6.37152C10.9108 5.9391 10.9829 5.49908 11.1772 5.10707C11.3714 4.71506 11.6792 4.38866 12.0615 4.16914C12.4438 3.94962 12.8835 3.84682 13.325 3.87375C13.7666 3.90068 14.1901 4.05613 14.5421 4.32044C14.8941 4.58475 15.1587 4.94606 15.3025 5.35869C15.4464 5.77133 15.4629 6.21676 15.3501 6.63868L15.3508 6.63611Z" fill="#4D4D4F"/>
<path d="M9.23781 3.45123C8.9241 3.56599 8.6364 3.74062 8.39116 3.96514C8.15006 4.18444 7.95529 4.4486 7.81805 4.74241C7.68209 5.02937 7.60506 5.34005 7.59141 5.65651C7.58 5.9667 7.63091 6.27606 7.7412 6.56676C7.66648 6.27281 7.65121 5.96721 7.69627 5.66743C7.74001 5.3732 7.8425 5.09045 7.9978 4.83556C8.14926 4.58735 8.34836 4.37068 8.58394 4.19768C8.8156 4.02973 9.07849 3.90837 9.35764 3.84051C9.38476 3.83476 9.41044 3.8237 9.43315 3.80797C9.45585 3.79224 9.47512 3.77218 9.48981 3.74896C9.5045 3.72575 9.51431 3.69986 9.51866 3.67283C9.52301 3.64581 9.52182 3.61819 9.51514 3.59163C9.50846 3.56507 9.49644 3.54011 9.47979 3.51822C9.46314 3.49633 9.4422 3.47796 9.41822 3.4642C9.39424 3.45045 9.36769 3.44159 9.34017 3.43815C9.31265 3.4347 9.2847 3.43675 9.258 3.44417C9.25066 3.44572 9.24348 3.44786 9.23651 3.45059L9.23781 3.45123Z" fill="#4D4D4F"/>
</svg>
