<svg width="20" height="19" viewBox="0 0 20 19" fill="none" xmlns="http://www.w3.org/2000/svg">
<g opacity="0.3">
<path d="M9.22852 18.3715L9.22852 12.2915L9.22852 6.07214" stroke="#4D4D4F" stroke-width="1.11299" stroke-linecap="round" stroke-linejoin="round"/>
<path d="M16.0332 18.4054V9.92022H17.7302V5.67761H0.759766V9.92022H2.45681V18.4054H16.0332Z" stroke="#4D4D4F" stroke-width="1.11299" stroke-linecap="round" stroke-linejoin="round"/>
<path d="M9.24434 5.6773H13.0627C13.2325 5.6773 13.4002 5.65694 13.5626 5.61757C13.9381 5.52651 14.2849 5.33373 14.5627 5.05599C14.9605 4.65817 15.184 4.1186 15.184 3.556C15.184 2.99339 14.9605 2.45383 14.5627 2.05601C14.1649 1.65819 13.6253 1.43469 13.0627 1.43469C10.4927 1.43469 9.5113 4.61173 9.2936 5.46727C9.25973 5.60039 9.24434 5.6773 9.24434 5.6773ZM9.24434 5.6773L9.19509 5.46727C8.97739 4.61173 7.99595 1.43469 5.42599 1.43469C4.86339 1.43469 4.32383 1.65819 3.926 2.05601C3.52818 2.45383 3.30469 2.99339 3.30469 3.556C3.30469 4.1186 3.52818 4.65817 3.926 5.05599C4.20113 5.33111 4.54404 5.52286 4.91548 5.61497C5.08114 5.65604 5.25247 5.6773 5.42599 5.6773H9.24434Z" stroke="#4D4D4F" stroke-width="1.11299" stroke-linecap="round" stroke-linejoin="round"/>
<path d="M13.4872 9.92004H9.24456H5.00195" stroke="#4D4D4F" stroke-width="1.11299" stroke-linecap="round" stroke-linejoin="round"/>
</g>
<path d="M10.0352 17.5651L10.0352 11.4851L10.0352 5.26575" stroke="#4D4D4F" stroke-width="1.11299" stroke-linecap="round" stroke-linejoin="round"/>
<path d="M16.8398 17.599V9.11383H18.5368V4.87122H1.56641V9.11383H3.26345V17.599H16.8398Z" stroke="#4D4D4F" stroke-width="1.11299" stroke-linecap="round" stroke-linejoin="round"/>
<path d="M10.051 4.87091H13.8693C14.0391 4.87091 14.2069 4.85055 14.3692 4.81118C14.7447 4.72011 15.0916 4.52734 15.3693 4.24959C15.7671 3.85177 15.9906 3.31221 15.9906 2.7496C15.9906 2.187 15.7671 1.64743 15.3693 1.24961C14.9715 0.85179 14.4319 0.628296 13.8693 0.628296C11.2994 0.628296 10.3179 3.80534 10.1002 4.66088C10.0664 4.79399 10.051 4.87091 10.051 4.87091ZM10.051 4.87091L10.0017 4.66088C9.78403 3.80534 8.80259 0.628296 6.23263 0.628296C5.67003 0.628296 5.13047 0.85179 4.73264 1.24961C4.33482 1.64743 4.11133 2.187 4.11133 2.7496C4.11133 3.31221 4.33482 3.85177 4.73264 4.24959C5.00777 4.52471 5.35068 4.71646 5.72213 4.80857C5.88778 4.84965 6.05911 4.87091 6.23263 4.87091H10.051Z" stroke="#4D4D4F" stroke-width="1.11299" stroke-linecap="round" stroke-linejoin="round"/>
<path d="M14.2938 9.11365H10.0512H5.80859" stroke="#4D4D4F" stroke-width="1.11299" stroke-linecap="round" stroke-linejoin="round"/>
</svg>
