<svg width="18" height="15" viewBox="0 0 18 15" fill="none" xmlns="http://www.w3.org/2000/svg">
<path opacity="0.3" d="M8.73511 3.66328L7.93961 2.86233C7.56107 2.47281 7.10572 2.16557 6.60099 1.95161C6.10175 1.73765 5.55862 1.63344 5.01549 1.63344C4.47236 1.63344 3.93475 1.74313 3.43002 1.95161C2.93078 2.16557 2.47543 2.47281 2.0914 2.86233C1.31237 3.64684 0.873471 4.71116 0.878957 5.81936C0.878957 8.88611 5.59155 14.1747 8.72961 14.1747C11.8677 14.1747 16.5748 8.86965 16.5748 5.81936C16.5748 4.71116 16.1414 3.64684 15.3679 2.85683C14.7205 2.19301 13.8646 1.77058 12.943 1.66086C12.0213 1.55114 11.0887 1.75412 10.3041 2.24239" stroke="#4D4D4F" stroke-width="1.11369" stroke-linecap="round" stroke-linejoin="round"/>
<path d="M9.54175 2.85676L8.74625 2.05581C8.36771 1.66629 7.91236 1.35905 7.40763 1.14509C6.90839 0.93113 6.36526 0.826918 5.82213 0.826918C5.279 0.826918 4.74139 0.936616 4.23666 1.14509C3.73743 1.35905 3.28208 1.66629 2.89805 2.05581C2.11901 2.84032 1.68011 3.90464 1.6856 5.01284C1.6856 8.07959 6.39819 13.3682 9.53626 13.3682C12.6743 13.3682 17.3814 8.06313 17.3814 5.01284C17.3814 3.90464 16.948 2.84032 16.1745 2.05032C15.5271 1.38649 14.6713 0.964064 13.7496 0.854342C12.8279 0.744619 11.8953 0.947605 11.1108 1.43587" stroke="#4D4D4F" stroke-width="1.11369" stroke-linecap="round" stroke-linejoin="round"/>
</svg>
