<svg width="18" height="21" viewBox="0 0 18 21" fill="none" xmlns="http://www.w3.org/2000/svg">
<g opacity="0.3">
<path d="M7.47656 6.51798V4.89888C7.47656 3.14486 7.47656 2.20039 5.85747 1.93054" stroke="#4D4D4F" stroke-width="1.11299" stroke-linecap="round"/>
<path d="M10.1758 6.51798V4.89888C10.1758 3.14486 10.1758 2.20039 11.7949 1.93054" stroke="#4D4D4F" stroke-width="1.11299" stroke-linecap="round"/>
<path d="M14.9422 11.1061C14.0474 8.5148 11.5868 6.65356 8.69138 6.65356C6.69028 6.65356 4.89682 7.54262 3.68446 8.94728M15.2536 14.0744C14.8544 17.3439 12.0686 19.8762 8.69138 19.8762C5.04006 19.8762 2.08008 16.9162 2.08008 13.2649C2.08008 12.7063 2.14935 12.1639 2.27978 11.6458" stroke="#4D4D4F" stroke-width="1.11299" stroke-linecap="round"/>
<path d="M1 10.9708C6.66683 13.9392 10.5796 9.35173 16.3814 11.6454" stroke="#4D4D4F" stroke-width="1.11299" stroke-linecap="round"/>
<circle cx="8.82517" cy="13.8041" r="0.809547" fill="#4D4D4F"/>
<circle cx="12.874" cy="13.5344" r="0.809547" fill="#4D4D4F"/>
<circle cx="7.47752" cy="16.7721" r="0.809547" fill="#4D4D4F"/>
<circle cx="11.2549" cy="16.2319" r="0.809547" fill="#4D4D4F"/>
<circle cx="5.58689" cy="14.3442" r="0.809547" fill="#4D4D4F"/>
</g>
<path d="M8.2832 5.7117V4.09261C8.2832 2.33859 8.2832 1.39412 6.66411 1.12427" stroke="#4D4D4F" stroke-width="1.11299" stroke-linecap="round"/>
<path d="M10.9805 5.7117V4.09261C10.9805 2.33859 10.9805 1.39412 12.5996 1.12427" stroke="#4D4D4F" stroke-width="1.11299" stroke-linecap="round"/>
<path d="M15.7488 10.2997C14.8541 7.7084 12.3934 5.84717 9.49802 5.84717C7.49692 5.84717 5.70346 6.73622 4.4911 8.14088M16.0603 13.268C15.6611 16.5375 12.8753 19.0698 9.49802 19.0698C5.8467 19.0698 2.88672 16.1098 2.88672 12.4585C2.88672 11.8999 2.95599 11.3575 3.08642 10.8394" stroke="#4D4D4F" stroke-width="1.11299" stroke-linecap="round"/>
<path d="M1.80664 10.1644C7.47347 13.1328 11.3863 8.54533 17.188 10.8391" stroke="#4D4D4F" stroke-width="1.11299" stroke-linecap="round"/>
<circle cx="9.63181" cy="12.9977" r="0.809547" fill="#4D4D4F"/>
<circle cx="13.6806" cy="12.728" r="0.809547" fill="#4D4D4F"/>
<circle cx="8.2822" cy="15.9658" r="0.809547" fill="#4D4D4F"/>
<circle cx="12.0615" cy="15.4255" r="0.809547" fill="#4D4D4F"/>
<circle cx="6.39353" cy="13.5378" r="0.809547" fill="#4D4D4F"/>
</svg>
