<?xml version="1.0" encoding="UTF-8"?><svg id="Layer_1" xmlns="http://www.w3.org/2000/svg" viewBox="0 0 42 25.02"><defs><style>.cls-1{fill:#fff;}.cls-2{fill:#f37024;}</style></defs><g><path class="cls-2" d="M38.54,1.67L3.24,3.56c-1.84,.07-3.13,1.82-2.66,3.6L2.79,15.51c.33,1.26,1.47,2.14,2.77,2.14h2.36l1.78,5.62,5.7-5.8h20.59c1.3,0,2.44-.88,2.77-2.14l2.66-10.06c.49-1.86-.96-3.67-2.88-3.6Z"/><path class="cls-2" d="M9.48,24.18l-1.91-6.05h-2c-1.52,0-2.85-1.03-3.24-2.49L.11,7.28c-.26-.99-.06-2.03,.55-2.85s1.54-1.32,2.57-1.36L38.52,1.19c1.08-.04,2.07,.42,2.74,1.25s.9,1.91,.62,2.95l-2.66,10.06c-.39,1.47-1.72,2.49-3.24,2.49H15.59l-6.12,6.23ZM38.56,2.15L3.27,4.04c-.73,.03-1.4,.38-1.83,.97-.43,.59-.57,1.32-.39,2.03L3.25,15.38c.28,1.05,1.22,1.78,2.31,1.78h2.71l1.64,5.19,5.28-5.37h20.8c1.08,0,2.03-.73,2.31-1.78l2.66-10.06c.2-.74,.03-1.5-.44-2.1-.48-.6-1.19-.91-1.95-.89Z"/></g><path class="cls-1" d="M16.75,14.72h-1.74v-3.6h-3.53v3.6h-1.74V6.05h1.74v3.73h3.53v-3.73h1.74V14.72Z"/><path class="cls-1" d="M25.94,11.16c0,1.07-.34,1.95-1.01,2.64-.67,.69-1.54,1.04-2.62,1.04s-1.94-.35-2.61-1.04c-.67-.69-1-1.57-1-2.64v-1.56c0-1.06,.33-1.94,1-2.63,.66-.7,1.53-1.05,2.6-1.05s1.95,.35,2.63,1.05c.67,.7,1.01,1.58,1.01,2.63v1.56Zm-1.73-1.57c0-.67-.17-1.23-.51-1.66-.34-.43-.8-.65-1.4-.65s-1.05,.22-1.37,.65c-.33,.43-.49,.99-.49,1.66v1.57c0,.69,.16,1.25,.49,1.68s.79,.65,1.38,.65,1.06-.22,1.39-.65c.33-.43,.5-.99,.5-1.68v-1.57Z"/><path class="cls-1" d="M33.83,7.39h-2.48v7.33h-1.74V7.39h-2.44v-1.34h6.66v1.34Z"/></svg>