<svg width="22" height="22" viewBox="0 0 22 22" fill="none" xmlns="http://www.w3.org/2000/svg">
<g opacity="0.3">
<path d="M10.4502 7.32956C10.1505 7.32956 9.88931 7.22966 9.66649 7.02221C9.45135 6.82244 9.34375 6.53047 9.34375 6.16167C9.34375 5.8236 9.45136 5.54698 9.67418 5.33185C9.897 5.11671 10.1505 5.00146 10.4502 5.00146C10.7498 5.00146 10.988 5.10136 11.2032 5.30113C11.4183 5.5009 11.5336 5.78518 11.5336 6.16167C11.5336 6.53815 11.426 6.81475 11.2109 7.02221C10.9957 7.22966 10.7421 7.32956 10.4502 7.32956ZM11.5336 9.78826V16.6726C11.5336 17.1489 11.426 17.5101 11.2185 17.756C11.0111 18.0018 10.7498 18.1247 10.4271 18.1247C10.1044 18.1247 9.84318 18.0018 9.64341 17.7483C9.44365 17.4947 9.34375 17.1413 9.34375 16.6726V9.86508C9.34375 9.39639 9.44365 9.03526 9.64341 8.79707C9.84318 8.55889 10.1044 8.44367 10.4271 8.44367C10.7498 8.44367 11.0111 8.55889 11.2185 8.79707C11.426 9.03526 11.5336 9.36568 11.5336 9.78826Z" fill="#FF6B00"/>
<path d="M10.4353 20.9999C15.6462 20.9999 19.8705 16.7756 19.8705 11.5646C19.8705 6.35371 15.6462 2.12939 10.4353 2.12939C5.22432 2.12939 1 6.35371 1 11.5646C1 16.7756 5.22432 20.9999 10.4353 20.9999Z" stroke="#FF6B00" stroke-width="1.55876"/>
</g>
<path d="M11.581 6.20017C11.2814 6.20017 11.0202 6.10026 10.7973 5.89281C10.5822 5.69304 10.4746 5.40108 10.4746 5.03227C10.4746 4.6942 10.5822 4.41759 10.805 4.20245C11.0279 3.98732 11.2814 3.87207 11.581 3.87207C11.8807 3.87207 12.1189 3.97197 12.334 4.17173C12.5492 4.3715 12.6644 4.65579 12.6644 5.03227C12.6644 5.40876 12.5569 5.68536 12.3417 5.89281C12.1266 6.10026 11.873 6.20017 11.581 6.20017ZM12.6644 8.65887V15.5432C12.6644 16.0195 12.5568 16.3807 12.3494 16.6266C12.1419 16.8724 11.8807 16.9954 11.558 16.9954C11.2353 16.9954 10.974 16.8724 10.7743 16.6189C10.5745 16.3653 10.4746 16.0119 10.4746 15.5432V8.73568C10.4746 8.267 10.5745 7.90586 10.7743 7.66768C10.974 7.42949 11.2353 7.31427 11.558 7.31427C11.8807 7.31427 12.1419 7.42949 12.3494 7.66768C12.5568 7.90586 12.6644 8.23628 12.6644 8.65887Z" fill="#4D4D4F"/>
<path d="M11.5661 19.8705C16.777 19.8705 21.0013 15.6462 21.0013 10.4353C21.0013 5.22432 16.777 1 11.5661 1C6.35518 1 2.13086 5.22432 2.13086 10.4353C2.13086 15.6462 6.35518 19.8705 11.5661 19.8705Z" stroke="#FF6B00" stroke-width="1.55876"/>
</svg>
