<svg width="24" height="15" viewBox="0 0 24 15" fill="none" xmlns="http://www.w3.org/2000/svg">
<g opacity="0.3">
<path d="M4.54407 13.8327H0.742188V11.1171C1.17559 11.1335 1.609 11.0677 2.01497 10.9141C2.42095 10.7605 2.794 10.5245 3.10671 10.2228C3.41942 9.92107 3.6718 9.55899 3.84187 9.1585C4.01194 8.75801 4.0997 8.33009 4.0997 7.8912C4.0997 7.45231 4.01194 7.02439 3.84187 6.62391C3.6718 6.22342 3.41942 5.86133 3.10671 5.55959C2.794 5.25786 2.42095 5.02195 2.01497 4.86834C1.609 4.71472 1.17559 4.64341 0.742188 4.66535V1.9552H21.6498V4.66535C21.2164 4.64889 20.783 4.71472 20.3771 4.86834C19.9711 5.02195 19.598 5.25786 19.2853 5.55959C18.9726 5.86133 18.7203 6.22342 18.5502 6.62391C18.3801 7.02439 18.2923 7.45231 18.2923 7.8912C18.2923 8.33009 18.3801 8.75801 18.5502 9.1585C18.7203 9.55899 18.9726 9.92107 19.2853 10.2228C19.598 10.5245 19.9711 10.7605 20.3771 10.9141C20.783 11.0677 21.2164 11.139 21.6498 11.1171V13.8327H8.00033" stroke="#4D4D4F" stroke-width="1.11369" stroke-linecap="round" stroke-linejoin="round"/>
<path d="M15.6035 6.29492V9.49881" stroke="#4D4D4F" stroke-width="1.11369" stroke-linecap="round" stroke-linejoin="round"/>
<path d="M15.6035 1.96191V3.45413" stroke="#4D4D4F" stroke-width="1.11369" stroke-linecap="round" stroke-linejoin="round"/>
<path d="M15.6035 13.8338V12.3361" stroke="#4D4D4F" stroke-width="1.11369" stroke-linecap="round" stroke-linejoin="round"/>
<path d="M7.6386 6.93186C8.30791 6.93186 8.84555 6.38872 8.84555 5.7249C8.84555 5.06108 8.30242 4.51794 7.6386 4.51794C6.97477 4.51794 6.43164 5.06108 6.43164 5.7249C6.43164 6.38872 6.97477 6.93186 7.6386 6.93186Z" stroke="#4D4D4F" stroke-width="1.11369" stroke-linecap="round" stroke-linejoin="round"/>
<path d="M11.7304 11.0234C12.3997 11.0234 12.9373 10.4803 12.9373 9.81645C12.9373 9.15263 12.3942 8.6095 11.7304 8.6095C11.0665 8.6095 10.5234 9.15263 10.5234 9.81645C10.5234 10.4803 11.0665 11.0234 11.7304 11.0234Z" stroke="#4D4D4F" stroke-width="1.11369" stroke-linecap="round" stroke-linejoin="round"/>
<path d="M11.7317 5.72437L7.64453 9.81154" stroke="#4D4D4F" stroke-width="1.11369" stroke-linecap="round" stroke-linejoin="round"/>
</g>
<path d="M5.35072 13.0262H1.54883V10.3105C1.98223 10.327 2.41564 10.2612 2.82162 10.1075C3.22759 9.95394 3.60064 9.71803 3.91335 9.41629C4.22606 9.11455 4.47844 8.75247 4.64851 8.35198C4.81858 7.95149 4.90634 7.52357 4.90634 7.08468C4.90634 6.64579 4.81858 6.21788 4.64851 5.81739C4.47844 5.4169 4.22606 5.05481 3.91335 4.75308C3.60064 4.45134 3.22759 4.21543 2.82162 4.06182C2.41564 3.90821 1.98223 3.83689 1.54883 3.85883V1.14868H22.4565V3.85883C22.0231 3.84238 21.5897 3.90821 21.1837 4.06182C20.7777 4.21543 20.4047 4.45134 20.092 4.75308C19.7792 5.05481 19.5269 5.4169 19.3568 5.81739C19.1868 6.21788 19.099 6.64579 19.099 7.08468C19.099 7.52357 19.1868 7.95149 19.3568 8.35198C19.5269 8.75247 19.7792 9.11455 20.092 9.41629C20.4047 9.71803 20.7777 9.95394 21.1837 10.1075C21.5897 10.2612 22.0231 10.3325 22.4565 10.3105V13.0262H8.80697" stroke="#4D4D4F" stroke-width="1.11369" stroke-linecap="round" stroke-linejoin="round"/>
<path d="M16.4102 5.48853V8.69241" stroke="#4D4D4F" stroke-width="1.11369" stroke-linecap="round" stroke-linejoin="round"/>
<path d="M16.4102 1.15552V2.64773" stroke="#4D4D4F" stroke-width="1.11369" stroke-linecap="round" stroke-linejoin="round"/>
<path d="M16.4102 13.0274V11.5297" stroke="#4D4D4F" stroke-width="1.11369" stroke-linecap="round" stroke-linejoin="round"/>
<path d="M8.44328 6.12546C9.11259 6.12546 9.65024 5.58233 9.65024 4.9185C9.65024 4.25468 9.10711 3.71155 8.44328 3.71155C7.77946 3.71155 7.23633 4.25468 7.23633 4.9185C7.23633 5.58233 7.77946 6.12546 8.44328 6.12546Z" stroke="#4D4D4F" stroke-width="1.11369" stroke-linecap="round" stroke-linejoin="round"/>
<path d="M12.537 10.217C13.2063 10.217 13.744 9.67388 13.744 9.01006C13.744 8.34623 13.2008 7.8031 12.537 7.8031C11.8732 7.8031 11.3301 8.34623 11.3301 9.01006C11.3301 9.67388 11.8732 10.217 12.537 10.217Z" stroke="#4D4D4F" stroke-width="1.11369" stroke-linecap="round" stroke-linejoin="round"/>
<path d="M12.5383 4.91797L8.45117 9.00515" stroke="#4D4D4F" stroke-width="1.11369" stroke-linecap="round" stroke-linejoin="round"/>
</svg>
