<svg width="23" height="23" viewBox="0 0 23 23" fill="none" xmlns="http://www.w3.org/2000/svg">
<g opacity="0.3">
<path d="M10.918 21.6953C16.4408 21.6953 20.918 17.2182 20.918 11.6953C20.918 6.17246 16.4408 1.69531 10.918 1.69531C5.39512 1.69531 0.917969 6.17246 0.917969 11.6953C0.917969 17.2182 5.39512 21.6953 10.918 21.6953Z" stroke="white" stroke-width="1.34634" stroke-linecap="round" stroke-linejoin="round"/>
<path d="M7.74805 8.76758L10.7968 11.6944M10.7968 11.6944L13.8456 14.6212M10.7968 11.6944L7.74805 14.6212M13.8456 8.76758L12.8293 9.74319" stroke="white" stroke-width="1.34634" stroke-linecap="round" stroke-linejoin="round"/>
</g>
<path d="M11.6504 20.9629C17.1732 20.9629 21.6504 16.4857 21.6504 10.9629C21.6504 5.44004 17.1732 0.962891 11.6504 0.962891C6.12754 0.962891 1.65039 5.44004 1.65039 10.9629C1.65039 16.4857 6.12754 20.9629 11.6504 20.9629Z" stroke="white" stroke-width="1.34634" stroke-linecap="round" stroke-linejoin="round"/>
<path d="M8.48047 8.03516L11.5292 10.962M11.5292 10.962L14.578 13.8888M11.5292 10.962L8.48047 13.8888M14.578 8.03516L13.5618 9.01077" stroke="white" stroke-width="1.34634" stroke-linecap="round" stroke-linejoin="round"/>
</svg>
