<svg width="133" height="44" viewBox="0 0 133 44" fill="none" xmlns="http://www.w3.org/2000/svg">
<path d="M64.038 18.0023C64.038 18.4891 63.2716 18.6375 62.7198 18.6375C62.0032 18.6375 61.3134 18.3712 61.3134 17.1694V11.6925H60.5815C60.4732 11.6824 60.3726 11.6325 60.2994 11.5527C60.2261 11.4728 60.1855 11.3687 60.1855 11.2608C60.1855 11.1528 60.2261 11.0487 60.2994 10.9689C60.3726 10.889 60.4732 10.8392 60.5815 10.8291H61.3134V9.47888C61.3134 9.34472 61.3671 9.21605 61.4627 9.12118C61.5583 9.02632 61.6879 8.97302 61.8231 8.97302C61.9583 8.97302 62.0879 9.02632 62.1835 9.12118C62.2791 9.21605 62.3328 9.34472 62.3328 9.47888V10.8291H63.5858C63.6464 10.8234 63.7074 10.8304 63.7651 10.8495C63.8228 10.8687 63.8758 10.8995 63.9208 10.9402C63.9657 10.9808 64.0017 11.0303 64.0263 11.0855C64.0508 11.1407 64.0635 11.2004 64.0635 11.2608C64.0635 11.3211 64.0508 11.3808 64.0263 11.436C64.0017 11.4912 63.9657 11.5408 63.9208 11.5814C63.8758 11.622 63.8228 11.6529 63.7651 11.672C63.7074 11.6911 63.6464 11.6981 63.5858 11.6925H62.3328V17.0933C62.3328 17.5687 62.5397 17.7475 62.9305 17.7475C63.1337 17.7418 63.3351 17.7072 63.5283 17.6448C63.586 17.6248 63.6476 17.6187 63.7081 17.6272C63.7685 17.6356 63.8261 17.6582 63.876 17.6932C63.9258 17.7282 63.9666 17.7745 63.9947 17.8283C64.0229 17.882 64.0377 17.9417 64.038 18.0023Z" fill="#4D4D4F"/>
<path d="M70.0052 11.2478C70.0052 11.5445 69.7484 11.7347 69.3154 11.7347C68.6845 11.7413 68.0752 11.9635 67.5901 12.364C67.105 12.7644 66.7737 13.3185 66.6522 13.933V18.1168C66.6583 18.1866 66.6497 18.257 66.627 18.3234C66.6042 18.3898 66.5678 18.4507 66.5201 18.5024C66.4723 18.5541 66.4143 18.5954 66.3496 18.6236C66.285 18.6519 66.2151 18.6664 66.1444 18.6664C66.0738 18.6664 66.0039 18.6519 65.9392 18.6236C65.8745 18.5954 65.8165 18.5541 65.7688 18.5024C65.721 18.4507 65.6846 18.3898 65.6619 18.3234C65.6391 18.257 65.6306 18.1866 65.6367 18.1168V11.3049C65.6306 11.235 65.6391 11.1646 65.6619 11.0983C65.6846 11.0319 65.721 10.9709 65.7688 10.9192C65.8165 10.8675 65.8745 10.8262 65.9392 10.798C66.0039 10.7698 66.0738 10.7552 66.1444 10.7552C66.2151 10.7552 66.285 10.7698 66.3496 10.798C66.4143 10.8262 66.4723 10.8675 66.5201 10.9192C66.5678 10.9709 66.6042 11.0319 66.627 11.0983C66.6497 11.1646 66.6583 11.235 66.6522 11.3049V12.6399C66.8642 12.0868 67.2388 11.6097 67.7273 11.2706C68.2159 10.9315 68.7959 10.746 69.392 10.7382C69.7791 10.7762 70.0052 10.9626 70.0052 11.2478Z" fill="#4D4D4F"/>
<path d="M71.6035 15.4162V11.3199C71.6035 11.2535 71.6167 11.1877 71.6423 11.1264C71.6679 11.065 71.7055 11.0092 71.7528 10.9622C71.8001 10.9153 71.8563 10.878 71.9181 10.8526C71.98 10.8272 72.0462 10.8141 72.1132 10.8141C72.1801 10.8141 72.2464 10.8272 72.3082 10.8526C72.37 10.878 72.4262 10.9153 72.4736 10.9622C72.5209 11.0092 72.5584 11.065 72.584 11.1264C72.6096 11.1877 72.6228 11.2535 72.6228 11.3199V15.4162C72.6228 17.1391 73.6843 17.7629 74.7879 17.7629C75.4258 17.7503 76.0386 17.5144 76.5182 17.0969C76.9978 16.6793 77.3133 16.1069 77.409 15.4809V11.2971C77.4029 11.2273 77.4115 11.1569 77.4342 11.0905C77.4569 11.0241 77.4933 10.9631 77.5411 10.9114C77.5888 10.8598 77.6469 10.8185 77.7115 10.7903C77.7762 10.762 77.8461 10.7474 77.9167 10.7474C77.9874 10.7474 78.0573 10.762 78.1219 10.7903C78.1866 10.8185 78.2447 10.8598 78.2924 10.9114C78.3402 10.9631 78.3765 11.0241 78.3993 11.0905C78.422 11.1569 78.4306 11.2273 78.4245 11.2971V18.1204C78.4306 18.1903 78.422 18.2606 78.3993 18.327C78.3765 18.3934 78.3402 18.4544 78.2924 18.5061C78.2447 18.5578 78.1866 18.5991 78.1219 18.6273C78.0573 18.6555 77.9874 18.6701 77.9167 18.6701C77.8461 18.6701 77.7762 18.6555 77.7115 18.6273C77.6469 18.5991 77.5888 18.5578 77.5411 18.5061C77.4933 18.4544 77.4569 18.3934 77.4342 18.327C77.4115 18.2606 77.4029 18.1903 77.409 18.1204V16.7816C77.317 17.2723 76.3744 18.6833 74.5503 18.6833C73.1593 18.6681 71.6035 17.8656 71.6035 15.4162Z" fill="#4D4D4F"/>
<path d="M87.276 14.0053V18.1054C87.2822 18.1752 87.2736 18.2456 87.2509 18.312C87.2281 18.3784 87.1917 18.4393 87.144 18.491C87.0962 18.5427 87.0382 18.584 86.9735 18.6122C86.9088 18.6405 86.839 18.655 86.7683 18.655C86.6977 18.655 86.6278 18.6405 86.5631 18.6122C86.4984 18.584 86.4404 18.5427 86.3926 18.491C86.3449 18.4393 86.3085 18.3784 86.2858 18.312C86.263 18.2456 86.2544 18.1752 86.2606 18.1054V14.0053C86.2606 12.2861 85.1991 11.6624 84.0917 11.6624C83.4531 11.6713 82.8387 11.906 82.359 12.3243C81.8792 12.7426 81.5656 13.3171 81.4744 13.9444V18.1282C81.4744 18.2623 81.4207 18.391 81.3251 18.4859C81.2295 18.5807 81.0999 18.634 80.9647 18.634C80.8296 18.634 80.6999 18.5807 80.6044 18.4859C80.5088 18.391 80.4551 18.2623 80.4551 18.1282V11.3049C80.4551 11.1707 80.5088 11.042 80.6044 10.9472C80.6999 10.8523 80.8296 10.799 80.9647 10.799C81.0999 10.799 81.2295 10.8523 81.3251 10.9472C81.4207 11.042 81.4744 11.1707 81.4744 11.3049V12.6399C81.5625 12.153 82.5052 10.7382 84.3292 10.7382C85.7432 10.7762 87.276 11.5559 87.276 14.0053Z" fill="#4D4D4F"/>
<path d="M96.5654 11.3049V18.4021C96.5654 20.8515 94.454 21.5931 92.8714 21.5931C92.1356 21.606 91.4088 21.4318 90.7599 21.0873C90.6733 21.0524 90.5988 20.9931 90.5457 20.9168C90.4926 20.8404 90.4632 20.7503 90.461 20.6575C90.4639 20.5485 90.5089 20.4447 90.5866 20.3675C90.6643 20.2904 90.7689 20.2458 90.8787 20.2429C90.9927 20.2537 91.1041 20.2833 91.2083 20.3304C91.7328 20.5895 92.3123 20.7199 92.8982 20.7107C94.3352 20.7107 95.5461 20.0109 95.5461 18.4287V18.2652C95.5388 18.2262 95.5388 18.1862 95.5461 18.1472V16.8617C95.3144 17.4002 94.9256 17.8574 94.4298 18.1747C93.934 18.4919 93.3538 18.6546 92.7641 18.6417C91.0895 18.6417 89.0547 17.3523 89.0547 14.6785C89.0547 12.0047 91.0895 10.7306 92.7641 10.7306C93.3381 10.7112 93.9057 10.8562 94.399 11.1482C94.8923 11.4402 95.2905 11.8669 95.5461 12.3775V11.3049C95.5448 11.1708 95.5953 11.0413 95.6873 10.943C95.7792 10.8446 95.9056 10.785 96.0404 10.7762C96.1102 10.7757 96.1793 10.7891 96.2437 10.8156C96.3082 10.842 96.3666 10.8811 96.4156 10.9304C96.4645 10.9797 96.503 11.0382 96.5287 11.1026C96.5545 11.1669 96.567 11.2357 96.5654 11.3049ZM95.5921 14.69C95.5921 12.5524 94.1244 11.6472 92.856 11.6472C91.5876 11.6472 90.0587 12.6285 90.0587 14.69C90.0587 16.7514 91.5915 17.7631 92.856 17.7631C94.1206 17.7631 95.5921 16.7818 95.5921 14.69Z" fill="#4D4D4F"/>
<path d="M101.755 18.0023C101.755 18.4891 101.008 18.6375 100.437 18.6375C99.72 18.6375 99.0302 18.3712 99.0302 17.1694V11.6925H98.2983C98.19 11.6824 98.0894 11.6325 98.0162 11.5527C97.9429 11.4728 97.9023 11.3687 97.9023 11.2608C97.9023 11.1528 97.9429 11.0487 98.0162 10.9689C98.0894 10.889 98.19 10.8392 98.2983 10.8291H99.0302V9.47888C99.0302 9.34472 99.0839 9.21605 99.1795 9.12118C99.2751 9.02632 99.4047 8.97302 99.5399 8.97302C99.6751 8.97302 99.8047 9.02632 99.9003 9.12118C99.9958 9.21605 100.05 9.34472 100.05 9.47888V10.8291H101.306C101.367 10.8234 101.428 10.8304 101.486 10.8495C101.543 10.8687 101.596 10.8995 101.641 10.9402C101.686 10.9808 101.722 11.0303 101.747 11.0855C101.771 11.1407 101.784 11.2004 101.784 11.2608C101.784 11.3211 101.771 11.3808 101.747 11.436C101.722 11.4912 101.686 11.5408 101.641 11.5814C101.596 11.622 101.543 11.6529 101.486 11.672C101.428 11.6911 101.367 11.6981 101.306 11.6925H100.05V17.0933C100.05 17.5687 100.256 17.7475 100.647 17.7475C100.851 17.7418 101.052 17.7072 101.245 17.6448C101.303 17.6248 101.364 17.6187 101.425 17.6272C101.485 17.6356 101.543 17.6582 101.593 17.6932C101.643 17.7282 101.683 17.7745 101.712 17.8283C101.74 17.882 101.755 17.9417 101.755 18.0023Z" fill="#4D4D4F"/>
<path d="M109.394 12.3886V11.3047C109.392 11.1677 109.444 11.0355 109.539 10.9366C109.635 10.8377 109.766 10.78 109.903 10.776C109.972 10.7755 110.04 10.7885 110.103 10.8143C110.167 10.8401 110.225 10.8782 110.273 10.9264C110.322 10.9745 110.36 11.0317 110.386 11.0947C110.412 11.1577 110.425 11.2252 110.425 11.2932V18.1204C110.431 18.1912 110.422 18.2626 110.399 18.33C110.376 18.3973 110.339 18.4592 110.29 18.5116C110.242 18.5641 110.183 18.6059 110.117 18.6346C110.052 18.6632 109.981 18.678 109.909 18.678C109.837 18.678 109.767 18.6632 109.701 18.6346C109.635 18.6059 109.576 18.5641 109.528 18.5116C109.48 18.4592 109.443 18.3973 109.419 18.33C109.396 18.2626 109.388 18.1912 109.394 18.1204V16.8614C109.162 17.3999 108.773 17.8572 108.277 18.1744C107.782 18.4917 107.201 18.6543 106.612 18.6414C104.937 18.6414 102.902 17.3521 102.902 14.6783C102.902 12.0045 104.937 10.7303 106.612 10.7303C107.187 10.7124 107.755 10.8593 108.248 11.1534C108.742 11.4474 109.139 11.8763 109.394 12.3886ZM109.455 14.6897C109.455 12.5522 107.987 11.647 106.715 11.647C105.443 11.647 103.918 12.6282 103.918 14.6897C103.918 16.7511 105.451 17.7628 106.715 17.7628C107.98 17.7628 109.455 16.7816 109.455 14.6897Z" fill="#4D4D4F"/>
<path d="M125.097 14.0055V18.1056C125.095 18.2402 125.041 18.369 124.946 18.4653C124.852 18.5616 124.723 18.618 124.588 18.6228C124.453 18.6153 124.327 18.5579 124.233 18.4621C124.139 18.3663 124.085 18.239 124.082 18.1056V14.0055C124.082 12.2864 123.016 11.6626 121.924 11.6626C121.284 11.6725 120.669 11.9072 120.187 12.325C119.705 12.7428 119.388 13.3167 119.292 13.9447V18.1284C119.298 18.1983 119.289 18.2686 119.267 18.335C119.244 18.4014 119.207 18.4624 119.16 18.5141C119.112 18.5658 119.054 18.607 118.989 18.6353C118.924 18.6635 118.855 18.6781 118.784 18.6781C118.713 18.6781 118.643 18.6635 118.579 18.6353C118.514 18.607 118.456 18.5658 118.408 18.5141C118.361 18.4624 118.324 18.4014 118.301 18.335C118.279 18.2686 118.27 18.1983 118.276 18.1284V14.0055C118.276 12.2864 117.215 11.6626 116.107 11.6626C115.469 11.6715 114.854 11.9062 114.375 12.3245C113.895 12.7428 113.581 13.3173 113.49 13.9447V18.1284C113.496 18.1983 113.488 18.2686 113.465 18.335C113.442 18.4014 113.406 18.4624 113.358 18.5141C113.31 18.5658 113.252 18.607 113.188 18.6353C113.123 18.6635 113.053 18.6781 112.982 18.6781C112.912 18.6781 112.842 18.6635 112.777 18.6353C112.712 18.607 112.654 18.5658 112.607 18.5141C112.559 18.4624 112.522 18.4014 112.5 18.335C112.477 18.2686 112.468 18.1983 112.475 18.1284V11.3051C112.468 11.2352 112.477 11.1649 112.5 11.0985C112.522 11.0321 112.559 10.9711 112.607 10.9194C112.654 10.8677 112.712 10.8265 112.777 10.7982C112.842 10.77 112.912 10.7554 112.982 10.7554C113.053 10.7554 113.123 10.77 113.188 10.7982C113.252 10.8265 113.31 10.8677 113.358 10.9194C113.406 10.9711 113.442 11.0321 113.465 11.0985C113.488 11.1649 113.496 11.2352 113.49 11.3051V12.6401C113.578 12.1533 114.521 10.7384 116.349 10.7384C116.968 10.7049 117.579 10.8823 118.083 11.2414C118.586 11.6004 118.95 12.1195 119.115 12.7124C119.376 12.1219 119.805 11.6203 120.35 11.2695C120.895 10.9186 121.532 10.734 122.181 10.7384C123.557 10.7764 125.097 11.5561 125.097 14.0055Z" fill="#4D4D4F"/>
<path d="M60.709 21.8062V30.9343C60.6991 31.2044 60.5843 31.4603 60.3885 31.6482C60.1928 31.836 59.9314 31.9414 59.6591 31.9423C59.388 31.9433 59.1275 31.8379 58.9345 31.6491C58.7414 31.4603 58.6313 31.2034 58.6283 30.9343V30.6377C58.5018 31.1207 57.6741 31.9575 56.3291 31.9575C54.6085 31.9575 52.5469 30.6377 52.5469 27.8156C52.5469 25.0543 54.6238 23.6851 56.3291 23.6851C56.7991 23.665 57.2652 23.7786 57.6724 24.0124C58.0797 24.2462 58.4113 24.5905 58.6283 25.0048V24.7424C58.6207 24.6856 58.6207 24.6281 58.6283 24.5712V21.8062C58.6331 21.54 58.7416 21.2861 58.9309 21.0975C59.1202 20.9089 59.3756 20.8003 59.6437 20.7945C59.9191 20.7923 60.1844 20.8968 60.3833 21.0857C60.5822 21.2746 60.6991 21.5331 60.709 21.8062ZM58.7241 27.8422C58.7241 26.0888 57.5745 25.4498 56.6893 25.4498C55.6585 25.4498 54.5778 26.26 54.5778 27.8422C54.5778 29.4244 55.6585 30.2307 56.6893 30.2307C57.5668 30.2155 58.7241 29.5803 58.7241 27.827V27.8422Z" fill="#4D4D4F"/>
<path d="M62.6602 28.272V24.7538C62.6761 24.4948 62.7911 24.2515 62.9816 24.0736C63.172 23.8958 63.4237 23.7968 63.6852 23.7968C63.9467 23.7968 64.1984 23.8958 64.3889 24.0736C64.5794 24.2515 64.6943 24.4948 64.7103 24.7538V28.272C64.7103 29.6678 65.446 30.2421 66.3657 30.2421C67.7759 30.2421 68.2434 28.9376 68.3047 28.504V24.7538C68.3207 24.4948 68.4356 24.2515 68.6261 24.0736C68.8166 23.8958 69.0682 23.7968 69.3298 23.7968C69.5913 23.7968 69.8429 23.8958 70.0334 24.0736C70.2239 24.2515 70.3388 24.4948 70.3548 24.7538V30.9344C70.3634 31.0732 70.3432 31.2123 70.2956 31.3431C70.2479 31.4739 70.1738 31.5937 70.0778 31.695C69.9818 31.7963 69.8659 31.8771 69.7372 31.9323C69.6086 31.9874 69.4699 32.0159 69.3298 32.0159C69.1896 32.0159 69.0509 31.9874 68.9223 31.9323C68.7937 31.8771 68.6778 31.7963 68.5817 31.695C68.4857 31.5937 68.4116 31.4739 68.3639 31.3431C68.3163 31.2123 68.2961 31.0732 68.3047 30.9344V30.1737C68.2434 30.7328 67.3199 32.0031 65.6223 32.0031C64.055 31.9689 62.6602 30.9344 62.6602 28.272Z" fill="#4D4D4F"/>
<path d="M80.3441 27.8423C80.3441 30.6188 77.9529 31.969 76.171 31.969C74.3891 31.969 71.9941 30.6188 71.9941 27.8423C71.9972 26.7461 72.4375 25.6957 73.2189 24.9209C74.0002 24.1461 75.0589 23.71 76.1634 23.708C77.9529 23.708 80.3441 25.081 80.3441 27.8423ZM74.0289 27.8423C74.0289 29.3332 75.0597 30.2004 76.171 30.2004C77.2823 30.2004 78.3131 29.3332 78.3131 27.8423C78.3131 26.3514 77.2631 25.469 76.171 25.469C75.0789 25.469 74.0289 26.3362 74.0289 27.8423Z" fill="#4D4D4F"/>
<path d="M88.7399 30.1395C88.7212 30.3282 88.6593 30.5102 88.5591 30.6717C88.4588 30.8332 88.3227 30.9698 88.1613 31.0713C87.4908 31.662 86.6162 31.9727 85.7203 31.9385C83.8311 31.9385 81.5472 30.5883 81.5472 27.827C81.5399 27.2821 81.6431 26.7414 81.8505 26.2368C82.0579 25.7323 82.3654 25.2743 82.7547 24.8901C83.144 24.5059 83.6071 24.2032 84.1165 24.0001C84.626 23.797 85.1714 23.6976 85.7203 23.7079C86.6147 23.6697 87.4894 23.9764 88.1613 24.5637C88.3218 24.6697 88.4569 24.8095 88.5569 24.9732C88.6569 25.1369 88.7194 25.3204 88.7399 25.5107C88.7365 25.6148 88.7122 25.7171 88.6687 25.8119C88.6251 25.9066 88.563 25.9918 88.486 26.0625C88.409 26.1333 88.3187 26.1882 88.2202 26.224C88.1217 26.2599 88.017 26.276 87.9122 26.2714C87.6158 26.2597 87.3333 26.1438 87.1151 25.9443C86.7515 25.6292 86.2834 25.4586 85.8008 25.4651C84.5669 25.4651 83.5782 26.317 83.5782 27.8232C83.5782 29.3293 84.5669 30.1661 85.8008 30.1661C86.2839 30.1712 86.7519 29.9992 87.1151 29.683C87.3347 29.4863 87.6167 29.372 87.9122 29.3598C88.0186 29.3552 88.1248 29.3719 88.2246 29.4089C88.3243 29.4459 88.4155 29.5025 88.4928 29.5753C88.57 29.648 88.6317 29.7355 88.6742 29.8324C88.7166 29.9293 88.739 30.0338 88.7399 30.1395Z" fill="#4D4D4F"/>
<path d="M98.557 27.8271C98.557 30.6492 96.4915 31.969 94.7748 31.969C93.4144 31.969 92.5829 31.1322 92.4756 30.6492V30.9345C92.4839 30.9912 92.4839 31.0489 92.4756 31.1056V33.8973C92.4696 34.166 92.3581 34.4218 92.1648 34.6101C91.9715 34.7984 91.7118 34.9043 91.441 34.9052C91.1699 34.9062 90.9094 34.8009 90.7163 34.612C90.5233 34.4232 90.4132 34.1663 90.4102 33.8973V24.7539C90.4219 24.4844 90.5374 24.2297 90.7327 24.0422C90.928 23.8547 91.1884 23.7487 91.4601 23.746C91.7303 23.7479 91.9891 23.8543 92.1815 24.0424C92.374 24.2306 92.485 24.4858 92.4909 24.7539V25.0164C92.7075 24.6017 93.039 24.2571 93.4464 24.0233C93.8538 23.7894 94.32 23.6761 94.7901 23.6966C96.4724 23.708 98.557 25.0658 98.557 27.8271ZM96.5107 27.8271C96.5107 26.2449 95.4301 25.4347 94.3993 25.4347C93.5217 25.4347 92.3645 26.0737 92.3645 27.8271C92.3645 29.5804 93.5141 30.2156 94.3993 30.2156C95.4301 30.2156 96.5107 29.4131 96.5107 27.8271Z" fill="#4D4D4F"/>
<path d="M107.892 27.4238V30.9344C107.876 31.1935 107.761 31.4367 107.571 31.6146C107.38 31.7924 107.128 31.8915 106.867 31.8915C106.605 31.8915 106.354 31.7924 106.163 31.6146C105.973 31.4367 105.858 31.1935 105.842 30.9344V27.4276C105.842 26.0318 105.106 25.4575 104.186 25.4575C102.776 25.4575 102.309 26.7582 102.247 27.1956V30.9344C102.231 31.1935 102.116 31.4367 101.926 31.6146C101.736 31.7924 101.484 31.8915 101.222 31.8915C100.961 31.8915 100.709 31.7924 100.519 31.6146C100.328 31.4367 100.213 31.1935 100.197 30.9344V21.8062C100.213 21.5471 100.328 21.3038 100.519 21.126C100.709 20.9481 100.961 20.8491 101.222 20.8491C101.484 20.8491 101.736 20.9481 101.926 21.126C102.116 21.3038 102.231 21.5471 102.247 21.8062V25.5602C102.309 25.0011 103.232 23.7307 104.93 23.7307C106.501 23.7079 107.892 24.7386 107.892 27.4238Z" fill="#4D4D4F"/>
<path d="M117.711 24.7539V30.9344C117.701 31.2045 117.586 31.4603 117.391 31.6482C117.195 31.8361 116.933 31.9415 116.661 31.9423C116.391 31.9423 116.131 31.8365 115.939 31.6478C115.747 31.4591 115.637 31.2027 115.634 30.9344V30.6377C115.511 31.1208 114.68 31.9575 113.335 31.9575C111.614 31.9575 109.553 30.6377 109.553 27.8156C109.553 25.0543 111.634 23.6851 113.335 23.6851C113.805 23.6646 114.271 23.778 114.679 24.0118C115.086 24.2456 115.418 24.5902 115.634 25.0049V24.7424C115.64 24.4744 115.751 24.2191 115.944 24.031C116.136 23.8428 116.395 23.7365 116.665 23.7345C116.938 23.7383 117.199 23.8463 117.394 24.0362C117.589 24.226 117.702 24.483 117.711 24.7539ZM115.726 27.827C115.726 26.0736 114.576 25.4347 113.691 25.4347C112.66 25.4347 111.58 26.2448 111.58 27.827C111.58 29.4092 112.66 30.2155 113.691 30.2155C114.569 30.2155 115.726 29.5804 115.726 27.827Z" fill="#4D4D4F"/>
<path d="M132.999 27.4238V30.9344C132.983 31.1935 132.869 31.4367 132.678 31.6146C132.488 31.7924 132.236 31.8915 131.974 31.8915C131.713 31.8915 131.461 31.7924 131.271 31.6146C131.08 31.4367 130.965 31.1935 130.949 30.9344V27.4276C130.949 26.0318 130.217 25.4575 129.294 25.4575C127.888 25.4575 127.401 26.7582 127.355 27.1956V30.9344C127.355 31.2037 127.247 31.462 127.055 31.6525C126.863 31.8429 126.603 31.9499 126.332 31.9499C126.06 31.9499 125.8 31.8429 125.608 31.6525C125.416 31.462 125.309 31.2037 125.309 30.9344V27.4276C125.309 26.0318 124.573 25.4575 123.649 25.4575C122.243 25.4575 121.772 26.7582 121.71 27.1956V30.9344C121.71 31.2037 121.603 31.462 121.411 31.6525C121.219 31.8429 120.959 31.9499 120.687 31.9499C120.416 31.9499 120.156 31.8429 119.964 31.6525C119.772 31.462 119.664 31.2037 119.664 30.9344V24.7691C119.664 24.6357 119.691 24.5037 119.742 24.3804C119.793 24.2572 119.869 24.1453 119.964 24.051C120.059 23.9567 120.172 23.8819 120.296 23.8309C120.42 23.7798 120.553 23.7536 120.687 23.7536C120.822 23.7536 120.955 23.7798 121.079 23.8309C121.203 23.8819 121.316 23.9567 121.411 24.051C121.506 24.1453 121.581 24.2572 121.632 24.3804C121.684 24.5037 121.71 24.6357 121.71 24.7691V25.5297C121.772 24.9706 122.695 23.7003 124.393 23.7003C124.998 23.6727 125.595 23.8495 126.086 24.2017C126.578 24.554 126.934 25.0609 127.098 25.64C127.343 25.0666 127.752 24.577 128.274 24.2322C128.797 23.8874 129.41 23.7024 130.037 23.7003C131.608 23.7079 132.999 24.7386 132.999 27.4238Z" fill="#4D4D4F"/>
<path d="M38.1243 13.7493H35.9056C35.4687 13.7498 35.0359 13.6648 34.6321 13.499C34.2284 13.3333 33.8615 13.0901 33.5525 12.7835C33.2435 12.4768 32.9986 12.1127 32.8316 11.7119C32.6646 11.3112 32.5789 10.8816 32.5794 10.448V8.24959C32.5794 6.06166 31.7037 3.96335 30.145 2.41625C28.5863 0.869151 26.4722 0 24.2678 0C22.0634 0 19.9493 0.869151 18.3906 2.41625C16.8319 3.96335 15.9562 6.06166 15.9562 8.24959V10.448C15.9562 11.3196 15.6089 12.1559 14.9901 12.7743C14.3713 13.3928 13.5312 13.7433 12.653 13.7493H10.419C8.21423 13.7493 6.09975 14.6183 4.54041 16.1653C2.98107 17.7123 2.10453 19.8106 2.10352 21.9989C2.10453 24.1872 2.98107 26.2855 4.54041 27.8325C6.09975 29.3795 8.21423 30.2485 10.419 30.2485H12.653C13.0898 30.2485 13.5223 30.3339 13.9259 30.4998C14.3294 30.6657 14.6961 30.9089 15.005 31.2154C15.3138 31.522 15.5588 31.8859 15.726 32.2865C15.8932 32.687 15.9792 33.1163 15.9792 33.5499V35.752C15.9787 37.601 16.6043 39.3965 17.7556 40.8501C18.9069 42.3038 20.517 43.3312 22.3273 43.7673C24.1376 44.2035 26.0431 44.023 27.7377 43.2551C29.4323 42.4871 30.8176 41.1761 31.6712 39.5326L22.4744 23.0258C22.2437 22.5566 22.1994 22.0184 22.3505 21.5183C22.5016 21.0182 22.837 20.5929 23.2898 20.3272C23.7426 20.0615 24.2796 19.9748 24.7939 20.0844C25.3082 20.194 25.7621 20.4919 26.065 20.9187L32.1962 30.6859C32.2058 30.2477 32.328 29.8192 32.5513 29.4411C32.7747 29.063 33.0917 28.7478 33.4723 28.5256C34.7483 27.685 36.3923 27.7649 37.3848 29.1037C37.5006 29.2577 37.6019 29.4219 37.6875 29.5943C37.266 28.5255 37.6875 27.415 39.0747 26.8939C40.1783 26.4793 41.3279 26.5326 42.2207 27.723C42.4156 27.9989 42.5776 28.2963 42.7036 28.6092C42.6721 28.305 42.7405 27.9988 42.8987 27.7363C43.0568 27.4738 43.2962 27.269 43.5811 27.1525C43.972 26.9508 44.4051 26.8427 44.8457 26.8368C45.8795 25.4325 46.4364 23.7382 46.4359 21.9989C46.4359 20.9156 46.221 19.8428 45.8033 18.8419C45.3856 17.841 44.7733 16.9316 44.0015 16.1656C43.2297 15.3995 42.3135 14.7919 41.305 14.3773C40.2966 13.9627 39.2158 13.7493 38.1243 13.7493ZM30.1001 23.5241C30.0838 23.5855 30.0554 23.6431 30.0166 23.6937C29.9778 23.7442 29.9293 23.7867 29.874 23.8187C29.8187 23.8506 29.7575 23.8715 29.6941 23.88C29.6307 23.8885 29.5661 23.8845 29.5042 23.8683C29.4423 23.852 29.3843 23.8239 29.3334 23.7854C29.2824 23.7469 29.2396 23.6988 29.2074 23.6439C29.1752 23.5889 29.1542 23.5283 29.1457 23.4653C29.1371 23.4023 29.1411 23.3383 29.1574 23.2768C29.4135 22.3168 29.3767 21.3029 29.0517 20.3636C28.7267 19.4242 28.1281 18.6018 27.3318 18.0005C26.5354 17.3991 25.5772 17.0459 24.5784 16.9856C23.5797 16.9252 22.5853 17.1605 21.7214 17.6615C20.8574 18.1626 20.1628 18.9069 19.7254 19.8001C19.288 20.6934 19.1276 21.6954 19.2645 22.6792C19.4013 23.663 19.8293 24.5844 20.4942 25.3265C21.1591 26.0687 22.031 26.5983 22.9994 26.8482C23.1121 26.8803 23.2094 26.9513 23.2739 27.0485C23.3383 27.1456 23.3656 27.2624 23.3508 27.3778C23.336 27.4932 23.28 27.5995 23.1931 27.6774C23.1061 27.7554 22.9939 27.7999 22.8768 27.8029C22.8361 27.8087 22.7948 27.8087 22.7542 27.8029C21.5986 27.5061 20.5577 26.8756 19.7633 25.9912C18.9689 25.1069 18.4568 24.0085 18.2917 22.8351C18.1267 21.6617 18.3161 20.4661 18.836 19.3996C19.356 18.3332 20.1831 17.4438 21.2126 16.8441C22.2421 16.2445 23.4277 15.9615 24.6193 16.031C25.8109 16.1006 26.955 16.5195 27.9066 17.2347C28.8582 17.9499 29.5746 18.9294 29.9651 20.049C30.3556 21.1685 30.4026 22.378 30.1001 23.5241ZM33.6486 24.4559C33.6286 24.5252 33.5836 24.5848 33.5221 24.6233C33.4899 24.6416 33.4543 24.6534 33.4175 24.658C33.3807 24.6626 33.3433 24.6598 33.3075 24.6499C33.2721 24.642 33.2387 24.6267 33.2096 24.6051C33.1806 24.5835 33.1565 24.5559 33.1389 24.5244C33.1198 24.4927 33.1072 24.4575 33.1019 24.4209C33.0967 24.3844 33.0988 24.3471 33.1082 24.3114C33.5668 22.5772 33.497 20.7471 32.9079 19.0523C32.3187 17.3575 31.2365 15.8741 29.7982 14.7896C28.3598 13.705 26.6298 13.0681 24.8268 12.9592C23.0238 12.8503 21.2287 13.2744 19.6685 14.1778C18.1083 15.0812 16.8529 16.4235 16.0611 18.0349C15.2692 19.6463 14.9764 21.4545 15.2197 23.231C15.463 25.0075 16.2315 26.6726 17.4279 28.0158C18.6244 29.3589 20.1952 30.3199 21.9418 30.7772C22.0128 30.7969 22.0733 30.8433 22.1104 30.9065C22.129 30.9377 22.141 30.9724 22.1456 31.0083C22.1502 31.0443 22.1473 31.0808 22.1372 31.1157C22.1219 31.1746 22.0872 31.2268 22.0386 31.264C21.99 31.3012 21.9303 31.3213 21.869 31.3211H21.7962C19.9394 30.8373 18.2692 29.8173 16.9971 28.3904C15.7251 26.9634 14.9084 25.1938 14.6507 23.3058C14.3929 21.4177 14.7057 19.4962 15.5494 17.7848C16.393 16.0733 17.7296 14.649 19.3897 13.6923C21.0462 12.7335 22.9519 12.2839 24.8659 12.4002C26.7798 12.5165 28.616 13.1936 30.1423 14.3457C31.6686 15.4978 32.8164 17.0733 33.4405 18.8729C34.0646 20.6726 34.137 22.6154 33.6486 24.4559Z" fill="#FF6B00"/>
<path d="M7.14581 10.5579C5.77978 11.054 4.52577 11.8127 3.45559 12.7905C2.41064 13.7488 1.56564 14.9015 0.968625 16.1832C0.386548 17.44 0.059711 18.7983 0.00679239 20.1806C-0.04257 21.5335 0.177502 22.8829 0.654401 24.1513C0.331975 22.8668 0.265586 21.5322 0.458969 20.2224C0.652863 18.9408 1.09811 17.7093 1.76951 16.5978C2.42808 15.5137 3.29528 14.569 4.32163 13.8175C5.32503 13.0853 6.46265 12.5543 7.6708 12.2543C7.7876 12.2285 7.89803 12.1798 7.99557 12.111C8.09311 12.0422 8.1758 11.9547 8.23875 11.8537C8.30171 11.7527 8.34366 11.6403 8.36214 11.5229C8.38062 11.4056 8.37525 11.2858 8.34635 11.1705C8.31745 11.0553 8.2656 10.9469 8.19386 10.8519C8.12212 10.7568 8.03194 10.677 7.92863 10.6171C7.82532 10.5572 7.71097 10.5184 7.59233 10.503C7.47368 10.4876 7.35313 10.4959 7.23778 10.5275L7.14198 10.5541L7.14581 10.5579Z" fill="#FF6B00"/>
</svg>
