<svg width="24" height="24" viewBox="0 0 24 24" fill="none" xmlns="http://www.w3.org/2000/svg">
<g opacity="0.3">
<path d="M4.72383 10.4346C4.72383 10.0406 4.87862 9.66061 5.16006 9.37917C5.4415 9.09773 5.82145 8.94294 6.21547 8.94294H6.91204C7.1583 8.94294 7.39752 8.87961 7.61564 8.76704C7.83376 8.65446 8.01669 8.48559 8.15038 8.28155L8.75548 7.37391C8.88916 7.16987 9.07914 7.001 9.29022 6.88843C9.50834 6.77585 9.74756 6.71252 9.99382 6.71252H12.8716C13.1178 6.71252 13.357 6.77585 13.5752 6.88843C13.7933 7.001 13.9762 7.16987 14.1099 7.37391L14.715 8.28155C14.8487 8.48559 15.0387 8.65446 15.2497 8.76704C15.4679 8.87961 15.7071 8.94294 15.9533 8.94294H16.6499C17.0439 8.94294 17.4239 9.09773 17.7053 9.37917C17.9868 9.66061 18.1416 10.0406 18.1416 10.4346V17.147C18.1416 17.541 17.9868 17.9209 17.7053 18.2024C17.4239 18.4838 17.0439 18.6386 16.6499 18.6386H6.20843C5.81442 18.6386 5.43447 18.4838 5.15303 18.2024C4.87159 17.9209 4.7168 17.541 4.7168 17.147V10.4346H4.72383Z" stroke="#C7C8CA" stroke-width="1.42743" stroke-linecap="round" stroke-linejoin="round"/>
<path d="M13.6741 13.4182C13.6741 14.0093 13.4349 14.5792 13.0198 15.0013C12.6047 15.4235 12.0277 15.6557 11.4367 15.6557C10.8457 15.6557 10.2757 15.4165 9.85358 15.0013C9.43141 14.5792 9.19922 14.0093 9.19922 13.4182C9.19922 12.8272 9.43845 12.2573 9.85358 11.8351C10.2757 11.413 10.8457 11.1808 11.4367 11.1808C12.0277 11.1808 12.5976 11.42 13.0198 11.8351C13.442 12.2573 13.6741 12.8272 13.6741 13.4182Z" stroke="#C7C8CA" stroke-width="1.42743" stroke-linecap="round" stroke-linejoin="round"/>
<path d="M16.3968 2.03442H18.4021C20.4284 2.03442 22.0749 3.68088 22.0749 5.70726V7.71251M6.72927 2.04147H4.724C2.69762 2.04147 1.05118 3.68792 1.05118 5.7143V7.71955M22.0678 17.3941V19.3994C22.0678 21.4257 20.4214 23.0722 18.395 23.0722H16.3897M6.7152 23.0722H4.70992C2.68354 23.0722 1.03711 21.4257 1.03711 19.3994V17.3941" stroke="#C7C8CA" stroke-width="1.42743" stroke-linecap="round"/>
</g>
<path d="M5.75899 9.40015C5.75899 9.00613 5.91377 8.62618 6.19522 8.34474C6.47666 8.0633 6.8566 7.90851 7.25062 7.90851H7.94719C8.19345 7.90851 8.43268 7.84519 8.6508 7.73261C8.86891 7.62003 9.05185 7.45117 9.18553 7.24712L9.79063 6.33949C9.92432 6.13544 10.1143 5.96658 10.3254 5.854C10.5435 5.74142 10.7827 5.6781 11.029 5.6781H13.9067C14.153 5.6781 14.3922 5.74142 14.6103 5.854C14.8284 5.96658 15.0114 6.13544 15.1451 6.33949L15.7502 7.24712C15.8838 7.45117 16.0738 7.62003 16.2849 7.73261C16.503 7.84519 16.7422 7.90851 16.9885 7.90851H17.6851C18.0791 7.90851 18.459 8.0633 18.7405 8.34474C19.0219 8.62618 19.1767 9.00613 19.1767 9.40015V16.1126C19.1767 16.5066 19.0219 16.8865 18.7405 17.168C18.459 17.4494 18.0791 17.6042 17.6851 17.6042H7.24359C6.84957 17.6042 6.46963 17.4494 6.18818 17.168C5.90674 16.8865 5.75195 16.5066 5.75195 16.1126V9.40015H5.75899Z" stroke="#C7C8CA" stroke-width="1.42743" stroke-linecap="round" stroke-linejoin="round"/>
<path d="M14.7093 12.3838C14.7093 12.9748 14.4701 13.5448 14.0549 13.9669C13.6398 14.3891 13.0629 14.6213 12.4718 14.6213C11.8808 14.6213 11.3109 14.3821 10.8887 13.9669C10.4666 13.5448 10.2344 12.9748 10.2344 12.3838C10.2344 11.7928 10.4736 11.2229 10.8887 10.8007C11.3109 10.3785 11.8808 10.1464 12.4718 10.1464C13.0629 10.1464 13.6328 10.3856 14.0549 10.8007C14.4771 11.2229 14.7093 11.7928 14.7093 12.3838Z" stroke="#C7C8CA" stroke-width="1.42743" stroke-linecap="round" stroke-linejoin="round"/>
<path d="M17.4319 1H19.4372C21.4636 1 23.11 2.64645 23.11 4.67283V6.67809M7.76443 1.00704H5.75915C3.73277 1.00704 2.08634 2.6535 2.08634 4.67988V6.68513M23.103 16.3597V18.3649C23.103 20.3913 21.4566 22.0378 19.4302 22.0378H17.4249M7.75035 22.0378H5.74508C3.7187 22.0378 2.07227 20.3913 2.07227 18.3649V16.3597" stroke="#C7C8CA" stroke-width="1.42743" stroke-linecap="round"/>
</svg>
