<svg width="24" height="24" viewBox="0 0 24 24" fill="none" xmlns="http://www.w3.org/2000/svg">
<g opacity="0.3">
<path fill-rule="evenodd" clip-rule="evenodd" d="M5.03789 5.72906H9.88573V10.6754H5.03789V5.72906ZM17.1328 18.1336H18.3571V19.379H17.1328V18.1336ZM14.7547 18.1336H15.986V19.3156H13.5163V16.9304H14.7054V15.7062H15.9226V13.2506H17.168V14.4608H18.3501V15.7062H17.168V16.9304H14.7547V18.1406V18.1336ZM11.0678 15.6429H12.2639V14.3975H11.11V13.1521H12.2639V11.9067H11.0819V13.1521H9.85056V11.9067H11.0678V8.19871H12.2991V11.8997H13.4952V13.1521H14.6773V11.9067H15.9086V13.1521H14.7406V14.4045H13.5093V16.8601H12.3132V19.3297H11.0678V15.6429ZM17.0977 11.8715H18.329V13.1521H17.0977V11.8715ZM7.43719 11.8715H8.66849V13.1521H7.43719V11.8715ZM5.02383 11.8715H6.25514V13.1521H5.02383V11.8715ZM11.0678 5.70093H12.3132V6.94628H11.0678V5.70093ZM5.00977 14.3904H9.85758V19.3368H5.00977V14.3904ZM6.19181 15.5866H8.6896V18.1336H6.19181V15.5866ZM13.4952 5.70093H18.343V10.6472H13.4882V5.70093H13.4952ZM14.6773 6.91111H17.1751V9.4511H14.6773V6.90406V6.91111ZM6.21292 6.91815H8.71775V9.45815H6.21292V6.91111V6.91815Z" fill="#C7C8CA"/>
<path d="M16.3597 2.03442H18.3649C20.3913 2.03442 22.0377 3.68088 22.0377 5.70726V7.71251M6.69215 2.04147H4.68688C2.6605 2.04147 1.01406 3.68788 1.01406 5.71426V7.71955M22.0307 17.3941V19.3994C22.0307 21.4257 20.3843 23.0722 18.3579 23.0722H16.3526M6.67809 23.0722H4.67281C2.64643 23.0722 1 21.4257 1 19.3994V17.3941" stroke="#C7C8CA" stroke-width="1.42743" stroke-linecap="round"/>
</g>
<path fill-rule="evenodd" clip-rule="evenodd" d="M6.07305 4.69463H10.9209V9.64099H6.07305V4.69463ZM18.168 17.0992H19.3923V18.3446H18.168V17.0992ZM15.7898 17.0992H17.0211V18.2812H14.5515V15.896H15.7406V14.6717H16.9578V12.2162H18.2032V13.4264H19.3852V14.6717H18.2032V15.896H15.7898V17.1062V17.0992ZM12.1029 14.6084H13.2991V13.363H12.1452V12.1176H13.2991V10.8723H12.117V12.1176H10.8857V10.8723H12.1029V7.16429H13.3342V10.8653H14.5304V12.1176H15.7124V10.8723H16.9437V12.1176H15.7758V13.3701H14.5444V15.8256H13.3483V18.2953H12.1029V14.6084ZM18.1328 10.8371H19.3641V12.1176H18.1328V10.8371ZM8.47234 10.8371H9.70365V12.1176H8.47234V10.8371ZM6.05899 10.8371H7.29029V12.1176H6.05899V10.8371ZM12.1029 4.6665H13.3483V5.91185H12.1029V4.6665ZM6.04492 13.356H10.8927V18.3023H6.04492V13.356ZM7.22697 14.5521H9.72476V17.0992H7.22697V14.5521ZM14.5304 4.6665H19.3782V9.61282H14.5233V4.6665H14.5304ZM15.7124 5.87668H18.2102V8.41668H15.7124V5.86964V5.87668ZM7.24808 5.88372H9.75291V8.42372H7.24808V5.87668V5.88372Z" fill="#C7C8CA"/>
<path d="M17.3948 1H19.4001C21.4265 1 23.0729 2.64645 23.0729 4.67283V6.67809M7.72731 1.00704H5.72203C3.69565 1.00704 2.04922 2.65345 2.04922 4.67983V6.68513M23.0659 16.3597V18.3649C23.0659 20.3913 21.4194 22.0378 19.3931 22.0378H17.3878M7.71324 22.0378H5.70797C3.68159 22.0378 2.03516 20.3913 2.03516 18.3649V16.3597" stroke="#C7C8CA" stroke-width="1.42743" stroke-linecap="round"/>
</svg>
