<svg width="17" height="17" viewBox="0 0 17 17" fill="none" xmlns="http://www.w3.org/2000/svg">
<g opacity="0.3">
<path d="M6.33752 12.3416C9.28517 12.3416 11.675 9.95178 11.675 7.00413C11.675 4.05649 9.28517 1.66663 6.33752 1.66663C3.38987 1.66663 1 4.05649 1 7.00413C1 9.95178 3.38987 12.3416 6.33752 12.3416Z" stroke="#C7C8CA" stroke-width="0.920573" stroke-linecap="round" stroke-linejoin="round"/>
<path d="M10.1191 10.7827L15.0485 15.7121" stroke="#C7C8CA" stroke-width="0.920573" stroke-linecap="round" stroke-linejoin="round"/>
<path d="M12.1328 12.7949L15.0487 15.7108" stroke="#C7C8CA" stroke-width="0.920573" stroke-linecap="round" stroke-linejoin="round"/>
<path d="M9.80225 6.2915C9.84759 6.52278 9.87482 6.75859 9.87482 7.00347C9.87482 7.37987 9.81587 7.74719 9.70703 8.0873" stroke="#C7C8CA" stroke-width="0.920573" stroke-linecap="round" stroke-linejoin="round"/>
<path d="M2.80859 7.00456C2.80859 6.48306 2.92197 5.99329 3.1215 5.54888C3.67475 4.32447 4.90822 3.47192 6.34123 3.47192" stroke="#C7C8CA" stroke-width="0.920573" stroke-linecap="round" stroke-linejoin="round"/>
</g>
<path d="M7.00353 11.675C9.95118 11.675 12.341 9.28516 12.341 6.33751C12.341 3.38986 9.95118 1 7.00353 1C4.05589 1 1.66602 3.38986 1.66602 6.33751C1.66602 9.28516 4.05589 11.675 7.00353 11.675Z" stroke="#C7C8CA" stroke-width="0.920573" stroke-linecap="round" stroke-linejoin="round"/>
<path d="M10.7852 10.1161L15.7145 15.0455" stroke="#C7C8CA" stroke-width="0.920573" stroke-linecap="round" stroke-linejoin="round"/>
<path d="M12.7988 12.1283L15.7147 15.0442" stroke="#C7C8CA" stroke-width="1.66667" stroke-linecap="round" stroke-linejoin="round"/>
<path d="M10.4683 5.62488C10.5136 5.85615 10.5408 6.09197 10.5408 6.33685C10.5408 6.71324 10.4819 7.08057 10.373 7.42068" stroke="#C7C8CA" stroke-width="0.920573" stroke-linecap="round" stroke-linejoin="round"/>
<path d="M3.47461 6.33794C3.47461 5.81643 3.58798 5.32667 3.78751 4.88225C4.34077 3.65785 5.57423 2.8053 7.00724 2.8053" stroke="#C7C8CA" stroke-width="0.920573" stroke-linecap="round" stroke-linejoin="round"/>
</svg>
