<svg width="38" height="38" viewBox="0 0 38 38" fill="none" xmlns="http://www.w3.org/2000/svg">
<path d="M36.9012 18.5872C36.9012 28.6695 28.7408 36.8419 18.6755 36.8419C8.61019 36.8419 0.449758 28.6695 0.449758 18.5872C0.449758 8.50497 8.61019 0.332571 18.6755 0.332571C28.7408 0.332571 36.9012 8.50497 36.9012 18.5872Z" stroke="#E6E7E8" stroke-width="0.665142"/>
<path d="M16.0802 29.7422V19.2762H13.373V15.5079H16.0802V12.2893C16.0802 9.76013 17.6793 7.4375 21.364 7.4375C22.8559 7.4375 23.9591 7.58371 23.9591 7.58371L23.8722 11.1026C23.8722 11.1026 22.7471 11.0914 21.5194 11.0914C20.1906 11.0914 19.9777 11.7174 19.9777 12.7564V15.5079H23.9778L23.8038 19.2762H19.9777V29.7422H16.0802Z" fill="#3D94FF"/>
</svg>
