<svg width="38" height="38" viewBox="0 0 38 38" fill="none" xmlns="http://www.w3.org/2000/svg">
<path d="M36.7841 18.5872C36.7841 28.6695 28.6236 36.8419 18.5583 36.8419C8.493 36.8419 0.332571 28.6695 0.332571 18.5872C0.332571 8.50497 8.493 0.332571 18.5583 0.332571C28.6236 0.332571 36.7841 8.50497 36.7841 18.5872Z" stroke="#E6E7E8" stroke-width="0.665142"/>
<path d="M29.1628 18.7795C29.1628 18.0614 29.1047 17.3393 28.9807 16.6328H19.0312V20.7011H24.7288C24.4924 22.0132 23.7327 23.1739 22.6203 23.9114V26.5511H26.0195C28.0156 24.7111 29.1628 21.9938 29.1628 18.7795Z" fill="#3D94FF"/>
<path d="M19.0316 29.0988C21.8765 29.0988 24.2757 28.1633 26.0237 26.5484L22.6246 23.9087C21.6789 24.5531 20.458 24.918 19.0355 24.918C16.2836 24.918 13.9503 23.0586 13.1132 20.5586H9.60547V23.2798C11.3961 26.8473 15.0433 29.0988 19.0316 29.0988Z" fill="#34A853"/>
<path d="M13.1103 20.5592C12.6684 19.2471 12.6684 17.8263 13.1103 16.5142V13.793H9.60645C8.11035 16.7782 8.11035 20.2952 9.60645 23.2804L13.1103 20.5592Z" fill="#FFA900"/>
<path d="M19.0316 12.1503C20.5355 12.127 21.9889 12.6938 23.0781 13.7341L26.0896 10.7179C24.1827 8.92442 21.6517 7.93841 19.0316 7.96946C15.0433 7.96946 11.3961 10.221 9.60547 13.7924L13.1093 16.5136C13.9426 14.0097 16.2798 12.1503 19.0316 12.1503Z" fill="#FF0000"/>
</svg>
