<svg width="38" height="38" viewBox="0 0 38 38" fill="none" xmlns="http://www.w3.org/2000/svg">
<path d="M36.7841 18.5872C36.7841 28.6695 28.6236 36.8419 18.5583 36.8419C8.493 36.8419 0.332571 28.6695 0.332571 18.5872C0.332571 8.50497 8.493 0.332571 18.5583 0.332571C28.6236 0.332571 36.7841 8.50497 36.7841 18.5872Z" stroke="#E6E7E8" stroke-width="0.665142"/>
<g opacity="0.3">
<path fill-rule="evenodd" clip-rule="evenodd" d="M12.3402 12.971H16.7747V17.4957H12.3402V12.971ZM23.404 24.3181H24.5239V25.4573H23.404V24.3181ZM21.2286 24.3181H22.3549V25.3994H20.0958V23.2175H21.1835V22.0976H22.297V19.8514H23.4362V20.9584H24.5175V22.0976H23.4362V23.2175H21.2286V24.3245V24.3181ZM17.856 22.0397H18.9502V20.9005H17.8946V19.7612H18.9502V18.6221H17.8689V19.7612H16.7426V18.6221H17.856V15.2302H18.9824V18.6156H20.0765V19.7612H21.1578V18.6221H22.2841V19.7612H21.2157V20.9069H20.0894V23.1531H18.9952V25.4122H17.856V22.0397ZM23.3719 18.5898H24.4982V19.7612H23.3719V18.5898ZM14.5349 18.5898H15.6613V19.7612H14.5349V18.5898ZM12.3273 18.5898H13.4537V19.7612H12.3273V18.5898ZM17.856 12.9453H18.9952V14.0845H17.856V12.9453ZM12.3145 20.894H16.749V25.4187H12.3145V20.894ZM13.3957 21.9882H15.6806V24.3181H13.3957V21.9882ZM20.0765 12.9453H24.5111V17.4699H20.0701V12.9453H20.0765ZM21.1578 14.0523H23.4426V16.3758H21.1578V14.0459V14.0523ZM13.415 14.0588H15.7063V16.3822H13.415V14.0523V14.0588Z" fill="#0A66C2"/>
<path d="M22.6967 9.58984H24.531C26.3847 9.58984 27.8907 11.0959 27.8907 12.9496V14.7839M13.8534 9.59629H12.0191C10.1654 9.59629 8.65935 11.1023 8.65935 12.956V14.7903M27.8843 23.6401V25.4744C27.8843 27.328 26.3782 28.8341 24.5246 28.8341H22.6903M13.8405 28.8341H12.0062C10.1526 28.8341 8.64648 27.328 8.64648 25.4744V23.6401" stroke="#0A66C2" stroke-width="1.30574" stroke-linecap="round"/>
</g>
<path fill-rule="evenodd" clip-rule="evenodd" d="M13.1332 12.0257H17.5677V16.5504H13.1332V12.0257ZM24.197 23.3728H25.3169V24.512H24.197V23.3728ZM22.0216 23.3728H23.1479V24.454H20.8888V22.2722H21.9765V21.1523H23.09V18.906H24.2292V20.0131H25.3105V21.1523H24.2292V22.2722H22.0216V23.3792V23.3728ZM18.649 21.0944H19.7432V19.9551H18.6876V18.8159H19.7432V17.6767H18.6619V18.8159H17.5355V17.6767H18.649V14.2848H19.7753V17.6703H20.8695V18.8159H21.9508V17.6767H23.0771V18.8159H22.0087V19.9616H20.8824V22.2078H19.7882V24.4669H18.649V21.0944ZM24.1648 17.6445H25.2912V18.8159H24.1648V17.6445ZM15.3279 17.6445H16.4542V18.8159H15.3279V17.6445ZM13.1203 17.6445H14.2466V18.8159H13.1203V17.6445ZM18.649 12H19.7882V13.1392H18.649V12ZM13.1074 19.9487H17.542V24.4734H13.1074V19.9487ZM14.1887 21.0429H16.4735V23.3728H14.1887V21.0429ZM20.8695 12H25.304V16.5246H20.863V12H20.8695ZM21.9508 13.107H24.2356V15.4305H21.9508V13.1006V13.107ZM14.208 13.1135H16.4993V15.4369H14.208V13.107V13.1135Z" fill="#0A66C2"/>
<path d="M23.4897 8.64453H25.324C27.1776 8.64453 28.6837 10.1506 28.6837 12.0043V13.8386M14.6463 8.65097H12.812C10.9584 8.65097 9.45232 10.157 9.45232 12.0107V13.845M28.6773 22.6948V24.5291C28.6773 26.3827 27.1712 27.8888 25.3176 27.8888H23.4833M14.6335 27.8888H12.7992C10.9455 27.8888 9.43945 26.3827 9.43945 24.5291V22.6948" stroke="#0A66C2" stroke-width="1.30574" stroke-linecap="round"/>
</svg>
